<svg width="62" height="64" viewBox="0 0 62 64" fill="none" xmlns="http://www.w3.org/2000/svg">
<path d="M40.4424 25.6216C45.3092 26.0209 49.7182 20.6134 50.2912 13.5445C50.8643 6.47498 47.3831 0.420038 42.5171 0.0207539C37.6503 -0.378529 33.2406 5.02894 32.6676 12.0985C32.0952 19.1681 35.5757 25.2223 40.4424 25.6216Z" fill="#23384E"/>
<path d="M58.5208 20.8659C54.9671 19.2439 50.2005 22.1148 47.8741 27.277C45.5484 32.4392 46.5437 37.9379 50.0967 39.5592C53.6505 41.1811 58.4171 38.3102 60.7435 33.148C63.0691 27.9858 62.0739 22.4871 58.5208 20.8659Z" fill="#23384E"/>
<path d="M21.7191 25.6078C26.58 25.1464 29.9844 19.0477 29.3228 11.9862C28.6605 4.92463 24.1833 -0.425905 19.3224 0.0354233C14.4607 0.496752 11.0571 6.59476 11.7187 13.657C12.381 20.7186 16.8582 26.0691 21.7191 25.6078Z" fill="#23384E"/>
<path d="M14.1256 27.277C11.7992 22.1148 7.0333 19.2439 3.47955 20.8659C-0.0742076 22.4871 -1.06945 27.9858 1.25692 33.148C3.58329 38.3102 8.34919 41.1811 11.9029 39.5592C15.4567 37.9379 16.452 32.4392 14.1256 27.277Z" fill="#23384E"/>
<path d="M41.9447 38.5738C38.6499 33.5196 33.995 33.0576 32.3657 33.062C31.9711 33.0634 31.5772 33.0634 31.1833 33.062C29.5533 33.0576 24.8984 33.5196 21.6036 38.5738C18.4619 43.3937 13.7642 50.7435 11.807 53.8093C10.7958 55.3941 10.3983 57.3087 10.7509 59.1591C11.1861 61.4468 12.7951 63.9016 17.6676 63.9972C20.1267 64.0454 22.5575 63.46 24.7468 62.3322C26.2832 61.5402 28.5798 60.5986 30.7648 60.6263C31.4379 60.6351 32.1104 60.6351 32.7836 60.6263C34.9692 60.5986 37.2651 61.5402 38.8022 62.3322C40.9908 63.46 43.4223 64.0454 45.8807 63.9972C50.7533 63.9016 52.3622 61.4468 52.7975 59.1591C53.15 57.3087 52.7525 55.3941 51.7413 53.8093C49.7849 50.7435 45.0864 43.3937 41.9447 38.5738Z" fill="#23384E"/>
</svg>
