<svg width="85" height="64" viewBox="0 0 85 64" fill="none" xmlns="http://www.w3.org/2000/svg">
<path d="M33.0344 38.0632L35.9434 35.1747C46.7318 25.6581 53.7854 19.2424 53.7854 11.373C53.7854 4.97029 48.7991 -3.05176e-05 42.3772 -3.05176e-05C38.8405 -3.05176e-05 35.3157 1.65747 33.0344 4.34442C30.7551 1.65747 27.2303 -3.05176e-05 23.6936 -3.05176e-05C17.2717 -3.05176e-05 12.2854 4.97029 12.2854 11.373C12.2854 19.2424 19.339 25.6581 30.1274 35.1747L33.0344 38.0632Z" fill="#23384E"/>
<path d="M5.91278e-05 37.5959C0.770374 38.4308 1.68921 39.1527 2.52884 39.9126C3.54074 40.8301 4.57838 41.7174 5.62989 42.5907C7.57845 44.2146 9.57058 45.7882 11.529 47.4019C11.9152 46.4226 12.7449 45.5862 13.6103 45.0138C14.9252 44.1437 16.5113 43.6969 18.1074 43.4647C17.1232 42.1901 15.4697 41.6631 14.044 41.0339C12.3825 40.302 11.0538 39.1491 9.63198 38.0482C8.22996 36.9633 6.70715 35.982 4.89126 35.8499C3.19419 35.7269 1.10702 36.2132 5.91278e-05 37.5959Z" fill="#23384E"/>
<path d="M2.11098 34.1609C2.24365 34.5769 2.5486 34.9576 2.79613 35.31C3.27337 35.2144 3.75853 35.1585 4.23378 35.1319C6.24175 35.0172 8.03586 35.9748 9.59827 37.1292C11.1666 38.2866 12.5686 39.6076 14.3726 40.4029C16.0479 41.1407 17.842 41.7587 18.8995 43.3509L18.9074 43.3645C19.4322 43.3102 19.953 43.2753 20.4599 43.2524C20.6342 43.2447 20.8065 43.2387 20.9807 43.2344C19.7945 41.9502 18.3094 40.9927 16.8262 40.0746C15.1885 39.0593 13.6241 38.0094 12.1211 36.8034C10.6161 35.5949 9.07549 34.3269 7.24178 33.6501C5.61996 33.0519 3.42388 32.8546 2.11098 34.1609Z" fill="#23384E"/>
<path d="M8.11094 33.22C9.51691 33.8429 10.7783 34.8244 11.9605 35.7644C12.7427 36.3863 13.513 37.0229 14.3249 37.6103C15.1745 38.2267 16.0755 38.771 16.9686 39.3221C18.7587 40.4252 20.5805 41.576 21.9172 43.2258C23.2321 43.2353 24.547 43.3232 25.8599 43.4209C24.6935 42.2574 23.3251 41.3148 21.9905 40.3521C20.4577 39.248 19.0934 38.0134 17.7151 36.7273C16.3725 35.4758 14.9448 34.2657 13.212 33.5954C11.6278 32.9825 9.7882 32.8534 8.11094 33.22Z" fill="#23384E"/>
<path d="M30.1136 51.3673C30.1987 51.3545 30.2799 51.3513 30.3235 51.3316C30.7928 51.2887 31.2641 51.253 31.7354 51.2253L32.9136 51.1691C32.9315 51.1576 33.0839 51.1835 33.0978 51.17C33.7354 51.1556 34.3731 51.1592 35.0087 51.1843L35.684 51.2208C36.2701 51.2601 36.8583 51.3183 37.4405 51.4005C40.0841 51.7736 42.597 52.58 44.9892 53.7551C45.403 53.9589 45.7674 53.3427 45.3515 53.1389C42.6921 51.8317 39.8801 50.9477 36.9276 50.6218C34.676 50.3734 32.4087 50.4198 30.1571 50.6306C30.1155 50.6324 30.074 50.636 30.0304 50.6421C29.6997 50.6745 29.369 50.71 29.0363 50.7485C26.8264 51.0066 24.6382 51.421 22.4203 51.6165C20.1866 51.8137 17.8301 51.8646 15.6835 51.1227C14.0122 50.545 11.5567 49.7481 12.0973 47.6148C12.6201 45.5519 14.9053 45.1229 16.7727 44.5953C19.2638 43.8917 21.8738 43.8524 24.4441 43.9209C26.9986 43.9908 29.5591 43.5248 32.1116 43.4597C34.5176 43.3981 36.9652 42.4509 39.0781 41.2355C39.1039 41.2258 39.1296 41.2124 39.1573 41.1944L39.191 41.1704L39.2009 41.1642L39.2247 41.148C42.7039 38.7577 46.4565 35.6608 50.8784 35.5232C53.2072 35.4508 55.4587 36.0794 57.7221 36.5394C58.8311 36.7653 59.9776 36.9931 61.1123 37.0162C62.243 37.0393 63.3718 37.0206 64.5005 37.0145C67.1342 36.9993 69.7482 37.1404 72.2314 38.0941C74.6017 39.0041 76.8691 40.1828 78.9484 41.6383C81.0336 43.0974 82.8118 44.8548 84.6475 46.6007C84.7644 46.7123 84.8812 46.8238 85 46.9346L75.376 61.2687C74.8017 60.8507 74.2057 60.4659 73.5819 60.1257C71.3284 58.896 68.8986 58.3219 66.3303 58.3584C63.7223 58.3951 61.1084 58.8585 58.5736 59.4354C55.7359 60.0819 52.9339 60.8615 50.122 61.6007C47.3239 62.3348 44.508 63.0448 41.6564 63.5234C38.892 63.986 35.9375 64.2593 33.175 63.6395C33.1473 63.6332 33.1215 63.6306 33.0958 63.6296C30.4779 62.0669 28.3016 59.9168 26.1471 57.786C25.0738 56.7234 23.9986 55.657 22.8619 54.6606C21.9886 53.8945 21.0836 53.0917 20.0856 52.4674C22.8401 52.4631 25.6224 51.9067 28.3511 51.5487L30.1136 51.3673Z" fill="#23384E"/>
</svg>
