<?xml version="1.0" encoding="UTF-8"?>
<svg xmlns="http://www.w3.org/2000/svg" viewBox="0 0 576.11 576.11">
  <defs>
    <style>
      .cls-1 {
        fill: #af4e98;
      }

      .cls-2 {
        fill: #b54d97;
      }

      .cls-3 {
        fill: #bc4a95;
      }

      .cls-4 {
        fill: #c64693;
      }

      .cls-5 {
        fill: #b14e98;
      }

      .cls-6 {
        fill: #a8519a;
      }

      .cls-7, .cls-8 {
        fill: none;
        stroke: #c64693;
        stroke-miterlimit: 10;
      }

      .cls-8 {
        stroke-width: 3px;
      }

      .cls-9 {
        fill: #a7519a;
      }

      .cls-10 {
        fill: #ad5099;
      }

      .cls-11 {
        fill: #a6529a;
      }

      .cls-12 {
        fill: #c24794;
      }

      .cls-13 {
        fill: #aa5199;
      }

      .cls-14 {
        fill: #ac4f98;
      }

      .cls-15 {
        fill: #ae4f98;
      }

      .cls-16 {
        fill: #ab5099;
      }

      .cls-17 {
        fill: #bf4994;
      }

      .cls-18 {
        fill: #aa5099;
      }

      .cls-19 {
        fill: #b84c96;
      }

      .cls-20 {
        fill: #b04e98;
      }

      .cls-21 {
        fill: #a95099;
      }
    </style>
  </defs>
  <g id="Calque_2" data-name="Calque 2">
    <g>
      <path class="cls-4" d="M151.27,251.75c-3.58-1.99-7.07-4.18-10.37-6.64-3.22-2.56-6.74-5.11-8.34-9.09-.9-3.76-1.4-7.58-1.84-11.39-.7-7.54-1.63-15.21-6.12-21.52-2.08-3.13-4.69-6.14-6.21-9.84-2.65-8.63-4.53-17.35-6.12-26.17-2.25-13.23-3.86-26.79-2.41-40.23.95-7.78,3.18-16.42,9.67-21.51,2.85-2.15,6.57-3.67,10.13-2.66,15.06,4.03,34.85,27.69,45.22,39.64,11.5,13.67,22.33,27.89,32.58,42.52-10.73-14.27-21.88-28.21-33.54-41.7-10.09-11.24-30.52-34.96-44.65-38.65-2.05-.52-4.06-.23-5.89.73-8.03,3.86-10.48,13.62-11.55,21.86-1.87,17.66,1.1,35.51,4.77,52.79.95,4.24,2.05,8.93,3.22,12.85,1.37,3.45,3.81,6.38,5.92,9.64,4.49,6.48,5.42,14.54,5.98,22.15.34,3.77.77,7.7,1.53,11.29,1.39,3.75,4.89,6.47,7.91,8.99,3.23,2.51,6.61,4.84,10.14,6.94h0Z"/>
      <path class="cls-12" d="M152.46,249.28c-5.79-3.31-11.79-6.85-15.91-12.22-1.05-1.51-1.54-3.32-1.89-5.03-1.83-8.22-1.38-16.93-4.36-24.86-1.86-5.41-6.2-9.39-8.05-14.89-4.84-16.33-7.8-33.2-8.26-50.24-.11-12.64,1.43-32.49,16.53-35.72,11.22-.73,27.79,17.2,35.24,25,15.32,16.67,29.13,34.6,42.09,53.08-13.61-17.97-27.71-35.66-43.21-52.02-7.23-7.23-23.96-25.29-34.38-24.14-13.29,3.82-14.3,22.2-14.37,33.78.33,16.81,3.33,33.6,7.81,49.78,1.71,5.31,6.04,9.53,7.77,14.93,2.91,8.1,2.34,16.81,3.91,25.14.36,2.09.92,4.06,2.28,5.68,3.97,4.91,9.46,8.42,14.79,11.73h0Z"/>
      <path class="cls-17" d="M153.65,246.81c-2.35-1.29-4.63-2.71-6.83-4.24-3.22-2.37-6.64-4.91-8.46-8.6-1.39-3.8-1.81-7.92-2.34-11.9-1-7.85-1.52-16.05-5.99-22.83-4.5-6.76-5.86-15.17-7.59-22.97-2.99-15.82-5.44-32.23-2.24-48.23,1.59-7.33,5.64-15.24,13.31-17.55,7.97-1.96,17.74,6.97,23.36,11.74,19.67,18.28,35.94,39.91,51.4,61.72-16.22-21.18-32.79-42.41-52.55-60.43-3.99-3.51-8.16-6.86-12.76-9.33-2.29-1.18-4.77-2.19-7.18-2.15-13.47,2.04-15.13,21.2-15.15,32.18.05,10.64,1.48,21.27,3.51,31.71,1.73,7.76,2.74,15.77,7.1,22.61,5.87,9.34,4.86,20.89,6.77,31.35.39,2.61,1.2,5.14,3.08,7.09,3.54,3.98,8.04,7.05,12.56,9.83h0Z"/>
      <path class="cls-3" d="M154.84,244.35c-4.39-2.49-8.72-5.31-12.08-9.21-1.74-1.96-2.39-4.57-2.89-7.08-.77-3.57-1.21-7.66-1.71-11.3-.6-3.71-.8-7.59-1.67-11.22-1.03-4.87-4.28-8.89-6.01-13.88-1.54-4.91-2.67-9.85-3.67-14.85-2.88-15.73-5.94-36.03,0-51.25,1.25-3.02,3.1-5.97,5.64-8.08,0,0,.76-.66.76-.66.42-.26,1.27-.83,1.7-1.09,0,0,.43-.27.43-.27l.46-.2c1.12-.51,2.71-1.21,3.97-1.2,7.59.03,14.72,6.5,20.21,11.07,18.72,17.2,34.11,37.71,48.71,58.37-12.23-16.13-24.9-32.01-38.93-46.6-6.85-6.73-20.12-20.9-29.89-20.97-.48-.03-1.14.21-1.61.31,0,0-1.63.72-1.63.72-.46.17-1.11.64-1.53.9,0,0-.75.48-.75.48l-.67.59c-1.35,1.07-2.52,2.66-3.44,4.12-6.18,11.04-5.2,26.18-4.03,38.46,1.15,10,3.03,20,5.72,29.66.75,2.31,1.93,4.55,3.06,6.82,2.5,4.49,3.39,9.79,3.77,14.84.83,6.22,1.06,12.64,2.65,18.73,1.2,3.56,4.34,6.1,7.17,8.45,1.99,1.56,4.07,3.01,6.24,4.32h0Z"/>
      <path class="cls-19" d="M156.03,241.88c-4.59-2.71-9.44-5.78-12.09-10.58-1.88-5.03-2.33-10.62-3.17-15.9-.49-3.54-.48-7.19-1.09-10.68-.69-4.64-3.39-8.64-5.06-13.29-1.46-4.64-2.51-9.31-3.44-14.03-2.68-14.97-5.42-33.95.37-48.39,2.11-5.16,6.47-10.04,12.19-11.03,9.92-.64,23.06,13.31,29.67,20.07,13.11,14.03,24.8,29.25,35.7,44.98-11.54-15.22-23.52-30.2-36.81-43.92-6.43-6.25-19.15-19.72-28.35-19.28-5.02,1-8.72,5.34-10.59,9.95-4.14,10.45-3.56,22.13-2.56,33.16,1.03,9.44,2.76,18.89,5.28,28,1.45,4.37,4.18,8.61,4.84,13.56.55,3.6.47,7.17.89,10.75.72,5.22.96,10.78,2.65,15.79,2.46,4.76,7.17,7.95,11.56,10.82h0Z"/>
      <path class="cls-2" d="M157.22,239.41c-3.87-2.28-7.72-4.94-10.15-8.84-1.97-4.1-2.39-8.76-3.19-13.19-.92-4.47-.5-9.1-.95-13.47-.35-4.39-2.55-8.33-4.14-12.64-4.59-15.81-8.08-37.73-4.21-53.84,1.41-5.63,4.41-11.29,9.67-14.18,1.13-.51,2.16-1.09,3.42-1.3,2.57-.43,4.95.34,7.08,1.25,8.34,4.01,14.83,10.57,21.17,17.07,12.39,13.16,23.39,27.49,33.6,42.32-5.42-7.19-10.97-14.28-16.75-21.17-8.61-10.34-17.55-20.49-27.78-29.22-3.42-2.84-7.01-5.56-10.98-7.32-3.02-1.39-6.07-1.68-8.87.04-4.75,2.68-7.36,7.86-8.64,13.03-3.91,16.15-.47,36.89,3.73,52.84,1.41,4.13,3.65,8.32,3.94,13.01.36,4.59-.13,9.04.66,13.46.64,4.38.92,8.99,2.69,13.06,2.24,3.85,5.99,6.68,9.69,9.09h0Z"/>
      <path class="cls-5" d="M158.41,236.94c-3.6-2.17-7.18-4.83-9.07-8.73-1.4-4.06-2.22-8.21-2.89-12.39-.73-4.21-.07-8.5-.22-12.7-.04-4.12-1.76-7.97-3.25-11.94-4.66-15.65-10.5-49.73,2.74-61.89,0,0,1.29-1.08,1.29-1.08.81-.51,2.02-1.33,2.93-1.64,2.6-1.4,5.91-.85,8.36.18,18.16,8.28,39.96,38.77,51.64,55.39-12.8-16.64-25.86-33.43-41.9-47.08-4.39-3.37-10.32-8.33-16.02-7.3-1.75.63-3.63,1.56-5.02,2.95-12.36,11.98-6.72,44.69-2.58,59.97,1.4,3.97,3.13,8.1,3.07,12.43.05,4.22-.67,8.42-.08,12.58.51,4.16,1.2,8.36,2.41,12.33,1.69,3.82,5.17,6.64,8.58,8.93h0Z"/>
      <path class="cls-10" d="M159.61,234.47c-3.33-2.06-6.58-4.81-7.87-8.67-1.13-3.79-2.16-7.61-2.7-11.58-.33-4,.39-7.92.57-11.87.25-3.81-1.03-7.56-2.4-11.19-4.71-15.47-11.09-53.91,8.21-61.15,15.55-4.63,46.62,39.58,54.96,51.67-4.75-6.29-9.62-12.5-14.7-18.51-7.57-9.01-15.45-17.86-24.6-25.27-4.09-3.02-9.73-7.6-15.02-6.14-1.7.69-3.31,1.64-4.66,2.91-11.51,11.58-6.72,41.41-2.75,55.95,1.33,3.76,2.59,7.75,2.23,11.81-.28,3.96-1.05,7.87-.85,11.71.37,3.87,1.25,7.72,2.24,11.52,1.1,3.75,4.22,6.63,7.36,8.81h0Z"/>
      <path class="cls-13" d="M160.8,232.01c-3.1-1.95-5.73-4.97-6.59-8.59-1.02-3.5-2.33-6.99-2.45-10.81.04-3.75.78-7.37,1.27-10.99.51-3.49-.37-7.08-1.59-10.43-2.37-7.1-3.37-14.39-4.08-21.79-.57-7.4-.59-14.95,1.45-22.18,1.77-6.29,6.42-13.15,13.46-13.75,15.65.76,39.75,35.05,48.51,47.75-4.42-5.85-8.95-11.62-13.7-17.19-7.06-8.35-14.42-16.56-23.05-23.28-3.89-2.76-9.25-6.85-14.04-4.89-1.61.63-3,1.67-4.26,2.83-10.64,11-6.71,38.3-2.86,51.98,1.19,3.55,2.03,7.37,1.39,11.14-.88,5.41-2.34,10.76-.9,16.15.68,2.61,1.19,5.37,2.17,7.9,1.15,2.47,3.04,4.57,5.26,6.16h0Z"/>
      <path class="cls-11" d="M161.99,229.54c-2.26-1.69-3.91-4.15-4.81-6.83-.34-1.34-.74-2.66-1.23-3.95-2.75-5.98-.57-12.5.69-18.53.54-3.28,0-6.78-1.26-9.82-3.55-12.84-6.23-33.22.47-45.25,2.58-4.46,7.77-8.92,13.26-7.55,14.4,3.81,33.69,30.7,42.1,43.15-7.6-9.8-33.21-43.83-45.82-41.39-16.46,6.05-11.91,37.1-8.53,50.56,1.21,3.09,1.74,7.09,1.04,10.55-1.04,4.63-2.75,9.33-2.33,14.11.17,1.36.53,2.64.98,3.96.43,1.3.81,2.75,1.07,4.03.78,2.65,2.25,5.16,4.38,6.96h0Z"/>
      <path class="cls-9" d="M161.72,227.46c-2.57-2.02-3.98-5.08-4.78-8.18-1.03-2.96-2.11-6.22-1.64-9.52.37-3.23,1.18-6.36,2.05-9.44.85-3,1.2-6.16.62-9.15-3.2-13.68-7.63-40.6,6.5-49.33,0,0,.54-.33.54-.33l.58-.27c1.54-.83,3.41-1.2,5.14-.95,14.54,2.59,33.31,26.99,42.08,38.66-6.94-8.18-35.92-43.33-46.9-35.8-13.51,8.02-9.13,34.62-6.43,47.75.54,3.33.05,6.67-.92,9.78-.96,3.03-1.83,6.09-2.29,9.2-.59,3.1.27,6.18,1.17,9.25.67,3.11,1.86,6.15,4.28,8.33h0Z"/>
      <path class="cls-6" d="M162.6,225.38c-2.23-2.09-3.49-4.99-4.24-7.89-.71-2.16-1.31-4.4-1.38-6.71.07-5.34,2.26-10.4,3.99-15.32,1.39-4.31-.51-8.67-.95-13.02-1.7-12.3-3.53-32.67,10.22-38.76,12.83-4.91,37.73,24.1,45.34,33.47-8.76-9.26-29.2-31.16-41.7-32.17-2.73-.13-5.32,1.51-7.2,3.42-7.59,8.37-6.14,23.24-4.92,33.8.44,4.5,2.21,9.2.6,13.69-1.85,4.9-4.16,9.63-4.5,14.92-.04,2.2.43,4.41,1.02,6.55.64,2.95,1.66,5.78,3.74,8.03h0Z"/>
      <path class="cls-21" d="M163.49,223.31c-2.77-3.3-3.98-7.63-4.58-11.82-.51-3.61.64-7.22,1.85-10.58,1.34-3.55,4.6-6.31,4.27-10.33-.04-.6-.32-2.41-.43-3.05-1.9-12.46-4.89-34.3,9.08-40.83,12.18-5.33,36.81,20.03,44.65,28.63-8.95-8.34-29.03-27.36-41.16-27.53-15.52,2.63-12.55,27.96-10.92,39.49.11.79.34,2.47.36,3.27,0,1.9-.52,3.82-1.44,5.44-1.08,1.94-2.51,3.37-3.28,5.37-1.27,3.18-2.53,6.57-2.24,10.04.38,4.17,1.37,8.44,3.83,11.89h0Z"/>
      <path class="cls-18" d="M164.38,221.25c-4.16-6.38-5.12-14.44-1.43-21.25.88-1.85,2.82-3.1,3.94-4.64.97-1.23,1.56-2.66,1.72-4.2.14-.92-.07-1.83-.17-2.78,0,0-.53-3.97-.53-3.97-1.41-11.76-2.88-30.91,11.27-35.4,12.5-2.1,33.12,16.22,41.93,24.54-8.4-6.75-31.68-25.86-42.33-22.42-12.75,5.41-9.88,25.81-8.67,37.05.09,1.02.28,2.14.08,3.19-.23,1.78-1.02,3.52-2.16,4.88-1.27,1.65-3.01,2.56-3.98,4.31-3.85,6.51-3.2,14.19.34,20.68h0Z"/>
      <path class="cls-16" d="M165.27,219.19c-3.29-6.34-4.34-14.04.08-20.13,1.33-1.44,3.19-2.2,4.49-3.52,1.29-1.2,2.11-2.77,2.4-4.49.22-1.09-.35-4.24-.41-5.39-1.21-11.32-2.57-28.83,10.62-33.6,11.67-2.92,32.48,12.51,41.43,19.7-9.21-6.14-29.54-20.04-40.48-18-12.18,4.09-10.68,21.32-9.83,31.72.2,2.59.85,5.36-.35,7.83-1.19,3.22-4.53,4.6-6.94,6.55-4.44,5.8-3.63,12.93-1,19.32h0Z"/>
      <path class="cls-14" d="M166.17,217.15c-.59-2.11-1.67-4.76-1.93-6.92-.11-2.42-.27-4.93.69-7.22.74-1.71,1.5-3.62,3.15-4.68,2.51-1.36,5.39-2.31,6.84-4.91.42-.66.73-1.5.93-2.26.27-1.33-.06-2.71-.14-4.14-.88-10.22-2.2-24.12,7.51-30.65,5.49-3.53,12.36-1.41,18.01.44,9.07,3.25,17.45,7.96,25.41,13.18-8.32-4.53-16.9-8.77-25.9-11.7-4.79-1.35-10.3-3.11-15.03-1.08-10.24,4.97-8.88,20-8.25,29.66.04,1.49.42,3.2-.03,4.74-.28.89-.67,1.86-1.19,2.63-1.64,2.78-4.8,3.91-7.54,5.15-1.4.84-2.15,2.55-2.86,3.99-1.06,2.13-1.01,4.51-1.07,6.82.11,2.05,1.03,4.89,1.4,6.95h0Z"/>
      <path class="cls-15" d="M167.14,215.14c-.15-2.33-1.24-4.43-1.19-6.71.06-2.3,0-4.7,1.22-6.76.78-1.51,2.07-3.28,3.84-3.7,2.53-.8,5.35-1.75,6.97-3.82.72-.91,1.27-1.96,1.65-3.07.15-.84.04-1.75,0-2.63-1.84-18.76,1.06-36.06,24.5-29.91,8.88,2.15,17.28,5.66,25.36,9.71-8.35-3.31-16.9-6.35-25.69-8.18-6.1-1.17-13.65-2.32-18.13,2.97-6.1,7.48-4.39,18.02-4.26,27.07.03,1.89-1.1,3.62-2.25,5.06-2.05,2.36-4.97,3.24-7.77,3.97-1.66.36-2.49,1.63-3.37,3.01-1.29,1.88-1.33,4.14-1.55,6.33-.19,1.1.12,2.14.36,3.28.17,1.13.23,2.26.31,3.38h0Z"/>
      <path class="cls-1" d="M168.14,213.2c.05-1.68-.07-3.17-.48-4.79.03-1,.25-3.94.45-4.9.53-1.94,1.7-3.69,3.37-4.83,3.18-1.27,6.91-1.23,9.42-3.79,1.09-.96,1.91-2.33,2.48-3.64.07-.25.12-.81.11-1.31-.23-8.46-1.36-18.46,4.78-25.37,4.74-5.31,12.55-4.83,18.97-4.11,8.62,1.07,16.98,3.33,25.13,6.11-8.32-2.02-16.77-3.78-25.29-4.56-4.11-.3-8.51-.53-12.44.67-10.86,4.04-9.44,17.74-9.4,27.29-.03,3.48-3.16,6.58-6.23,7.88-2,.92-4.3,1.1-6.35,1.55-.5.14-.78.25-1.2.62-1.17.97-2.14,2.23-2.62,3.68-.35,1-.28,2.1-.53,3.13-.11.54-.25,1.04-.23,1.54.32,1.55.25,3.24.06,4.82h0Z"/>
      <path class="cls-20" d="M169.33,211.47c.07-.85.32-2.12.42-2.99-.16-.49-.29-1.04-.21-1.6.26-1.08.44-1.92.47-3.04.22-2.08,1.7-3.8,3.43-4.87,1.61-.76,3.43-.63,5.09-1.03,3.68-.6,6.93-2.65,8.64-5.96.52-.91.3-2.15.35-3.35-.38-9.01.38-21.44,10.76-24.54,3-1,6.29-1.19,9.39-1.38,9.32-.26,18.65.8,27.77,2.41-8.19-.65-16.42-1.14-24.62-.9-5.84.39-12.43.31-16.75,4.62-4.86,5.21-4.64,13.01-4.72,19.79-.08,1.38.13,2.93-.66,4.2,0,0-.43.7-.43.7-2.61,4.35-7.85,5.88-12.6,6.01-.75.08-1.39.12-1.99.52-1.03.62-1.98,1.45-2.53,2.52-.52.89-.5,1.88-.73,2.89-.28,1.02-.71,1.87-.35,2.92-.15,1.05-.52,2.04-.71,3.08h0Z"/>
    </g>
  </g>
  <g id="Calque_3" data-name="Calque 3">
    <g>
      <path class="cls-4" d="M164.78,223.33c1.11,5.58,2.15,11.16,3.44,16.67.63,2.71,1.26,5.42,2.63,7.84,5.55,10.77,17.32,24.5,29.24,27.92,7.99,1.99,16.99.81,25.27,2.53,10,1.95,19.2,8.7,23.78,17.8,1.75,3.96,2.43,8.31,2.58,12.58-.62-4.18-1.66-8.33-3.62-12.06-4.98-8.24-13.78-14.12-23.22-15.73-8.48-1.45-16.87-.14-25.52-2.21-13-3.79-24.83-18.01-30.28-29.99-1.28-2.64-1.83-5.54-2.3-8.39-.9-5.64-1.55-11.28-2-16.96h0Z"/>
      <path class="cls-4" d="M171.85,217.46c1.25,7.77,1.89,15.72,4.36,23.19,5.08,11.52,15.69,24.81,27.46,29.78,7.47,2.77,16.39,2.02,24.27,4.29,8.24,2.26,15.6,7.65,20.32,14.73,3.13,4.75,4.05,10.52,4.32,16.06-.89-5.33-2.2-10.89-5.52-15.22-4.88-6.38-11.98-11.09-19.77-13.03-8.14-2.03-16.41-1.08-24.65-4.03-12.74-5.45-23.38-19.24-28.18-31.9-2.14-7.75-2.24-15.92-2.6-23.88h0Z"/>
      <path class="cls-4" d="M178.92,211.59c.83,7.89,1.1,16.17,3.56,23.69,4.93,11.69,13.73,23.4,24.89,29.68,6.88,3.56,15.7,3.34,23.14,6.19,7.79,2.89,14.69,8.33,19.03,15.43,2.8,4.79,3.59,10.35,3.89,15.77-.93-5.18-2.12-10.62-5.14-14.98-6.07-8.65-15.93-14.08-26.31-15.57-5.37-.96-10.97-1.61-15.98-4.18-9.71-5.43-16.96-14.41-22.12-24.11-1.26-2.44-2.34-4.97-3.24-7.56-2.14-8-1.83-16.21-1.73-24.37h0Z"/>
      <path class="cls-4" d="M185.99,205.71c.33,7.77.33,15.8,2.44,23.27,4.43,11.88,12.34,23.12,22.76,30.38,6.54,4.4,14.81,4.73,21.86,8.19,7.29,3.53,13.75,9.02,17.7,16.13,2.5,4.82,3.2,10.19,3.53,15.49-.95-5.05-2.08-10.37-4.8-14.74-5.64-8.61-14.88-14.48-24.8-16.92-5.13-1.36-10.6-2.59-15.14-5.64-8.94-6.21-15.58-15.06-20.15-24.8-4.99-9.66-4.27-20.89-3.41-31.37h0Z"/>
      <path class="cls-4" d="M193.06,199.84c-.12,8.22-.6,16.75,1.92,24.62,4.14,11.14,11,21.66,20.17,29.24,5.9,5.05,13.85,6.22,20.42,10.26,6.73,4.16,12.74,9.71,16.35,16.83,2.2,4.77,2.88,10.05,3.23,15.23-.96-4.95-2.07-10.14-4.52-14.53-3.85-6.49-9.92-11.5-16.37-15.25-6.75-3.76-14.94-5.03-20.98-10.2-9.64-8.05-16.52-19.02-20.26-30.93-2.16-8.26-1.12-16.97.05-25.27h0Z"/>
      <path class="cls-4" d="M200.14,193.97c-.67,7.48-1.17,15.12.35,22.46,3.37,11.84,10.06,22.94,18.79,31.58,5.3,5.54,12.75,7.71,18.8,12.31,8.05,6.25,15.59,14.51,17.05,24.96.45,2.51.75,5.03.89,7.57-.46-2.49-1.03-4.96-1.7-7.38-1.74-7.38-6.4-13.41-12-18.36-1.86-1.64-3.8-3.25-5.78-4.66-4.11-2.95-8.76-4.73-13.13-7.42-12.47-8.27-21.59-23.87-24.83-38.23-1.1-7.64-.06-15.4,1.58-22.84h0Z"/>
      <path class="cls-4" d="M207.21,188.1c-1.16,7.31-1.91,14.81-.63,22.1,2.94,11.82,9.07,22.93,16.99,32.13,4.72,5.89,11.53,9.17,16.98,14.32,5.43,5.33,10.51,11.21,13.55,18.25,1.76,4.78,2.43,9.78,2.78,14.8-.98-4.82-2.08-9.77-4.14-14.22-2.24-4.36-5.35-8.18-8.71-11.73-1.71-1.77-3.46-3.54-5.26-5.15-3.71-3.35-8.01-5.71-11.94-8.89-11.35-9.91-19.35-24.5-22.18-39.19-.85-7.56.44-15.21,2.56-22.41h0Z"/>
      <path class="cls-4" d="M214.28,182.22c-1.78,7.72-2.82,15.76-1.26,23.55,1.69,6.45,4.26,12.69,7.3,18.61,3.34,6.44,7.42,12.56,12.28,17.93,3.37,3.52,7.27,6.77,10.41,10.6,4.71,5.86,9.18,11.98,12.07,18.95,1.59,4.77,2.28,9.7,2.64,14.67-.99-4.78-2.1-9.65-4.01-14.13-3.26-6.49-8-12.27-12.69-17.77-3.26-3.72-7.09-6.7-10.56-10.31-8.54-9.24-14.58-20.66-18.11-32.65-3.24-9.6-1.55-20.19,1.92-29.45h0Z"/>
      <path class="cls-4" d="M221.35,176.35c-2.16,6.98-3.34,14.3-2.5,21.54,2.3,11.81,7.53,23.13,13.8,33.32,2.55,4.2,5.45,7.96,8.52,11.81,4.6,5.87,8.3,12.37,11.68,18.97,0,0,1.7,3.26,1.7,3.26,2.81,5.6,3.48,11.97,4.04,18.11-1.32-5.88-2.48-12.02-5.54-17.26-1.88-3.05-3.83-6.44-5.71-9.44-4.98-8.55-12.03-15.48-17.23-23.86-5.28-8.44-9.27-17.69-11.81-27.3-.62-2.36-1.23-4.89-1.39-7.42-.4-7.48,1.35-15.01,4.45-21.73h0Z"/>
      <path class="cls-4" d="M228.42,170.48c-3.51,8.98-4.95,19.06-1.88,28.36,3.37,11.73,8.24,22.9,14.34,33.44,5.19,8.42,9.43,17.32,13.04,26.5,3.71,6.53,4.96,14.08,5.52,21.43-1.52-7.22-3.22-14.37-7.28-20.55-3.24-6.64-6.18-13.28-10.05-19.58-7.86-12.52-14.5-26.13-17.83-40.63-2.73-9.66-.65-20.29,4.13-28.96h0Z"/>
    </g>
  </g>
  <g id="Calque_4" data-name="Calque 4">
    <g>
      <path class="cls-8" d="M240.29,333.5c-6.14-10.12-20.05-.05-29.82-6.81-7.06-4.07-12.56-10.24-14.06-18.17-2.06-7.43.71-15.38,2.01-22.65,1.11-5.39,1.44-7.31-3.36-9.85-2.22-1.32-4.67-2.74-6.65-4.46-3.16-2.69-4.33-5.31-6.84-8.29-2.57-3.1-5.5-6.15-7.96-9.4-6.2-7.7-6.72-19.47-8.82-28.55"/>
      <path class="cls-4" d="M233.74,343.77c-2.95-6.79-7.61-7.22-14.18-7.48-4.84-.21-9.91-1.21-13.93-4.11-10.28-7.17-15.74-16-14.99-28.78.25-4.63,1.01-9.44,1.44-13.99.95-6.35-1.42-6.44-5.87-9.67-4.02-2.69-6.97-6.77-9.5-10.75-2.76-3.8-5.75-7.31-8.31-11.39-4.95-8.27-5.37-18.33-7.15-27.38,0,0,2.45-.5,2.45-.5,1.93,9.06,2.37,18.44,7.09,26.43,2.41,3.83,5.51,7.45,8.24,11.18,1.8,2.52,3.24,5.13,5.46,7.21,1.6,1.52,3.43,2.91,5.3,4.13,1.38.89,2.9,1.81,3.99,3.23,1.78,2.13,1.49,5.45,1.26,7.79-.39,4.46-1.2,9.5-1.46,13.85-.31,5.9.7,12.01,4.06,16.94,3.4,4.68,8.04,9.09,13.39,11.45,4.08,1.67,8.94,1.5,13.41,2.03,5.3.31,9.66,3.92,11.57,8.79,0,0-2.28,1.02-2.28,1.02h0Z"/>
      <path class="cls-4" d="M228.51,353.32c-1.54-4.99-3.92-9.85-9.49-10.5-3.85-.8-7.66-1.2-11.51-2.66-6.1-2.47-10.71-7.15-14.73-12.22-7.55-9.68-5.69-20.92-5.62-32.22-.07-2.73.34-5.82-1.49-7.92-1.88-1.98-4.99-3.79-6.96-5.97-2.3-2.16-4.14-5.06-5.7-7.73-2.45-3.95-5.2-7.71-7.46-11.85-4.54-8.43-4.92-18.33-6.37-27.44,0,0,1.97-.35,1.97-.35,1.77,9.05,2.25,18.41,6.7,26.51,2.26,4,5.07,7.72,7.58,11.64,2.25,3.99,4.98,7.34,8.69,10.11,1.12.87,2.61,1.79,3.78,3.17,2.41,2.63,2.23,6.59,2.24,9.84-.21,16.36-2.45,24.95,11.02,37.16,2.2,2.02,4.62,3.75,7.32,4.83,4.12,1.68,9.07,1.99,13.45,3.39,4.98,1.63,7.28,7.17,8.5,11.62,0,0-1.91.59-1.91.59h0Z"/>
      <path class="cls-4" d="M223.31,362.93c-1.19-4.84-1.7-11-6.72-13.19-3.6-1.39-7.37-2.05-11.13-3.44-6.18-2.14-11.07-6.9-15-11.95-8.08-9.94-7.15-20.07-7.58-31.92-.56-4.19-.56-9.01-4.24-11.81-3.7-3.01-7.04-6.83-9.24-11.08-2.23-4.17-4.66-8.12-6.69-12.42-4.15-8.64-4.48-18.5-5.62-27.74,0,0,1.48-.22,1.48-.22,1.6,9.15,2.15,18.54,6.33,26.88,2.06,4.14,4.62,8.11,6.9,12.15,2.18,4.05,5.14,7.38,8.72,10.26,4.28,3.21,4.74,8.77,5.32,13.69.42,4.69.03,9.45.48,14.02.54,6.01,2.54,11.72,6.36,16.48,3.68,4.73,7.93,9.26,13.65,11.37,3.89,1.62,8.48,2.25,12.28,4.39,4.73,3.04,5.31,9.33,6.18,14.24,0,0-1.47.29-1.47.29h0Z"/>
      <path class="cls-4" d="M218.13,372.59c-.64-4.6-.53-9.45-2.79-13.53-.73-1.25-1.75-2.26-3-2.87-2.72-1.32-5.76-2.26-8.75-3.39-3.04-1.12-6.08-2.58-8.66-4.59-7.6-6.09-13.5-15-14.77-24.76-1.3-7-.22-14.27-2.59-20.95-.6-2.15-1.42-4.16-2.82-5.89-1.91-2.24-4.61-4.59-6.29-7.17-3.72-5.28-6.1-11.32-8.64-17.23-3.66-8.93-4.01-18.82-4.81-28.24,0,0,.99-.12.99-.12.96,6.27,1.55,12.59,3.02,18.66,1.32,6.1,4.05,11.71,6.96,17.32,1.47,2.85,2.79,5.58,4.66,7.99,1.86,2.73,4.09,4.45,6.29,7.02,3.09,3.96,4.32,9.14,5,14.02.54,4.7.27,9.55,1.08,14.12,1.06,9.15,6.6,17.33,13.45,23.22,4.92,4.11,11.11,5.28,16.77,8.23,3.14,1.68,4.58,5.23,5.13,8.51.58,3.22.55,6.41.73,9.54l-1,.09h0Z"/>
      <path class="cls-4" d="M212.97,382.31c-.48-6.21,1.17-15.71-4.74-19.63-4.97-2.83-10.46-4.22-15.32-7.47-5.6-3.74-9.88-9.11-12.91-15.1-2.25-4.5-3.39-9.49-3.83-14.46-.57-4.72-.35-9.73-1.49-14.23-.78-2.83-2.27-5.81-3.87-8.3-2.84-3.99-6.32-7.37-8.53-11.88-3.61-7.35-6.37-15.15-7.74-23.25-.99-6.46-1.31-12.94-1.58-19.4l.5-.04c.84,6.42,1.41,12.87,2.78,19.13,2.04,9.24,5.53,18.41,10.84,26.3,2.91,3.88,6.72,7.35,8.6,11.95,3.92,7.43,2.53,16.18,4.06,24.12,2.28,12.43,11.09,23.11,22.88,27.71,2.59,1.25,5.36,2.4,7.65,4.21,1.64,1.49,2.6,3.64,3.04,5.69,1.05,4.85.36,9.82.17,14.67,0,0-.5,0-.5,0h0Z"/>
      <path class="cls-4" d="M207.8,392.06c.02-7.37,2.28-17.64-3.64-22.85-4.79-2.69-10.12-4.64-14.91-7.96-9.69-6.45-16.01-17.62-16.67-29.16-.79-8.67.12-16.35-5.82-23.11-14.01-14.9-15.85-36.36-15.88-55.78,1.68,16.46,3.27,33.68,12.8,47.59,2.43,3.31,5.62,6.37,7.84,9.99,4.02,6.23,3.34,14.37,4.02,21.04.63,10.99,6.25,21.08,15.12,27.49,4.34,3.24,9.57,5.39,14.39,8.44,6.57,5.72,3.51,16.79,2.76,24.32h0Z"/>
    </g>
    <g>
      <path class="cls-4" d="M240.29,443.57c-13.78.23-28.16-1.08-40.17-8.44-21.65-12.29-32.96-31.03-43.62-52.66-13.02-25.4-23.71-49.99-20.45-79.28.62-6.66,1.82-13.86,3.05-20.46,0,0,1.4-6.74,1.4-6.74-1.29,9.08-2.6,18.17-2.98,27.31-2.01,29.25,8.67,52.52,21.66,77.84,4.05,8.17,8.26,16.28,13.24,23.91,9.74,15.14,23.91,28.05,40.9,34.28,8.59,3,17.84,3.63,26.97,4.25h0Z"/>
      <path class="cls-4" d="M235.09,440.31c-13.03-1.77-26.84-3.36-37.02-12.59-3.41-2.86-6.38-6.23-9.24-9.52-11.49-13.23-22.15-27.42-30.06-43.27-3.88-7.94-6.9-16.15-10.11-24.35-3.12-8.23-6.04-16.57-7.93-25.18-3.99-17.27-2.4-35.23,1.3-52.36-5.57,36.96.09,55.07,14.16,88.67,7.87,20.36,20.62,38.23,34.42,54.99,13.58,17.45,23.78,19.47,44.48,23.62h0Z"/>
      <path class="cls-4" d="M229.89,437.04c-14.69-5.12-25.64-5.69-34.65-20.28-.84-1.34-2.48-3.99-3.3-5.34-9.57-15.04-22.73-27.56-30.72-43.76-1.85-3.85-3.2-8.02-4.47-11.92-2.29-6.94-5.86-16.67-8.36-23.64-8.13-21.84-9.65-39.17-4.83-62.04-4.2,30.01.95,45.53,11.75,72.88,3.07,7.68,5.14,15.99,8.61,23.42,3.54,7.4,8.43,14.14,13.47,20.78,6.27,8.3,12.92,16.66,18.04,25.84.85,1.44,2.24,3.92,3.21,5.29,7.8,12.11,19.12,13.4,31.25,18.77h0Z"/>
      <path class="cls-4" d="M224.69,433.78c-5-3.51-10.73-5.54-15.98-8.63-5.41-3.18-9.14-8.71-11.32-14.45-.77-1.95-1.37-3.78-2.18-5.59-3.95-9.19-10.34-16.81-16.95-24.37-6.64-7.68-13.74-15.69-16.52-25.75-1.43-5.95-2.92-11.61-4.92-17.36-3.8-11.39-9.35-22.43-12.03-34.28-2.76-11.89-2.11-24.39.31-36.23-1.51,11.96-1.61,24.12,1.57,35.77,3.12,11.69,8.77,22.34,12.8,33.81,2.09,5.64,3.67,11.69,5.1,17.48,2.77,9.56,9.38,17.06,15.87,24.67,6.55,7.6,13.17,15.79,17,25.31,3.9,11.21,5.96,17.1,17.12,22.97,3.51,1.97,7.04,4.04,10.13,6.64h0Z"/>
    </g>
    <path class="cls-4" d="M206.05,404.48c-2.15-7.69-1.54-24-7.97-28.82-5.42-4.2-12.45-6.19-17.48-11.24-4.94-5.2-8.53-11.38-11.05-18.03-2.64-6.48-2.43-13.9-3.24-20.64-.69-6.89-5-12.15-8.61-17.9-5.7-8.89-8.35-19.52-8.99-29.9-.46-6.93-.47-13.82-.49-20.73.71,6.85,1.04,13.76,1.99,20.57,1.17,10.14,4.04,20.09,9.74,28.62,3.85,5.69,8.57,11.7,9.28,18.9.97,6.9.49,13.58,3.05,20.1,2.29,6.16,5.68,12.37,10.13,17.21,4.78,5.04,11.54,7.09,16.83,11.66,2.89,2.27,4.03,6.11,4.66,9.56,1.29,6.88,1.19,13.8,2.15,20.63h0Z"/>
    <path class="cls-4" d="M210.64,420.18c-9.7-5.2-10.45-19.85-12.8-29.46-.53-2.17-.96-4.35-2.13-6.18-.75-1-1.87-1.84-2.82-2.68-4.22-3.43-8.95-6.37-13.29-9.77-4.43-3.56-7.98-8.23-10.52-13.28-2.48-5.05-4.76-10.41-5.33-16.1,0,0-.56-5.44-.56-5.44-.39-3.59-.97-7.15-2.07-10.45-1.83-4.92-5.2-9.54-7.78-14.25-4.74-8.15-6.88-17.56-7.21-26.76-.36-7.37-.07-14.7-.11-22.06.74,7.29.87,14.66,1.68,21.93.76,7.15,2.12,14.4,5.37,20.82,1.67,3.26,3.38,6.36,5.42,9.42,1.99,3.1,3.99,6.27,5.38,9.94,1.25,3.67,1.87,7.39,2.3,11.08.45,3.59.45,7.14,1.52,10.64.97,3.4,2.37,6.75,3.95,9.97,2.31,4.82,5.48,9.18,9.56,12.63,4.88,4.15,10.44,7.57,14.94,12.27,2.09,2.05,2.59,5.32,3.15,8,.66,3.65,1.11,7.28,1.78,10.87,1.38,6.91,3.08,15.01,9.58,18.89h0Z"/>
  </g>
  <g id="Calque_7" data-name="Calque 7">
    <g>
      <path class="cls-4" d="M240.29,444.9c8.22,2.72,15.88,6.88,24.25,9.06,4.11,1.13,8.34,2.03,12.57,2.41,4.3.14,8.7.15,12.98.81,0,0-6.51.36-6.51.36-8.78,1.1-17.65-.53-25.83-3.73-6.05-2.57-11.75-5.69-17.46-8.91h0Z"/>
      <path class="cls-4" d="M239.48,443.92c8.53,1.52,16.57,4.9,24.98,6.84,4.15.99,8.38,1.78,12.62,2.16,4.3.17,8.67.13,12.94.81,0,0-6.49.37-6.49.37-15.49,2.04-30-4.63-44.05-10.17h0Z"/>
      <path class="cls-4" d="M238.66,442.95c10.86.62,21.23,4.28,31.93,5.76,6.4,1.23,12.93.58,19.35,1.58-4.37.14-8.67.66-13.03.75-4.42-.05-8.75-.68-13.04-1.48-3.75-.68-8.94-2.18-12.64-3.25-4.16-1.16-8.35-2.25-12.56-3.36h0Z"/>
      <path class="cls-4" d="M237.85,441.97c10.96-.51,21.72,2.13,32.51,3.41,6.47,1.06,13.03.49,19.5,1.47-4.39.13-8.73.68-13.11.76-4.42-.03-8.79-.52-13.13-1.14-8.62-1.43-17.09-3.29-25.77-4.5h0Z"/>
      <path class="cls-4" d="M237.04,440.99c8.66-1.07,17.78-.47,26.45.47,4.37.43,8.74.86,13.1,1.16,4.4.22,8.82.06,13.19.78-4.43.12-8.81.7-13.23.78-13.27-.09-26.26-2.61-39.51-3.19h0Z"/>
      <path class="cls-4" d="M236.22,440.02c12.74-2.54,27.17-1.51,40.11-.8,4.42.19,8.96.01,13.36.74-4.41.11-8.98.71-13.38.82-13.41.05-26.68-1.07-40.09-.76h0Z"/>
      <path class="cls-4" d="M235.41,439.04c13.27-3.23,27.03-3.67,40.62-3.2,3.99.06,9.69,0,13.58.67-4.47.11-9.11.7-13.57.89-13.6.3-27.02.65-40.64,1.64h0Z"/>
      <path class="cls-4" d="M234.6,438.06c8.92-2.49,18.02-4.15,27.25-5.01,6.67-.58,14.05-.59,20.77-.55,2.32.07,4.63.2,6.92.56-9.18.51-18.36,1.35-27.52,1.98-9.03.76-18.4,2.13-27.42,3.02h0Z"/>
      <path class="cls-4" d="M233.78,437.09c17.92-5.47,36.86-9.54,55.67-7.47-9.35.43-18.67,1.55-27.91,2.87-9.11,1.45-18.6,3.34-27.76,4.6h0Z"/>
      <path class="cls-4" d="M232.97,436.11c18.15-5.74,37.11-12.29,56.4-9.94-19.27.43-37.53,6.86-56.4,9.94h0Z"/>
      <path class="cls-4" d="M232.15,435.13c8.01-2.78,19.75-6.51,27.93-9.16,9.36-2.87,19.43-5.11,29.2-3.24-19.64.98-38.08,8.25-57.14,12.4h0Z"/>
    </g>
  </g>
  <g id="Calque_5" data-name="Calque 5">
    <path class="cls-7" d="M257.17,327.63c-1.42,7.44-1.69,13.76-2.17,17.36s-.23,10.81-.05,13.24"/>
    <g>
      <path class="cls-4" d="M262.22,373.33c-8.72-5.57-8.06-17.14-8.16-26.27.09-2.06.45-5.06.57-7.14.39-7.15,1.88-14.17,2.76-21.25,1.16-9.39,2.43-18.76,2.55-28.24.2-7.02.24-14.01-2.09-20.7-.67-2.24-1.4-4.49-2.19-6.68l2.75-1.1c1.88-1.03-3.99-.14-2.78,1.01.04.12,0,0,0-.02,0,0-.06-.17-.06-.17-.26-.69-.73-1.82-1.01-2.5-2.78-6.53-5.94-13.55-8.95-19.95-3.55-7.63-7.38-15.11-9.89-23.2-5.43-15.43-10.62-33.37-3.3-49.05-6.19,16.09-.35,33.06,5.44,48.36,4.15,11.74,10.62,22.65,15.6,34.06,1.51,3.4,3.76,8.24,5.04,11.68,1.26,1.19-4.7,2-2.77,1.03l-.03-.07,2.75-1.1c2.46,6.71,4.7,14.03,4.46,21.3.22,14.37-1.86,28.64-4.31,42.76-1.46,6.94-2.21,14.05-3,21.07-.32,8.99-1.53,20.17,6.63,26.19h0Z"/>
      <path class="cls-4" d="M237.63,167.63c-5.7,15.9-.09,32.44,5.01,47.7,2.29,7.79,6,15.13,9.31,22.57,2.47,5.45,4.89,11.51,7.22,17.02.61,1.57,1.65,3.9,2.17,5.47.09.29.14.42.14.78.04.49-.42,1.15-.88,1.3,0,0,.86-1.28.86-1.28,0-.04,0-.08,0-.12-.04-.18.04.14.05.15.63,2.06,1.33,4.23,1.91,6.3,2.21,6.85,2.16,14.17,1.92,21.26-.2,9.39-1.45,18.75-2.75,28.04-.99,6.94-2.48,13.79-3.11,20.77-.54,4.57-1.06,9.31-.97,13.91-.13,6.87.55,14.45,6.22,19.12-8.02-5.89-7.35-17.04-7.45-26.16.49-7,.93-14.12,2.13-21.02,1.54-11.53,3.02-23.1,3.22-34.74.07-4.54.21-9.31-.38-13.76-.7-4.19-2.04-8.43-3.29-12.52-.08-.26-.19-.62-.25-.92-.02-.11-.03-.22-.04-.33l.86-1.28c-.55.17-.96.94-.84,1.44,0,0-.03-.11-.03-.11l-.1-.31c-1.9-4.98-4.62-11.35-6.64-16.31-3.78-9.55-8.67-18.71-11.33-28.69-4.76-15.35-9.74-32.74-2.98-48.27h0Z"/>
      <path class="cls-4" d="M242.84,167.21c-3.86,11.61-1.86,23.95,1.22,35.47,2.27,7.63,4.11,15.49,7.19,22.92,2.17,5.59,4.71,11.15,6.8,16.8,1.54,4.09,3.86,10.03,5.41,14.09.34,1.12,1.11,2.47.9,3.67,0,0,.05-.34.05-.34l1.74,6.33c2.64,9.03,1.81,18.55,1.47,27.82-.68,9.23-1.79,18.38-3.23,27.51-1.26,6.78-1.83,13.62-2.5,20.46-.24,8.82-1.51,19.22,5.39,25.96-5.59-4.66-6.46-12.26-6.65-19.09-.38-6.93.39-13.84.97-20.75,1.71-13.59,3.55-27.36,3.76-41.09.06-4.48.2-9.16-.33-13.57-.46-3.17-1.47-6.75-2.31-9.9-.27-1.09-.8-2.57-.9-3.69,0,0,.05-.34.05-.34l-4.03-10.54c-2.69-7.47-5.8-15.14-8.67-22.54-2.93-7.54-4.52-15.48-6.63-23.33-2.81-11.67-4.28-24.46.32-35.86h0Z"/>
      <path class="cls-4" d="M248.06,166.79c-3.46,11.49-1.55,23.56,1.22,34.96,2.07,7.55,3.53,15.35,6.32,22.75,2.66,7.27,5.59,14.93,8.04,22.32,0,0,1.98,5.59,1.98,5.59.56,1.7,1.82,4.81,1.73,6.08.11.73.5,2.25.69,3.01.82,3.26,1.72,6.73,2.14,10.1.48,4.64.33,9.13.25,13.74-.2,18.17-4.08,35.99-5.4,54.06-.22,8.73-1.45,18.76,4.77,25.83-3.24-3.28-5-7.7-5.46-12.26-.51-4.54-.65-9.06-.57-13.63.81-18.06,4.2-35.96,4.3-54.05.07-4.43.18-9.01-.29-13.38-.41-3.14-1.34-6.68-2.1-9.81-.24-1.15-.74-2.55-.74-3.77-.19-1.41-1.14-3.72-1.58-5.12,0,0-1.96-5.6-1.96-5.6-1.3-3.67-2.47-7.55-3.78-11.23-2.64-7.47-5.69-14.89-7.14-22.75-3.47-15.17-8.03-31.6-2.42-46.83h0Z"/>
      <path class="cls-4" d="M253.28,166.37c-3.05,11.37-1.24,23.19,1.22,34.47,1.86,7.49,2.99,15.2,5.47,22.57,1.72,5.52,3.78,11.06,5.4,16.64,1.23,4.11,3.15,9.84,4.37,13.93.25.99.58,1.87.56,3.25v-.08c.01.31.13.92.23,1.43.21,1.01.84,3.83,1.08,4.87,1.65,6.56,1.56,13.54,1.38,20.18-.16,17.86-3.62,35.44-4.8,53.23-.2,8.65-1.35,18.32,4.15,25.67-2.89-3.47-4.44-7.84-4.82-12.32-.44-4.47-.58-8.91-.49-13.4.72-17.75,3.69-35.43,3.77-53.22.14-6.69.23-13.18-1.41-19.65,0,0-.72-3.26-.72-3.26-.22-1.16-.58-2.34-.61-3.62-.04-1.49-.84-3.65-1.3-5.22,0,0-1.76-5.56-1.76-5.56-1.17-3.64-2.2-7.5-3.35-11.16-2.33-7.43-5.06-14.82-6.22-22.58-2.89-15.06-7.13-31.06-2.14-46.16h0Z"/>
      <path class="cls-4" d="M258.49,165.95c-2.84,12.09-.65,24.49,1.69,36.46.76,3.62,1.65,8.56,2.23,12.1,2.75,11.85,6.51,23.68,9.7,35.53.55,1.99,1.13,4.1,1.13,6.2.57,3.94,1.67,8.05,2.06,12.11.63,10.32.03,20.63-.69,30.9-1.08,14.26-3.55,28.54-3.48,42.85-.1,6.11.36,12.42,3.72,17.7-4.92-6.92-4.46-15.75-4.64-23.86.58-20.5,3.83-40.78,3.34-61.34.16-6.26-1.42-12.01-2.35-18.18.01-2.04-.49-3.9-1.02-5.87-1.07-3.93-2.21-7.9-3.23-11.88-1.94-7.93-4.68-15.7-6.12-23.88-.53-3.73-1.27-8.46-1.95-12.15-2.1-12.04-3.88-24.75-.4-36.7h0Z"/>
      <path class="cls-4" d="M263.71,165.53c-3.17,16.06,1.44,32.06,3.42,47.96,2.37,12.82,6.18,25.5,8.81,38.35.29,5.05,1.45,9.97,1.95,15.05.52,10.14,0,20.27-.61,30.38-.94,14.04-3.03,28.13-3,42.22-.1,6.03.27,12.19,3.09,17.62-3.13-5.33-3.7-11.55-3.82-17.61-.35-10.01.45-20.32,1.25-30.27.98-14.03,1.97-28.14,1.21-42.17-.37-4.05-1.32-7.89-1.71-12,.02-2.08-.31-3.84-.76-5.85-2.58-11.84-5.88-23.46-7.87-35.5-.79-8.05-2.35-15.95-3.11-24.03-.7-8.03-.88-16.28,1.14-24.14h0Z"/>
      <path class="cls-4" d="M268.93,165.11c-2.49,15.85,1.42,31.62,2.92,47.36,1.79,13.25,5.58,26.31,7.24,39.63.04,4.45,1.13,8.82,1.39,13.3.54,15.94-.5,31.87-1.85,47.73-.62,9.74-1.51,19.96-1.1,29.7.11,3.98.94,7.87,2.38,11.58-3.42-7.33-3.08-15.58-3.21-23.49.19-7.7.61-16.16,1.1-23.84.81-13.83,1.59-27.73.99-41.56-.45-4.91-1.4-9.81-1.48-14.79-1.88-12.76-5.21-25.24-6.77-38.11-1.19-15.75-4.82-31.77-1.6-47.51h0Z"/>
      <path class="cls-4" d="M274.14,164.69c-1.76,15.64,1.35,31.19,2.42,46.77,1.25,11.64,3.46,23.19,5.09,34.82.25,1.94.42,3.99.39,5.93.37,5.8,1.3,11.72,1.12,17.57-.03,13.72-.6,27.42-1.61,41.09-.24,5.37-.75,12.21-.81,17.57-.15,7.67-.68,15.85,1.68,23.26-2.68-7.33-2.35-15.57-2.44-23.27.2-19.52,1.93-39.13,1.7-58.64.14-5.92-.85-11.64-1.15-17.55.04-1.97-.11-3.83-.35-5.78-1.52-11.63-3.78-23.17-4.8-34.9-.8-15.58-3.65-31.3-1.24-46.87h0Z"/>
      <path class="cls-4" d="M279.36,164.27c-1.01,15.43,1.23,30.79,1.93,46.18.8,11.53,2.41,23,3.46,34.52.32,3.86.16,7.68.54,11.56.32,3.84.43,7.75.35,11.6.03,15.02-.8,31.28-1.38,46.28-.13,3.85-.38,7.7-.38,11.55-.1,7.69-.6,15.46,1.08,23.03-.42-1.88-.85-3.77-1.09-5.68-.48-3.83-.59-7.71-.61-11.56-.25-21.99,1.46-47.34,1.05-69.37-.43-5.75-.61-11.54-.85-17.3-.96-11.52-2.61-22.99-3.21-34.56-.46-15.4-2.47-30.85-.88-46.24h0Z"/>
      <path class="cls-4" d="M284.58,163.85c-.28,13.06,1.01,32.33,1.48,45.6.42,11.04,1.77,29.09,1.86,39.9,1,28.54-.99,57.03-1.01,85.55-.02,3.19.19,8.21.57,11.38-.47-3.19-.8-8.08-.86-11.38-.64-23.84.71-50.24.44-74.14-.25-5.51-.27-11.61-.37-17.1-1.12-26.59-2.86-53.2-2.12-79.82h0Z"/>
      <path class="cls-4" d="M289.79,163.43c1.84,56.14.96,112.73.16,168.9-.02,3.75-.13,7.51.05,11.26-1.06-58.99.57-121.19-.21-180.16h0Z"/>
    </g>
  </g>
  <g id="Calque_6" data-name="Calque 6">
    <g>
      <path class="cls-4" d="M258.38,282.64c1.45,20.97-4.06,41.67-5.66,62.43-.6,7.69-.98,15.55,1.14,23.01,2.28,7.47,8.36,12.83,14.93,16.8,4.44,2.74,9.21,4.91,13.91,7.18-4.89-1.86-9.75-3.85-14.4-6.33-6.9-3.71-13.63-9.34-16.11-17.11-2.38-7.63-2.05-15.88-1.46-23.72,1.67-20.93,7.52-41.22,7.65-62.26h0Z"/>
      <path class="cls-4" d="M254.16,295.71c.51,24.24-7.52,48.45-3.29,72.58,1.61,10.46,8.18,16.63,17.48,20.88,4.35,2.15,8.96,3.8,13.44,5.74-4.64-1.52-9.29-2.97-13.84-4.84-10.03-4.02-17-10.43-18.93-21.39-4.57-24.44,3.72-48.66,5.15-72.97h0Z"/>
      <path class="cls-4" d="M249.95,308.78c-.81,23.49-9.35,51.55,1.97,73.48,3.4,5.92,9.7,9.11,15.99,11.22,4.26,1.54,8.7,2.67,12.97,4.3-4.4-1.19-8.85-2.13-13.27-3.36-9.85-2.63-16.92-7.58-20.16-17.58-7.36-22.27-.37-45.64,2.5-68.04h0Z"/>
      <path class="cls-4" d="M245.74,321.85c-1.97,16.81-5.76,33.82-2.13,50.65,2.04,9.93,7.18,20.77,17.72,23.67,6.08,1.97,12.54,2.51,18.65,4.45-4.19-.88-8.43-1.3-12.68-1.91-4.27-.69-8.65-1.51-12.43-3.81-7.69-4.68-11.33-13.6-13.21-22-3.62-17.09.54-34.36,4.09-51.06h0Z"/>
      <path class="cls-4" d="M241.53,334.92c-1.55,7.93-3,15.88-3.73,23.86-.49,7.87.52,15.98,3.08,23.45,3.18,9.05,10.07,18.01,20.17,19.14,5.96.89,12.12.6,18.01,2.1-6.03-.89-12.1-.22-18.17-.8-10.81-.69-18.54-10.19-21.89-19.77-5.75-16.33-2.24-31.98,2.53-47.99h0Z"/>
    </g>
    <g>
      <path class="cls-4" d="M212.23,383.56c-3.68,16.27-2.94,30.25,9.67,42.42,1.86,1.89,4.37,4.08,6.44,5.71,3.71,2.91,7.99,4.85,12.58,6.18,7.37,2.11,15.29,2.4,23.22,2.61-7.85,1.48-16.05,2.04-23.95.43-6.02-1.16-11.93-3.94-16.56-8.04,0,0-2.32-1.95-2.32-1.95l-2.22-2.11c-13.11-12.93-14.2-28.98-6.84-45.25h0Z"/>
      <path class="cls-4" d="M216.32,377.04c-1.62,7.69-2.87,15.52-1.7,23.01,1.12,7.44,5.16,14.1,10.22,19.76,4.9,5.66,10.93,10.65,18.29,12.58,7.39,1.88,15.26,2.37,23.13,2.3-7.73,1.58-15.79,1.94-23.77.48-12.05-2.39-21.64-12.5-27.3-22.98-5.81-11.01-3.65-24.23,1.13-35.16h0Z"/>
      <path class="cls-4" d="M220.41,370.53c-2.37,11.29-4.37,23.13,1.17,33.61,4.9,9.33,13.18,19.93,23.75,22.75,7.42,1.7,15.24,2.33,23.06,2.02-7.75,1.7-15.75,1.82-23.62.52-12.94-2.38-24.7-17.52-28.11-29.68-2.58-9.82.11-20.09,3.75-29.22h0Z"/>
      <path class="cls-4" d="M224.5,364.02c-2.31,11.24-4.8,23.04.4,33.67,4.37,9.26,12.26,20.99,22.62,23.71,7.45,1.52,15.24,2.3,23.01,1.73-7.69,1.81-15.66,1.71-23.5.56-12.79-2.4-23.57-18.73-26.63-30.61-2.27-9.82.69-19.9,4.09-29.05h0Z"/>
      <path class="cls-4" d="M228.6,357.5c-2.24,11.22-5.23,22.94-.38,33.74,3.86,9.17,11.29,22.01,21.47,24.64,7.48,1.34,15.25,2.27,22.98,1.46-7.65,1.92-15.59,1.59-23.4.58-12.61-2.44-22.41-19.89-25.12-31.52-1.96-9.81,1.27-19.73,4.43-28.9h0Z"/>
      <path class="cls-4" d="M232.69,350.99c-3.85,18.58-6.21,26.73,3.56,44.2,4.04,7.05,9.63,15.1,18.39,15.63,6.67.94,13.44,1.7,20.17.74-5.65,1.53-11.64,1.55-17.45,1.17-2.01-.15-3.84-.27-5.87-.56-8.14-1.67-13.33-9.11-17.27-15.83-9.72-17.57-7.55-27.23-1.53-45.34h0Z"/>
      <path class="cls-4" d="M236.78,344.48c-2.12,11.22-6.1,22.77-1.98,33.91,2.97,9,9.24,23.89,19.17,26.53,7.54.99,15.33,2.23,22.99.86-6.57,1.85-13.58,1.41-20.31.88-9.58.02-15.47-9.16-19.37-16.75-9.01-18.55-6.19-26.78-.49-45.42h0Z"/>
    </g>
  </g>
  <g id="Calque_8" data-name="Calque 8">
    <path class="cls-4" d="M279.06,398.24c-56.65-14.57-122.12-23.88-180.02-12.96-8.49,1.71-16.88,3.93-25.07,6.78,8.13-3.01,16.49-5.39,24.97-7.26,57.99-11.65,123.59-2.36,180.12,13.44h0Z"/>
    <path class="cls-4" d="M104.99,406.71c24.52-5.71,49.86-8.32,74.99-9.51,25.09-.97,50.63-.14,75.57,2.85,3.59.34,7.15.94,10.71,1.46l10.69,1.6c-56.97-7.83-115.44-7.47-171.96,3.6h0Z"/>
    <path class="cls-4" d="M108.82,433.78c12.43-6.64,25.96-10.88,39.49-14.66,20.23-5.35,41.5-8.74,62.35-10.62,7.06-.77,16.56-1.2,23.68-1.63,4.84-.13,13.56-.32,18.45-.44,0,0,21.09.3,21.09.3l-21.08.19c-4.96.18-13.58.51-18.43.68-7.12.53-16.57,1.01-23.63,1.8-20.8,2-42.01,5.32-62.24,10.46-13.54,3.64-27.11,7.62-39.68,13.92h0Z"/>
    <path class="cls-4" d="M276.95,410.49c-25.34,2.02-52.6,4.4-77.67,8.1-29.23,4.42-59.07,9.42-86.44,20.97-3.32,1.5-6.83,3.17-9.77,5.34,4.45-3.33,9.68-5.65,14.77-7.82,22.36-9.13,46.51-13.79,70.25-17.83,28.88-4.52,59.61-7.23,88.86-8.75h0Z"/>
    <path class="cls-4" d="M108.67,453.32c34.95-18.8,74.01-29.13,112.97-35.68,3.49-.5,12.68-1.81,16.07-2.28,8.24-.86,18.66-2.08,26.92-2.45,0,0,10.79-.68,10.79-.68-3.72.32-12.6,1.08-16.15,1.38-3.49.24-12.47,1.4-16.1,1.8-2.69.27-8.04,1-10.7,1.45-13.85,1.94-28.81,4.83-42.44,7.96-27.92,6.78-55.72,15.33-81.35,28.48h0Z"/>
    <path class="cls-4" d="M133.33,487.47c2.87-4.16,6.51-7.75,10.2-11.18,6.21-5.65,13.08-10.75,20.11-15.3,12.47-8.25,26.51-15.25,40.11-21.43,7.21-3.01,16.13-6.79,23.47-9.37,14.77-5.64,32.84-10.9,48.2-15.1-15.3,4.63-33.14,10.18-47.89,15.91-5.45,1.94-13.32,5.17-18.73,7.5-2.34.94-6.95,2.99-9.22,4.1-8.79,3.96-18.59,8.9-26.91,13.8-8.75,5-17.15,10.64-25.04,16.91-5.06,4.25-10.39,8.8-14.3,14.16h0Z"/>
  </g>
  <g id="Calque_9" data-name="Calque 9">
    <g>
      <path class="cls-4" d="M427.18,251.65c3.52-2.1,6.91-4.43,10.14-6.94,3.02-2.51,6.52-5.24,7.91-8.99.76-3.59,1.19-7.52,1.53-11.29.55-7.62,1.49-15.67,5.98-22.15,2.11-3.26,4.55-6.19,5.91-9.64,1.17-3.92,2.27-8.61,3.22-12.85,3.68-17.28,6.64-35.12,4.77-52.79-1.07-8.23-3.52-17.99-11.55-21.86-1.83-.96-3.84-1.26-5.89-.73-14.13,3.69-34.55,27.4-44.65,38.65-11.66,13.49-22.81,27.43-33.54,41.7,10.24-14.63,21.07-28.85,32.58-42.52,10.36-11.95,30.14-35.6,45.22-39.64,3.56-1,7.28.5,10.13,2.66,6.49,5.09,8.72,13.73,9.67,21.51,1.45,13.44-.16,27-2.41,40.23-1.58,8.83-3.46,17.55-6.12,26.17-1.52,3.71-4.13,6.71-6.21,9.84-4.49,6.3-5.42,13.99-6.12,21.52-.45,3.81-.94,7.64-1.84,11.39-1.6,3.99-5.13,6.52-8.34,9.09-3.3,2.46-6.79,4.64-10.37,6.64h0Z"/>
      <path class="cls-12" d="M425.99,249.18c5.6-3.49,11.46-7.17,15.41-12.56.95-1.45,1.35-3.1,1.66-4.84,1.57-8.33,1.01-17.04,3.91-25.14,1.73-5.4,6.06-9.63,7.77-14.93,4.49-16.18,7.49-32.97,7.81-49.78-.07-11.6-1.07-29.95-14.37-33.78-10.41-1.16-27.17,16.93-34.38,24.14-15.51,16.36-29.6,34.05-43.21,52.02,12.96-18.48,26.78-36.41,42.09-53.08,7.45-7.8,24.05-25.74,35.24-25,15.1,3.23,16.64,23.09,16.53,35.72-.46,17.03-3.43,33.91-8.26,50.24-1.85,5.5-6.18,9.49-8.05,14.89-2.98,7.93-2.53,16.64-4.36,24.86-.4,2.06-1.09,4.25-2.55,5.89-4.14,4.88-9.75,8.24-15.25,11.37h0Z"/>
      <path class="cls-17" d="M424.8,246.71c4.52-2.78,9.03-5.85,12.56-9.83,1.89-1.96,2.69-4.48,3.08-7.09,1.91-10.46.89-22.01,6.77-31.35,4.36-6.84,5.37-14.85,7.1-22.61,2.03-10.45,3.46-21.07,3.51-31.71-.02-11-1.67-30.12-15.15-32.18-2.41-.03-4.88.98-7.18,2.15-4.6,2.47-8.78,5.83-12.76,9.34-19.76,18.01-36.33,39.24-52.55,60.43,15.46-21.8,31.73-43.44,51.4-61.72,5.65-4.79,15.37-13.68,23.36-11.74,7.68,2.31,11.73,10.22,13.31,17.55,3.2,16,.75,32.41-2.24,48.23-1.73,7.8-3.09,16.21-7.59,22.97-4.47,6.78-4.99,14.98-5.99,22.83-.53,3.98-.95,8.1-2.34,11.9-1.82,3.69-5.24,6.23-8.46,8.6-2.2,1.54-4.48,2.96-6.83,4.24h0Z"/>
      <path class="cls-3" d="M423.61,244.24c2.17-1.31,4.25-2.76,6.24-4.32,2.83-2.34,5.97-4.89,7.17-8.45,1.59-6.1,1.82-12.51,2.65-18.73.39-5.06,1.27-10.35,3.77-14.84,1.13-2.27,2.31-4.51,3.06-6.82,2.69-9.66,4.57-19.66,5.72-29.66,1.17-12.27,2.14-27.44-4.03-38.46-.93-1.45-2.09-3.05-3.44-4.12,0,0-.67-.59-.67-.59l-.75-.48c-.41-.23-1.07-.76-1.53-.9,0,0-1.63-.72-1.63-.72-.45-.13-1.13-.29-1.61-.31-9.75.06-23.04,14.25-29.89,20.97-14.02,14.6-26.7,30.48-38.93,46.6,14.6-20.66,29.99-41.17,48.71-58.37,5.5-4.58,12.62-11.03,20.21-11.07,1.26-.04,2.84.71,3.97,1.2,0,0,.46.2.46.2l.43.27c4.41,2.49,7.17,6.99,8.82,11.66,2.07,6.13,2.62,12.68,2.62,19.06-.01,10.22-1.39,20.36-3.34,30.36-1.01,5-2.13,9.94-3.67,14.85-1.73,4.99-4.98,9.01-6.01,13.88-.88,3.63-1.08,7.5-1.67,11.22-.5,3.61-.94,7.73-1.71,11.3-.5,2.51-1.15,5.14-2.89,7.08-3.36,3.91-7.69,6.72-12.08,9.21h0Z"/>
      <path class="cls-19" d="M422.42,241.77c4.39-2.87,9.1-6.07,11.56-10.82,1.69-5.01,1.93-10.57,2.65-15.79.42-3.57.34-7.14.89-10.75.66-4.95,3.39-9.19,4.84-13.56,2.53-9.11,4.25-18.56,5.28-28,1-11.04,1.58-22.71-2.56-33.16-1.49-3.68-4.03-7.01-7.55-8.87,0,0-1.54-.68-1.54-.68-2.59-1.02-5.35-.09-7.92,1.08-4.18,2-7.96,4.95-11.57,8-10.79,9.4-20.26,20.2-29.39,31.21-6.13,7.34-12.02,14.88-17.78,22.51,10.9-15.73,22.59-30.95,35.7-44.98,6.6-6.76,19.76-20.71,29.67-20.07,5.72.99,10.07,5.87,12.19,11.03,5.78,14.45,3.04,33.4.37,48.39-.93,4.72-1.97,9.39-3.44,14.03-1.66,4.65-4.36,8.65-5.06,13.29-.61,3.49-.6,7.14-1.09,10.68-.83,5.27-1.28,10.87-3.17,15.9-2.65,4.81-7.5,7.86-12.09,10.58h0Z"/>
      <path class="cls-2" d="M421.23,239.31c3.69-2.41,7.45-5.24,9.69-9.09,1.77-4.07,2.05-8.69,2.69-13.06.8-4.42.3-8.87.66-13.46.29-4.69,2.53-8.89,3.94-13.01,4.2-15.96,7.64-36.68,3.73-52.84-1.28-5.17-3.89-10.36-8.64-13.03-2.79-1.71-5.85-1.44-8.87-.04-3.97,1.76-7.56,4.49-10.98,7.32-10.23,8.74-19.17,18.89-27.78,29.22-5.78,6.89-11.32,13.98-16.75,21.17,10.22-14.83,21.21-29.16,33.6-42.32,6.34-6.5,12.83-13.06,21.17-17.07,2.13-.91,4.51-1.68,7.08-1.25,1.26.22,2.3.8,3.42,1.3,5.25,2.9,8.26,8.56,9.67,14.18,3.87,16.11.38,38.01-4.21,53.84-1.59,4.31-3.78,8.25-4.14,12.64-.45,4.38-.03,9.01-.95,13.47-.8,4.43-1.23,9.09-3.19,13.19-2.42,3.9-6.28,6.56-10.15,8.84h0Z"/>
      <path class="cls-5" d="M420.03,236.84c3.42-2.29,6.89-5.11,8.58-8.93,1.21-3.97,1.9-8.17,2.41-12.33.6-4.16-.13-8.36-.08-12.58-.06-4.33,1.67-8.46,3.07-12.43,4.13-15.28,9.79-47.95-2.58-59.97-1.39-1.39-3.27-2.32-5.02-2.95-1.75-.45-3.76-.04-5.62.68-3.75,1.5-7.18,4-10.4,6.62-16.04,13.65-29.1,30.44-41.9,47.08,11.66-16.59,33.47-47.1,51.64-55.39,2.46-1.03,5.77-1.58,8.36-.18.93.27,2.09,1.16,2.93,1.64,0,0,1.29,1.08,1.29,1.08,13.24,12.17,7.4,46.21,2.74,61.89-1.5,3.97-3.22,7.82-3.25,11.94-.15,4.2.51,8.49-.22,12.7-.67,4.18-1.49,8.34-2.89,12.39-1.89,3.9-5.47,6.55-9.07,8.73h0Z"/>
      <path class="cls-10" d="M418.84,234.37c3.14-2.18,6.26-5.07,7.36-8.81.98-3.8,1.86-7.66,2.24-11.52.2-3.83-.57-7.74-.85-11.71-.36-4.06.9-8.05,2.22-11.81,3.97-14.54,8.77-44.34-2.75-55.95-1.35-1.27-2.96-2.22-4.66-2.91-5.3-1.47-10.94,3.13-15.02,6.14-9.15,7.41-17.03,16.26-24.6,25.27-5.09,6.01-9.95,12.21-14.7,18.51,8.29-12.03,39.4-56.3,54.96-51.67,19.28,7.22,12.92,45.67,8.21,61.15-1.38,3.63-2.66,7.38-2.4,11.19.18,3.95.9,7.87.57,11.87-.54,3.97-1.57,7.79-2.7,11.58-1.28,3.86-4.53,6.6-7.87,8.67h0Z"/>
      <path class="cls-13" d="M417.65,231.9c2.22-1.59,4.11-3.68,5.26-6.16.97-2.52,1.49-5.29,2.17-7.9,1.43-5.39-.03-10.73-.9-16.15-.64-3.76.2-7.58,1.39-11.14,3.85-13.65,7.79-40.99-2.86-51.98-1.26-1.16-2.65-2.2-4.26-2.83-4.8-1.97-10.16,2.14-14.04,4.89-8.63,6.73-15.99,14.94-23.05,23.28-4.75,5.57-9.28,11.34-13.7,17.19,8.74-12.67,32.84-46.98,48.51-47.75,7.05.6,11.69,7.47,13.46,13.75,2.05,7.23,2.02,14.78,1.45,22.18-.71,7.4-1.71,14.69-4.08,21.79-1.21,3.35-2.09,6.95-1.59,10.43.49,3.61,1.23,7.23,1.27,10.99-.12,3.82-1.43,7.31-2.45,10.81-.87,3.62-3.49,6.65-6.59,8.59h0Z"/>
      <path class="cls-11" d="M416.46,229.43c2.13-1.8,3.6-4.31,4.38-6.96.26-1.28.64-2.72,1.07-4.03.45-1.32.81-2.61.98-3.96.42-4.78-1.28-9.48-2.33-14.11-.7-3.46-.17-7.46,1.04-10.55,3.38-13.42,7.91-44.54-8.53-50.56-12.64-2.41-38.16,31.54-45.82,41.39,8.41-12.44,27.69-39.33,42.1-43.15,5.48-1.36,10.67,3.1,13.26,7.55,6.69,12.03,4.02,32.4.47,45.25-1.26,3.04-1.8,6.53-1.26,9.82,1.27,6.02,3.45,12.55.69,18.53-.49,1.29-.89,2.61-1.23,3.95-.9,2.68-2.55,5.14-4.81,6.83h0Z"/>
      <path class="cls-9" d="M416.73,227.35c2.42-2.18,3.6-5.22,4.28-8.33.9-3.07,1.76-6.15,1.17-9.25-.46-3.11-1.33-6.17-2.29-9.2-.97-3.1-1.46-6.45-.92-9.78,2.7-13.11,7.09-39.72-6.43-47.75-10.97-7.53-39.91,27.56-46.91,35.8,8.74-11.64,27.55-36.08,42.08-38.66,1.72-.24,3.59.11,5.14.95,0,0,.58.27.58.27l.54.33c14.12,8.72,9.7,35.64,6.5,49.33-.57,2.99-.22,6.15.62,9.15.88,3.08,1.68,6.21,2.05,9.44.47,3.3-.61,6.56-1.64,9.52-.8,3.09-2.21,6.16-4.78,8.18h0Z"/>
      <path class="cls-6" d="M415.85,225.28c2.07-2.26,3.1-5.08,3.74-8.03.6-2.14,1.07-4.35,1.02-6.55-.34-5.29-2.65-10.02-4.5-14.92-1.61-4.49.16-9.18.6-13.69,1.21-10.57,2.68-25.42-4.92-33.8-1.88-1.91-4.48-3.54-7.2-3.42-12.5,1.01-32.91,22.88-41.7,32.17,7.57-9.33,32.5-38.38,45.34-33.47,13.75,6.08,11.92,26.47,10.22,38.76-.45,4.36-2.34,8.71-.95,13.02,1.73,4.93,3.92,9.98,3.99,15.32-.06,2.32-.66,4.56-1.38,6.71-.75,2.89-2.01,5.8-4.24,7.89h0Z"/>
      <path class="cls-21" d="M414.96,223.21c2.47-3.45,3.45-7.72,3.83-11.89.29-3.47-.97-6.86-2.24-10.04-.77-2.01-2.2-3.43-3.28-5.37-.93-1.63-1.45-3.54-1.44-5.44.02-.78.26-2.48.36-3.27,1.63-11.53,4.61-36.85-10.92-39.49-12.11.17-32.2,19.18-41.16,27.53,7.84-8.59,32.44-33.95,44.65-28.63,13.96,6.51,10.98,28.37,9.08,40.83-.12.64-.39,2.43-.43,3.05-.33,4.02,2.93,6.78,4.27,10.33,1.21,3.35,2.37,6.97,1.85,10.58-.6,4.19-1.81,8.52-4.58,11.82h0Z"/>
      <path class="cls-18" d="M414.07,221.14c3.55-6.5,4.2-14.15.34-20.68-.97-1.74-2.72-2.66-3.98-4.31-1.14-1.36-1.93-3.1-2.16-4.88-.2-1.06,0-2.17.08-3.19,1.2-11.24,4.08-31.64-8.67-37.05-10.67-3.44-33.88,15.63-42.33,22.42,8.78-8.29,29.45-26.65,41.93-24.54,14.14,4.5,12.68,23.64,11.27,35.4,0,0-.53,3.97-.53,3.97-.1.95-.31,1.86-.17,2.78.16,1.53.75,2.97,1.71,4.2,1.13,1.54,3.07,2.79,3.94,4.64,3.69,6.8,2.73,14.88-1.43,21.25h0Z"/>
      <path class="cls-16" d="M413.18,219.09c2.63-6.41,3.44-13.51-1-19.32-2.42-1.96-5.75-3.33-6.94-6.55-1.19-2.47-.55-5.24-.35-7.83.85-10.4,2.36-27.63-9.83-31.72-10.93-2.04-31.25,11.84-40.48,18,8.68-7,31.17-23.72,42.42-19.36,12.23,5.61,10.77,22.12,9.63,33.26-.06.63-.48,4.04-.47,4.62-.03.84.25,1.66.52,2.44,1.06,3.07,4.22,4.18,6.43,6.34,4.42,6.08,3.37,13.8.08,20.13h0Z"/>
      <path class="cls-14" d="M412.28,217.05c.39-2.07,1.28-4.91,1.4-6.95-.06-2.32,0-4.69-1.07-6.82-.71-1.43-1.47-3.15-2.86-3.99-2.73-1.24-5.9-2.37-7.54-5.15-.52-.78-.91-1.74-1.19-2.63-.44-1.54-.07-3.25-.03-4.74.63-9.63,1.97-24.72-8.25-29.66-4.74-2.03-10.24-.27-15.03,1.08-9,2.93-17.58,7.17-25.9,11.7,7.96-5.22,16.34-9.93,25.41-13.18,5.64-1.86,12.52-3.97,18.01-.44,9.72,6.53,8.39,20.43,7.51,30.65-.07,1.44-.41,2.81-.14,4.14.21.76.52,1.6.93,2.26,1.44,2.6,4.33,3.55,6.84,4.91,1.65,1.06,2.41,2.96,3.15,4.68.97,2.29.8,4.79.69,7.22-.22,2.18-1.37,4.83-1.93,6.92h0Z"/>
      <path class="cls-15" d="M411.31,215.04c.08-1.13.14-2.25.31-3.38.23-1.14.55-2.18.36-3.28-.22-2.19-.26-4.45-1.55-6.33-.89-1.38-1.71-2.65-3.37-3.01-2.8-.73-5.72-1.61-7.77-3.97-1.15-1.44-2.29-3.17-2.25-5.06.13-9.05,1.84-19.6-4.26-27.07-4.48-5.29-12.03-4.13-18.13-2.97-8.79,1.84-17.34,4.87-25.69,8.18,8.08-4.05,16.48-7.56,25.36-9.71,23.46-6.15,26.34,11.16,24.5,29.91-.04.88-.14,1.79,0,2.63.38,1.12.93,2.16,1.65,3.07,1.62,2.06,4.44,3.02,6.97,3.82,1.77.42,3.06,2.19,3.84,3.7,1.22,2.06,1.16,4.46,1.22,6.76.05,2.29-1.03,4.38-1.19,6.71h0Z"/>
      <path class="cls-1" d="M410.31,213.1c-.19-1.58-.25-3.26.06-4.82.02-.51-.12-1-.23-1.54-.25-1.03-.17-2.13-.53-3.13-.48-1.45-1.45-2.71-2.62-3.68-.43-.37-.7-.48-1.2-.62-2.06-.45-4.36-.63-6.35-1.55-3.07-1.31-6.2-4.41-6.23-7.88.04-9.54,1.46-23.26-9.4-27.29-3.93-1.21-8.32-.97-12.44-.67-8.52.78-16.96,2.54-25.29,4.56,8.14-2.78,16.5-5.04,25.13-6.11,6.42-.72,14.23-1.2,18.97,4.11,6.14,6.92,5,16.91,4.78,25.37,0,.49.04,1.06.11,1.31.57,1.31,1.39,2.68,2.48,3.64,2.51,2.55,6.24,2.51,9.42,3.79,1.67,1.14,2.84,2.89,3.37,4.83.3,1.07.15,2.17.33,3.25.07.52.19,1.08.13,1.65-.41,1.62-.52,3.12-.48,4.79h0Z"/>
      <path class="cls-20" d="M409.12,211.37c-.19-1.04-.57-2.03-.71-3.08.35-1.06-.07-1.9-.35-2.92-.23-1.01-.21-2-.73-2.89-.56-1.07-1.5-1.9-2.53-2.52-.6-.4-1.23-.44-1.99-.52-4.75-.13-9.99-1.66-12.6-6.01,0,0-.43-.7-.43-.7-.79-1.27-.58-2.82-.66-4.2-.08-6.79.14-14.59-4.72-19.79-4.32-4.31-10.91-4.23-16.75-4.62-8.2-.24-16.44.24-24.63.9,9.12-1.61,18.45-2.67,27.77-2.41,3.11.21,6.38.39,9.39,1.38,10.36,3.08,11.15,15.56,10.76,24.54.05,1.2-.17,2.44.35,3.35,1.72,3.31,4.96,5.36,8.64,5.96,1.66.4,3.48.27,5.09,1.03,1.72,1.06,3.2,2.79,3.43,4.87.03,1.12.22,1.95.47,3.04.08.56-.05,1.11-.21,1.6.09.86.35,2.13.42,2.99h0Z"/>
    </g>
    <g>
      <path class="cls-4" d="M413.67,223.23c-.45,5.67-1.1,11.32-2,16.96-.47,2.85-1.01,5.76-2.3,8.39-5.45,11.98-17.25,26.2-30.27,29.99-8.65,2.07-17.05.75-25.52,2.21-9.44,1.61-18.24,7.49-23.22,15.73-1.96,3.73-3,7.88-3.62,12.06.15-4.27.83-8.62,2.58-12.58,4.58-9.09,13.79-15.84,23.78-17.8,8.28-1.72,17.28-.54,25.27-2.53,11.93-3.43,23.67-17.12,29.24-27.92,1.37-2.43,2-5.13,2.63-7.84,1.29-5.5,2.33-11.09,3.44-16.67h0Z"/>
      <path class="cls-4" d="M406.6,217.35c-.35,7.96-.46,16.13-2.6,23.88-4.79,12.64-15.44,26.45-28.18,31.9-8.24,2.95-16.51,2-24.65,4.03-7.79,1.93-14.9,6.64-19.77,13.03-3.33,4.33-4.63,9.89-5.52,15.22.27-5.54,1.19-11.31,4.32-16.06,4.72-7.07,12.08-12.47,20.32-14.73,7.88-2.28,16.8-1.53,24.27-4.29,11.78-4.98,22.36-18.25,27.46-29.78,2.48-7.47,3.11-15.42,4.36-23.19h0Z"/>
      <path class="cls-4" d="M399.53,211.48c.11,8.15.41,16.37-1.73,24.37-.9,2.59-1.99,5.12-3.24,7.56-5.16,9.69-12.41,18.67-22.12,24.11-5.01,2.57-10.62,3.22-15.98,4.18-10.38,1.49-20.24,6.92-26.31,15.57-3.01,4.36-4.21,9.79-5.14,14.97.31-5.41,1.09-10.98,3.89-15.77,4.34-7.1,11.23-12.54,19.03-15.43,7.44-2.85,16.26-2.63,23.14-6.19,11.17-6.28,19.95-17.98,24.89-29.68,2.46-7.52,2.73-15.8,3.56-23.69h0Z"/>
      <path class="cls-4" d="M392.45,205.61c.86,10.48,1.58,21.71-3.41,31.37-4.57,9.74-11.21,18.59-20.15,24.8-4.53,3.05-10.01,4.29-15.14,5.64-9.92,2.44-19.16,8.3-24.8,16.92-2.72,4.37-3.85,9.69-4.8,14.74.34-5.3,1.03-10.67,3.53-15.49,3.95-7.11,10.42-12.6,17.7-16.13,7.05-3.47,15.33-3.79,21.86-8.19,10.43-7.27,18.33-18.51,22.76-30.38,2.11-7.47,2.11-15.5,2.44-23.27h0Z"/>
      <path class="cls-4" d="M385.38,199.74c1.17,8.3,2.2,17.02.05,25.27-3.74,11.91-10.63,22.88-20.26,30.93-6.04,5.17-14.23,6.43-20.98,10.2-6.45,3.75-12.52,8.76-16.37,15.25-2.45,4.39-3.56,9.58-4.52,14.53.34-5.17,1.03-10.46,3.23-15.23,3.61-7.12,9.62-12.67,16.35-16.83,6.57-4.04,14.51-5.2,20.42-10.26,9.18-7.58,16.03-18.1,20.17-29.24,2.52-7.88,2.04-16.4,1.92-24.62h0Z"/>
      <path class="cls-4" d="M378.31,193.86c1.64,7.44,2.68,15.2,1.58,22.84-3.25,14.39-12.33,29.93-24.83,38.23-4.37,2.69-9.02,4.46-13.13,7.42-1.98,1.41-3.92,3.02-5.78,4.66-5.6,4.94-10.27,10.98-12,18.36-.67,2.42-1.24,4.89-1.7,7.38.14-2.53.44-5.06.89-7.57,1.46-10.45,9-18.71,17.05-24.96,6.04-4.6,13.5-6.78,18.79-12.31,8.73-8.64,15.42-19.74,18.79-31.58,1.52-7.35,1.02-14.99.35-22.46h0Z"/>
      <path class="cls-4" d="M371.24,187.99c2.13,7.2,3.42,14.85,2.56,22.41-2.83,14.68-10.83,29.29-22.18,39.19-3.94,3.19-8.24,5.54-11.94,8.89-1.79,1.61-3.54,3.38-5.26,5.15-3.35,3.56-6.47,7.37-8.71,11.73-2.06,4.45-3.16,9.4-4.14,14.22.36-5.03,1.03-10.02,2.78-14.8,3.04-7.03,8.11-12.92,13.55-18.25,5.45-5.15,12.26-8.43,16.98-14.32,7.91-9.2,14.05-20.31,16.99-32.13,1.28-7.29.53-14.79-.63-22.1h0Z"/>
      <path class="cls-4" d="M364.17,182.12c3.47,9.26,5.16,19.85,1.92,29.45-3.53,11.98-9.57,23.41-18.11,32.65-3.47,3.61-7.29,6.59-10.56,10.31-4.69,5.5-9.43,11.28-12.69,17.77-1.91,4.48-3.02,9.34-4.01,14.13.36-4.97,1.05-9.9,2.64-14.67,2.89-6.97,7.36-13.09,12.07-18.95,3.14-3.82,7.04-7.08,10.41-10.6,4.86-5.36,8.94-11.49,12.28-17.93,3.04-5.92,5.61-12.16,7.3-18.61,1.56-7.79.52-15.83-1.26-23.55h0Z"/>
      <path class="cls-4" d="M357.1,176.25c3.1,6.72,4.85,14.26,4.45,21.73-.16,2.53-.77,5.06-1.39,7.42-2.54,9.61-6.53,18.86-11.81,27.3-5.21,8.39-12.25,15.31-17.23,23.86-1.88,2.99-3.84,6.4-5.71,9.44-3.06,5.24-4.21,11.38-5.54,17.26.56-6.14,1.23-12.52,4.04-18.11,0,0,1.7-3.26,1.7-3.26,3.38-6.6,7.08-13.1,11.68-18.97,3.08-3.85,5.97-7.61,8.52-11.81,6.26-10.19,11.49-21.51,13.8-33.32.84-7.24-.34-14.56-2.5-21.54h0Z"/>
      <path class="cls-4" d="M350.03,170.38c3.59,6.53,5.59,14.01,5.34,21.51-.59,7.51-3.1,14.61-5.56,21.68-4.94,14.03-14.05,25.96-20.35,39.29-1.04,2.18-1.97,4.5-3.17,6.7-1.16,2.17-2.54,4.09-3.39,6.43-1.74,4.51-2.85,9.32-3.89,14.12.56-7.35,1.8-14.89,5.52-21.43,3.61-9.19,7.85-18.08,13.04-26.5,6.1-10.54,10.97-21.71,14.34-33.44,3.07-9.3,1.63-19.38-1.88-28.36h0Z"/>
    </g>
    <g>
      <path class="cls-8" d="M338.16,333.4c6.14-10.12,20.05-.05,29.82-6.81,7.06-4.07,12.56-10.24,14.06-18.17,2.06-7.43-.71-15.38-2.01-22.65-1.11-5.39-1.44-7.31,3.36-9.85,2.22-1.32,4.67-2.74,6.65-4.46,3.16-2.69,4.33-5.31,6.84-8.29,2.57-3.1,5.5-6.15,7.96-9.4,6.2-7.7,6.72-19.47,8.82-28.55"/>
      <path class="cls-4" d="M342.43,342.65c5.14-12.24,15.4-7.21,24.99-10.82,2.77-1.09,5.1-2.91,7.36-4.86,4.55-3.88,8.28-8.68,9.4-14.64,1.79-7.43-.16-15.19-.76-22.74-.96-7.28,1.51-8.62,7.11-12.3,3.87-2.57,6.38-6.2,8.91-10.06,2.74-3.73,5.83-7.35,8.24-11.18,4.72-7.99,5.16-17.36,7.09-26.43,0,0,2.45.5,2.45.5-1.78,9.04-2.21,19.1-7.15,27.38-2.55,4.08-5.54,7.59-8.31,11.39-1.79,2.54-3.43,5.44-5.77,7.64-2.26,2.22-4.99,4-7.56,5.74-2.56,1.63-2.35,4.19-2.04,7.04,0,0,.51,4.6.51,4.6,1.02,7.8,1.93,16.23-1.32,23.75-1.89,4.53-5.29,8.34-8.94,11.45-2.44,2.1-5.11,4.13-8.18,5.31-3.04,1.23-6.36,1.55-9.55,1.77-6.56.24-11.25.71-14.18,7.48,0,0-2.28-1.02-2.28-1.02h0Z"/>
      <path class="cls-4" d="M348.03,352.62c1.5-5.65,4.35-11.27,10.87-12.28,3.67-.86,7.72-1.38,11.07-2.73,2.7-1.08,5.12-2.81,7.32-4.83,13.47-12.19,11.23-20.82,11.02-37.16,0-3.25-.17-7.21,2.24-9.84,1.18-1.39,2.67-2.31,3.78-3.17,3.71-2.77,6.44-6.12,8.69-10.11,4.16-6.45,9.08-12.35,10.85-19.98,1.62-5.86,2.25-12.03,3.43-18.17l1.97.35c-1.46,9.11-1.83,19.01-6.37,27.44-3.15,5.51-6.67,10.48-9.99,15.86-1.88,2.68-4.26,4.9-6.8,6.91-1.33,1.02-2.5,1.77-3.34,2.78-1.84,2.1-1.42,5.2-1.49,7.92-.09,7.82,1.2,15.85-1.18,23.53-2.44,8.41-11.11,17.63-19.17,20.91-3.85,1.46-7.67,1.87-11.51,2.66-5.52.61-7.98,5.55-9.49,10.5,0,0-1.91-.59-1.91-.59h0Z"/>
      <path class="cls-4" d="M353.67,362.54c.89-5.25,1.67-12.35,7.34-14.87,3.62-1.58,7.6-2.35,11.12-3.76,5.71-2.11,9.97-6.64,13.65-11.37,3.82-4.76,5.83-10.47,6.36-16.48.46-4.58.06-9.33.48-14.02.57-4.91,1.03-10.48,5.32-13.69,3.58-2.88,6.54-6.21,8.72-10.26,2.27-4.04,4.84-8.02,6.9-12.15,4.18-8.34,4.73-17.72,6.33-26.88,0,0,1.48.22,1.48.22-1.13,9.24-1.47,19.1-5.62,27.74-1.36,2.86-2.89,5.62-4.44,8.35-2.3,4.16-4.5,8.53-7.96,11.9-1.92,2.19-4.86,3.79-6.1,6.42-1.55,4.08-1.74,8.82-1.84,13.2-.01,6.28-.2,12.97-2.51,18.97-3.57,8.42-11.17,17.2-19.9,20.35-3.75,1.39-7.53,2.06-11.13,3.44-5.02,2.19-5.53,8.34-6.72,13.19,0,0-1.47-.29-1.47-.29h0Z"/>
      <path class="cls-4" d="M359.32,372.39c.44-6.1-.3-14.41,5.86-18.05,2.93-1.55,5.95-2.54,8.84-3.74,2.86-1.16,5.55-2.53,7.93-4.49,6.85-5.89,12.4-14.07,13.45-23.22.81-4.58.54-9.42,1.08-14.12.69-4.88,1.91-10.06,5-14.02,2.2-2.57,4.44-4.29,6.29-7.02,1.87-2.41,3.2-5.14,4.66-7.99,2.91-5.61,5.64-11.22,6.96-17.32,1.48-6.07,2.07-12.39,3.02-18.66l.99.12c-.79,9.42-1.15,19.31-4.81,28.24-2.54,5.91-4.91,11.95-8.63,17.23-2.51,3.92-6.86,6.47-8.41,10.91-.45,1.16-.99,3.15-1.35,4.39-1.6,5.98-.74,12.5-1.94,18.7-1.27,9.76-7.16,18.66-14.77,24.76-2.58,2.01-5.63,3.47-8.66,4.59-2.99,1.13-6.03,2.07-8.75,3.39-1.25.61-2.26,1.62-3,2.87-2.26,4.07-2.15,8.92-2.79,13.53,0,0-1-.09-1-.09h0Z"/>
      <path class="cls-4" d="M364.98,382.2c-.1-6.69-2.02-15,3.21-20.36,2.3-1.81,5.06-2.96,7.66-4.21,8.94-3.58,15.96-10.17,20.03-18.87,2.04-4.24,3.08-8.84,3.46-13.52.53-4.9.33-9.72,1.59-14.66.97-3.37,2.43-6.28,4.35-9.18,1.82-2.74,4.26-4.88,6.11-7.54,5.32-7.89,8.81-17.05,10.84-26.3,1.37-6.26,1.94-12.71,2.78-19.13l.5.04c-.27,6.46-.6,12.93-1.58,19.4-1.37,8.11-4.13,15.9-7.74,23.25-2.22,4.51-5.7,7.89-8.54,11.88-1.6,2.49-3.09,5.47-3.87,8.3-1.14,4.5-.93,9.51-1.49,14.23-.45,4.97-1.58,9.96-3.83,14.46-3.02,5.98-7.31,11.36-12.91,15.1-2.82,1.89-5.89,3.15-8.85,4.42-7.59,3.19-10.12,4.11-10.93,13.01-.25,3.18-.14,6.42-.28,9.67h-.5Z"/>
      <path class="cls-4" d="M370.65,391.96c-.75-7.52-3.81-18.59,2.76-24.32,4.82-3.05,10.05-5.2,14.39-8.44,8.87-6.41,14.49-16.5,15.11-27.49.67-6.67,0-14.81,4.02-21.04,2.22-3.62,5.42-6.68,7.84-9.99,9.53-13.91,11.12-31.13,12.8-47.59-.03,19.43-1.87,40.88-15.88,55.78-5.95,6.76-5.03,14.43-5.82,23.11-.66,11.54-6.98,22.71-16.67,29.16-4.79,3.32-10.12,5.27-14.91,7.96-5.92,5.26-3.66,15.44-3.64,22.85h0Z"/>
    </g>
    <g>
      <path class="cls-4" d="M338.16,443.47c9.13-.62,18.39-1.25,26.97-4.25,16.99-6.23,31.16-19.14,40.9-34.28,4.98-7.63,9.19-15.73,13.24-23.91,13-25.33,23.67-48.59,21.66-77.84-.38-9.13-1.69-18.22-2.98-27.31l1.4,6.74c1.21,6.64,2.43,13.79,3.05,20.46,3.26,29.32-7.42,53.87-20.45,79.28-10.66,21.63-21.97,40.37-43.62,52.66-12.02,7.36-26.4,8.68-40.17,8.44h0Z"/>
      <path class="cls-4" d="M343.36,440.21c20.72-4.16,30.9-6.17,44.48-23.62,11-13.43,21.47-27.49,29.15-43.1,3.85-7.76,6.9-16,10.15-24.05,11.38-27.38,13.7-47.19,9.28-76.52,3.7,17.13,5.29,35.09,1.3,52.36-1.9,8.61-4.81,16.95-7.93,25.18-3.21,8.2-6.23,16.41-10.11,24.35-7.91,15.85-18.57,30.04-30.06,43.27-2.86,3.29-5.83,6.66-9.24,9.52-10.18,9.22-24,10.83-37.02,12.59h0Z"/>
      <path class="cls-4" d="M348.56,436.94c12.14-5.37,23.45-6.66,31.25-18.77.98-1.38,2.34-3.81,3.21-5.29,5.13-9.18,11.77-17.54,18.04-25.84,5.04-6.64,9.92-13.38,13.47-20.78,3.47-7.44,5.53-15.74,8.61-23.42,10.8-27.34,15.95-42.9,11.75-72.88,4.82,22.87,3.3,40.21-4.83,62.04-2.53,7.03-6.06,16.67-8.36,23.64-1.27,3.91-2.62,8.07-4.47,11.92-7.99,16.2-21.15,28.71-30.72,43.76-.81,1.32-2.48,4.02-3.3,5.34-8.99,14.57-20,15.17-34.65,20.28h0Z"/>
      <path class="cls-4" d="M353.76,433.67c3.09-2.61,6.61-4.68,10.13-6.64,11.15-5.86,13.22-11.76,17.12-22.97,3.83-9.52,10.44-17.71,17-25.31,6.5-7.61,13.11-15.1,15.87-24.67,1.44-5.8,3.02-11.84,5.1-17.48,4.03-11.47,9.68-22.12,12.8-33.81,3.18-11.65,3.08-23.82,1.57-35.77,2.42,11.84,3.07,24.34.31,36.23-2.68,11.85-8.23,22.89-12.03,34.28-2,5.75-3.48,11.41-4.92,17.36-2.78,10.06-9.88,18.07-16.52,25.75-6.61,7.55-13,15.18-16.95,24.37-.81,1.81-1.42,3.64-2.18,5.59-2.18,5.73-5.91,11.28-11.32,14.45-5.25,3.09-10.98,5.12-15.98,8.63h0Z"/>
    </g>
    <path class="cls-4" d="M372.4,404.38c.96-6.83.86-13.75,2.15-20.63.63-3.45,1.77-7.29,4.66-9.56,5.28-4.58,12.05-6.62,16.83-11.67,4.45-4.84,7.84-11.05,10.13-17.21,2.56-6.52,2.09-13.2,3.05-20.1.71-7.2,5.43-13.21,9.28-18.9,5.69-8.54,8.57-18.48,9.74-28.62.95-6.82,1.28-13.72,1.99-20.57-.02,6.9-.04,13.8-.49,20.73-.64,10.38-3.29,21-8.99,29.9-3.61,5.76-7.91,11.02-8.61,17.9-.81,6.74-.6,14.16-3.24,20.64-2.52,6.65-6.11,12.83-11.05,18.03-5.03,5.05-12.06,7.04-17.48,11.24-6.43,4.82-5.81,21.08-7.97,28.82h0Z"/>
    <path class="cls-4" d="M367.81,420.08c6.5-3.88,8.2-11.99,9.58-18.89.66-3.59,1.12-7.23,1.78-10.87.56-2.68,1.06-5.96,3.15-8,4.5-4.7,10.05-8.12,14.94-12.27,4.07-3.45,7.25-7.81,9.56-12.63,1.58-3.22,2.98-6.56,3.95-9.97,1.07-3.49,1.07-7.04,1.52-10.64.43-3.7,1.05-7.42,2.3-11.08,1.39-3.67,3.38-6.84,5.38-9.94,2.03-3.06,3.75-6.15,5.42-9.42,3.26-6.42,4.61-13.67,5.37-20.82.81-7.27.94-14.64,1.68-21.93-.04,7.36.25,14.69-.11,22.06-.33,9.21-2.47,18.61-7.21,26.76-2.58,4.71-5.95,9.34-7.78,14.25-1.1,3.3-1.68,6.86-2.07,10.45l-.56,5.44c-.57,5.69-2.85,11.06-5.33,16.1-2.54,5.05-6.08,9.72-10.52,13.28-5.04,3.99-10.64,7.2-15.3,11.56-1.94,1.84-2.26,4.54-2.94,7.07-.79,3.55-1.4,7.18-2.22,10.78-1.66,6.9-3.77,15.16-10.58,18.68h0Z"/>
    <g>
      <path class="cls-4" d="M338.16,444.8c-5.72,3.22-11.41,6.34-17.46,8.91-8.19,3.2-17.05,4.83-25.83,3.73,0,0-6.51-.36-6.51-.36,4.28-.66,8.68-.67,12.98-.81,4.23-.39,8.46-1.29,12.57-2.41,8.38-2.18,16.03-6.34,24.25-9.06h0Z"/>
      <path class="cls-4" d="M338.97,443.82c-14.05,5.54-28.56,12.21-44.05,10.17,0,0-6.49-.37-6.49-.37,4.27-.68,8.65-.64,12.94-.81,4.24-.39,8.47-1.18,12.62-2.16,8.41-1.94,16.44-5.31,24.98-6.84h0Z"/>
      <path class="cls-4" d="M339.78,442.84c-4.21,1.11-8.39,2.2-12.56,3.36-3.73,1.08-8.88,2.57-12.64,3.25-4.3.8-8.63,1.43-13.04,1.48-4.36-.09-8.66-.61-13.03-.75,6.42-1,12.94-.35,19.34-1.58,10.7-1.48,21.07-5.14,31.93-5.76h0Z"/>
      <path class="cls-4" d="M340.6,441.87c-8.68,1.21-17.15,3.07-25.77,4.5-4.34.61-8.7,1.11-13.13,1.14-4.38-.08-8.72-.63-13.11-.76,6.47-.97,13.03-.41,19.5-1.47,10.79-1.28,21.54-3.92,32.51-3.41h0Z"/>
      <path class="cls-4" d="M341.41,440.89c-13.25.58-26.24,3.1-39.51,3.19-4.42-.09-8.8-.66-13.23-.78,4.36-.72,8.78-.56,13.19-.78,4.36-.29,8.73-.72,13.1-1.16,8.67-.94,17.79-1.55,26.45-.47h0Z"/>
      <path class="cls-4" d="M342.23,439.91c-8.91.59-17.8.14-26.71.3-5.54.09-11.15.59-16.75.31-3.22-.29-6.78-.54-10.01-.67,4.41-.74,8.9-.5,13.34-.8,0,0,6.66-.5,6.66-.5,11.16-.86,22.37.13,33.47,1.37h0Z"/>
      <path class="cls-4" d="M343.04,438.94c-13.62-1-27.03-1.34-40.64-1.64-4.46-.19-9.09-.78-13.57-.89,2.25-.35,4.52-.5,6.8-.58,6.6-.06,13.8-.32,20.38-.2,9.09.19,18.18,1.22,27.03,3.31h0Z"/>
      <path class="cls-4" d="M343.85,437.96c-9.02-.89-18.39-2.26-27.42-3.02-9.16-.63-18.34-1.47-27.52-1.98,2.29-.36,4.6-.5,6.92-.56,6.73-.03,14.08-.03,20.77.55,9.22.86,18.33,2.52,27.25,5.01h0Z"/>
      <path class="cls-4" d="M344.67,436.98c-9.15-1.25-18.64-3.15-27.76-4.6-9.25-1.32-18.56-2.45-27.91-2.87,18.81-2.07,37.75,2,55.67,7.47h0Z"/>
      <path class="cls-4" d="M345.48,436.01c-18.88-3.07-37.14-9.5-56.4-9.94,19.29-2.36,38.25,4.2,56.4,9.94h0Z"/>
      <path class="cls-4" d="M346.29,435.03c-19.06-4.16-37.5-11.43-57.14-12.4,9.78-1.87,19.84.37,29.2,3.24,8.22,2.67,19.88,6.36,27.93,9.16h0Z"/>
    </g>
    <path class="cls-7" d="M321.27,327.52c1.42,7.44,1.69,13.76,2.17,17.36s.23,10.81.05,13.24"/>
    <g>
      <path class="cls-4" d="M346.04,167.95c7.32,15.7,2.13,33.62-3.3,49.05-2.51,8.09-6.34,15.58-9.89,23.2-2.57,5.4-5.3,11.56-7.73,17.08-.58,1.35-1.57,3.68-2.09,5.02,0,0-.14.35-.14.35-.02.07-.07.17-.09.23,0,0-.01.04.01-.05,1.25-1.16-4.69-1.98-2.76-1.04-.1.03,2.75,1.12,2.74,1.13-.79,2.19-1.53,4.44-2.19,6.68-3.05,8.92-2.12,18.49-1.83,27.76.9,11.83,2.57,23.56,4.38,35.29.42,3.47.68,7.21.95,10.69.44,3.52.36,7.24.17,10.78-.23,7.09-1.48,15.05-8.04,19.09,6.1-4.38,6.99-12.15,6.85-19.12.11-4.68-.45-9.48-1.04-14.13-.67-7.1-2.31-14.03-3.38-21.08-1.39-9.44-2.81-18.95-3.03-28.51-.09-4.88-.3-9.6.38-14.52.86-4.9,2.37-9.41,4-13.97l2.75,1.1-.03.07c1.92.97-4.02.16-2.77-1.03l.05-.14.04-.12c1.26-3.31,3.51-8.15,4.95-11.42,4.99-11.41,11.46-22.32,15.61-34.06,5.78-15.3,11.63-32.28,5.43-48.36h0Z"/>
      <path class="cls-4" d="M340.82,167.53c6.75,15.53,1.77,32.92-2.98,48.27-2.66,9.99-7.55,19.14-11.33,28.69-2.02,4.98-4.74,11.32-6.64,16.31-.03.11-.11.32-.14.42.13-.48-.28-1.27-.84-1.44,0,0,.86,1.28.86,1.28,0,.11-.02.22-.04.33-.05.32-.17.63-.25.92-1.25,4.09-2.59,8.33-3.29,12.52-.59,4.46-.44,9.22-.38,13.76.2,11.64,1.69,23.21,3.22,34.74,1.2,6.9,1.64,14.02,2.13,21.02-.11,9.15.58,20.25-7.45,26.16,5.67-4.68,6.35-12.25,6.22-19.12.09-4.6-.43-9.33-.97-13.91-.63-6.98-2.12-13.83-3.11-20.77-1.3-9.29-2.56-18.65-2.75-28.04-.24-7.09-.28-14.41,1.92-21.26.58-2.07,1.28-4.25,1.91-6.3l.05-.18c.02-.06,0-.02,0,.03-.14,0,.88,1.39.87,1.4-.45-.14-.92-.81-.88-1.3,0-.36.06-.48.14-.78.51-1.56,1.56-3.93,2.17-5.47,2.33-5.51,4.75-11.56,7.22-17.02,3.3-7.43,7.02-14.78,9.31-22.57,5.1-15.26,10.71-31.81,5.01-47.7h0Z"/>
      <path class="cls-4" d="M335.61,167.11c4.6,11.4,3.13,24.19.32,35.86-2.11,7.85-3.7,15.79-6.63,23.33-2.87,7.39-5.98,15.07-8.67,22.54,0,0-4.03,10.54-4.03,10.54l.05.34c-.11,1.12-.63,2.6-.9,3.69-.85,3.16-1.85,6.73-2.31,9.9-.53,4.41-.4,9.09-.33,13.57.22,13.72,2.06,27.49,3.76,41.09.58,6.91,1.35,13.82.97,20.75-.19,6.82-1.06,14.44-6.65,19.09,5.21-4.97,5.71-12.33,5.59-19.11.03-6.87-.86-13.72-1.64-20.53-2.14-13.65-4.27-27.39-4.58-41.23-.08-4.7-.26-9.26.29-14,.54-4.05,2.13-9.28,3.19-13.23,0,0,.05.34.05.34-.17-.76.16-1.53.37-2.22.33-.96,1.24-3.32,1.61-4.29,1.58-4.04,3.86-10.04,5.4-14.08,1.86-4.7,3.91-9.3,5.73-13.98,3.08-7.43,4.91-15.29,7.19-22.92,3.08-11.51,5.08-23.86,1.22-35.47h0Z"/>
      <path class="cls-4" d="M330.39,166.69c5.6,15.24,1.05,31.66-2.42,46.83-1.44,7.86-4.5,15.27-7.13,22.75-1.31,3.68-2.48,7.56-3.78,11.23,0,0-1.96,5.6-1.96,5.6-.44,1.43-1.39,3.71-1.58,5.12,0,1.22-.5,2.61-.74,3.77-.76,3.13-1.69,6.67-2.1,9.81-.48,4.37-.36,8.95-.29,13.38.09,18.09,3.48,35.99,4.3,54.05.09,4.57-.05,9.09-.57,13.63-.46,4.55-2.22,8.99-5.46,12.26,6.21-7.07,4.98-17.1,4.77-25.83-1.33-18.07-5.2-35.89-5.4-54.06-.09-4.61-.23-9.11.25-13.74.43-3.36,1.32-6.84,2.14-10.1.19-.75.58-2.28.69-3.01-.09-1.26,1.17-4.39,1.73-6.08,0,0,1.98-5.59,1.98-5.59,2.45-7.39,5.37-15.05,8.04-22.32,2.78-7.4,4.25-15.2,6.32-22.75,2.77-11.39,4.68-23.47,1.22-34.96h0Z"/>
      <path class="cls-4" d="M325.17,166.27c4.99,15.1.75,31.1-2.14,46.16-1.17,7.75-3.9,15.15-6.22,22.58-1.15,3.66-2.18,7.52-3.35,11.16,0,0-1.76,5.56-1.76,5.56-.46,1.57-1.26,3.73-1.3,5.22-.03,1.27-.38,2.45-.61,3.62,0,0-.72,3.26-.72,3.26-1.64,6.47-1.55,12.96-1.41,19.65.08,17.79,3.06,35.47,3.77,53.22.08,4.49-.05,8.93-.49,13.4-.39,4.48-1.93,8.86-4.82,12.32,5.5-7.36,4.35-17.02,4.15-25.67-1.18-17.78-4.64-35.36-4.8-53.23-.18-6.64-.27-13.63,1.38-20.18.24-1.04.86-3.85,1.08-4.87.1-.5.22-1.11.22-1.43v.08c-.02-1.38.31-2.26.56-3.25,1.21-4.08,3.14-9.84,4.37-13.93,1.62-5.58,3.68-11.12,5.4-16.64,2.47-7.37,3.61-15.08,5.47-22.57,2.45-11.28,4.27-23.1,1.22-34.47h0Z"/>
      <path class="cls-4" d="M319.96,165.85c3.48,11.95,1.7,24.66-.4,36.7-.69,3.72-1.43,8.46-1.95,12.15-1.44,8.18-4.18,15.96-6.12,23.88-1.02,3.98-2.15,7.95-3.23,11.88-.53,1.97-1.03,3.83-1.02,5.87-.93,6.18-2.51,11.93-2.35,18.18-.48,20.56,2.77,40.84,3.34,61.34-.17,8.11.28,16.94-4.64,23.86,4.49-7.1,3.76-15.79,3.61-23.84-.4-8.06-1.19-16.44-2.2-24.46-1.5-14.33-2.64-28.74-1.86-43.17.39-4.06,1.49-8.17,2.06-12.11.03-1,.11-2.18.36-3.16,1.21-5.02,2.81-9.9,4.08-14.87,2.63-10,6.01-19.56,7.42-29.75,0,0,1.19-6.04,1.19-6.04,2.34-11.97,4.53-24.37,1.69-36.46h0Z"/>
      <path class="cls-4" d="M314.74,165.43c2.01,7.86,1.84,16.11,1.14,24.14-.76,8.08-2.31,15.98-3.11,24.03-1.99,12.04-5.29,23.65-7.87,35.5-.45,2.01-.78,3.77-.76,5.85-.39,4.11-1.34,7.96-1.71,12-.76,14.03.23,28.14,1.21,42.17.8,9.96,1.61,20.26,1.26,30.27-.11,6.05-.69,12.29-3.82,17.61,2.83-5.44,3.2-11.59,3.09-17.62.04-14.09-2.06-28.18-3-42.22-.6-10.11-1.12-20.24-.61-30.38.5-5.09,1.66-10,1.95-15.05,2.63-12.85,6.43-25.53,8.81-38.35,1.98-15.9,6.58-31.9,3.42-47.96h0Z"/>
      <path class="cls-4" d="M309.52,165c3.21,15.75-.41,31.76-1.6,47.51-1.56,12.87-4.89,25.35-6.77,38.11-.08,4.98-1.04,9.88-1.48,14.79-.6,13.84.19,27.73.99,41.56.49,7.68.91,16.14,1.1,23.84-.13,7.9.21,16.16-3.21,23.48,3.05-7.43,2.5-15.6,2.37-23.47-.36-7.67-.93-16.1-1.58-23.76-1.09-13.89-1.83-27.84-1.35-41.78.4-4.99,1.39-9.86,1.51-14.84,2-12.76,5.3-25.35,7.11-38.09,1.49-15.74,5.4-31.51,2.92-47.36h0Z"/>
      <path class="cls-4" d="M304.31,164.58c2.41,15.57-.44,31.29-1.24,46.87-1.03,11.73-3.28,23.27-4.8,34.9-.24,1.94-.38,3.8-.35,5.78-.3,5.91-1.3,11.63-1.15,17.55-.23,19.51,1.5,39.12,1.7,58.64-.08,7.69.24,15.95-2.44,23.27,2.36-7.4,1.83-15.58,1.68-23.26-.05-5.35-.56-12.2-.81-17.57-1.01-13.67-1.58-27.37-1.61-41.09-.18-5.85.76-11.77,1.12-17.57-.03-1.94.14-3.99.39-5.93,1.62-11.63,3.83-23.19,5.09-34.82,1.07-15.57,4.18-31.13,2.42-46.77h0Z"/>
      <path class="cls-4" d="M299.09,164.16c1.58,15.39-.42,30.85-.88,46.24-.6,11.57-2.25,23.04-3.21,34.56-.24,5.77-.41,11.56-.85,17.3-.41,22.04,1.3,47.37,1.05,69.37-.01,3.86-.13,7.73-.61,11.56-.25,1.92-.67,3.8-1.09,5.68,1.68-7.57,1.17-15.34,1.08-23.03,0-3.85-.25-7.7-.38-11.55-.58-15.01-1.41-31.26-1.38-46.28-.23-5.77.46-11.58.66-17.33-.01-1.92.07-3.9.23-5.82,1.06-11.53,2.66-23,3.46-34.52.7-15.39,2.94-30.75,1.93-46.18h0Z"/>
      <path class="cls-4" d="M293.87,163.74c.74,26.62-.99,53.23-2.12,79.82-.1,5.48-.12,11.59-.37,17.1-.27,23.92,1.09,50.28.45,74.14-.06,3.19-.4,8.21-.86,11.38.38-3.2.59-8.09.57-11.38-.02-28.52-2.02-57.02-1.01-85.55.08-10.74,1.45-28.99,1.86-39.9.47-13.28,1.76-32.45,1.48-45.6h0Z"/>
      <path class="cls-4" d="M288.66,163.32c-.78,58.95.85,121.18-.21,180.16.18-3.75.06-7.51.05-11.26-.8-56.18-1.67-112.76.16-168.9h0Z"/>
    </g>
    <g>
      <path class="cls-4" d="M320.07,282.54c.13,21.05,5.98,41.33,7.65,62.26.58,7.84.92,16.09-1.46,23.72-2.48,7.77-9.21,13.4-16.11,17.11-4.65,2.48-9.51,4.47-14.4,6.33,4.7-2.26,9.47-4.44,13.91-7.18,6.57-3.97,12.65-9.33,14.93-16.8,2.12-7.46,1.74-15.32,1.14-23.01-1.6-20.76-7.11-41.46-5.66-62.43h0Z"/>
      <path class="cls-4" d="M324.28,295.61c1.43,24.3,9.72,48.53,5.15,72.97-1.95,11-8.88,17.36-18.93,21.39-4.55,1.87-9.2,3.33-13.84,4.84,4.48-1.94,9.09-3.59,13.44-5.74,9.3-4.26,15.86-10.42,17.48-20.88,4.23-24.14-3.81-48.35-3.29-72.58h0Z"/>
      <path class="cls-4" d="M328.5,308.68c2.87,22.4,9.86,45.77,2.5,68.04-3.23,10-10.32,14.96-20.16,17.58-4.42,1.24-8.86,2.17-13.27,3.36,4.27-1.62,8.71-2.76,12.97-4.3,6.28-2.1,12.58-5.3,15.99-11.22,11.31-21.9,2.79-49.99,1.97-73.48h0Z"/>
      <path class="cls-4" d="M332.71,321.75c3.56,16.7,7.71,33.96,4.09,51.06-1.88,8.39-5.52,17.32-13.21,22-3.78,2.3-8.15,3.12-12.43,3.81-4.25.6-8.49,1.03-12.68,1.91,6.1-1.94,12.57-2.48,18.65-4.45,10.54-2.9,15.67-13.73,17.72-23.67,3.62-16.83-.17-33.83-2.13-50.65h0Z"/>
      <path class="cls-4" d="M336.92,334.82c4.77,16.02,8.28,31.64,2.53,47.99-3.36,9.58-11.09,19.08-21.89,19.77-6.07.58-12.14-.09-18.17.8,5.89-1.5,12.05-1.21,18.01-2.1,10.11-1.14,17-10.09,20.17-19.14,2.56-7.47,3.57-15.59,3.08-23.45-.73-7.98-2.18-15.93-3.73-23.86h0Z"/>
    </g>
    <g>
      <path class="cls-4" d="M366.22,383.45c7.37,16.24,6.27,32.36-6.84,45.25,0,0-2.22,2.11-2.22,2.11l-2.32,1.95c-4.64,4.1-10.54,6.88-16.56,8.04-7.9,1.61-16.1,1.05-23.95-.43,7.92-.21,15.85-.5,23.22-2.61,4.59-1.33,8.86-3.27,12.58-6.18,2.06-1.63,4.58-3.82,6.44-5.71,12.6-12.16,13.35-26.18,9.67-42.42h0Z"/>
      <path class="cls-4" d="M362.13,376.94c4.78,10.92,6.94,24.15,1.13,35.16-5.66,10.48-15.24,20.59-27.3,22.98-7.98,1.46-16.04,1.09-23.77-.48,7.87.07,15.73-.42,23.13-2.3,7.37-1.93,13.39-6.92,18.29-12.58,5.06-5.65,9.1-12.31,10.22-19.76,1.17-7.49-.07-15.32-1.7-23.01h0Z"/>
      <path class="cls-4" d="M358.04,370.43c3.64,9.13,6.32,19.41,3.75,29.22-3.41,12.15-15.16,27.29-28.11,29.68-7.87,1.29-15.88,1.18-23.62-.52,7.82.31,15.64-.32,23.06-2.02,10.56-2.82,18.86-13.43,23.75-22.75,5.54-10.48,3.55-22.32,1.17-33.61h0Z"/>
      <path class="cls-4" d="M353.94,363.91c3.4,9.15,6.36,19.23,4.09,29.05-3.06,11.88-13.83,28.2-26.63,30.61-7.84,1.15-15.8,1.25-23.5-.56,7.77.56,15.56-.22,23.01-1.73,10.35-2.71,18.25-14.45,22.62-23.71,5.2-10.63,2.71-22.42.4-33.67h0Z"/>
      <path class="cls-4" d="M349.85,357.4c3.17,9.17,6.4,19.1,4.43,28.9-2.71,11.63-12.49,29.07-25.11,31.52-7.81,1.01-15.75,1.33-23.4-.58,7.73.81,15.5-.12,22.98-1.46,10.19-2.65,17.6-15.46,21.47-24.64,4.86-10.8,1.86-22.51-.38-33.74h0Z"/>
      <path class="cls-4" d="M345.76,350.89c6.03,18.12,8.18,27.79-1.53,45.34-3.95,6.72-9.13,14.16-17.27,15.83-2.03.29-3.87.41-5.87.56-5.81.38-11.8.36-17.45-1.17,6.72.96,13.5.2,20.17-.74,8.76-.53,14.35-8.58,18.39-15.63,9.77-17.46,7.41-25.67,3.56-44.2h0Z"/>
      <path class="cls-4" d="M341.67,344.37c5.71,18.66,8.52,26.89-.49,45.42-3.9,7.59-9.8,16.77-19.37,16.75-6.73.53-13.74.97-20.31-.88,7.66,1.37,15.45.13,22.99-.86,9.92-2.63,16.2-17.52,19.17-26.53,4.11-11.14.13-22.68-1.98-33.91h0Z"/>
    </g>
    <path class="cls-4" d="M299.39,398.14c56.51-15.8,122.12-25.09,180.12-13.44,8.47,1.88,16.84,4.25,24.97,7.26-8.19-2.86-16.58-5.07-25.07-6.78-57.89-10.92-123.36-1.62-180.02,12.96h0Z"/>
    <path class="cls-4" d="M473.45,406.61c-56.52-11.07-114.98-11.43-171.96-3.6,0,0,10.69-1.6,10.69-1.6,3.56-.53,7.12-1.12,10.71-1.46,24.94-2.99,50.48-3.82,75.57-2.85,25.13,1.19,50.47,3.8,74.99,9.51h0Z"/>
    <path class="cls-4" d="M469.63,433.67c-12.57-6.31-26.14-10.28-39.68-13.92-20.23-5.14-41.45-8.46-62.24-10.46-7.05-.79-16.52-1.28-23.63-1.8-4.83-.18-13.54-.5-18.43-.68,0,0-21.08-.19-21.08-.19l21.09-.3c4.96.12,13.6.32,18.45.44,7.14.44,16.61.86,23.68,1.63,20.86,1.88,42.12,5.28,62.35,10.62,13.53,3.78,27.06,8.03,39.49,14.66h0Z"/>
    <path class="cls-4" d="M301.5,410.39c29.28,1.52,59.96,4.23,88.86,8.75,23.74,4.05,47.88,8.7,70.25,17.83,5.1,2.17,10.31,4.49,14.77,7.82-2.94-2.17-6.44-3.83-9.77-5.34-3.32-1.5-6.91-2.89-10.37-4.08-24.59-8.55-50.37-13.11-76.07-16.89-25.04-3.7-52.37-6.08-77.67-8.1h0Z"/>
    <path class="cls-4" d="M469.78,453.22c-25.63-13.16-53.43-21.7-81.35-28.48-13.63-3.13-28.59-6.02-42.44-7.96-2.64-.45-8.03-1.18-10.7-1.45-3.61-.39-12.56-1.56-16.1-1.8-3.58-.31-12.5-1.07-16.15-1.38,0,0,10.79.68,10.79.68,8.25.37,18.68,1.59,26.92,2.45,3.35.47,12.59,1.78,16.07,2.28,38.96,6.55,78.02,16.88,112.97,35.68h0Z"/>
    <path class="cls-4" d="M445.11,487.37c-3.9-5.36-9.23-9.91-14.29-14.16-7.9-6.27-16.29-11.91-25.04-16.91-8.32-4.9-18.11-9.84-26.91-13.8-2.25-1.1-6.89-3.16-9.22-4.1-5.41-2.33-13.24-5.54-18.73-7.5-14.71-5.72-32.67-11.31-47.89-15.91,15.43,4.23,33.39,9.45,48.2,15.1,7.33,2.58,16.27,6.37,23.47,9.37,13.6,6.18,27.64,13.17,40.11,21.43,7.02,4.55,13.9,9.66,20.11,15.3,3.69,3.43,7.33,7.02,10.2,11.18h0Z"/>
  </g>
  <g id="Calque_10" data-name="Calque 10">
    <path class="cls-7" d="M304.38,372.23c-4.02-1.15-11.38-3.26-14.26,1.53-.3.49-.54,1.17-.73,1.96-.2-.79-.44-1.47-.73-1.96-2.88-4.79-10.24-2.68-14.26-1.53-4.02,1.15-12.18,2.01-12.18,2.01h.79c25.05,11.2,26.29,24.99,26.29,24.99,0,0,.04-.36.1-.98.06.62.1.98.1.98,0,0,1.24-13.79,26.29-24.99h.79s-8.16-.86-12.18-2.01Z"/>
  </g>
</svg>