<?xml version="1.0" encoding="UTF-8"?>
<svg xmlns="http://www.w3.org/2000/svg" xmlns:xlink="http://www.w3.org/1999/xlink" viewBox="0 0 1646.35 1529.85">
  <defs>
    <style>
      .cls-1 {
        clip-path: url(#clippath-4);
      }

      .cls-2 {
        fill: #d4ae85;
      }

      .cls-3 {
        fill: #fff;
      }

      .cls-4 {
        fill: #f07e19;
      }

      .cls-5 {
        fill: #501c11;
      }

      .cls-6, .cls-7, .cls-8, .cls-9, .cls-10 {
        fill: none;
      }

      .cls-11 {
        opacity: .13;
      }

      .cls-12 {
        clip-path: url(#clippath-1);
      }

      .cls-13 {
        fill: #af7bb4;
      }

      .cls-14 {
        clip-path: url(#clippath-5);
      }

      .cls-7 {
        stroke-width: 4px;
      }

      .cls-7, .cls-8, .cls-9, .cls-10 {
        stroke: #fff;
        stroke-miterlimit: 10;
      }

      .cls-15 {
        clip-path: url(#clippath-3);
      }

      .cls-8 {
        stroke-width: 3.41px;
      }

      .cls-16 {
        fill: #462e15;
      }

      .cls-9 {
        stroke-width: 1.3px;
      }

      .cls-17 {
        fill: #65c3d3;
      }

      .cls-18 {
        clip-path: url(#clippath-2);
      }

      .cls-19 {
        fill: #f3e600;
      }

      .cls-20 {
        fill: #c0e2e8;
      }

      .cls-10 {
        stroke-width: 1.76px;
      }

      .cls-21 {
        clip-path: url(#clippath);
      }
    </style>
    <clipPath id="clippath">
      <path class="cls-3" d="M195.6,366.33h0c29.32,0,53.12,23.8,53.12,53.12v108.84c0,6.21-5.04,11.25-11.25,11.25h-88.09c-6.62,0-12-5.38-12-12v-103c0-32.13,26.08-58.21,58.21-58.21Z"/>
    </clipPath>
    <clipPath id="clippath-1">
      <path class="cls-6" d="M624.2,370.72h73.15c6.34,0,11.49,5.15,11.49,11.49v171.85c0,3.58-2.91,6.49-6.49,6.49h-83.15c-3.58,0-6.49-2.91-6.49-6.49v-171.85c0-6.34,5.15-11.49,11.49-11.49Z"/>
    </clipPath>
    <clipPath id="clippath-2">
      <path class="cls-6" d="M617.71,370.72h86.13c2.76,0,5,2.24,5,5v53.21h-96.13v-53.21c0-2.76,2.24-5,5-5Z"/>
    </clipPath>
    <clipPath id="clippath-3">
      <path class="cls-6" d="M534.52,368.68h0c26.77,0,48.51,21.74,48.51,48.51v141.34c0,3.32-2.7,6.02-6.02,6.02h-84.99c-3.32,0-6.02-2.7-6.02-6.02v-141.34c0-26.77,21.74-48.51,48.51-48.51Z"/>
    </clipPath>
    <clipPath id="clippath-4">
      <path class="cls-6" d="M429.65,367.09h-40.21c-15.33,0-27.77,12.43-27.77,27.77v138.7c0,4.72,3.83,8.55,8.55,8.55h1.6v29.37c0,2.15,1.74,3.89,3.89,3.89s3.89-1.74,3.89-3.89v-29.37h2.43v14.76c0,1.97,1.6,3.57,3.57,3.57s3.57-1.6,3.57-3.57v-14.76h59.69c4.72,0,8.55-3.83,8.55-8.55v-138.7c0-15.33-12.43-27.77-27.77-27.77Z"/>
    </clipPath>
    <clipPath id="clippath-5">
      <path class="cls-3" d="M307.11,366.33h0c14.93,0,27.05,12.12,27.05,27.05v226.99c0,3.16-2.57,5.73-5.73,5.73h-44.84c-3.37,0-6.11-2.74-6.11-6.11v-224.01c0-16.36,13.28-29.64,29.64-29.64Z"/>
    </clipPath>
  </defs>
  <g id="Calque_4" data-name="Calque 4">
    <rect class="cls-20" x="96.29" y="283.91" width="660" height="495"/>
  </g>
  <g id="Calque_2" data-name="Calque 2">
    <g id="Frisko_Avant_dernier" data-name="Frisko Avant dernier">
      <path class="cls-2" d="M182.24,539.54h22.21v97.35c0,6.13-4.98,11.11-11.11,11.11h0c-6.13,0-11.11-4.98-11.11-11.11v-97.35h0Z"/>
      <polygon class="cls-11" points="170.76 533.06 204.46 548.84 204.46 517.28 170.76 533.06"/>
      <g>
        <path class="cls-3" d="M195.6,366.33h0c29.32,0,53.12,23.8,53.12,53.12v108.84c0,6.21-5.04,11.25-11.25,11.25h-88.09c-6.62,0-12-5.38-12-12v-103c0-32.13,26.08-58.21,58.21-58.21Z"/>
        <g class="cls-21">
          <image width="911" height="786" transform="translate(93.78 355.79) scale(.24 .3)" xlink:href="../../Desktop/Illustrator 1 - stagiaires/Illustrator 1 - stagiaires/J4-13. FRISKO/Watercolour-Circles/PNG/2.png"/>
        </g>
      </g>
      <path class="cls-7" d="M191.95,373.53s48.38,1.02,48.38,48.38"/>
    </g>
    <g id="Frisko_Dernier" data-name="Frisko Dernier">
      <path class="cls-2" d="M650.24,559.87h22.21v97.35c0,6.13-4.98,11.11-11.11,11.11h0c-6.13,0-11.11-4.98-11.11-11.11v-97.35h0Z"/>
      <polygon class="cls-11" points="638.76 553.39 672.46 569.17 672.46 537.61 638.76 553.39"/>
      <g class="cls-12">
        <image width="1285" height="1369" transform="translate(361.35 160.85)" xlink:href="../../Desktop/Illustrator 1 - stagiaires/Illustrator 1 - stagiaires/J4-13. FRISKO/Watercolour-Circles/PNG/18.png"/>
        <rect class="cls-3" x="604.99" y="428.94" width="111.06" height="70.09"/>
      </g>
      <path class="cls-4" d="M631.04,394.84v2.06c0,.32.28.63.62.62s.62-.27.62-.62v-2.06c0-.32-.28-.63-.62-.62s-.62.27-.62.62h0Z"/>
      <path class="cls-16" d="M624.59,370.72h72.38c6.55,0,11.87,5.32,11.87,11.87v46.34h-96.13v-46.34c0-6.55,5.32-11.87,11.87-11.87Z"/>
      <g class="cls-18">
        <g>
          <line class="cls-3" x1="630.13" y1="389.71" x2="629.54" y2="391.66"/>
          <path class="cls-19" d="M629.53,389.55c-.17.57-.34,1.14-.51,1.71l-.07.25c-.09.31.11.69.43.76s.66-.1.76-.43c.17-.57.34-1.14.51-1.71l.07-.25c.09-.31-.11-.69-.43-.76s-.66.1-.76.43h0Z"/>
        </g>
        <g>
          <line class="cls-3" x1="642.88" y1="378.97" x2="643.77" y2="380.94"/>
          <path class="cls-17" d="M642.35,379.28c.26.58.51,1.15.77,1.73l.11.25c.06.13.24.25.37.28.15.04.34.02.48-.06s.25-.21.28-.37c.04-.17,0-.32-.06-.48-.26-.58-.51-1.15-.77-1.73l-.11-.25c-.06-.13-.24-.25-.37-.28-.15-.04-.34-.02-.48.06s-.25.21-.28.37c-.04.17,0,.32.06.48h0Z"/>
        </g>
        <g>
          <line class="cls-19" x1="630.81" y1="378.7" x2="630.22" y2="380.65"/>
          <path class="cls-3" d="M630.22,378.53c-.17.57-.34,1.14-.51,1.71l-.07.25c-.09.31.11.69.43.76s.66-.1.76-.43c.17-.57.34-1.14.51-1.71l.07-.25c.09-.31-.11-.69-.43-.76s-.66.1-.76.43h0Z"/>
        </g>
        <g>
          <line class="cls-3" x1="644.94" y1="394.85" x2="645.5" y2="396.81"/>
          <path class="cls-13" d="M644.34,395.01c.16.57.33,1.14.49,1.72l.07.25c.09.31.44.53.76.43s.53-.43.43-.76c-.16-.57-.33-1.14-.49-1.72l-.07-.25c-.09-.31-.44-.53-.76-.43s-.53.43-.43.76h0Z"/>
        </g>
        <path class="cls-4" d="M648.04,370.2v2.06c0,.32.28.63.62.62s.62-.27.62-.62v-2.06c0-.32-.28-.63-.62-.62s-.62.27-.62.62h0Z"/>
        <g>
          <line class="cls-3" x1="644.11" y1="382.85" x2="643.52" y2="384.81"/>
          <path class="cls-19" d="M643.51,382.69c-.17.57-.34,1.14-.51,1.71l-.07.25c-.09.31.11.69.43.76s.66-.1.76-.43c.17-.57.34-1.14.51-1.71l.07-.25c.09-.31-.11-.69-.43-.76s-.66.1-.76.43h0Z"/>
        </g>
        <g>
          <line class="cls-3" x1="646.95" y1="388.34" x2="647.83" y2="390.32"/>
          <path class="cls-17" d="M646.41,388.65c.26.58.51,1.15.77,1.73l.11.25c.06.13.24.25.37.28.15.04.34.02.48-.06s.25-.21.28-.37c.04-.17,0-.32-.06-.48-.26-.58-.51-1.15-.77-1.73l-.11-.25c-.06-.13-.24-.25-.37-.28-.15-.04-.34-.02-.48.06s-.25.21-.28.37c-.04.17,0,.32.06.48h0Z"/>
        </g>
        <g>
          <line class="cls-19" x1="635.88" y1="379.21" x2="635.29" y2="381.16"/>
          <path class="cls-3" d="M635.29,379.05c-.17.57-.34,1.14-.51,1.71l-.07.25c-.09.31.11.69.43.76s.66-.1.76-.43c.17-.57.34-1.14.51-1.71l.07-.25c.09-.31-.11-.69-.43-.76s-.66.1-.76.43h0Z"/>
        </g>
        <g>
          <line class="cls-3" x1="650.63" y1="365.25" x2="651.19" y2="367.22"/>
          <path class="cls-13" d="M650.03,365.42c.16.57.33,1.14.49,1.72l.07.25c.09.31.44.53.76.43s.53-.43.43-.76c-.16-.57-.33-1.14-.49-1.72l-.07-.25c-.09-.31-.44-.53-.76-.43s-.53.43-.43.76h0Z"/>
        </g>
        <path class="cls-4" d="M651.21,380.78v2.06c0,.32.28.63.62.62s.62-.27.62-.62v-2.06c0-.32-.28-.63-.62-.62s-.62.27-.62.62h0Z"/>
        <g>
          <line class="cls-3" x1="663.42" y1="389.47" x2="662.83" y2="391.43"/>
          <path class="cls-19" d="M662.83,389.31c-.17.57-.34,1.14-.51,1.71l-.07.25c-.09.31.11.69.43.76s.66-.1.76-.43c.17-.57.34-1.14.51-1.71l.07-.25c.09-.31-.11-.69-.43-.76s-.66.1-.76.43h0Z"/>
        </g>
        <g>
          <line class="cls-3" x1="662.22" y1="371.34" x2="663.1" y2="373.31"/>
          <path class="cls-17" d="M661.69,371.65c.26.58.51,1.15.77,1.73l.11.25c.06.13.24.25.37.28.15.04.34.02.48-.06s.25-.21.28-.37c.04-.17,0-.32-.06-.48-.26-.58-.51-1.15-.77-1.73l-.11-.25c-.06-.13-.24-.25-.37-.28-.15-.04-.34-.02-.48.06s-.25.21-.28.37c-.04.17,0,.32.06.48h0Z"/>
        </g>
        <g>
          <line class="cls-19" x1="648.17" y1="361.19" x2="647.59" y2="363.14"/>
          <path class="cls-3" d="M647.58,361.02c-.17.57-.34,1.14-.51,1.71l-.07.25c-.09.31.11.69.43.76s.66-.1.76-.43c.17-.57.34-1.14.51-1.71l.07-.25c.09-.31-.11-.69-.43-.76s-.66.1-.76.43h0Z"/>
        </g>
        <g>
          <line class="cls-3" x1="656.72" y1="395.46" x2="657.28" y2="397.42"/>
          <path class="cls-13" d="M656.13,395.62c.16.57.33,1.14.49,1.72l.07.25c.09.31.44.53.76.43s.53-.43.43-.76c-.16-.57-.33-1.14-.49-1.72l-.07-.25c-.09-.31-.44-.53-.76-.43s-.53.43-.43.76h0Z"/>
        </g>
        <path class="cls-4" d="M668.97,380.57v2.06c0,.32.28.63.62.62s.62-.27.62-.62v-2.06c0-.32-.28-.63-.62-.62s-.62.27-.62.62h0Z"/>
        <g>
          <line class="cls-3" x1="676.47" y1="368.3" x2="675.88" y2="370.25"/>
          <path class="cls-19" d="M675.88,368.14c-.17.57-.34,1.14-.51,1.71l-.07.25c-.09.31.11.69.43.76s.66-.1.76-.43c.17-.57.34-1.14.51-1.71l.07-.25c.09-.31-.11-.69-.43-.76s-.66.1-.76.43h0Z"/>
        </g>
        <g>
          <line class="cls-3" x1="668.61" y1="380.73" x2="669.49" y2="382.7"/>
          <path class="cls-17" d="M668.08,381.04c.26.58.51,1.15.77,1.73l.11.25c.06.13.24.25.37.28.15.04.34.02.48-.06s.25-.21.28-.37c.04-.17,0-.32-.06-.48-.26-.58-.51-1.15-.77-1.73l-.11-.25c-.06-.13-.24-.25-.37-.28-.15-.04-.34-.02-.48.06s-.25.21-.28.37c-.04.17,0,.32.06.48h0Z"/>
        </g>
        <g>
          <line class="cls-19" x1="669.03" y1="370.34" x2="668.44" y2="372.29"/>
          <path class="cls-3" d="M668.43,370.17c-.17.57-.34,1.14-.51,1.71l-.07.25c-.09.31.11.69.43.76s.66-.1.76-.43c.17-.57.34-1.14.51-1.71l.07-.25c.09-.31-.11-.69-.43-.76s-.66.1-.76.43h0Z"/>
        </g>
        <g>
          <line class="cls-3" x1="665.09" y1="361.41" x2="665.65" y2="363.37"/>
          <path class="cls-13" d="M664.5,361.57c.16.57.33,1.14.49,1.72l.07.25c.09.31.44.53.76.43s.53-.43.43-.76c-.16-.57-.33-1.14-.49-1.72l-.07-.25c-.09-.31-.44-.53-.76-.43s-.53.43-.43.76h0Z"/>
        </g>
        <path class="cls-4" d="M671.86,383.31v2.06c0,.32.28.63.62.62s.62-.27.62-.62v-2.06c0-.32-.28-.63-.62-.62s-.62.27-.62.62h0Z"/>
        <g>
          <line class="cls-3" x1="687.89" y1="381.7" x2="687.31" y2="383.66"/>
          <path class="cls-19" d="M687.3,381.54c-.17.57-.34,1.14-.51,1.71l-.07.25c-.09.31.11.69.43.76s.66-.1.76-.43c.17-.57.34-1.14.51-1.71l.07-.25c.09-.31-.11-.69-.43-.76s-.66.1-.76.43h0Z"/>
        </g>
        <g>
          <line class="cls-3" x1="690.27" y1="368.91" x2="691.15" y2="370.89"/>
          <path class="cls-17" d="M689.74,369.23c.26.58.51,1.15.77,1.73l.11.25c.06.13.24.25.37.28.15.04.34.02.48-.06s.25-.21.28-.37c.04-.17,0-.32-.06-.48-.26-.58-.51-1.15-.77-1.73l-.11-.25c-.06-.13-.24-.25-.37-.28-.15-.04-.34-.02-.48.06s-.25.21-.28.37c-.04.17,0,.32.06.48h0Z"/>
        </g>
        <g>
          <line class="cls-19" x1="678.45" y1="370.83" x2="677.87" y2="372.79"/>
          <path class="cls-3" d="M677.86,370.67c-.17.57-.34,1.14-.51,1.71l-.07.25c-.09.31.11.69.43.76s.66-.1.76-.43c.17-.57.34-1.14.51-1.71l.07-.25c.09-.31-.11-.69-.43-.76s-.66.1-.76.43h0Z"/>
        </g>
        <g>
          <line class="cls-3" x1="688.44" y1="396.39" x2="689" y2="398.35"/>
          <path class="cls-13" d="M687.84,396.55c.16.57.33,1.14.49,1.72l.07.25c.09.31.44.53.76.43s.53-.43.43-.76c-.16-.57-.33-1.14-.49-1.72l-.07-.25c-.09-.31-.44-.53-.76-.43s-.53.43-.43.76h0Z"/>
        </g>
        <path class="cls-4" d="M699.55,383.29v2.06c0,.32.28.63.62.62s.62-.27.62-.62v-2.06c0-.32-.28-.63-.62-.62s-.62.27-.62.62h0Z"/>
        <g>
          <line class="cls-3" x1="706.91" y1="367.18" x2="706.32" y2="369.14"/>
          <path class="cls-19" d="M706.31,367.02c-.17.57-.34,1.14-.51,1.71l-.07.25c-.09.31.11.69.43.76s.66-.1.76-.43c.17-.57.34-1.14.51-1.71l.07-.25c.09-.31-.11-.69-.43-.76s-.66.1-.76.43h0Z"/>
        </g>
        <g>
          <line class="cls-3" x1="699.39" y1="389.81" x2="700.27" y2="391.79"/>
          <path class="cls-17" d="M698.85,390.12c.26.58.51,1.15.77,1.73l.11.25c.06.13.24.25.37.28.15.04.34.02.48-.06s.25-.21.28-.37c.04-.17,0-.32-.06-.48-.26-.58-.51-1.15-.77-1.73l-.11-.25c-.06-.13-.24-.25-.37-.28-.15-.04-.34-.02-.48.06s-.25.21-.28.37c-.04.17,0,.32.06.48h0Z"/>
        </g>
        <g>
          <line class="cls-19" x1="705.74" y1="385.89" x2="705.15" y2="387.85"/>
          <path class="cls-3" d="M705.15,385.73c-.17.57-.34,1.14-.51,1.71l-.07.25c-.09.31.11.69.43.76s.66-.1.76-.43c.17-.57.34-1.14.51-1.71l.07-.25c.09-.31-.11-.69-.43-.76s-.66.1-.76.43h0Z"/>
        </g>
        <g>
          <line class="cls-3" x1="704.35" y1="380.41" x2="704.91" y2="382.38"/>
          <path class="cls-13" d="M703.75,380.58c.16.57.33,1.14.49,1.72l.07.25c.09.31.44.53.76.43s.53-.43.43-.76c-.16-.57-.33-1.14-.49-1.72l-.07-.25c-.09-.31-.44-.53-.76-.43s-.53.43-.43.76h0Z"/>
        </g>
        <path class="cls-4" d="M617.49,393.61v2.06c0,.32.28.63.62.62s.62-.27.62-.62v-2.06c0-.32-.28-.63-.62-.62s-.62.27-.62.62h0Z"/>
        <g>
          <line class="cls-3" x1="621.53" y1="394.13" x2="620.95" y2="396.09"/>
          <path class="cls-19" d="M620.94,393.97c-.17.57-.34,1.14-.51,1.71l-.07.25c-.09.31.11.69.43.76s.66-.1.76-.43c.17-.57.34-1.14.51-1.71l.07-.25c.09-.31-.11-.69-.43-.76s-.66.1-.76.43h0Z"/>
        </g>
        <g>
          <line class="cls-3" x1="623.47" y1="393.69" x2="624.35" y2="395.67"/>
          <path class="cls-17" d="M622.93,394c.26.58.51,1.15.77,1.73l.11.25c.06.13.24.25.37.28.15.04.34.02.48-.06s.25-.21.28-.37c.04-.17,0-.32-.06-.48-.26-.58-.51-1.15-.77-1.73l-.11-.25c-.06-.13-.24-.25-.37-.28-.15-.04-.34-.02-.48.06s-.25.21-.28.37c-.04.17,0,.32.06.48h0Z"/>
        </g>
        <g>
          <line class="cls-19" x1="619.78" y1="398.2" x2="619.2" y2="400.16"/>
          <path class="cls-3" d="M619.19,398.04c-.17.57-.34,1.14-.51,1.71l-.07.25c-.09.31.11.69.43.76s.66-.1.76-.43c.17-.57.34-1.14.51-1.71l.07-.25c.09-.31-.11-.69-.43-.76s-.66.1-.76.43h0Z"/>
        </g>
        <g>
          <line class="cls-3" x1="622.31" y1="397.99" x2="622.87" y2="399.96"/>
          <path class="cls-13" d="M621.72,398.16c.16.57.33,1.14.49,1.72l.07.25c.09.31.44.53.76.43s.53-.43.43-.76c-.16-.57-.33-1.14-.49-1.72l-.07-.25c-.09-.31-.44-.53-.76-.43s-.53.43-.43.76h0Z"/>
        </g>
        <path class="cls-4" d="M627.55,370.98v2.06c0,.32.28.63.62.62s.62-.27.62-.62v-2.06c0-.32-.28-.63-.62-.62s-.62.27-.62.62h0Z"/>
        <g>
          <line class="cls-3" x1="629.36" y1="399.63" x2="628.77" y2="401.58"/>
          <path class="cls-19" d="M628.76,399.47c-.17.57-.34,1.14-.51,1.71l-.07.25c-.09.31.11.69.43.76s.66-.1.76-.43c.17-.57.34-1.14.51-1.71l.07-.25c.09-.31-.11-.69-.43-.76s-.66.1-.76.43h0Z"/>
        </g>
        <g>
          <line class="cls-3" x1="633.88" y1="388.42" x2="634.76" y2="390.39"/>
          <path class="cls-17" d="M633.35,388.73c.26.58.51,1.15.77,1.73l.11.25c.06.13.24.25.37.28.15.04.34.02.48-.06s.25-.21.28-.37c.04-.17,0-.32-.06-.48-.26-.58-.51-1.15-.77-1.73l-.11-.25c-.06-.13-.24-.25-.37-.28-.15-.04-.34-.02-.48.06s-.25.21-.28.37c-.04.17,0,.32.06.48h0Z"/>
        </g>
        <g>
          <line class="cls-19" x1="626.2" y1="391.39" x2="625.61" y2="393.35"/>
          <path class="cls-3" d="M625.6,391.23c-.17.57-.34,1.14-.51,1.71l-.07.25c-.09.31.11.69.43.76s.66-.1.76-.43c.17-.57.34-1.14.51-1.71l.07-.25c.09-.31-.11-.69-.43-.76s-.66.1-.76.43h0Z"/>
        </g>
        <g>
          <line class="cls-3" x1="630.4" y1="393.84" x2="630.96" y2="395.81"/>
          <path class="cls-13" d="M629.81,394.01c.16.57.33,1.14.49,1.72l.07.25c.09.31.44.53.76.43s.53-.43.43-.76c-.16-.57-.33-1.14-.49-1.72l-.07-.25c-.09-.31-.44-.53-.76-.43s-.53.43-.43.76h0Z"/>
        </g>
        <path class="cls-4" d="M634.84,386.52v2.06c0,.32.28.63.62.62s.62-.27.62-.62v-2.06c0-.32-.28-.63-.62-.62s-.62.27-.62.62h0Z"/>
        <g>
          <line class="cls-3" x1="656.52" y1="391.01" x2="655.94" y2="392.97"/>
          <path class="cls-19" d="M655.93,390.85c-.17.57-.34,1.14-.51,1.71l-.07.25c-.09.31.11.69.43.76s.66-.1.76-.43c.17-.57.34-1.14.51-1.71l.07-.25c.09-.31-.11-.69-.43-.76s-.66.1-.76.43h0Z"/>
        </g>
        <g>
          <line class="cls-3" x1="648.33" y1="406.38" x2="649.22" y2="408.36"/>
          <path class="cls-17" d="M647.8,406.69c.26.58.51,1.15.77,1.73l.11.25c.06.13.24.25.37.28.15.04.34.02.48-.06s.25-.21.28-.37c.04-.17,0-.32-.06-.48-.26-.58-.51-1.15-.77-1.73l-.11-.25c-.06-.13-.24-.25-.37-.28-.15-.04-.34-.02-.48.06s-.25.21-.28.37c-.04.17,0,.32.06.48h0Z"/>
        </g>
        <g>
          <line class="cls-19" x1="653.57" y1="393.05" x2="652.98" y2="395.01"/>
          <path class="cls-3" d="M652.98,392.89c-.17.57-.34,1.14-.51,1.71l-.07.25c-.09.31.11.69.43.76s.66-.1.76-.43c.17-.57.34-1.14.51-1.71l.07-.25c.09-.31-.11-.69-.43-.76s-.66.1-.76.43h0Z"/>
        </g>
        <g>
          <line class="cls-3" x1="654.17" y1="408.84" x2="654.73" y2="410.8"/>
          <path class="cls-13" d="M653.58,409c.16.57.33,1.14.49,1.72l.07.25c.09.31.44.53.76.43s.53-.43.43-.76c-.16-.57-.33-1.14-.49-1.72l-.07-.25c-.09-.31-.44-.53-.76-.43s-.53.43-.43.76h0Z"/>
        </g>
        <path class="cls-4" d="M655.97,389.5v2.06c0,.32.28.63.62.62s.62-.27.62-.62v-2.06c0-.32-.28-.63-.62-.62s-.62.27-.62.62h0Z"/>
        <g>
          <line class="cls-3" x1="651.84" y1="409.78" x2="651.25" y2="411.73"/>
          <path class="cls-19" d="M651.24,409.61c-.17.57-.34,1.14-.51,1.71l-.07.25c-.09.31.11.69.43.76s.66-.1.76-.43c.17-.57.34-1.14.51-1.71l.07-.25c.09-.31-.11-.69-.43-.76s-.66.1-.76.43h0Z"/>
        </g>
        <g>
          <line class="cls-3" x1="663.81" y1="379.15" x2="664.7" y2="381.13"/>
          <path class="cls-17" d="M663.28,379.46c.26.58.51,1.15.77,1.73l.11.25c.06.13.24.25.37.28.15.04.34.02.48-.06s.25-.21.28-.37c.04-.17,0-.32-.06-.48-.26-.58-.51-1.15-.77-1.73l-.11-.25c-.06-.13-.24-.25-.37-.28-.15-.04-.34-.02-.48.06s-.25.21-.28.37c-.04.17,0,.32.06.48h0Z"/>
        </g>
        <g>
          <line class="cls-19" x1="654.48" y1="380.93" x2="653.89" y2="382.89"/>
          <path class="cls-3" d="M653.88,380.77c-.17.57-.34,1.14-.51,1.71l-.07.25c-.09.31.11.69.43.76s.66-.1.76-.43c.17-.57.34-1.14.51-1.71l.07-.25c.09-.31-.11-.69-.43-.76s-.66.1-.76.43h0Z"/>
        </g>
        <g>
          <line class="cls-3" x1="658.8" y1="404.96" x2="659.36" y2="406.92"/>
          <path class="cls-13" d="M658.21,405.13c.16.57.33,1.14.49,1.72l.07.25c.09.31.44.53.76.43s.53-.43.43-.76c-.16-.57-.33-1.14-.49-1.72l-.07-.25c-.09-.31-.44-.53-.76-.43s-.53.43-.43.76h0Z"/>
        </g>
        <path class="cls-4" d="M665.34,380.1v2.06c0,.32.28.63.62.62s.62-.27.62-.62v-2.06c0-.32-.28-.63-.62-.62s-.62.27-.62.62h0Z"/>
        <g>
          <line class="cls-3" x1="669.13" y1="409.14" x2="668.54" y2="411.09"/>
          <path class="cls-19" d="M668.53,408.98c-.17.57-.34,1.14-.51,1.71l-.07.25c-.09.31.11.69.43.76s.66-.1.76-.43c.17-.57.34-1.14.51-1.71l.07-.25c.09-.31-.11-.69-.43-.76s-.66.1-.76.43h0Z"/>
        </g>
        <g>
          <line class="cls-3" x1="670.64" y1="395.4" x2="671.52" y2="397.38"/>
          <path class="cls-17" d="M670.11,395.72c.26.58.51,1.15.77,1.73l.11.25c.06.13.24.25.37.28.15.04.34.02.48-.06s.25-.21.28-.37c.04-.17,0-.32-.06-.48-.26-.58-.51-1.15-.77-1.73l-.11-.25c-.06-.13-.24-.25-.37-.28-.15-.04-.34-.02-.48.06s-.25.21-.28.37c-.04.17,0,.32.06.48h0Z"/>
        </g>
        <g>
          <line class="cls-19" x1="675" y1="387.63" x2="674.42" y2="389.59"/>
          <path class="cls-3" d="M674.41,387.47c-.17.57-.34,1.14-.51,1.71l-.07.25c-.09.31.11.69.43.76s.66-.1.76-.43c.17-.57.34-1.14.51-1.71l.07-.25c.09-.31-.11-.69-.43-.76s-.66.1-.76.43h0Z"/>
        </g>
        <g>
          <line class="cls-3" x1="682.23" y1="389.64" x2="682.79" y2="391.6"/>
          <path class="cls-13" d="M681.63,389.81c.16.57.33,1.14.49,1.72l.07.25c.09.31.44.53.76.43s.53-.43.43-.76c-.16-.57-.33-1.14-.49-1.72l-.07-.25c-.09-.31-.44-.53-.76-.43s-.53.43-.43.76h0Z"/>
        </g>
        <path class="cls-4" d="M690.06,370.17v2.06c0,.32.28.63.62.62s.62-.27.62-.62v-2.06c0-.32-.28-.63-.62-.62s-.62.27-.62.62h0Z"/>
        <g>
          <line class="cls-3" x1="681.2" y1="393.04" x2="680.61" y2="395"/>
          <path class="cls-19" d="M680.61,392.88c-.17.57-.34,1.14-.51,1.71l-.07.25c-.09.31.11.69.43.76s.66-.1.76-.43c.17-.57.34-1.14.51-1.71l.07-.25c.09-.31-.11-.69-.43-.76s-.66.1-.76.43h0Z"/>
        </g>
        <g>
          <line class="cls-3" x1="679.19" y1="377.44" x2="680.08" y2="379.41"/>
          <path class="cls-17" d="M678.66,377.75c.26.58.51,1.15.77,1.73l.11.25c.06.13.24.25.37.28.15.04.34.02.48-.06s.25-.21.28-.37c.04-.17,0-.32-.06-.48-.26-.58-.51-1.15-.77-1.73l-.11-.25c-.06-.13-.24-.25-.37-.28-.15-.04-.34-.02-.48.06s-.25.21-.28.37c-.04.17,0,.32.06.48h0Z"/>
        </g>
        <g>
          <line class="cls-19" x1="692.08" y1="393.47" x2="691.49" y2="395.42"/>
          <path class="cls-3" d="M691.48,393.31c-.17.57-.34,1.14-.51,1.71l-.07.25c-.09.31.11.69.43.76s.66-.1.76-.43c.17-.57.34-1.14.51-1.71l.07-.25c.09-.31-.11-.69-.43-.76s-.66.1-.76.43h0Z"/>
        </g>
        <g>
          <line class="cls-3" x1="674.6" y1="391.49" x2="675.16" y2="393.45"/>
          <path class="cls-13" d="M674.01,391.66c.16.57.33,1.14.49,1.72l.07.25c.09.31.44.53.76.43s.53-.43.43-.76c-.16-.57-.33-1.14-.49-1.72l-.07-.25c-.09-.31-.44-.53-.76-.43s-.53.43-.43.76h0Z"/>
        </g>
        <path class="cls-4" d="M686.44,380.33v2.06c0,.32.28.63.62.62s.62-.27.62-.62v-2.06c0-.32-.28-.63-.62-.62s-.62.27-.62.62h0Z"/>
        <g>
          <line class="cls-3" x1="688.44" y1="377.69" x2="687.85" y2="379.65"/>
          <path class="cls-19" d="M687.84,377.53c-.17.57-.34,1.14-.51,1.71l-.07.25c-.09.31.11.69.43.76s.66-.1.76-.43c.17-.57.34-1.14.51-1.71l.07-.25c.09-.31-.11-.69-.43-.76s-.66.1-.76.43h0Z"/>
        </g>
        <g>
          <line class="cls-3" x1="701.18" y1="403.73" x2="702.06" y2="405.71"/>
          <path class="cls-17" d="M700.65,404.04c.26.58.51,1.15.77,1.73l.11.25c.06.13.24.25.37.28.15.04.34.02.48-.06s.25-.21.28-.37c.04-.17,0-.32-.06-.48-.26-.58-.51-1.15-.77-1.73l-.11-.25c-.06-.13-.24-.25-.37-.28-.15-.04-.34-.02-.48.06s-.25.21-.28.37c-.04.17,0,.32.06.48h0Z"/>
        </g>
        <g>
          <line class="cls-19" x1="698.64" y1="377.2" x2="698.06" y2="379.16"/>
          <path class="cls-3" d="M698.05,377.04c-.17.57-.34,1.14-.51,1.71l-.07.25c-.09.31.11.69.43.76s.66-.1.76-.43c.17-.57.34-1.14.51-1.71l.07-.25c.09-.31-.11-.69-.43-.76s-.66.1-.76.43h0Z"/>
        </g>
        <g>
          <line class="cls-3" x1="706.54" y1="395.06" x2="707.1" y2="397.02"/>
          <path class="cls-13" d="M705.95,395.22c.16.57.33,1.14.49,1.72l.07.25c.09.31.44.53.76.43s.53-.43.43-.76c-.16-.57-.33-1.14-.49-1.72l-.07-.25c-.09-.31-.44-.53-.76-.43s-.53.43-.43.76h0Z"/>
        </g>
        <path class="cls-4" d="M609.32,376.34v2.06c0,.32.28.63.62.62s.62-.27.62-.62v-2.06c0-.32-.28-.63-.62-.62s-.62.27-.62.62h0Z"/>
        <g>
          <line class="cls-3" x1="626.54" y1="377.1" x2="625.95" y2="379.05"/>
          <path class="cls-19" d="M625.94,376.93c-.17.57-.34,1.14-.51,1.71l-.07.25c-.09.31.11.69.43.76s.66-.1.76-.43c.17-.57.34-1.14.51-1.71l.07-.25c.09-.31-.11-.69-.43-.76s-.66.1-.76.43h0Z"/>
        </g>
        <g>
          <line class="cls-3" x1="620.49" y1="404.29" x2="621.38" y2="406.27"/>
          <path class="cls-17" d="M619.96,404.6c.26.58.51,1.15.77,1.73l.11.25c.06.13.24.25.37.28.15.04.34.02.48-.06s.25-.21.28-.37c.04-.17,0-.32-.06-.48-.26-.58-.51-1.15-.77-1.73l-.11-.25c-.06-.13-.24-.25-.37-.28-.15-.04-.34-.02-.48.06s-.25.21-.28.37c-.04.17,0,.32.06.48h0Z"/>
        </g>
        <g>
          <line class="cls-19" x1="614.35" y1="392.92" x2="613.77" y2="394.88"/>
          <path class="cls-3" d="M613.76,392.76c-.17.57-.34,1.14-.51,1.71l-.07.25c-.09.31.11.69.43.76s.66-.1.76-.43c.17-.57.34-1.14.51-1.71l.07-.25c.09-.31-.11-.69-.43-.76s-.66.1-.76.43h0Z"/>
        </g>
        <g>
          <line class="cls-3" x1="625.54" y1="395.35" x2="626.1" y2="397.31"/>
          <path class="cls-13" d="M624.95,395.51c.16.57.33,1.14.49,1.72l.07.25c.09.31.44.53.76.43s.53-.43.43-.76c-.16-.57-.33-1.14-.49-1.72l-.07-.25c-.09-.31-.44-.53-.76-.43s-.53.43-.43.76h0Z"/>
        </g>
        <path class="cls-4" d="M622.98,382.75v2.06c0,.32.28.63.62.62s.62-.27.62-.62v-2.06c0-.32-.28-.63-.62-.62s-.62.27-.62.62h0Z"/>
        <g>
          <line class="cls-3" x1="627.35" y1="406.86" x2="626.76" y2="408.81"/>
          <path class="cls-19" d="M626.75,406.69c-.17.57-.34,1.14-.51,1.71l-.07.25c-.09.31.11.69.43.76s.66-.1.76-.43c.17-.57.34-1.14.51-1.71l.07-.25c.09-.31-.11-.69-.43-.76s-.66.1-.76.43h0Z"/>
        </g>
        <g>
          <line class="cls-3" x1="643.55" y1="412.24" x2="644.44" y2="414.22"/>
          <path class="cls-17" d="M643.02,412.55c.26.58.51,1.15.77,1.73l.11.25c.06.13.24.25.37.28.15.04.34.02.48-.06s.25-.21.28-.37c.04-.17,0-.32-.06-.48-.26-.58-.51-1.15-.77-1.73l-.11-.25c-.06-.13-.24-.25-.37-.28-.15-.04-.34-.02-.48.06s-.25.21-.28.37c-.04.17,0,.32.06.48h0Z"/>
        </g>
        <g>
          <line class="cls-19" x1="637.76" y1="394.01" x2="637.17" y2="395.97"/>
          <path class="cls-3" d="M637.16,393.85c-.17.57-.34,1.14-.51,1.71l-.07.25c-.09.31.11.69.43.76s.66-.1.76-.43c.17-.57.34-1.14.51-1.71l.07-.25c.09-.31-.11-.69-.43-.76s-.66.1-.76.43h0Z"/>
        </g>
        <g>
          <line class="cls-3" x1="635.27" y1="413.52" x2="635.82" y2="415.48"/>
          <path class="cls-13" d="M634.67,413.68c.16.57.33,1.14.49,1.72l.07.25c.09.31.44.53.76.43s.53-.43.43-.76c-.16-.57-.33-1.14-.49-1.72l-.07-.25c-.09-.31-.44-.53-.76-.43s-.53.43-.43.76h0Z"/>
        </g>
        <path class="cls-4" d="M647.97,382.8v2.06c0,.32.28.63.62.62s.62-.27.62-.62v-2.06c0-.32-.28-.63-.62-.62s-.62.27-.62.62h0Z"/>
        <g>
          <line class="cls-3" x1="654.99" y1="386.94" x2="654.4" y2="388.89"/>
          <path class="cls-19" d="M654.4,386.78c-.17.57-.34,1.14-.51,1.71l-.07.25c-.09.31.11.69.43.76s.66-.1.76-.43c.17-.57.34-1.14.51-1.71l.07-.25c.09-.31-.11-.69-.43-.76s-.66.1-.76.43h0Z"/>
        </g>
        <g>
          <line class="cls-3" x1="643.69" y1="412.46" x2="644.58" y2="414.43"/>
          <path class="cls-17" d="M643.16,412.77c.26.58.51,1.15.77,1.73l.11.25c.06.13.24.25.37.28.15.04.34.02.48-.06s.25-.21.28-.37c.04-.17,0-.32-.06-.48-.26-.58-.51-1.15-.77-1.73l-.11-.25c-.06-.13-.24-.25-.37-.28-.15-.04-.34-.02-.48.06s-.25.21-.28.37c-.04.17,0,.32.06.48h0Z"/>
        </g>
        <g>
          <line class="cls-19" x1="652.82" y1="407.94" x2="652.23" y2="409.9"/>
          <path class="cls-3" d="M652.23,407.78c-.17.57-.34,1.14-.51,1.71l-.07.25c-.09.31.11.69.43.76s.66-.1.76-.43c.17-.57.34-1.14.51-1.71l.07-.25c.09-.31-.11-.69-.43-.76s-.66.1-.76.43h0Z"/>
        </g>
        <g>
          <line class="cls-3" x1="642.97" y1="398.78" x2="643.52" y2="400.74"/>
          <path class="cls-13" d="M642.37,398.94c.16.57.33,1.14.49,1.72l.07.25c.09.31.44.53.76.43s.53-.43.43-.76c-.16-.57-.33-1.14-.49-1.72l-.07-.25c-.09-.31-.44-.53-.76-.43s-.53.43-.43.76h0Z"/>
        </g>
        <path class="cls-4" d="M649.5,397.04v2.06c0,.32.28.63.62.62s.62-.27.62-.62v-2.06c0-.32-.28-.63-.62-.62s-.62.27-.62.62h0Z"/>
        <g>
          <line class="cls-3" x1="651.97" y1="398.36" x2="651.39" y2="400.31"/>
          <path class="cls-19" d="M651.38,398.19c-.17.57-.34,1.14-.51,1.71l-.07.25c-.09.31.11.69.43.76s.66-.1.76-.43c.17-.57.34-1.14.51-1.71l.07-.25c.09-.31-.11-.69-.43-.76s-.66.1-.76.43h0Z"/>
        </g>
        <g>
          <line class="cls-3" x1="657.97" y1="380.66" x2="658.86" y2="382.63"/>
          <path class="cls-17" d="M657.44,380.97c.26.58.51,1.15.77,1.73l.11.25c.06.13.24.25.37.28.15.04.34.02.48-.06s.25-.21.28-.37c.04-.17,0-.32-.06-.48-.26-.58-.51-1.15-.77-1.73l-.11-.25c-.06-.13-.24-.25-.37-.28-.15-.04-.34-.02-.48.06s-.25.21-.28.37c-.04.17,0,.32.06.48h0Z"/>
        </g>
        <g>
          <line class="cls-19" x1="659.64" y1="425.96" x2="659.05" y2="427.91"/>
          <path class="cls-3" d="M659.04,425.79c-.17.57-.34,1.14-.51,1.71l-.07.25c-.09.31.11.69.43.76s.66-.1.76-.43c.17-.57.34-1.14.51-1.71l.07-.25c.09-.31-.11-.69-.43-.76s-.66.1-.76.43h0Z"/>
        </g>
        <g>
          <line class="cls-3" x1="668.81" y1="390.39" x2="669.37" y2="392.36"/>
          <path class="cls-13" d="M668.21,390.56c.16.57.33,1.14.49,1.72l.07.25c.09.31.44.53.76.43s.53-.43.43-.76c-.16-.57-.33-1.14-.49-1.72l-.07-.25c-.09-.31-.44-.53-.76-.43s-.53.43-.43.76h0Z"/>
        </g>
        <path class="cls-4" d="M667.08,411.18v2.06c0,.32.28.63.62.62s.62-.27.62-.62v-2.06c0-.32-.28-.63-.62-.62s-.62.27-.62.62h0Z"/>
        <g>
          <line class="cls-3" x1="674.52" y1="412.27" x2="673.93" y2="414.23"/>
          <path class="cls-19" d="M673.93,412.11c-.17.57-.34,1.14-.51,1.71l-.07.25c-.09.31.11.69.43.76s.66-.1.76-.43c.17-.57.34-1.14.51-1.71l.07-.25c.09-.31-.11-.69-.43-.76s-.66.1-.76.43h0Z"/>
        </g>
        <g>
          <line class="cls-3" x1="672.79" y1="386.05" x2="673.67" y2="388.02"/>
          <path class="cls-17" d="M672.26,386.36c.26.58.51,1.15.77,1.73l.11.25c.06.13.24.25.37.28.15.04.34.02.48-.06s.25-.21.28-.37c.04-.17,0-.32-.06-.48-.26-.58-.51-1.15-.77-1.73l-.11-.25c-.06-.13-.24-.25-.37-.28-.15-.04-.34-.02-.48.06s-.25.21-.28.37c-.04.17,0,.32.06.48h0Z"/>
        </g>
        <g>
          <line class="cls-19" x1="675.61" y1="411.72" x2="675.02" y2="413.68"/>
          <path class="cls-3" d="M675.01,411.56c-.17.57-.34,1.14-.51,1.71l-.07.25c-.09.31.11.69.43.76s.66-.1.76-.43c.17-.57.34-1.14.51-1.71l.07-.25c.09-.31-.11-.69-.43-.76s-.66.1-.76.43h0Z"/>
        </g>
        <g>
          <line class="cls-3" x1="673.16" y1="399.57" x2="673.72" y2="401.53"/>
          <path class="cls-13" d="M672.57,399.73c.16.57.33,1.14.49,1.72l.07.25c.09.31.44.53.76.43s.53-.43.43-.76c-.16-.57-.33-1.14-.49-1.72l-.07-.25c-.09-.31-.44-.53-.76-.43s-.53.43-.43.76h0Z"/>
        </g>
        <path class="cls-4" d="M672.47,410.48v2.06c0,.32.28.63.62.62s.62-.27.62-.62v-2.06c0-.32-.28-.63-.62-.62s-.62.27-.62.62h0Z"/>
        <g>
          <line class="cls-3" x1="681.75" y1="417.52" x2="681.16" y2="419.48"/>
          <path class="cls-19" d="M681.15,417.36c-.17.57-.34,1.14-.51,1.71l-.07.25c-.09.31.11.69.43.76s.66-.1.76-.43c.17-.57.34-1.14.51-1.71l.07-.25c.09-.31-.11-.69-.43-.76s-.66.1-.76.43h0Z"/>
        </g>
        <g>
          <line class="cls-3" x1="688.71" y1="400.43" x2="689.59" y2="402.41"/>
          <path class="cls-17" d="M688.17,400.75c.26.58.51,1.15.77,1.73l.11.25c.06.13.24.25.37.28.15.04.34.02.48-.06s.25-.21.28-.37c.04-.17,0-.32-.06-.48-.26-.58-.51-1.15-.77-1.73l-.11-.25c-.06-.13-.24-.25-.37-.28-.15-.04-.34-.02-.48.06s-.25.21-.28.37c-.04.17,0,.32.06.48h0Z"/>
        </g>
        <g>
          <line class="cls-19" x1="687.12" y1="406.64" x2="686.54" y2="408.59"/>
          <path class="cls-3" d="M686.53,406.47c-.17.57-.34,1.14-.51,1.71l-.07.25c-.09.31.11.69.43.76s.66-.1.76-.43c.17-.57.34-1.14.51-1.71l.07-.25c.09-.31-.11-.69-.43-.76s-.66.1-.76.43h0Z"/>
        </g>
        <g>
          <line class="cls-3" x1="687.28" y1="397.1" x2="687.84" y2="399.06"/>
          <path class="cls-13" d="M686.68,397.26c.16.57.33,1.14.49,1.72l.07.25c.09.31.44.53.76.43s.53-.43.43-.76c-.16-.57-.33-1.14-.49-1.72l-.07-.25c-.09-.31-.44-.53-.76-.43s-.53.43-.43.76h0Z"/>
        </g>
        <path class="cls-4" d="M694.57,409.32v2.06c0,.32.28.63.62.62s.62-.27.62-.62v-2.06c0-.32-.28-.63-.62-.62s-.62.27-.62.62h0Z"/>
        <g>
          <line class="cls-3" x1="697.73" y1="399.51" x2="697.14" y2="401.47"/>
          <path class="cls-19" d="M697.13,399.35c-.17.57-.34,1.14-.51,1.71l-.07.25c-.09.31.11.69.43.76s.66-.1.76-.43c.17-.57.34-1.14.51-1.71l.07-.25c.09-.31-.11-.69-.43-.76s-.66.1-.76.43h0Z"/>
        </g>
        <g>
          <line class="cls-3" x1="695.81" y1="400.51" x2="696.69" y2="402.49"/>
          <path class="cls-17" d="M695.27,400.82c.26.58.51,1.15.77,1.73l.11.25c.06.13.24.25.37.28.15.04.34.02.48-.06s.25-.21.28-.37c.04-.17,0-.32-.06-.48-.26-.58-.51-1.15-.77-1.73l-.11-.25c-.06-.13-.24-.25-.37-.28-.15-.04-.34-.02-.48.06s-.25.21-.28.37c-.04.17,0,.32.06.48h0Z"/>
        </g>
        <g>
          <line class="cls-19" x1="701.31" y1="392.66" x2="700.72" y2="394.62"/>
          <path class="cls-3" d="M700.72,392.5c-.17.57-.34,1.14-.51,1.71l-.07.25c-.09.31.11.69.43.76s.66-.1.76-.43c.17-.57.34-1.14.51-1.71l.07-.25c.09-.31-.11-.69-.43-.76s-.66.1-.76.43h0Z"/>
        </g>
        <g>
          <line class="cls-3" x1="695.42" y1="402.8" x2="695.98" y2="404.76"/>
          <path class="cls-13" d="M694.82,402.96c.16.57.33,1.14.49,1.72l.07.25c.09.31.44.53.76.43s.53-.43.43-.76c-.16-.57-.33-1.14-.49-1.72l-.07-.25c-.09-.31-.44-.53-.76-.43s-.53.43-.43.76h0Z"/>
        </g>
        <path class="cls-4" d="M621.6,388.55v2.06c0,.32.28.63.62.62s.62-.27.62-.62v-2.06c0-.32-.28-.63-.62-.62s-.62.27-.62.62h0Z"/>
        <g>
          <line class="cls-3" x1="613.64" y1="418.01" x2="613.05" y2="419.97"/>
          <path class="cls-19" d="M613.04,417.85c-.17.57-.34,1.14-.51,1.71l-.07.25c-.09.31.11.69.43.76s.66-.1.76-.43c.17-.57.34-1.14.51-1.71l.07-.25c.09-.31-.11-.69-.43-.76s-.66.1-.76.43h0Z"/>
        </g>
        <g>
          <line class="cls-3" x1="629.58" y1="407.59" x2="630.46" y2="409.56"/>
          <path class="cls-17" d="M629.04,407.9c.26.58.51,1.15.77,1.73l.11.25c.06.13.24.25.37.28.15.04.34.02.48-.06s.25-.21.28-.37c.04-.17,0-.32-.06-.48-.26-.58-.51-1.15-.77-1.73l-.11-.25c-.06-.13-.24-.25-.37-.28-.15-.04-.34-.02-.48.06s-.25.21-.28.37c-.04.17,0,.32.06.48h0Z"/>
        </g>
        <g>
          <line class="cls-19" x1="614.44" y1="394.45" x2="613.85" y2="396.41"/>
          <path class="cls-3" d="M613.85,394.29c-.17.57-.34,1.14-.51,1.71l-.07.25c-.09.31.11.69.43.76s.66-.1.76-.43c.17-.57.34-1.14.51-1.71l.07-.25c.09-.31-.11-.69-.43-.76s-.66.1-.76.43h0Z"/>
        </g>
        <g>
          <line class="cls-3" x1="617.94" y1="426.28" x2="618.5" y2="428.24"/>
          <path class="cls-13" d="M617.34,426.45c.16.57.33,1.14.49,1.72l.07.25c.09.31.44.53.76.43s.53-.43.43-.76c-.16-.57-.33-1.14-.49-1.72l-.07-.25c-.09-.31-.44-.53-.76-.43s-.53.43-.43.76h0Z"/>
        </g>
        <path class="cls-4" d="M631.97,429.34v2.06c0,.32.28.63.62.62s.62-.27.62-.62v-2.06c0-.32-.28-.63-.62-.62s-.62.27-.62.62h0Z"/>
        <g>
          <line class="cls-3" x1="631.21" y1="413.07" x2="630.62" y2="415.03"/>
          <path class="cls-19" d="M630.62,412.91c-.17.57-.34,1.14-.51,1.71l-.07.25c-.09.31.11.69.43.76s.66-.1.76-.43c.17-.57.34-1.14.51-1.71l.07-.25c.09-.31-.11-.69-.43-.76s-.66.1-.76.43h0Z"/>
        </g>
        <g>
          <line class="cls-3" x1="637.66" y1="417.46" x2="638.54" y2="419.43"/>
          <path class="cls-17" d="M637.13,417.77c.26.58.51,1.15.77,1.73l.11.25c.06.13.24.25.37.28.15.04.34.02.48-.06s.25-.21.28-.37c.04-.17,0-.32-.06-.48-.26-.58-.51-1.15-.77-1.73l-.11-.25c-.06-.13-.24-.25-.37-.28-.15-.04-.34-.02-.48.06s-.25.21-.28.37c-.04.17,0,.32.06.48h0Z"/>
        </g>
        <g>
          <line class="cls-19" x1="634.4" y1="420.57" x2="633.81" y2="422.53"/>
          <path class="cls-3" d="M633.81,420.41c-.17.57-.34,1.14-.51,1.71l-.07.25c-.09.31.11.69.43.76s.66-.1.76-.43c.17-.57.34-1.14.51-1.71l.07-.25c.09-.31-.11-.69-.43-.76s-.66.1-.76.43h0Z"/>
        </g>
        <g>
          <line class="cls-3" x1="643.59" y1="403.71" x2="644.15" y2="405.67"/>
          <path class="cls-13" d="M642.99,403.88c.16.57.33,1.14.49,1.72l.07.25c.09.31.44.53.76.43s.53-.43.43-.76c-.16-.57-.33-1.14-.49-1.72l-.07-.25c-.09-.31-.44-.53-.76-.43s-.53.43-.43.76h0Z"/>
        </g>
        <path class="cls-4" d="M641.31,432.3v2.06c0,.32.28.63.62.62s.62-.27.62-.62v-2.06c0-.32-.28-.63-.62-.62s-.62.27-.62.62h0Z"/>
        <g>
          <line class="cls-3" x1="650.23" y1="429.04" x2="649.65" y2="430.99"/>
          <path class="cls-19" d="M649.64,428.87c-.17.57-.34,1.14-.51,1.71l-.07.25c-.09.31.11.69.43.76s.66-.1.76-.43c.17-.57.34-1.14.51-1.71l.07-.25c.09-.31-.11-.69-.43-.76s-.66.1-.76.43h0Z"/>
        </g>
        <g>
          <line class="cls-3" x1="645.41" y1="416.4" x2="646.3" y2="418.38"/>
          <path class="cls-17" d="M644.88,416.71c.26.58.51,1.15.77,1.73l.11.25c.06.13.24.25.37.28.15.04.34.02.48-.06s.25-.21.28-.37c.04-.17,0-.32-.06-.48-.26-.58-.51-1.15-.77-1.73l-.11-.25c-.06-.13-.24-.25-.37-.28-.15-.04-.34-.02-.48.06s-.25.21-.28.37c-.04.17,0,.32.06.48h0Z"/>
        </g>
        <g>
          <line class="cls-19" x1="648.48" y1="430.3" x2="647.9" y2="432.25"/>
          <path class="cls-3" d="M647.89,430.14c-.17.57-.34,1.14-.51,1.71l-.07.25c-.09.31.11.69.43.76s.66-.1.76-.43c.17-.57.34-1.14.51-1.71l.07-.25c.09-.31-.11-.69-.43-.76s-.66.1-.76.43h0Z"/>
        </g>
        <g>
          <line class="cls-3" x1="638.96" y1="434.27" x2="639.51" y2="436.23"/>
          <path class="cls-13" d="M638.36,434.43c.16.57.33,1.14.49,1.72l.07.25c.09.31.44.53.76.43s.53-.43.43-.76c-.16-.57-.33-1.14-.49-1.72l-.07-.25c-.09-.31-.44-.53-.76-.43s-.53.43-.43.76h0Z"/>
        </g>
        <path class="cls-4" d="M658.79,399.91v2.06c0,.32.28.63.62.62s.62-.27.62-.62v-2.06c0-.32-.28-.63-.62-.62s-.62.27-.62.62h0Z"/>
        <g>
          <line class="cls-3" x1="659.3" y1="411.52" x2="658.71" y2="413.47"/>
          <path class="cls-19" d="M658.7,411.36c-.17.57-.34,1.14-.51,1.71l-.07.25c-.09.31.11.69.43.76s.66-.1.76-.43c.17-.57.34-1.14.51-1.71l.07-.25c.09-.31-.11-.69-.43-.76s-.66.1-.76.43h0Z"/>
        </g>
        <g>
          <line class="cls-3" x1="658.38" y1="409.99" x2="659.26" y2="411.97"/>
          <path class="cls-17" d="M657.85,410.3c.26.58.51,1.15.77,1.73l.11.25c.06.13.24.25.37.28.15.04.34.02.48-.06s.25-.21.28-.37c.04-.17,0-.32-.06-.48-.26-.58-.51-1.15-.77-1.73l-.11-.25c-.06-.13-.24-.25-.37-.28-.15-.04-.34-.02-.48.06s-.25.21-.28.37c-.04.17,0,.32.06.48h0Z"/>
        </g>
        <g>
          <line class="cls-19" x1="653.28" y1="414.03" x2="652.69" y2="415.99"/>
          <path class="cls-3" d="M652.68,413.87c-.17.57-.34,1.14-.51,1.71l-.07.25c-.09.31.11.69.43.76s.66-.1.76-.43c.17-.57.34-1.14.51-1.71l.07-.25c.09-.31-.11-.69-.43-.76s-.66.1-.76.43h0Z"/>
        </g>
        <g>
          <line class="cls-3" x1="659.14" y1="417.38" x2="659.69" y2="419.34"/>
          <path class="cls-13" d="M658.54,417.54c.16.57.33,1.14.49,1.72l.07.25c.09.31.44.53.76.43s.53-.43.43-.76c-.16-.57-.33-1.14-.49-1.72l-.07-.25c-.09-.31-.44-.53-.76-.43s-.53.43-.43.76h0Z"/>
        </g>
        <path class="cls-4" d="M664.87,425.11v2.06c0,.32.28.63.62.62s.62-.27.62-.62v-2.06c0-.32-.28-.63-.62-.62s-.62.27-.62.62h0Z"/>
        <g>
          <line class="cls-3" x1="663.04" y1="407.53" x2="662.45" y2="409.49"/>
          <path class="cls-19" d="M662.44,407.37c-.17.57-.34,1.14-.51,1.71l-.07.25c-.09.31.11.69.43.76s.66-.1.76-.43c.17-.57.34-1.14.51-1.71l.07-.25c.09-.31-.11-.69-.43-.76s-.66.1-.76.43h0Z"/>
        </g>
        <g>
          <line class="cls-3" x1="684.19" y1="405.44" x2="685.07" y2="407.42"/>
          <path class="cls-17" d="M683.66,405.76c.26.58.51,1.15.77,1.73l.11.25c.06.13.24.25.37.28.15.04.34.02.48-.06s.25-.21.28-.37c.04-.17,0-.32-.06-.48-.26-.58-.51-1.15-.77-1.73l-.11-.25c-.06-.13-.24-.25-.37-.28-.15-.04-.34-.02-.48.06s-.25.21-.28.37c-.04.17,0,.32.06.48h0Z"/>
        </g>
        <g>
          <line class="cls-19" x1="675.57" y1="416.59" x2="674.98" y2="418.55"/>
          <path class="cls-3" d="M674.98,416.43c-.17.57-.34,1.14-.51,1.71l-.07.25c-.09.31.11.69.43.76s.66-.1.76-.43c.17-.57.34-1.14.51-1.71l.07-.25c.09-.31-.11-.69-.43-.76s-.66.1-.76.43h0Z"/>
        </g>
        <g>
          <line class="cls-3" x1="663.77" y1="421.93" x2="664.33" y2="423.89"/>
          <path class="cls-13" d="M663.17,422.09c.16.57.33,1.14.49,1.72l.07.25c.09.31.44.53.76.43s.53-.43.43-.76c-.16-.57-.33-1.14-.49-1.72l-.07-.25c-.09-.31-.44-.53-.76-.43s-.53.43-.43.76h0Z"/>
        </g>
        <path class="cls-4" d="M681.63,417.77v2.06c0,.32.28.63.62.62s.62-.27.62-.62v-2.06c0-.32-.28-.63-.62-.62s-.62.27-.62.62h0Z"/>
        <g>
          <line class="cls-3" x1="689.81" y1="433.6" x2="689.22" y2="435.55"/>
          <path class="cls-19" d="M689.21,433.43c-.17.57-.34,1.14-.51,1.71l-.07.25c-.09.31.11.69.43.76s.66-.1.76-.43c.17-.57.34-1.14.51-1.71l.07-.25c.09-.31-.11-.69-.43-.76s-.66.1-.76.43h0Z"/>
        </g>
        <g>
          <line class="cls-3" x1="696.17" y1="403.55" x2="697.05" y2="405.53"/>
          <path class="cls-17" d="M695.63,403.86c.26.58.51,1.15.77,1.73l.11.25c.06.13.24.25.37.28.15.04.34.02.48-.06s.25-.21.28-.37c.04-.17,0-.32-.06-.48-.26-.58-.51-1.15-.77-1.73l-.11-.25c-.06-.13-.24-.25-.37-.28-.15-.04-.34-.02-.48.06s-.25.21-.28.37c-.04.17,0,.32.06.48h0Z"/>
        </g>
        <g>
          <line class="cls-19" x1="687.38" y1="423.8" x2="686.79" y2="425.76"/>
          <path class="cls-3" d="M686.78,423.64c-.17.57-.34,1.14-.51,1.71l-.07.25c-.09.31.11.69.43.76s.66-.1.76-.43c.17-.57.34-1.14.51-1.71l.07-.25c.09-.31-.11-.69-.43-.76s-.66.1-.76.43h0Z"/>
        </g>
        <g>
          <line class="cls-3" x1="694.69" y1="440.03" x2="695.24" y2="441.99"/>
          <path class="cls-13" d="M694.09,440.2c.16.57.33,1.14.49,1.72l.07.25c.09.31.44.53.76.43s.53-.43.43-.76c-.16-.57-.33-1.14-.49-1.72l-.07-.25c-.09-.31-.44-.53-.76-.43s-.53.43-.43.76h0Z"/>
        </g>
        <path class="cls-4" d="M692.12,414.81v2.06c0,.32.28.63.62.62s.62-.27.62-.62v-2.06c0-.32-.28-.63-.62-.62s-.62.27-.62.62h0Z"/>
        <g>
          <line class="cls-3" x1="704.63" y1="431.32" x2="704.04" y2="433.28"/>
          <path class="cls-19" d="M704.04,431.16c-.17.57-.34,1.14-.51,1.71l-.07.25c-.09.31.11.69.43.76s.66-.1.76-.43c.17-.57.34-1.14.51-1.71l.07-.25c.09-.31-.11-.69-.43-.76s-.66.1-.76.43h0Z"/>
        </g>
        <g>
          <line class="cls-3" x1="697.97" y1="406.44" x2="698.85" y2="408.41"/>
          <path class="cls-17" d="M697.44,406.75c.26.58.51,1.15.77,1.73l.11.25c.06.13.24.25.37.28.15.04.34.02.48-.06s.25-.21.28-.37c.04-.17,0-.32-.06-.48-.26-.58-.51-1.15-.77-1.73l-.11-.25c-.06-.13-.24-.25-.37-.28-.15-.04-.34-.02-.48.06s-.25.21-.28.37c-.04.17,0,.32.06.48h0Z"/>
        </g>
        <g>
          <line class="cls-19" x1="693.62" y1="433.45" x2="693.03" y2="435.41"/>
          <path class="cls-3" d="M693.03,433.29c-.17.57-.34,1.14-.51,1.71l-.07.25c-.09.31.11.69.43.76s.66-.1.76-.43c.17-.57.34-1.14.51-1.71l.07-.25c.09-.31-.11-.69-.43-.76s-.66.1-.76.43h0Z"/>
        </g>
        <g>
          <line class="cls-3" x1="697.7" y1="404.78" x2="698.26" y2="406.75"/>
          <path class="cls-13" d="M697.1,404.95c.16.57.33,1.14.49,1.72l.07.25c.09.31.44.53.76.43s.53-.43.43-.76c-.16-.57-.33-1.14-.49-1.72l-.07-.25c-.09-.31-.44-.53-.76-.43s-.53.43-.43.76h0Z"/>
        </g>
        <path class="cls-4" d="M628.48,403.76v2.06c0,.32.28.63.62.62s.62-.27.62-.62v-2.06c0-.32-.28-.63-.62-.62s-.62.27-.62.62h0Z"/>
        <g>
          <line class="cls-3" x1="615.24" y1="429.36" x2="614.65" y2="431.31"/>
          <path class="cls-19" d="M614.65,429.19c-.17.57-.34,1.14-.51,1.71l-.07.25c-.09.31.11.69.43.76s.66-.1.76-.43c.17-.57.34-1.14.51-1.71l.07-.25c.09-.31-.11-.69-.43-.76s-.66.1-.76.43h0Z"/>
        </g>
        <g>
          <line class="cls-3" x1="625.31" y1="417.46" x2="626.2" y2="419.44"/>
          <path class="cls-17" d="M624.78,417.77c.26.58.51,1.15.77,1.73l.11.25c.06.13.24.25.37.28.15.04.34.02.48-.06s.25-.21.28-.37c.04-.17,0-.32-.06-.48-.26-.58-.51-1.15-.77-1.73l-.11-.25c-.06-.13-.24-.25-.37-.28-.15-.04-.34-.02-.48.06s-.25.21-.28.37c-.04.17,0,.32.06.48h0Z"/>
        </g>
        <g>
          <line class="cls-19" x1="621.03" y1="407.64" x2="620.44" y2="409.59"/>
          <path class="cls-3" d="M620.43,407.47c-.17.57-.34,1.14-.51,1.71l-.07.25c-.09.31.11.69.43.76s.66-.1.76-.43c.17-.57.34-1.14.51-1.71l.07-.25c.09-.31-.11-.69-.43-.76s-.66.1-.76.43h0Z"/>
        </g>
        <g>
          <line class="cls-3" x1="617.62" y1="427.44" x2="618.18" y2="429.4"/>
          <path class="cls-13" d="M617.03,427.6c.16.57.33,1.14.49,1.72l.07.25c.09.31.44.53.76.43s.53-.43.43-.76c-.16-.57-.33-1.14-.49-1.72l-.07-.25c-.09-.31-.44-.53-.76-.43s-.53.43-.43.76h0Z"/>
        </g>
      </g>
    </g>
    <g id="Frisko_Choco_Vert" data-name="Frisko Choco Vert">
      <path class="cls-2" d="M523.37,564.55h22.21v97.35c0,6.13-4.98,11.11-11.11,11.11h0c-6.13,0-11.11-4.98-11.11-11.11v-97.35h0Z"/>
      <polygon class="cls-11" points="511.88 558.06 545.58 573.84 545.58 542.28 511.88 558.06"/>
      <g class="cls-15">
        <image width="1050" height="1125" transform="translate(415.87 423.49) scale(.23)" xlink:href="../../Desktop/Illustrator 1 - stagiaires/Illustrator 1 - stagiaires/J4-13. FRISKO/Watercolour-Circles/PNG/19.png"/>
      </g>
      <path class="cls-5" d="M582.01,416.68v40.79c0,5.05-4.09,9.14-9.14,9.14h-2.81c-4.69,0-8.48,3.8-8.48,8.48v14.89c0,5.22-4.23,9.45-9.44,9.45-2.61,0-4.97-1.06-6.68-2.77-1.71-1.71-2.77-4.07-2.77-6.68v-14.89c0-4.69-3.8-8.48-8.48-8.48h-1.91c-4.13,0-7.47-3.35-7.47-7.47v-17.18c0-2.61-1.06-4.97-2.77-6.68-2-2-4.9-3.11-8.04-2.67-4.7.66-8.09,4.87-8.09,9.62,0,3.96,0,9.7,0,14.62,0,5.4-4.37,9.77-9.77,9.77h-.37c-5.4,0-9.77-4.37-9.77-9.77v-40.16c0-26.51,21.49-48,48-48h0c26.51,0,48,21.49,48,48Z"/>
      <path class="cls-8" d="M533.09,376.08s41.7.86,41.7,40.88"/>
    </g>
    <g id="Frisko_Orange" data-name="Frisko Orange">
      <path class="cls-2" d="M400.11,542.09h19.13v98.89c0,5.28-4.29,9.56-9.56,9.56h0c-5.28,0-9.56-4.29-9.56-9.56v-98.89h0Z"/>
      <polygon class="cls-11" points="390.21 535.61 419.23 551.39 419.23 519.83 390.21 535.61"/>
      <g class="cls-1">
        <image width="1037" height="1171" xlink:href="../../Desktop/Illustrator 1 - stagiaires/Illustrator 1 - stagiaires/J4-13. FRISKO/Watercolour-Circles/PNG/6.png"/>
        <rect class="cls-3" x="358.99" y="394.85" width="100.72" height="17.62"/>
        <rect class="cls-3" x="358.99" y="430.92" width="100.72" height="17.62"/>
        <rect class="cls-3" x="358.99" y="468.19" width="100.72" height="17.62"/>
        <rect class="cls-3" x="358.99" y="504.11" width="100.72" height="17.62"/>
      </g>
      <path class="cls-9" d="M432.97,376.19s14.59.36,14.59,16.94"/>
    </g>
    <g id="Frisko_Mauve" data-name="Frisko Mauve">
      <path class="cls-2" d="M292.56,626.09h22.21v97.35c0,6.13-4.98,11.11-11.11,11.11h0c-6.13,0-11.11-4.98-11.11-11.11v-97.35h0Z"/>
      <polygon class="cls-11" points="281.07 620.12 314.77 635.9 314.77 604.33 281.07 620.12"/>
      <g>
        <path class="cls-3" d="M307.11,366.33h0c14.93,0,27.05,12.12,27.05,27.05v226.99c0,3.16-2.57,5.73-5.73,5.73h-44.84c-3.37,0-6.11-2.74-6.11-6.11v-224.01c0-16.36,13.28-29.64,29.64-29.64Z"/>
        <g class="cls-14">
          <image width="1344" height="1265" transform="translate(136.8 337.12) scale(.25)" xlink:href="../../Desktop/Illustrator 1 - stagiaires/Illustrator 1 - stagiaires/J4-13. FRISKO/Watercolour-Circles/PNG/1.png"/>
        </g>
      </g>
      <path class="cls-10" d="M304.03,375.6s20.49.47,20.49,22.12"/>
    </g>
  </g>
</svg>