<?xml version="1.0" encoding="utf-8"?>
<!-- Generator: Adobe Illustrator 24.2.1, SVG Export Plug-In . SVG Version: 6.00 Build 0)  -->
<svg version="1.1" id="Layer_2_1_" xmlns="http://www.w3.org/2000/svg" xmlns:xlink="http://www.w3.org/1999/xlink" x="0px" y="0px"
	 viewBox="0 0 440 180" style="enable-background:new 0 0 440 180;" xml:space="preserve">
<style type="text/css">
	.st0{fill:none;stroke:#000000;stroke-miterlimit:10;}
	.st1{fill:none;stroke:#000000;stroke-width:2;stroke-miterlimit:10;}
	.st2{fill:#FFFFFF;stroke:#000000;stroke-width:2;stroke-miterlimit:10;}
	.st3{fill:none;stroke:#000000;stroke-width:2;stroke-linecap:round;stroke-miterlimit:10;}
	.st4{fill:none;stroke:#000000;stroke-width:2;stroke-linejoin:round;stroke-miterlimit:10;}
	.st5{fill:none;stroke:#000000;stroke-width:2;stroke-linecap:round;stroke-linejoin:round;stroke-miterlimit:10;}
	.st6{fill:none;stroke:#000000;stroke-linecap:round;stroke-linejoin:round;stroke-miterlimit:10;}
	.st7{fill:none;stroke:#000000;stroke-width:2;stroke-linejoin:bevel;stroke-miterlimit:10;}
</style>
<path class="st0" d="M51.1,25.5c0,3.2-1,6.3-3,8.8"/>
<path class="st1" d="M42.3,15.7c-4.9,0-8.8,3.9-8.8,8.8c0-4.9-3.9-8.8-8.8-8.8s-8.8,3.9-8.8,8.8v1.4c0,3.2,1,6.3,3,8.8
	c4,5.3,7.5,9.1,14.6,13.6l0,0c7.1-4.5,10.6-8.3,14.6-13.6c1.9-2.5,3-5.6,3-8.8v-1.4C51.1,19.6,47.1,15.7,42.3,15.7z"/>
<path class="st0" d="M15.9,25.5c0,3.2,1,6.3,3,8.8"/>
<line class="st1" x1="42.7" y1="30.8" x2="49.6" y2="30.8"/>
<line class="st1" x1="38.6" y1="36.2" x2="47.2" y2="36.2"/>
<path class="st1" d="M100.4,47.9H73.2c-2.7,0-5-2.2-5-5v-4v-18c0-2.7,2.2-5,5-5h27.2c2.7,0,5,2.2,5,5v22
	C105.4,45.7,103.1,47.9,100.4,47.9z"/>
<polyline class="st1" points="91,39 97,33.3 105.4,41 "/>
<polyline class="st1" points="68.2,39 79.7,29.2 98.2,47.4 "/>
<path class="st1" d="M73.1,24.3c4.7,0,8.6-3.7,9-8.3h-8.9c-2.7,0-5,2.2-5,5v1.9C69.6,23.8,71.3,24.3,73.1,24.3z"/>
<line class="st1" x1="98.2" y1="22.2" x2="104.7" y2="22.2"/>
<line class="st1" x1="94" y1="27.4" x2="105.4" y2="27.4"/>
<circle class="st2" cx="140.3" cy="32" r="15.6"/>
<circle cx="133.8" cy="27.7" r="1.3"/>
<circle cx="145.8" cy="27.7" r="1.3"/>
<path class="st1" d="M132.5,35.2c0,0,2.7,4.9,7.8,4.5s6.8-4.5,6.8-4.5"/>
<circle class="st1" cx="201.1" cy="20.4" r="4.7"/>
<ellipse transform="matrix(0.1602 -0.9871 0.9871 0.1602 124.1392 208.3286)" class="st1" cx="184.5" cy="31.2" rx="4.7" ry="4.7"/>
<circle class="st1" cx="201.1" cy="42.4" r="4.7"/>
<line class="st1" x1="188.1" y1="28" x2="196.7" y2="22.2"/>
<line class="st1" x1="188.1" y1="34.7" x2="196.4" y2="40.7"/>
<path class="st1" d="M226.8,47.1c0,0,3.7-23.5,21.8-22V16l15.9,13.9l-15.9,14.6v-8.4C248.7,36.2,237.6,34.1,226.8,47.1z"/>
<path class="st1" d="M309.2,43.9c1.1,1.1,1.1,3,0,4.1l-0.5,0.5c-1.1,1.1-3,1.1-4.1,0l-21.3-21.3c-1.1-1.1-1.1-3,0-4.1l0.5-0.6
	c1.1-1.1,3-1.1,4.1,0l1.6,1.6c0.5-0.7,1.1-1.4,1.8-2c6.1-6.1,15.2-6.8,20.4-1.6c5.2,5.2,4.5,14.3-1.6,20.4c-0.6,0.6-1.3,1.2-2,1.8
	L309.2,43.9z"/>
<path class="st1" d="M299.6,43.6c-1.3,1-2.9,1.6-4.7,1.6c-0.5,0-0.9,0-1.4-0.1c-2.7-0.5-4.8-2.4-5.7-4.9c-0.3-0.8-0.4-1.6-0.4-2.5
	c0-1.8,0.6-3.4,1.6-4.7L299.6,43.6z"/>
<line class="st3" x1="303.6" y1="33.8" x2="310.4" y2="40.6"/>
<line class="st3" x1="309.6" y1="32.5" x2="312.8" y2="35.7"/>
<path class="st3" d="M345,23.2c0,0-1.7,11.7,11.4,14.9c0.9,0.2,1.8,0.4,2.8,0.5"/>
<path class="st3" d="M356.5,37.2c0,0,1.6-3.6,4.7-3.7c3.1-0.1,7.9,5.9,6.2,11.7c-1.6,5.5-11.6,1.4-11.6,1.4s-16.6-9.4-19.6-22
	s9.2-6.9,9.2-6.9s0.1,0.1,0.3,0.2c1.5,1,7.7,5.5,0.8,8.9"/>
<path class="st3" d="M345.7,17.7"/>
<path class="st3" d="M393.2,48.1L393.2,48.1c-3.1,0-5.7-2.5-5.7-5.7V28.8c0-3.1,2.5-5.7,5.7-5.7l0,0c3.1,0,5.7,0,5.7,3.1v16.1
	C398.9,45.5,396.4,48.1,393.2,48.1z"/>
<line class="st3" x1="399.3" y1="39.1" x2="406.5" y2="39.1"/>
<line class="st3" x1="399.3" y1="35" x2="402.9" y2="35"/>
<polygon class="st4" points="16.8,80.2 47.2,71.2 32,86.3 "/>
<polygon class="st4" points="38.6,102.8 47.2,71.2 16.8,80.2 32,86.3 "/>
<path class="st4" d="M102.5,85.5c0,8.3-6.9,15-15.4,15c-2.6,0-5.1-0.6-7.3-1.8l-6.1,3.5v-9.4c-1.3-2.2-2-4.7-2-7.4
	c0-8.3,6.9-15,15.4-15C95.7,70.5,102.5,77.2,102.5,85.5z"/>
<line class="st5" x1="94" y1="78.7" x2="100.9" y2="78.7"/>
<circle cx="87.2" cy="85.8" r="2.4"/>
<circle cx="79.2" cy="85.8" r="2.4"/>
<circle cx="94.2" cy="85.8" r="2.4"/>
<polyline class="st4" points="32,86.3 16.8,80.2 47.2,71.2 "/>
<path class="st4" d="M148.9,102.4h-18.6c-3.8,0-6.8-3-6.8-6.8V78.3c0-3.8,3-6.8,6.8-6.8h18.6c3.8,0,6.8,3,6.8,6.8v17.3
	C155.7,99.4,152.7,102.4,148.9,102.4z"/>
<line class="st5" x1="140.1" y1="95.9" x2="140.1" y2="77.6"/>
<line class="st5" x1="149.2" y1="86.8" x2="130.9" y2="86.8"/>
<line class="st5" x1="148.7" y1="77.1" x2="154.8" y2="77.1"/>
<line class="st5" x1="152.1" y1="82.6" x2="155.7" y2="82.6"/>
<path class="st5" d="M200.7,78.4l-7.8-7.8l-7.8,7.8l-7.8,8.5v14.8c0,0.7,0.6,1.3,1.3,1.3h7.6c0.6,0,1.1-0.5,1.1-1.1v-6
	c0-2.9,2.1-5.5,5-5.8c3.3-0.3,6.1,2.3,6.1,5.6v6.2c0,0.6,0.5,1.1,1.1,1.1h7.5c0.7,0,1.3-0.6,1.3-1.3V86.9L200.7,78.4z"/>
<line class="st5" x1="198.4" y1="86.8" x2="208" y2="86.8"/>
<line class="st5" x1="203.6" y1="92.1" x2="208.5" y2="92.1"/>
<path class="st5" d="M260,72.9L260,72.9c-3.2-3.2-8.4-3.2-11.6,0l0,0c-2.4,2.4-3,5.9-1.8,8.9l-3.2,3.2c-3.4-2.6-8.3-2.3-11.5,0.8
	l0,0l15.3,15.3c3.3-3.3,3.4-8.6,0.3-12.1l3-3c3.1,1.5,6.9,1,9.5-1.5C263.2,81.3,263.2,76.1,260,72.9z"/>
<path class="st5" d="M243.1,102.9l-13.1-13c-0.6-0.6-0.6-1.6,0-2.2l1.9-1.9l15.3,15.3l-1.9,1.9C244.7,103.6,243.7,103.6,243.1,102.9
	z"/>
<line class="st5" x1="256.6" y1="78.3" x2="261.2" y2="82.9"/>
<line class="st5" x1="255.3" y1="82.9" x2="258.2" y2="85.8"/>
<polygon class="st5" points="306.5,100.6 302.2,100.6 298.5,102.7 294.8,100.6 290.5,100.5 288.3,96.8 284.6,94.6 284.6,90.3 
	282.5,86.5 284.7,82.8 284.7,78.5 288.5,76.4 290.7,72.7 295,72.7 298.7,70.6 302.4,72.8 306.7,72.8 308.9,76.5 312.6,78.7 
	312.5,83 314.7,86.8 312.5,90.5 312.5,94.8 308.7,96.9 "/>
<polyline class="st5" points="292.9,86.7 298.1,91 304.6,82.9 "/>
<path class="st5" d="M358.9,72.7v22.7c0,2-1.6,3.5-3.5,3.5s-3.5-1.6-3.5-3.5v-1.6h-9.7c-1.6,0-3.1-0.4-4.4-1.1
	c-3-1.6-5.1-4.8-5.1-8.4c0-5.2,4.3-9.5,9.5-9.5h9.7v-2.1c0-2,1.6-3.5,3.5-3.5S358.9,70.8,358.9,72.7z"/>
<path class="st5" d="M343.1,93.8v8.9c0,1.5-1.2,2.7-2.7,2.7s-2.7-1.2-2.7-2.7v-10c1.3,0.7,2.8,1.1,4.4,1.1H343.1z"/>
<line class="st5" x1="344.2" y1="93.8" x2="344.2" y2="74.9"/>
<line class="st5" x1="348.7" y1="79.7" x2="348.7" y2="74.9"/>
<path class="st5" d="M363.2,84.2c0,2.5-1.9,4.5-4.3,4.6v-9.3C361.3,79.8,363.2,81.8,363.2,84.2z"/>
<line class="st5" x1="364.8" y1="78.3" x2="368.3" y2="74.8"/>
<line class="st5" x1="366.5" y1="84.7" x2="372" y2="84.7"/>
<line class="st5" x1="364.8" y1="90.1" x2="367.9" y2="93.8"/>
<circle class="st5" cx="405" cy="87.1" r="16"/>
<ellipse class="st6" cx="405" cy="87.1" rx="8.1" ry="16"/>
<ellipse class="st6" cx="405" cy="87.1" rx="16" ry="8.1"/>
<line class="st6" x1="405" y1="103.1" x2="405" y2="71.1"/>
<line class="st5" x1="389" y1="87.1" x2="421" y2="87.1"/>
<path class="st5" d="M40,132.7l7.4,7.4c3.1,3.1,4.5,7.7,3.2,11.9c-0.9,3-3,5.5-7.9,5.4c-3.1-0.1-6-1.4-8.2-3.6l-15.1-15.1
	c-2.4-2.4-3.1-4.1-3.2-5.9c0-2.3,0.6-5.3,4.1-6c2.1-0.4,4.3,0.3,5.9,1.8l17.2,16.2c0.6,0.6,1,1.2,1.3,2c0.6,1.9,1.2,5.2-2.1,5
	c-1.2-0.1-2.3-0.7-3.1-1.5l-15.3-16.1"/>
<path class="st1" d="M99.8,134.2c0-0.2-0.1-0.4-0.2-0.6c-1.9-5-6.7-8.5-12.3-8.5c-0.2,0-0.9,0-1,0c-5.6,0-10.4,3.6-12.3,8.5
	c-0.1,0.1-0.1,0.3-0.2,0.6c-0.6,2.9,0.2,6.9,1.9,9.4l4.7,7.3l6.4,9.4l0,0l6.4-9.4l4.7-7.3C99.6,141.2,100.4,137.1,99.8,134.2z"/>
<circle cx="86.8" cy="137.1" r="5"/>
<line class="st3" x1="91.1" y1="145.5" x2="96.7" y2="145.5"/>
<line class="st3" x1="88.2" y1="150.7" x2="93.2" y2="150.7"/>
<path class="st3" d="M155,140.3c0-1-0.6-2-1.6-2.2c-2.2-0.5-2.8,2.8-2.8,4.2v-3.6c0-1.3-0.9-2.4-2.1-2.7c-2.7-0.7-3.1,3.6-3.1,5.2
	v-5c0-1.1-0.8-2.1-2-2.3c-2.8-0.5-2.4,4.6-2.4,5.9V128c0-1.7-1.2-3.3-2.9-3.6c-2.3-0.5-4.4,1.3-4.4,3.5v16.2c0,0.1-3-7.6-8.6-2.7
	c-3.4,3,6.5,8.3,6.5,8.3c2.6,7.7,8,10.6,8,10.6h9.7c5.9-4.6,5.6-13.5,5.6-13.6l0,0v-6.4H155z"/>
<line class="st3" x1="149.5" y1="150.5" x2="153.9" y2="150.5"/>
<line class="st3" x1="146" y1="154.4" x2="153" y2="154.4"/>
<circle class="st3" cx="191" cy="140.8" r="12.6"/>
<line class="st3" x1="208" y1="157.2" x2="200.2" y2="149.4"/>
<path class="st3" d="M183,140.2c0,0-1.2-6.7,7.9-7.9"/>
<path class="st3" d="M255.9,155.6h-20.3c-4.1,0-7.5-3.3-7.5-7.5v-12c0-1.5,0.4-2.9,1.2-4c1.3-2.1,3.6-3.4,6.3-3.4h20.3
	c4.1,0,7.5,3.3,7.5,7.5v12C263.4,152.3,260.1,155.6,255.9,155.6z"/>
<polyline class="st3" points="229.3,132.1 245.8,141.7 262.4,132.5 "/>
<line class="st3" x1="256.7" y1="144.3" x2="263.4" y2="144.3"/>
<line class="st3" x1="252.4" y1="149.4" x2="263.4" y2="149.4"/>
<path class="st3" d="M299.1,144.8L299.1,144.8c-3.5,0-6.3-2.8-6.3-6.3v-7.9c0-3.5,2.8-6.3,6.3-6.3l0,0c3.5,0,6.3,2.8,6.3,6.3v7.9
	C305.3,142,302.5,144.8,299.1,144.8z"/>
<line class="st3" x1="298.6" y1="131.1" x2="305.3" y2="131.1"/>
<line class="st3" x1="300.6" y1="135.2" x2="305.3" y2="135.2"/>
<path class="st3" d="M286.9,133.9c0,0-1.3,17.6,12.1,17.6s12.1-17.6,12.1-17.6"/>
<line class="st3" x1="299.1" y1="160.3" x2="299.1" y2="151.5"/>
<line class="st3" x1="294.2" y1="160.3" x2="303.8" y2="160.3"/>
<path class="st3" d="M352.9,155.9h-11.4c-4.1,0-7.4-3.3-7.4-7.4v-12.8c0-4.1,3.3-7.4,7.4-7.4h11.4c4.1,0,7.4,3.3,7.4,7.4v12.8
	C360.3,152.5,357,155.9,352.9,155.9z"/>
<path d="M352.3,140.9l-6.9-4.8c-0.9-0.6-2.2,0-2.2,1.2v9.6c0,1.1,1.3,1.8,2.2,1.2l6.9-4.8C353.1,142.7,353.1,141.5,352.3,140.9z"/>
<polygon class="st1" points="360.3,138 369.5,132.2 369.5,153 360.3,147.2 "/>
<circle class="st3" cx="405" cy="133.9" r="9"/>
<path class="st3" d="M392.4,154.5c0,5.5,25,5.5,25,0C417.4,146.4,392.4,146.3,392.4,154.5z"/>
<ellipse cx="395.1" cy="135.5" rx="1.8" ry="2.8"/>
<ellipse cx="414.8" cy="135.5" rx="1.7" ry="2.8"/>
<path class="st7" d="M419.2,25h-6.7c2.2-10-2.9-10.8-5.3-10.8s-2.3,1-2.7,6.8c-0.4,5.8-5.7,7.1-5.7,7.1l-0.3,16.1
	c0,0,10.5,1.2,17.2,1.3l0,0h1.7c1.2,0,2.1-0.9,2.1-2.1v-0.5c0-1-2.3-1.5-3.2-1.8l2.4-0.3c1.4,0,2.4-1.1,2.4-2.4l0,0
	c0-1.4-3.1-2.2-4.4-2.2h0.3c1.5,0,4.7-1.4,4.7-2.9s-3.2-2.7-4.7-2.7h3.3c0.7-0.3,1.6-1,1.6-1.7v-2.3C421.8,25.5,420.3,25,419.2,25z"
	/>
</svg>
