<?xml version="1.0" encoding="UTF-8"?>
<svg xmlns="http://www.w3.org/2000/svg" xmlns:xlink="http://www.w3.org/1999/xlink" viewBox="0 0 260.35 150">
  <defs>
    <style>
      .cls-1 {
        font-family: AmericanTypewriterITCPro-Lt, 'American Typewriter ITC Pro';
        font-size: 9.72px;
      }

      .cls-1, .cls-2 {
        fill: #d27312;
      }

      .cls-3 {
        fill: #fff;
      }

      .cls-4, .cls-5 {
        fill: #56431a;
      }

      .cls-6 {
        fill: #e6007e;
        stroke: #56431a;
        stroke-miterlimit: 10;
        stroke-width: 4px;
      }

      .cls-7 {
        fill: none;
      }

      .cls-5 {
        font-family: HomemadeApplePro, 'Homemade Apple Pro';
        font-size: 40px;
      }

      .cls-8 {
        clip-path: url(#clippath);
      }
    </style>
    <clipPath id="clippath">
      <path class="cls-7" d="M174.74,62.8c0-26.83-22.63-48.58-50.55-48.58s-50.55,21.75-50.55,48.58c0,1.99.14,3.96.38,5.89h100.34c.24-1.93.38-3.89.38-5.89Z"/>
    </clipPath>
  </defs>
  <g id="Calque_1" data-name="Calque 1">
    <text class="cls-5" transform="translate(2.4 116.2)"><tspan x="0" y="0">City Bread</tspan></text>
  </g>
  <g id="Calque_2" data-name="Calque 2">
    <g>
      <text class="cls-1" transform="translate(66.34 57.32) rotate(-77.34)"><tspan x="0" y="0">N</tspan></text>
      <text class="cls-1" transform="translate(68.08 49.82) rotate(-70.97)"><tspan x="0" y="0">e</tspan></text>
      <text class="cls-1" transform="translate(69.68 44.94) rotate(-64.62)"><tspan x="0" y="0">w</tspan></text>
      <text class="cls-1" transform="translate(73.09 38.02) rotate(-59.71)"><tspan x="0" y="0">-</tspan></text>
      <text class="cls-1" transform="translate(74.17 36.03) rotate(-55.59)"><tspan x="0" y="0">Y</tspan></text>
      <text class="cls-1" transform="translate(77.32 31.41) rotate(-50.47)"><tspan x="0" y="0">o</tspan></text>
      <text class="cls-1" transform="translate(80.72 27.3) rotate(-45.51)"><tspan x="0" y="0">r</tspan></text>
      <text class="cls-1" transform="translate(83.99 23.92) rotate(-40.37)"><tspan x="0" y="0">k</tspan></text>
      <text class="cls-1" transform="translate(88.53 20.13) rotate(-36)"><tspan x="0" y="0"> </tspan></text>
      <text class="cls-1" transform="translate(90.9 18.32) rotate(-31.46)"><tspan x="0" y="0">P</tspan></text>
      <text class="cls-1" transform="translate(96.07 15.16) rotate(-25.92)"><tspan x="0" y="0">a</tspan></text>
      <text class="cls-1" transform="translate(100.88 12.83) rotate(-20.9)"><tspan x="0" y="0">r</tspan></text>
      <text class="cls-1" transform="translate(105.32 11.16) rotate(-17.1)"><tspan x="0" y="0">i</tspan></text>
      <text class="cls-1" transform="translate(108.17 10.25) rotate(-13.22)"><tspan x="0" y="0">s</tspan></text>
      <text class="cls-1" transform="translate(112.91 9.16) rotate(-9.32)"><tspan x="0" y="0"> </tspan></text>
      <text class="cls-1" transform="translate(115.85 8.62) rotate(-5.03)"><tspan x="0" y="0">S</tspan></text>
      <text class="cls-1" transform="translate(121.52 8.1) rotate(.93)"><tspan x="0" y="0">y</tspan></text>
      <text class="cls-1" transform="translate(127.03 8.15) rotate(5.87)"><tspan x="0" y="0">d</tspan></text>
      <text class="cls-1" transform="translate(132.69 8.7) rotate(11.92)"><tspan x="0" y="0">n</tspan></text>
      <text class="cls-1" transform="translate(139.16 10.09) rotate(17.77)"><tspan x="0" y="0">e</tspan></text>
      <text class="cls-1" transform="translate(144.07 11.65) rotate(23.06)"><tspan x="0" y="0">y</tspan></text>
      <text class="cls-1" transform="translate(149.17 13.87) rotate(27.3)"><tspan x="0" y="0"> </tspan></text>
      <text class="cls-1" transform="translate(151.86 15.26) rotate(29.92)"><tspan x="0" y="0">-</tspan></text>
      <text class="cls-1" transform="translate(153.86 16.4) rotate(32.56)"><tspan x="0" y="0"> </tspan></text>
      <text class="cls-1" transform="translate(156.41 17.97) rotate(36.83)"><tspan x="0" y="0">S</tspan></text>
      <text class="cls-1" transform="translate(160.96 21.43) rotate(41.37)"><tspan x="0" y="0">t</tspan></text>
      <text class="cls-1" transform="translate(163.64 23.73) rotate(45.73)"><tspan x="0" y="0">o</tspan></text>
      <text class="cls-1" transform="translate(167.37 27.55) rotate(50.77)"><tspan x="0" y="0">c</tspan></text>
      <text class="cls-1" transform="translate(170.42 31.24) rotate(55.91)"><tspan x="0" y="0">k</tspan></text>
      <text class="cls-1" transform="translate(173.73 36.1) rotate(61.88)"><tspan x="0" y="0">h</tspan></text>
      <text class="cls-1" transform="translate(176.66 41.61) rotate(67.6)"><tspan x="0" y="0">o</tspan></text>
      <text class="cls-1" transform="translate(178.67 46.58) rotate(71.66)"><tspan x="0" y="0">l</tspan></text>
      <text class="cls-1" transform="translate(179.72 49.17) rotate(77.76)"><tspan x="0" y="0">m</tspan></text>
      <path class="cls-2" d="M174.74,63.15c0-27.02-22.63-48.92-50.55-48.92s-50.55,21.9-50.55,48.92c0,2.01.14,3.98.38,5.93h100.34c.24-1.95.38-3.92.38-5.93Z"/>
      <line class="cls-6" x1="2.4" y1="70.9" x2="245.97" y2="70.9"/>
    </g>
    <g class="cls-8">
      <g>
        <path class="cls-3" d="M162.72,16.48v.33s.24-.34.24-.34l.23.17c-.4.6.06.62.34,1.13l-.68-.06c.14.45.53.21.79.3.37.13.8.47,1.25.49h-.57s.12.39.12.39l-.23.07.45.9-.79-.23v.34s-.34-.23-.34-.23c.09.3-.35.19-.34.28.2.16.8.95.9,1.01.05.03.92.25,1,.32.04.03.06.29.19.44.15.17.49.33.51.35.05.07-.13.28-.06.44s.38.21.46.34c.04.07-.04.23.01.34.09.19.4.27.4.52-.39.14-.71-.39-.94-.54-.68-.47-1.97-1.16-2.42-1.77-.3-.41-.5-1.75-.64-1.92-.04-.04-.22,0-.28-.05-.16-.15-.24-.6-.61-.37l.45.85c-.42-.22-1.08-.72-1.47-.28.28.3.3.8.79.85l-.4.34c-.16-.32-.19-.35-.56-.35-.49,0-.5.32-.59.34-.14.03-1.12-.04-1.18.19-.06.23.25,1.98.34,2.03.05.03.75-.03.97.35.24.03.3-.31.35-.31.15,0,1.44.66,1.58.81.17.18.3.6.52.85.8.91,1.04,1.05,1.4,2.35.07.25.33,1.23,0,1.33l-.61-.11c-.23.53.16.74.22,1.08.06.31-.07.74,0,.99.02.09.95.65,1.14.82.35.31.6.69.9,1.03l-.6.5c-.35-.18-.34-.52-.54-.83-.07-.11-.25-.15-.29-.22-.07-.11-.02-.3-.09-.43s-.7-.14-.81-.22c-.19-.14-.18-1.09-.79-.7l-.1-.21-.57.57c-.45-.4-.05-1-.8-1.13-.26.02-.16.87-.16,1.07l-.35.06.45.52.74.5.17-.06c.1-.44.43-.18.79-.28.03.33-.32.25-.4.56-.07.23-.1.59,0,.81.15.26.49.18.69.33.18.13.19.41.31.54.19.21.67.3.87.55l-.45.17c.69.04.48.53.57,1.02.18-.03.19-.32.4-.12.43.42.11,1.4.09,1.9,0,.19.17.32.14.5s-.21.34-.24.5c-.02.12.12.43.05.51-.03.03-.23-.04-.3.03-.14.13-.12.21-.48.5-.15.12-.04.36-.35.27l-.11-.23-.14.43c-.61.06-.54.15-.94.59l-.19-.43c-.34-.06-.88.16-1.06.44-.02.03-.16.69-.16.73,0,.12.56.99.68,1.13.56.71,1.11.86,1.49,1.8.1.24.27,1.25.15,1.44s-.64.62-.85.34c.04.46-.02.84-.4,1.13-.32-.22-.07-.65-.23-.91-.04-.07-.38-.24-.4-.23-.04.04.09.27-.11.23.17-.27-.58-1.05-.77-1.11-.39-.13-.5.21-.54-.48l-.4-.11c.38.73-.26,1.7.12,2.41.07.14.34.23.46.48s.08.49.21.7c.15.24.87.7,1.08,1.08.19.35.03.79.18,1.18.13.35.51.54.45.97l-1.2-.95c-.44-.43-.41-1.54-.63-1.92-.84-1.4-.59-1.07-.81-2.72-.13-.94-.84-1.74-.91-2.67l-.54-.48-.25.67-.53-.12c0-.54-.33-1.64-.74-1.99-.12-.11-.62-.25-.72-.41-.17-.28-.15-.97-.66-1.22l-.17.57-.2-.08-.31.31c-.19-.48-.4.04-.73,0,.25.86-.06.68-.36,1.07-.36.47-.8,1.64-1.27,2.08-.07.06-.24-.02-.31.11-.3.5.1.5.11.57.23.91-.14,1.96-.14,2.85-.37.03-.2.51-.48.48-.5-.06-.53-.89-.69-1.24-.23-.48-.53-.93-.75-1.41-.54-1.16-1.07-2.26-1.48-3.52-.06-.19-.15-1.16-.21-1.21-.43-.13-.13.59-.23.68-.59.08-.84-.18-1.14-.63l.45-.4c-.66.28-.72-.29-.94-.42-.12-.07-.34-.01-.49-.13-.15-.11-.15-.4-.27-.53-.39-.45-1.43,0-1.9.02-.73.04-2.04-.1-2.15-.99-.38-.1-.5.27-.7.33-.46.13-.75-.34-1.03-.54-.09-.07-.31-.04-.45-.15-.48-.39-.5-1.5-1.62-1.1-.13.12.66,1.33.8,1.54.07.11.28.13.35.24.12.2.17.7.33.94l.28-.45c.37.23-.04.42-.04.51,0,.31,1.17.58,1.51.16.2-.25.25-.72.51-.9-.38,1.3,1.63,1.08,1.65,1.93,0,.29-.18.63-.31.88l-.21-.1c-.1.24.1.71.08.86-.02.13-.29.16-.36.28-.09.14-.03.41-.06.44-.05.05-.3-.04-.42.03-.05.03-.14.31-.31.43-.19.14-.47.14-.63.28s-.16.39-.26.48c-.14.14-.79.25-1.03.39-.72.43-.39.44-1.37.69-.22.06-.5.52-.97.29-.21-.14-.3-1.73-.42-2.02-.19-.47-1.25-1.69-1.57-2.17-.26-.4-.24-.82-.42-1.16-.14-.26-.56-.48-.68-.69-.08-.15.02-.28-.05-.39-.23-.37-.97-1.07-1.16-1.39-.1-.17.01-.55-.03-.77l-.23.79-.68-.79c-.14.49.21.43.37.71.47.85.79,1.86,1.2,2.66.15.29.5.5.63.83.11.29.11.82.3,1.2.17.34.44.47.6.77.18.33.19.92.31,1.13.02.04.61.33.78.49.19.17,1.06,1.01.98,1.18l-.29.34c.46-.02.59.61,1.07.57.13-.01.25-.15.37-.18.69-.16,1.42-.2,2.02-.61.2.13.14.37.11.57-.12,1-1.37,3.84-2.15,4.55s-1.76,1.9-2.32,2.78c-.14.22-.69,1.71-.58,1.86l.23-.12c0,.53-.09,1.25,0,1.76.05.25.29.32.34.57.06.32-.08,1.84-.16,2.21-.06.26-.37.74-.57.91-.27.23-.53.23-.74.4s-.41.63-.63.85c-.15.15-.42.14-.52.31-.26.46.36,1.68-.12,2.45-.27.42-.73.35-.91.58-.15.19-.01.36-.06.52-.26.87-1.41,2.49-2.13,3.07-.66.53-1.38.41-2.09.51-.29.04-.83.35-1.14.23-.8-.31-.39-1.07-.49-1.67-.13-.79-.65-1.5-.81-2.23s-.05-1.69-.19-2.32c-.02-.08-.19-.5-.27-.87-.22-.98-.84-1.05-.61-2.33.01-.08.35-1.35.41-1.49.09-.2.26-.19.34-.35.34-.69-.1-.95-.15-1.5-.03-.28.09-.5.04-.83-.03-.22-.29-.61-.28-.71s.23-.21.19-.28c0,0-.13.02-.18-.05-.47-.67-.72-1.51-1.37-2.07-.26-.63.56-2.87.18-3.32-.01-.01-.16.07-.21.03-.09-.06-.08-.26-.19-.28-.23-.04-1.28.3-1.38-.06l-.05-.58c-.7-.4-1.63-.15-2.33.17-.12.05-.14.21-.23.25-.8.37-.74-.17-.87-.19-.05,0-.9.08-1.01.11-.53.12-.55.72-1.27.2-.82-.59-1.95-1.63-2.11-2.66l-1.12-1.26.23-.06-.23-.34.23-.06c-.56-.63-.17-.66-.05-1.08.23-.84.29-1.68.16-2.55-.03-.23-.27-.35-.23-.68s1.22-2.26,1.47-2.63c.1-.14.09-.4.15-.47.06-.06.86-.33,1.07-.52.69-.62.21-1.24.67-1.89.3-.42,1.16-.55,1.19-1.26.19-.03.33.16.5.18.99.06,1.89-.6,2.85-.74.55-.08,1.4-.13,1.91,0l.23-.24c.59.04.92,1.11.3,1.31.3.95,1.19.66,1.79.93.21.09.11.33.25.44.05.04,1.16.48,1.22.49,1.02.2.49-.69.64-.89.36-.25.96-.13,1.34.02.11.05.47.44.5.44.14,0,.31-.13.54-.11.27.02.72.31.92.29.12-.01.25-.2.39-.24.7-.21.89.23,1.3.18.82-.1.36-2.24.52-2.84-.67-.09-.58.47-1.27.3-.34-.08-.82-.58-.89.03l-.98-.57c-.25-.31-.18-.91-.61-1.08l.13-.27c.98.05,1.64-.9,2.67-.73.42.07.62.31.99.39.24.05,1.14.08,1.26-.13.39-.66-.46-.8-.78-1.04s-.54-.78-1.09-.55c-.15-.36.3-.55.32-.6.04-.09-.1-.46.14-.65l-1.59.45c0,.4.48.46.79.45l-.63.45c-.26.1-.28-.62-.35-.68-.18-.16-.49,0-.39-.44l-.78.12-.48,1.96.57.63c-.24-.09-.49.16-.62.17-.19.01-.81-.19-.91-.14-.12.06-.12.21-.2.27s-.27.01-.29.04c-.02.03,0,.68.02.72.07.16.68.4.26.41-.14-.22-.66-.18-.72-.25-.04-.05.01-.23-.04-.28-.07-.07-.27-.02-.37-.15-.06-.08-.03-.25-.09-.31s-.26,0-.29-.03c-.07-.07.07-.55-.12-.85-.03-.04-.76-.65-.81-.67-.19-.08-.44-.02-.55-.08-.08-.05-.2-.68-.42-.77l-.28.23c.18-.8-.77-.49-.53.15.12.33.43.22.54.38s.11.58.25.69c.22.19,1.25.47,1.56.71h-.57c-.15.48.3.82-.17,1.25-.03-.73-.17-1.19-.86-1.53-.18-.08-.39-.02-.53-.09-.32-.17-.57-.87-.75-1.07-.69-.77-1.31.31-1.39.31-.25,0-.78-.5-1.25-.01.22.81-.31.67-.71,1.1-.46.49-.2.6-.24.99,0,.05-.66.81-.71.84-.05.04-1.1-.02-1.29.25-.23-.7-.57-.47-1.19-.45.09-.89.41-1.81.12-2.71.48-.48,2.25.13,2.55-.11.5-.4.22-1.39-.17-1.78-.19-.18-.78-.23-.69-.45.16-.35.75.03,1.02-.06v-.46c.58.25.77-.49.94-.65.08-.07.85-.4.96-.51.12-.12.09-.34.27-.48.3-.23.78-.09,1.13-.18.04-.18-.17-.08-.23-.19-.1-.17.02-.33,0-.41-.02-.05-.34-.21-.3-.48l.48-.5.08,1.34c.32.29.82,0,1.05.05.15.03.29.31.35.31.04,0,.31-.34.62-.41.44-.1.64.09.97.08.18,0,.21-.35.5-.24.06-.06-.5-1.69.53-.92.3.05.3-.48.25-.66-.22-.03-.39.09-.33-.23.4-.06.74-.34,1.08,0,.16-.22.17-.4.51-.34-.2-.65-1.76.04-1.91-.02-.23-.29-.55-.36-.66-.83l.87-1.02c-.12-.26-.75-.18-1.01-.16l-.03.54c-.26.06-.89.42-.96.68-.16.56.22.69.19.97,0,.06-.19.04-.21.12-.18.74.54,1.31-.93,1.53.01-.44-.27-.68-.43-.99-.11-.22-.12-.86-.57-.69-.28.11-.22,1.08-1.27.43l.23-.17-.34-.23.34-.28-.34-.23.46-.06c-.92-.14.33-.57.66-.7.12-.05.34-.02.36-.03.03-.02-.09-.22-.05-.34.07-.21.44-.45.58-.61.05-.06.02-.22.07-.26.13-.12.52,0,.31-.37.48.14.43-.2.64-.32s1.8-.51,2.09-.54c.21-.02.46.01.68-.05l-.23.11c-.27.31,1.73.27,1.83.29.2.03,1.76.59,1.58.84-.74.44-1.51-.08-2.27-.22.1.31.73.34.88.47.02.02-.04.38.17.52l.71.26c.37-.34.58-.35,1.07-.23l-.45-.4c.24-.34.55-.36.91-.17l-.11-.45c.76.32.65-.02,1-.19.29-.15.59-.24.88-.38v.45c.31-.13.44-.37.82-.43.46-.07.83.23,1.16-.19l-.23-.17c.79-.28,1.43.34,2.27.34v-.34s-1.01-.41-1.01-.41l.12-.48.78-.13c.07.4.68,1.12,1.14,1.14.12.56-.57.46-.79.79h1.24s.13-.62.13-.62l-.23-.12.68-.17c-.39-.3-.6-.09-.95-.12s-.83-.53-.63-.9c.22.04.13.35.42.43.25.08.57,0,.83.02l-.34-.23c.44-.64,1.09.52,1.7.34l-.42-.46-.94-.34c.32,0,.73-.04,1.02-.17.37-.17-.32-.15-.11-.4.3-.37,2.73-.09,3.07-.68l-.45-.11c.43-.24.95.17,1.19.17.4,0,1.42-.46,1.53.28l-.74.57c1.22-.62,2.58-.43,3.92-.46l-.17-.23c.35.18.67-.01.99.02.49.06.94.63,1.37.55.08-.01.08-.18.17-.22.55-.22.85-.1,1.39-.24l-.23-.34c.25.04.51-.12.75-.12.42,0,.56.3,1.12,0,.44.5,1.78-.04,2.4,0,.5.04.48.29.57.32.15.05.6.05.79.14l.12-.33,1.87.1-.34-.34c.29.13.37-.24.39-.23.67.2.9.07,1.6.11.6.03,1.23.2,1.86.13ZM137.26,28.07c-.38-.38-2.04.01-1.74,1.12.27,1.03,1.14,1.26,1.34,1.73s-.14,1,.26,1.45c.04.05,1.09.66,1.15.66.15.01.53-.35.83-.21-.18-.27-.17-1.07-.25-1.22-.05-.08-.59-.31-.71-.49s-.38-1.18-.43-1.22c-.1-.1-.42-.06-.52-.16-.06-.06-.03-.41-.37-.48l.22-.11-.1-.29h.57c-.27-.18-.12-.64-.25-.77ZM139.89,27.94h-.34c.39.66-.61.42-.23,1.25l.11-.34.45.34v-1.25Z"/>
        <path class="cls-3" d="M84.1,16.52s.03.15.05.15c.13.03.8.06.88.15l-.23.45c.26.05.4-.3.62-.3.05,0,.87.22.96.25.31.12.57.7.86.59.06-.02.07-.17.15-.2.57-.18.89-.13.25.33l1.93-.45v.34s.41-.11.41-.11l.1.21c.56-.32.94.42,1.54.35l-.11.45c.44.21,1.35-.27,1.02.45.31.06.26-.28.48-.38.47-.21.8-.1,1.24.05.11.04.07.2.26.22.54.07.8-.3,1.31-.24l-.17.45,1.31-.68-.45-.28c.32-.36.69-.59,1.02-.11l-.34.34.34.06-.34.45.68-.23-.23.57c.11.1,1.45-.39,1.25-.79,1.13.22.4.34.09.94-.36.09-.59.26-.88-.04l-.06.23-.23-.21c-.38.51-.77.29-1.31.21-.13.27.46.34.34.45-.47.47-1.79.16-2.38,0l.91.57c-.3.04-.9.23-1.16.35-.1.05-.63.37-.72.44s-.56.53-.57.57c-.03.07.37.58-.05.91,1.16-.37,1.12,1.15,2.27.91l-.64,1.02c.12.34.05.73.41.91-.02-.4.31-.23.33-.25.02-.02.27-.42.29-.44.06-.1.33-.9.4-.96.28-.23.79-.22,1.14-.57.43-.43.25-.87.39-1.09.06-.09.28-.07.41-.19.26-.24.22-.82.68-1.11.29-.19.81.14,1.17.05.15.04.09.43.21.55.02.02.31-.12.32.13l-.45.17.34.17c-.1,0-.69.38-.45.52.14.08.88.1,1.05.03.26-.11.41-.58.76-.65.28.42-.11.64-.12.85,0,.03.35.08.19.46-.08.18-.31.12-.3.22l.12.62.4-.11.06.23-.2.06.09.17s-.93.01-.68.34c.05.06.73-.21.84-.21.21,0,.49.16.74.1.04.18-.18.08-.23.19-.08.15-.04.42-.19.5-.19.1-.59.07-.83.17-1.29.48-.88.31-2.22.28-.58-.01-1.74.71-2.21,1.08-.16.13-.29.32-.45.46-.02.08.12.08.17.05.62-.25,1.3-1.1,2.22-.91.01.39-.52.49-.79.34-.07.2.18.28.19.4s-.19.28-.2.45c0,.03.43.45.46.47.27.15.64-.3.57.16-.31.06-.8.11-1.06.25-.14.08-.16.23-.23.28-.41.29-.74.05-.26-.25.21-.13.5-.26.75-.28l-.12-.34c-.84.4-2.1.49-2.68,1.29-.13.18-.13.5-.27.59-.23.16-.99.08-1.3.29-.28.19-.16.61-.44.71l-.53-.1s-.5.48-.51.51c-.08.23.27.42-.29.63.28.02.12.69.09.72-.11.1-.4.07-.52.16-.08.07-.07.28-.22.43-.28.27-1.44.67-1.71.94-.05.05-.02.21-.07.26-.08.09-.22.12-.28.23-.72,1.12.03,2.22-.87,3.22-.7-.86,0-1.66-.28-2.61-.55.24-.56-.08-.88-.2-.28-.11-1.66-.1-1.71.14l.03.4c-.24.06-.24-.31-.29-.34-.03-.02-.36.18-.52.19-.27.01-.54-.25-.83-.19.13.6-1,.58-1.22.82-.14.15-.24,1.02-.36,1.29-.1.21-.28.25-.31.31-.2.4-.64,1.88-.59,2.29.04.35.29.7.26,1.08l.66.43,1.07-.24.62-1.31,1.34-.13c-.12.35-.41.43-.51.86-.05.19.08.5-.06.73-.61-.56-.37.45-.48.82-.06.2-.61.74-.06.75.32,0,1.51-.38,1.73.13.07.15-.45,1.61-.44,2.11,0,.2.32,1.21.41,1.28.5.43,1.18-.52,1.79-.03.25.2.24.67.57.62-.37-.57.32-.64.43-.81.02-.03-.11-.46.05-.64.09-.1.32-.08.45-.15.27-.15.48-.22.7-.34.21-.12.29-.42.35-.45.23-.08.38.05.29.29-.03.07-.25.08-.32.24-.05.11-.11,1.22-.03,1.29.8-.13-.23-1.26.8-1.19v-.51c.25.13.6.73.82.83.08.04.87.26.97.28.52.1.57-.44,1.05-.31-.23.52.5.34.73.68l-.05.57c1.2-.05.7,1.37,1.99,1.45.14,0,.31-.11.44-.1.08.01.06.21.14.23.07.01.2-.08.35-.02.1.04.83.77.86.85.11.28.06.82.12.95.08.16.44.15.22.7-.06.14-.22.16-.3.28-.09.16-.41.82-.45.85-.14.12-.69.1-.76.37.56.03,1.04-.33,1.48-.34v-.46s.8,0,.8,0c-.12.75-.65.53-1.25.68.08.38.66-.01.79.12l.12.34c.12-.18.39-.76.49-.87.34-.38,1.83.38,1.45,1.1.48-.38,2.16.03,2.57.38.17.14.3.49.55.65.55.35.82.12.95,1.09.14,1.02-.5,1.49-.94,2.21-.12.2-.11.49-.24.67-.09.12-.32.15-.38.31-.1.3.22,1.75.2,2.14-.03.69-.34,1.45-.59,2.12-.06.17.03.36,0,.4-.01.02-.37.35-.4.36-.55.16-.83.02-1.43.48-.34.26-.5.7-.56.75-.09.06-.29,0-.31.02-.07.07.35,1.37.31,1.63-.05.3-.82,1.16-.94,1.66-.11.44.04,1.11-.47,1.45l-1.63-.21c.07.29.52.22.66.36.1.11.07.35.15.45.23.33.61.39.27.99-.29.51-1.13.47-1.64.46.33.31.33.61.45,1.02l-1.02.06c.22.33.34.53.79.51l-.31.27.2,1.09c-.95.09-.21,1.05.46,1.1.17.29-.09.46-.11.65-.01.14.12.31.11.45,0,.08-.19.06-.21.12-.09.26.07.74.31.91l-.33.18.1.44-.23-.45-.51.23c-.31-.21-.02-.23.06-.45-.27.12-.97-.52-1.1-.72-.18-.28-.29-1.05-.32-1.1-.08-.12-.24,0-.27-.02-.1-.1-.03-.48-.36-.43l.24-.18c-.15-.31-.06-.71-.13-.99-.02-.1-.21-.08-.26-.22-.11-.3-.15-.7-.3-.94-.18-.29-.47-.14-.62-.39-.18-.29-.12-.63-.23-.91-.1-.24-.36-.48-.43-.71-.11-.4.1-1.35,0-1.93-.07-.39-.36-.83-.47-1.25-.41-1.66-.47-3.43-.88-5.12-.08-.31-.31-1.32-.42-1.51-.02-.05-.67-.73-.71-.76-.17-.11-.5-.11-.76-.27-.33-.2-1.14-.8-1.27-1.13-.43-1.09-1.16-2.99-1.82-3.91-.1-.14-.31-.16-.4-.32-.04-.06-.17-.96-.15-1.05.06-.24.38-.52.54-.71.05-.23-.3-.29-.45-.29l.24-1.79c.58-.14.53-.62.73-.92.13-.2.34-.11.45-.57.02-.07.06-1.45.05-1.53-.04-.3-.34-.51-.34-.69,0-.2.28-.28.23-.51-.26.13-.34-.04-.51-.23l-.61.47.1.44c-.05.06-.61-.48-.69-.51-.19-.08-.38.06-.45,0-.21-.14-.22-.96-.67-.97l-.12.22c.12-.87-.4-1.22-.57-1.99-.41.05-1.12-.11-1.43-.39-.41-.38-.44-1.52-1.34-1.23-.41.13-.19.52-.96.12-.45-.23-1.81-1.35-2.08-1.76-.11-.16-.34-.04-.2-.57.13-.49.51-.52.44-1.28-.06-.62-.73-1.53-.75-1.7-.14-.94-.23-1.7-.09-2.63.16-1.14-.79-.37-.84.26-.01.18.17.34.18.55.02.43-.21.84.06,1.27.04.06.18.03.18.04.04.05-.17.18-.2.31-.08.34-.07.81-.14,1.17l.23-.12c0,.25.06.59-.23.68.08-.31-.41-.92-.41-1.08,0-.39.69-.88-.27-1.36.77-.55.22-.85.22-1.36,0-.46.17-.97.23-1.37.07-.49-.06-1.03-.56-1.19.36-.29.09-.54.13-.74.12-.65.23-1.8.62-2.31.3-.39.59-.86.86-1.19.6-.74,1.84-1.24,2.03-2.34l.51.23c.42,0,.67-.99.7-1.32l-.64-.5.79-.4-.34-.11.45-.46-.23-.22.57-.29-.34-.22c.44-.01.24-.31.31-.45.15-.33.34-.64.49-.97-.15-.21-.38.05-.34-.28l-.34.23.22-.79c-.35.23-.78-.02-1.08-.23-.12-.08-.1-.28-.25-.34-.26-.1-1.02-.14-1.31-.09-.88.17-1.96,1.12-2.86,1.23-.24.03-.31-.02-.03-.15.26-.12.38,0,.31-.42l-.5-.11-.06-.23.68-.51-.33-.18c.38-.95,2.47-.5,3.01-1.12.07-.08.12-.2,0-.23-.35.16-.61.12-.96,0,.03-.26.25-.11.32-.15.05-.03.05-.21.22-.28.69-.3,1.06.2,1.74.09v-1.01c1.12.13,2.12-.67,3.27-.31Z"/>
        <path class="cls-3" d="M176.13,60.06s.48-.16.46.51c0,.28-.17.47-.19.7-.02.16.11.35.08.54-.03.22-.26.34-.24.69s.36.52.44.94c.06.34-.02.97-.2,1.28h.34c.12.28-.22.56-.21.72.04.46.37.77.07,1.47-.05.12-.32.61-.42.82-.93,1.87-2.51,2.68-3.99,3.96-.22.19-.87,1.02-.93,1.06-.17.1-.57-.02-.81.03-.08.02-.99,1.02-1.1.45l.23-.11c-.38-.29-.71.16-.94.1-.11-.03-.74-.45-.72-.61.03-.18.42-.51.48-.74.06-.21-.07-.37-.01-.56.14-.47.69-.86.74-1.37l-1.36.91c.27-.64.13-1.45-.63-1.59-.6-.11-1.18.4-1.79.27-.63.26-.6.15-1.04.53-.53.45-.91.03-1.47.11-.42.06-1.32.94-1.72.45-.28-.34.25-.68.29-.77.23-.43.77-1.5.87-1.93.1-.4.03-1.03.17-1.42.07-.2.31-.32.38-.53.2-.64-.04-.91.5-1.62.94-1.25,3.21-1.15,3.92-2.13.28-.38.26-.83.57-1.13l.06.45.34-.12-.06-.45.34.11c.18-.1.07-.28.16-.4.04-.05.37-.48.39-.51.21-.2.58-.25.81-.45l.17.79c.24-.13.32-.67.51-.11l.29-.91.34.11c-.21-.43.51-1.01.91-.68v-.57c.19.05,1.22.47,1.26.52.31.39-.54,1.03-.54,1.35,0,.14.61,1.4.99,1.08v.46c.55.1.77-.2,1.03-.62s.25-.83.38-1.21c.14-.42.43-.78.41-1.24l.22.11.29-.79c.3.32-.13,1.97-.06,2.04Z"/>
        <path class="cls-3" d="M116.5,16.59l-1.67.71-.15.42.45.06c-.18.02-.56.58-.6.59-.51.17-.83-.21-1.22.15l.91.45c-.5.09-.9-.21-1.36-.34.09.37-.2.33-.34.57.32.01.65-.01.97,0,.14,0,.42-.09.4.11-.35.04-.64.26-.98.33-.63.13-.94-.03-1.5.23-.51.24-.94.6-1.5.58l.12-.23h-.28c-.14.46-.49.26-.81.44s-.43.97-1.07.8c.39.28-.41.89-.51.89-.07,0-.24-.23-.4-.27-.17-.05-.33.11-.52-.04-.25-.18-.36-.76-.51-1.03l.57-.12-.45-.74.23-.06-.23-.22h.79s-.34-.23-.34-.23c.86-.09,1.33-1.24.11-1.14.03-1.52-1.51-.98-2.5-1.25.07-.33.9.16.79-.34l-.91-.06c0-.15,1.15-.15,1.3-.18,2.93-.52,6.56-.39,9.54-.06l1.65-.05Z"/>
        <path class="cls-3" d="M173.48,52.37c.23.21-.06,1.16.43,1.44l.91-.67-.07-.35c.5-.32.68.48.81.56.06.04.26-.09.44-.05.37.09.87.59.93.62.1.04.21-.1.3-.07.03.01.53.43.55.46.27.47.19.86.84,1.15-.22.19-.39.35-.34.68,0,.05.42.85.49,1,.1.19.7.73.42,1-.2.18-.24-.19-.31-.22-.16-.07-.47-.06-.57-.14-.3-.25-.08-1.26-.94-1.6-.44-.18-.77.47-.73.83l-.13.09c-.25-.03-.63-.03-.81-.24-.1-.12-.09-.33-.18-.4-.07-.05-.25,0-.29-.04-.08-.08-.06-1.2-.2-1.46-.27-.48-1.32-.63-1.69-1.13l-.28.23-.23-.46c.06-.28.68-.03.57-.45-.25,0-.84-.15-.89-.41.05-.56.59-.7.97-.35Z"/>
        <path class="cls-3" d="M166.93,48.03c.04.54.25.63.68.85.08.14-.53.57-.68.51.11.18.08.42.14.59.07.19.35.6.41.74.3.7,0,.37-.1.43-.4.23-.11.95-.17,1.08s-.31.15-.4.31c-.22.38-.2,1.56-.73,1.51-.04,0-.26-.47-.63-.53-.19-.03-.24.24-.46.18v-.34c-.96.38-.78-.57-.95-1.19-.02-.06-.17-.06-.19-.14-.34-2.03.84-.97.9-1.06-.21-.51-.01-.36.07-.5.05-.09.05-.23.08-.25.13-.12.34-.11.48-.27.17-.19.12-.51.34-.68.07-.04.02.42.29.17.23-.21.41-1.07.67-1.35.08-.08.16-.13.24-.07Z"/>
        <path class="cls-3" d="M139.77,60.05l-.31.02c-.12.79-.39,1.71-.66,2.46-.17.47-.66,1.66-.89,2.06-.17.3-.71.62-1.03.5-.57-.22-.21-.76-.17-1.22.01-.16-.12-.36-.1-.56.03-.22.61-.83.65-1.27s-.24-1.02.04-1.54c.09-.18,1.14-.58,1.37-.82.11-.58.74-.76.68-1.31.55.36.4,1.13.44,1.7Z"/>
        <path class="cls-3" d="M99.58,17.72l-.17.57c.18-.42.72-.48,1.13-.46l.07.34c.7-.1,1.16-.13,1.78.27.16.1.2.57.71.42l-.45.11c-.09.73.73.57,1.02,1.13-.48.33-.88-.04-1.41-.12l-.11.22-.29-.1c-.01.56.77.49.16,1.14-.26.03-.53-.55-.73-.35-.23.23.4.4.23.57-.13.12-.63-.22-.76-.31-.59-.4-.45-.95-1.51-.6.02-.62.88-.15,1.17-.22.1-.02.14-.24.26-.33.46-.33,1.36-.78.16-.93.14-.21.14-.52-.11-.63-.11-.05-.2.14-.37.14-.2,0-.87-.03-1.04-.07-.27-.07-.38-.53-.74-.35.03-.55.61-.47,1.02-.45Z"/>
        <path class="cls-3" d="M159.3,48.95s.1.31.2.43c.25.33.64.58.62,1.03l.21-.1c.27.6,1.08.37.93,1.34l.45-.11s-.17.61-.06.79c.1.17.37.19.4.31.04.16-.06.5.01.59.05.05.34-.03.43.2.15.42-.18,1.07-.1,1.52l-.21-.09-.02.19h-.16c-.42-.67-1.04-1.18-1.37-1.92-.29-.66-.48-1.73-.81-2.38s-1.13-1.13-1.4-1.76c-.06-.15,0-.18.15-.15.17.03.71.09.74.11Z"/>
        <path class="cls-3" d="M92.31,17.16c-.21.04-1.48.41-1.47.06.83-.51,1.48-.88,2.38-.23-.23.13-.55.01-.82.06-.08.01-.08.1-.09.11.39.02.78-.04,1.17.03.35.06.54.38.92.2l.13.23.63-.34-.12.61.35.24-.68.17.12.23c-.83-.16-1.58-.24-2.44,0-.21-.25-.03-.49-.52-.45-.08-.38.26-.16.49-.23.07-.02.14-.34.42-.23-.03-.28-.57-.07-.45-.45Z"/>
        <path class="cls-3" d="M168.81,32.21c-.25.43-.44.14-.86.16.03.45.49.16.23.68l-.62-.57-1.08.46c.11-.83.44-.63,1.08-.79-.12-.45.2-.77.22-1.13.03-.46-.67-1.16-.86-1.54-.08-.16-.16-.1.06-.28.26,0,1.06.85,1.18,1.09.1.19,0,.36.07.48.13.27.63.68.71,1.11.04.16-.08.23-.13.33Z"/>
        <path class="cls-3" d="M118.66,23.28l-.11.45h.57s-.45.51-.45.51c.5.16.41.35.63.62.26.32.48.27.39.92.22-.04.3-.19.45.06-.18.2-.26.39-.11.62l-1.82.11.57-.23-.57-.28.55-.7.13-.38c-.31.19-.21.1-.23-.22h-.28s-.4-1.37-.4-1.37l.68-.11Z"/>
        <path class="cls-3" d="M101.51,16.82l.45.23c-.39-.06-1.04.18-1.25-.22l.34-.06c-.35-.43-.91-.2-1.37-.34l-.11-.51,1.48.23-.07.34.74.05-.45-.62c1.36.25,2.7.15,4.09.23l-2.2.36-.08.32h-1.59Z"/>
        <path class="cls-3" d="M175.08,76.71c-.13.08-.64.06-.91.17-.57.23-1.06,1.03-1.9.99-.12-.4.32-.72.64-.89.65-.35,1.68-.56,2.31-.87.34-.17.9-.77,1.31-.96.28.67-.84.93-1.19,1.19-.15.11-.19.33-.25.37Z"/>
        <path class="cls-3" d="M163.36,55.45c.05.03,0,.16.21.18.16.02.53.03.67,0,.09-.02.08-.23.13-.22.77.08.54.86,1.31.68l-.12.45c-.41-.1-.85-.07-1.26-.16-.32-.07-.69-.23-1.16-.33-.27-.06-.52-.27-.79-.42s.38-.53.42-.53c.11,0,.45.28.58.36Z"/>
        <path class="cls-3" d="M168.73,50.99c.06.48.82.05,1.15.27-.58.43-1.84-.29-1.71.91.02.19.35.21.24.51l.79-.23-.56.51.44,1.31-.45.11c-.09-.12.02-1.03-.34-1.13-.14.37-.08.76-.17,1.14-.03.13-.16.54-.4.45.4-.51-.02-.99.02-1.39.03-.27.27-1.4.34-1.7s.38-.44.43-.76h.22Z"/>
        <path class="cls-3" d="M114.02,20.78c.63-.13,1.62-.57,2.03.07,0,.16-1.08.57-1.31.6-.38.05-.78-.24-1.18-.09l-.12-.45.46-.23-.34-.11c.33-.11.35-.15.47.21Z"/>
        <path class="cls-3" d="M88.53,39.44s.05.16.12.18c.59.22,1.03.13,1.05,1.02.1.1.68-.19.56.23h-1.14s.12-.38.12-.38c-.31-.08-.31-.44-.38-.5-.05-.04-1.13-.45-1.2-.46-.39-.06-.49.18-.82.21.34-.58,1.12-.47,1.67-.3Z"/>
        <path class="cls-3" d="M101.73,26.24l-.11.34c.4-.26.13.1.24.21l.55.19-.37.6-.25.09-1.31-.18c.37-.29.62-.74.93-1.06.1-.11.1-.24.32-.19Z"/>
        <path class="cls-3" d="M117.98,24.76l-.26,1.11-.99.37c-.14-.34.02-.58.23-.85l-.23-.11c.09-.17.35-.12.43-.2.06-.06-.02-.24.1-.31.17-.1.52,0,.72,0Z"/>
        <path class="cls-3" d="M167.46,41.7c.37.37.27,1.36-.03,1.78-.31.06-.65-.57-.56-.79l.28.23-.34-1.47c.06-.05.58.19.65.26Z"/>
        <path class="cls-3" d="M170.33,47.8l-.34-.34v.91c-.45.12-.54-.44-.51-.8l-.52-.11v-.45s.54.15.54.15l.43-.6.4,1.25Z"/>
        <path class="cls-3" d="M152.81,47.27c.26.35.13,1.4-.53,1.21-.14-.65-.58-1.33.11-1.81-.05.38.32.46.42.6Z"/>
        <path class="cls-3" d="M167.38,27.94s-.3.49-.34.51c-.27.16-.77-.26-.85.16-.26-.17-.02-.43-.11-.68-.1-.28-.4-.38-.4-.68l1.7.68Z"/>
        <polygon class="cls-3" points="179.42 73.34 179.19 73.9 179.76 73.79 179.54 74.08 177.72 75.04 177.85 74.38 179.42 73.34"/>
        <path class="cls-3" d="M92.06,41.25s.27.41.25.42c-.25.02-.57-.06-.8.06-.21.11-.16.43-.34.4-.07-.67-.69-.09-1.02-.4.52,0,.97-.27.57-.74.05-.04,1.29.22,1.34.26Z"/>
        <path class="cls-3" d="M169.31,74.47c-.24.31-.71.76-1.03.96-.09.06-.26-.04-.34,0-.12.07-.05.4-.45.28l.74-1.35c.39.46.6.2,1.08.11Z"/>
        <path class="cls-3" d="M180.44,54.38c.05.73-1.15,1.61-1.48.68.29-.05.62-.08.9-.19.48-.19.2-.48.58-.5Z"/>
        <path class="cls-3" d="M101.39,17.27c.18.14,0,.21-.17.23-.5.06-1.54-.03-2.05-.11-.37-.07-.42-.51-.11-.45.24.04.42.34.45.34h1.87Z"/>
        <path class="cls-3" d="M134.78,17.27c-.91-.06-1.56.56-2.38.68.25-.71,1.4-.7,2.07-.83.18-.03.23-.11.31.14Z"/>
        <path class="cls-3" d="M97.69,20.17c.25.19.54.35.53.73-.27.07-.33-.28-.53-.32-.26-.05-.61.41-.83.03l.74-.62c.09-.02.03.13.1.18Z"/>
        <path class="cls-3" d="M166.13,39.29c-.73-.23-.39-.86-.45-1.47.46-.11.5,1.41.45,1.47Z"/>
        <path class="cls-3" d="M164.06,25.12s.05.54-.14.43c-.29-.17-.46-.57-.66-.76-.15-.15-.58-.19-.65-.6.22-.05.31.05.46.16.14.1.96.71.99.76Z"/>
        <path class="cls-3" d="M80.38,24.76c.48.06.63,1.17.28,1.25-.43.09-.25-1.03-.28-1.25Z"/>
        <path class="cls-3" d="M99.46,78.67l-1.13.22.23-.17-.45-.57c.35-.43.37.07.58.21s.53.27.78.3Z"/>
        <path class="cls-3" d="M166.91,33.18l.48,1.11c-.45,0-.46-.69-.57-.79-.24-.23-.18.28-.34.23l-.06-.34.49-.2Z"/>
        <path class="cls-3" d="M162.84,40.88l-.05.68c-.84.38-.74-.85.05-.68Z"/>
        <path class="cls-3" d="M170.33,56.65c0,.2-.33.12-.49.22-.08.05-.57.89-.76.69-.07-.47.42-.59.71-.8.18-.13-.05-.29.54-.11Z"/>
        <path class="cls-3" d="M95.83,16.82c.03.21-.2.08-.33.07-.2-.01-.42-.05-.62-.09-.26-.05-.81-.13-.98-.33.52-.23.7.13,1,.21s.6-.13.93.14Z"/>
        <path class="cls-3" d="M133.19,18.52c.03.2-.4.13-.5.11-.24-.06-.47-.26-.74-.28l.19-.29c.48-.09.57.5,1.06.46Z"/>
        <polygon class="cls-3" points="125.13 32.25 125.13 32.93 124.22 32.42 125.13 32.25"/>
        <path class="cls-3" d="M139.89,27.94v1.25s-.45-.34-.45-.34l-.11.34c-.39-.83.61-.59.23-1.25h.34Z"/>
      </g>
    </g>
    <path class="cls-4" d="M124.19,14.22c-27.92,0-50.55,21.9-50.55,48.92,0,2.01.14,3.98.38,5.93h2.86c-.11-1.3-.19-2.61-.19-3.95,0-26.29,21.27-47.61,47.5-47.61s47.5,21.31,47.5,47.61c0,1.33-.08,2.64-.19,3.95h2.86c.24-1.95.38-3.92.38-5.93,0-27.02-22.63-48.92-50.55-48.92Z"/>
  </g>
</svg>