<?xml version="1.0" encoding="UTF-8" standalone="no"?>
<!-- Created with Inkscape (http://www.inkscape.org/) -->

<svg
   version="1.1"
   id="svg2"
   width="4837.1465"
   height="5369.48"
   viewBox="0 0 4837.1465 5369.48"
   sodipodi:docname="vecteezy_a-graceful-silhouette-of-a-cute-cat_.eps"
   xmlns:inkscape="http://www.inkscape.org/namespaces/inkscape"
   xmlns:sodipodi="http://sodipodi.sourceforge.net/DTD/sodipodi-0.dtd"
   xmlns="http://www.w3.org/2000/svg"
   xmlns:svg="http://www.w3.org/2000/svg">
  <defs
     id="defs6">
    <clipPath
       clipPathUnits="userSpaceOnUse"
       id="clipPath24">
      <path
         d="m 3888.82,36650.2 c 12.54,-35.9 21.94,-59.8 43.29,-91.9 39.09,39 20.96,216.7 20.96,278.3 v 642.6 c 44.76,57.6 30.15,103.6 51.63,167.6 l 10.63,28.9 c 11.22,36.3 14.61,67.9 36.63,99.8 140.56,203.8 211.71,419.3 285.91,653.9 45.02,142.3 57.26,300.4 156.45,415.8 l 41.29,-28 c 36.04,-26.4 52.01,-44.2 97.32,-52.1 36.89,-6.5 23.47,1.5 52.86,-20.5 l 19.31,-15.9 c 102.87,-53.3 159.67,-162.8 263.85,-220.7 l 24.61,24.9 c 158.14,-134.4 280.45,-287.6 422.11,-431.6 73.44,-74.6 172.58,-150.8 220.99,-241.1 34.14,-63.7 111.51,-97.4 148.23,-169.4 29.39,-57.7 110.07,-106.5 148.23,-169.4 l 47.14,-47.1 c 100.2,-96.5 178.04,-219.1 278.03,-319.1 56.5,-56.5 -3.3,7.7 34.82,-57.3 l 47.09,-47.1 c 46.04,-44.3 72.42,-92.3 117.91,-137.8 35.15,-35.1 -6.95,7.2 25.58,-48 28.33,-48.2 76.23,-72.8 105.87,-127.1 l 73.99,-74 c -5.84,-60.8 4.83,-70.2 42.78,-116.4 l 27.4,-32.4 c 34.94,-41.9 16.43,-17.2 40.7,-57.6 15.8,-26.3 28.42,-38.6 49.72,-59.6 65.43,-64.6 4.83,3.6 40.87,-62.1 18.51,-33.7 61.36,-69.1 84.7,-105.9 18.76,-29.4 43.75,-53.5 63.53,-84.7 22.91,-36 43.24,-42.4 63.52,-84.7 l 31.9,-42.4 c 41.54,-57 74.19,-109.6 84.7,-180 -38.8,-33.1 -71.24,-51.8 -116.6,-74.2 l -33.11,-17.3 c -44.52,-22.3 -90.64,-33.8 -136.38,-57 l -32.35,-15.8 -115.87,-68.9 -148.23,-84.7 -31.05,-15.1 c -60.6,-30.3 -125.7,-72.4 -180.71,-111.9 l -223.66,-148.3 c -28.88,-19.2 -49.34,-38.2 -72.8,-63.3 l -0.08,-31.7 -169.33,-116.3 -84.7,-63.5 c -32.31,-22.8 -58.44,-48.6 -86.14,-76.3 -65.05,-64.9 4.23,-3.4 -62.17,-40.3 -41.42,-23 -87.33,-84.5 -122.82,-120 -109.52,-109.3 -296.97,-256.1 -364.22,-388.2 -30.96,-60.8 -111.01,-101.5 -148.23,-169.4 -23.08,-42 -61.28,-55.7 -84.7,-105.9 l -58.32,-73.5 c -23.97,-28.8 -38.8,-54.2 -58.28,-85.4 l -21.17,-31.8 -19.19,-29.8 c -30.07,-45 -15.29,-23.5 -50.23,-65.4 -27.06,-32.5 -39.76,-57.7 -57.64,-95.4 l -84.7,-148.2 c -34.35,-58.1 -64.29,-180.2 -126.84,-200.9 -52.48,78.9 -76.28,185.8 -106.13,275.8 -9.41,28.4 -12.92,55.6 -20.71,83.9 l -42.36,148.3 -10.41,31.8 -21.22,84.7 -21.3,84.7 -21.1,84.7 -21.13,84.7 -20.96,84.7 -132.65,661 c -7.37,36 -4.19,20.2 -4.61,59.7 -0.47,39.7 3.26,21.1 -10.85,50.9 -32.82,69.5 -9.74,185.2 -42.26,255 -20.58,44.1 -1.06,83.7 -11.35,127.6 -59.84,255.9 -48.75,527 -102.83,783.3 -21.94,103.9 6.61,209.7 -21.09,317.6 z"
         id="path22" />
    </clipPath>
    <linearGradient
       x1="0"
       y1="0"
       x2="1"
       y2="0"
       gradientUnits="userSpaceOnUse"
       gradientTransform="matrix(-3355.92,1256.55,-1256.55,-3355.92,6888.55,35197.7)"
       spreadMethod="pad"
       id="linearGradient30">
      <stop
         style="stop-opacity:1;stop-color:#100f0d"
         offset="0"
         id="stop26" />
      <stop
         style="stop-opacity:1;stop-color:#2f2e2f"
         offset="1"
         id="stop28" />
    </linearGradient>
    <clipPath
       clipPathUnits="userSpaceOnUse"
       id="clipPath44">
      <path
         d="m 16482.7,38032.7 20.6,54.3 c 60.8,109.2 191.1,170.2 250.7,281.5 39.6,73.5 156.7,151.7 222.5,201.2 143.5,108.1 247.6,260.2 402.4,360 l 84.5,68.4 c 28.3,23.3 54.5,39 84.9,58.7 l 29.8,20.6 c 38.2,25.5 76.8,44 118.2,63.9 35.8,-11.9 44.9,-18 62.4,-52.8 l 22.1,-63.5 c 22,-58.4 45.6,-108.5 63.5,-169.4 l 82.6,-262.2 41.4,-182.5 c 88.3,-361.3 100.4,-751.5 108,-1121.5 4,-197.5 22.6,-399.4 17.8,-602.2 -0.7,-28.6 -12.6,-40.1 -16.9,-65.6 -21.1,-126.8 7.4,-252.3 -21.1,-381.2 -32.7,-147.5 10.8,-340.6 -24.3,-487 -28.3,-118.4 -17.2,-243.2 -41.6,-360 l -61.2,-338.8 -21.2,-127.1 c -6.6,-33 3.9,-50.4 -11.3,-83.4 -16,-34.5 -22.6,-107.8 -31,-149.5 -10.2,-50.2 -23.5,-118.6 -22.4,-169.4 l -20,-31.8 c -0.7,-49 5.7,-63.2 -21.2,-105.9 -0.7,-43.8 3.9,-45.3 -21.1,-84.7 -0.6,-49.3 6.2,-63 -21.2,-105.8 -0.6,-49.6 -2,-39.8 -21.2,-84.7 l -13.2,-66.9 -18.5,-52.6 -21.1,-113.4 -21.2,-84.7 -21.1,-84.7 -21.2,-84.7 -21.2,-84.7 c -9.7,-35.5 -15.6,-96 -31.9,-127.1 -21.5,-41.1 -40.9,-80.7 -84.5,-95.1 -33.6,41.5 -73.3,88.2 -95.2,137.5 -22.9,51.7 -61.2,63.1 -84.7,105.9 -20.7,37.8 -42.1,51.1 -63.5,84.7 -23.3,36.7 -66.2,72.2 -84.7,105.9 -24.2,44.2 -63.6,67.4 -84.7,105.8 -24.2,44.2 -63.6,67.5 -84.7,105.9 -37.2,67.9 -117.3,108.7 -148.2,169.4 -77.6,152.2 -301.8,326 -427.6,451.6 -40.2,40.2 -97.6,114.3 -144.2,141.3 -83.1,48.4 -134.7,148.3 -211.7,190.6 -44.3,24.4 -67.3,63.5 -105.9,84.7 -65.7,36.2 1.9,-23.9 -62.2,41.1 -21,21.2 -33.3,33.7 -59.5,49.5 -41.4,24.9 -15.2,5.4 -59.7,42.5 l -30.5,25.9 -116.2,84.5 c -52.8,33 -97,72.4 -148.5,106.7 l -95.3,63 -42.2,31.5 c -73.8,35.4 10.3,-17.8 -62.2,30.5 -68.7,45.7 -138.9,81.8 -213.1,117.7 -40,19.5 -87.2,38.7 -116.3,74.1 -29.1,35.2 -18.6,54.9 -10.2,95.2 8.6,41 27.3,67.7 42.3,105.8 12.7,32 11.9,44.4 31,78.1 l 21.3,38.3 c 19.8,47.4 41.3,82 63.6,127 l 91.6,171.6 162.4,273.3 338.9,508 105.9,148.3 201.2,264.8 c 24.3,43 63.9,68.1 84.7,105.9 29.8,53.9 77.7,79 105.9,127 38,64.6 118.2,110.7 148.2,169.4 l 10.8,31.9 c 25.9,44.5 94.4,101.3 141.4,119.4 z"
         id="path42" />
    </clipPath>
    <linearGradient
       x1="0"
       y1="0"
       x2="1"
       y2="0"
       gradientUnits="userSpaceOnUse"
       gradientTransform="matrix(3564.15,1250.63,-1250.63,3564.15,15058.8,35341.5)"
       spreadMethod="pad"
       id="linearGradient50">
      <stop
         style="stop-opacity:1;stop-color:#100f0d"
         offset="0"
         id="stop46" />
      <stop
         style="stop-opacity:1;stop-color:#3e3c3e"
         offset="1"
         id="stop48" />
    </linearGradient>
  </defs>
  <sodipodi:namedview
     id="namedview4"
     pagecolor="#ffffff"
     bordercolor="#000000"
     borderopacity="0.25"
     inkscape:showpageshadow="2"
     inkscape:pageopacity="0.0"
     inkscape:pagecheckerboard="0"
     inkscape:deskcolor="#d1d1d1" />
  <g
     id="g8"
     inkscape:groupmode="layer"
     inkscape:label="ink_ext_XXXXXX"
     transform="matrix(1.3333333,0,0,-1.3333333,0,5369.48)">
    <g
       id="g10"
       transform="scale(0.1)">
      <path
         d="m 7518.87,1174.5 c 44.66,-105.4 135.6,-195.797 168.41,-302.398 l -41.96,26.398 c -65.65,63.504 -128.6,141 -178.64,218.4 -152.27,234.1 -229.21,542.9 -165.72,820.1 l 7.53,30.6 c 81.25,341.2 282.48,626.9 540.75,857.7 l 29.59,-2.2 c -97.39,-110.3 -201.77,-226 -273.34,-355.1 -211.45,-382.5 -257.72,-888.3 -86.62,-1293.5 z m 2302.9,7879.4 c -539.67,478.3 -1040.07,982 -1504.95,1534 -529.45,628.5 -1023.94,1274.7 -1472.68,1963.4 -52.19,80.2 -277.64,526.2 -340.05,544 279.25,-699 494.48,-1431.3 721.54,-2149 608.01,-1923.1 1242.92,-3905.8 1109.48,-5950.5 -23.13,-361 -52.73,-726.4 -199.08,-1062.6 -61.34,-141 -136.67,-286.8 -253.43,-390.1 -170.56,-149.6 -413.23,-239.5 -601.55,-372.9 -440.67,-311.5 -696.79,-740.4 -695.18,-1285.4 0.54,-155 11.84,-315.9 66.72,-462.8 108.69,-292.7 361.58,-464.301 638.14,-582.195 C 7615.72,701 7981.61,644 8331.35,612.801 c 415.38,-37.699 867.89,-43.598 1277.89,44.101 -65.65,176.5 -103.31,341.7 -123.75,529.498 -1.08,430.9 97.92,862.5 413.23,1178.8 128.08,127.6 284.08,232.5 425.58,344.9 183,145.3 358.4,311 504.7,492.9 240.5,299.7 391.7,655.4 516.6,1014.8 382.5,1100.9 457.9,2281.9 603.7,3428.5 -810.3,315.3 -1484.5,837.8 -2127.53,1407.6"
         style="fill:#100f0d;fill-opacity:1;fill-rule:nonzero;stroke:none"
         id="path12" />
      <path
         d="m 8040.79,30798 c -66.72,-148.5 -165.19,-201.7 -308.85,-261.5 -88.78,-4.8 -182.94,-14 -269.57,11.3 -107.07,31.2 -207.15,110.3 -255.04,212 -54.34,114.6 -61.34,252.4 -15.06,371.8 57.57,149.1 168.95,205.6 307.23,265.8 100.62,17.3 190.47,21.6 287.33,-15.6 112.45,-43.5 198.54,-138.8 245.89,-247.5 47.35,-108.1 56.5,-227 8.07,-336.3 z m 557.43,-272.8 c -78.55,364.3 -383.1,751.7 -696.25,946 -201.78,125.3 -393.32,195.8 -635.99,180.7 -348.66,-73.7 -653.2,-253.9 -849.06,-559 -200.16,-312.6 -251.27,-709.2 -161.42,-1067.5 76.95,-309.4 304.01,-568.8 576.8,-725.3 251.28,-144.2 497.18,-175.4 779.12,-141.5 322.84,68.8 612.31,217.9 799.56,501.4 164.1,249.7 250.74,569.3 187.24,865.2 z m -557.43,272.8 c -66.72,-148.5 -165.19,-201.7 -308.85,-261.5 -88.78,-4.8 -182.94,-14 -269.57,11.3 -107.07,31.2 -207.15,110.3 -255.04,212 -54.34,114.6 -61.34,252.4 -15.06,371.8 57.57,149.1 168.95,205.6 307.23,265.8 100.62,17.3 190.47,21.6 287.33,-15.6 112.45,-43.5 198.54,-138.8 245.89,-247.5 47.35,-108.1 56.5,-227 8.07,-336.3 z m 557.43,-272.8 c -78.55,364.3 -383.1,751.7 -696.25,946 -201.78,125.3 -393.32,195.8 -635.99,180.7 -348.66,-73.7 -653.2,-253.9 -849.06,-559 -200.16,-312.6 -251.27,-709.2 -161.42,-1067.5 76.95,-309.4 304.01,-568.8 576.8,-725.3 251.28,-144.2 497.18,-175.4 779.12,-141.5 322.84,68.8 612.31,217.9 799.56,501.4 164.1,249.7 250.74,569.3 187.24,865.2 z m -557.43,272.8 c -66.72,-148.5 -165.19,-201.7 -308.85,-261.5 -88.78,-4.8 -182.94,-14 -269.57,11.3 -107.07,31.2 -207.15,110.3 -255.04,212 -54.34,114.6 -61.34,252.4 -15.06,371.8 57.57,149.1 168.95,205.6 307.23,265.8 100.62,17.3 190.47,21.6 287.33,-15.6 112.45,-43.5 198.54,-138.8 245.89,-247.5 47.35,-108.1 56.5,-227 8.07,-336.3 z m 557.43,-272.8 c -78.55,364.3 -383.1,751.7 -696.25,946 -201.78,125.3 -393.32,195.8 -635.99,180.7 -348.66,-73.7 -653.2,-253.9 -849.06,-559 -200.16,-312.6 -251.27,-709.2 -161.42,-1067.5 76.95,-309.4 304.01,-568.8 576.8,-725.3 251.28,-144.2 497.18,-175.4 779.12,-141.5 322.84,68.8 612.31,217.9 799.56,501.4 164.1,249.7 250.74,569.3 187.24,865.2 z m 6537.48,246.5 c -75.4,-148 -186.7,-201.3 -336.9,-251.8 -90.9,4.8 -191.5,4.3 -274.4,45.7 -101.7,51.1 -184.5,157.1 -220,263.6 -42.5,125.4 -39.9,248.6 24.2,365.9 81.8,149.6 212.5,201.8 365.3,248.1 80.2,3.2 160.4,-2.7 234.6,-35 97.9,-42 183,-137.2 220.6,-236.2 49,-128.1 50.1,-277.1 -13.4,-400.3 z m 472.4,-188.9 c -56,343.3 -246.4,659.7 -532.2,860.9 -257.7,181.3 -506.3,235.1 -819.4,208.2 -373.4,-80.1 -687.1,-281.4 -897.5,-603.7 -181.3,-276.5 -254.5,-601 -184.6,-927 68.9,-321.3 256.7,-629 538.6,-805.5 236.8,-148 537,-212 814.7,-173.3 377.1,55.4 640.3,218.5 866.8,526.8 187.2,255 264.7,602.1 213.6,913.6 z m -472.4,188.9 c -75.4,-148 -186.7,-201.3 -336.9,-251.8 -90.9,4.8 -191.5,4.3 -274.4,45.7 -101.7,51.1 -184.5,157.1 -220,263.6 -42.5,125.4 -39.9,248.6 24.2,365.9 81.8,149.6 212.5,201.8 365.3,248.1 80.2,3.2 160.4,-2.7 234.6,-35 97.9,-42 183,-137.2 220.6,-236.2 49,-128.1 50.1,-277.1 -13.4,-400.3 z m 472.4,-188.9 c -56,343.3 -246.4,659.7 -532.2,860.9 -257.7,181.3 -506.3,235.1 -819.4,208.2 -373.4,-80.1 -687.1,-281.4 -897.5,-603.7 -181.3,-276.5 -254.5,-601 -184.6,-927 68.9,-321.3 256.7,-629 538.6,-805.5 236.8,-148 537,-212 814.7,-173.3 377.1,55.4 640.3,218.5 866.8,526.8 187.2,255 264.7,602.1 213.6,913.6 z M 8040.79,30798 c -66.72,-148.5 -165.19,-201.7 -308.85,-261.5 -88.78,-4.8 -182.94,-14 -269.57,11.3 -107.07,31.2 -207.15,110.3 -255.04,212 -54.34,114.6 -61.34,252.4 -15.06,371.8 57.57,149.1 168.95,205.6 307.23,265.8 100.62,17.3 190.47,21.6 287.33,-15.6 112.45,-43.5 198.54,-138.8 245.89,-247.5 47.35,-108.1 56.5,-227 8.07,-336.3 z m 557.43,-272.8 c -78.55,364.3 -383.1,751.7 -696.25,946 -201.78,125.3 -393.32,195.8 -635.99,180.7 -348.66,-73.7 -653.2,-253.9 -849.06,-559 -200.16,-312.6 -251.27,-709.2 -161.42,-1067.5 76.95,-309.4 304.01,-568.8 576.8,-725.3 251.28,-144.2 497.18,-175.4 779.12,-141.5 322.84,68.8 612.31,217.9 799.56,501.4 164.1,249.7 250.74,569.3 187.24,865.2 z m -557.43,272.8 c -66.72,-148.5 -165.19,-201.7 -308.85,-261.5 -88.78,-4.8 -182.94,-14 -269.57,11.3 -107.07,31.2 -207.15,110.3 -255.04,212 -54.34,114.6 -61.34,252.4 -15.06,371.8 57.57,149.1 168.95,205.6 307.23,265.8 100.62,17.3 190.47,21.6 287.33,-15.6 112.45,-43.5 198.54,-138.8 245.89,-247.5 47.35,-108.1 56.5,-227 8.07,-336.3 z m 557.43,-272.8 c -78.55,364.3 -383.1,751.7 -696.25,946 -201.78,125.3 -393.32,195.8 -635.99,180.7 -348.66,-73.7 -653.2,-253.9 -849.06,-559 -200.16,-312.6 -251.27,-709.2 -161.42,-1067.5 76.95,-309.4 304.01,-568.8 576.8,-725.3 251.28,-144.2 497.18,-175.4 779.12,-141.5 322.84,68.8 612.31,217.9 799.56,501.4 164.1,249.7 250.74,569.3 187.24,865.2 z m 6537.48,246.5 c -75.4,-148 -186.7,-201.3 -336.9,-251.8 -90.9,4.8 -191.5,4.3 -274.4,45.7 -101.7,51.1 -184.5,157.1 -220,263.6 -42.5,125.4 -39.9,248.6 24.2,365.9 81.8,149.6 212.5,201.8 365.3,248.1 80.2,3.2 160.4,-2.7 234.6,-35 97.9,-42 183,-137.2 220.6,-236.2 49,-128.1 50.1,-277.1 -13.4,-400.3 z m 472.4,-188.9 c -56,343.3 -246.4,659.7 -532.2,860.9 -257.7,181.3 -506.3,235.1 -819.4,208.2 -373.4,-80.1 -687.1,-281.4 -897.5,-603.7 -181.3,-276.5 -254.5,-601 -184.6,-927 68.9,-321.3 256.7,-629 538.6,-805.5 236.8,-148 537,-212 814.7,-173.3 377.1,55.4 640.3,218.5 866.8,526.8 187.2,255 264.7,602.1 213.6,913.6 z m -472.4,188.9 c -75.4,-148 -186.7,-201.3 -336.9,-251.8 -90.9,4.8 -191.5,4.3 -274.4,45.7 -101.7,51.1 -184.5,157.1 -220,263.6 -42.5,125.4 -39.9,248.6 24.2,365.9 81.8,149.6 212.5,201.8 365.3,248.1 80.2,3.2 160.4,-2.7 234.6,-35 97.9,-42 183,-137.2 220.6,-236.2 49,-128.1 50.1,-277.1 -13.4,-400.3 z m 472.4,-188.9 c -56,343.3 -246.4,659.7 -532.2,860.9 -257.7,181.3 -506.3,235.1 -819.4,208.2 -373.4,-80.1 -687.1,-281.4 -897.5,-603.7 -181.3,-276.5 -254.5,-601 -184.6,-927 68.9,-321.3 256.7,-629 538.6,-805.5 236.8,-148 537,-212 814.7,-173.3 377.1,55.4 640.3,218.5 866.8,526.8 187.2,255 264.7,602.1 213.6,913.6 z M 8040.79,30798 c -66.72,-148.5 -165.19,-201.7 -308.85,-261.5 -88.78,-4.8 -182.94,-14 -269.57,11.3 -107.07,31.2 -207.15,110.3 -255.04,212 -54.34,114.6 -61.34,252.4 -15.06,371.8 57.57,149.1 168.95,205.6 307.23,265.8 100.62,17.3 190.47,21.6 287.33,-15.6 112.45,-43.5 198.54,-138.8 245.89,-247.5 47.35,-108.1 56.5,-227 8.07,-336.3 z m 557.43,-272.8 c -78.55,364.3 -383.1,751.7 -696.25,946 -201.78,125.3 -393.32,195.8 -635.99,180.7 -348.66,-73.7 -653.2,-253.9 -849.06,-559 -200.16,-312.6 -251.27,-709.2 -161.42,-1067.5 76.95,-309.4 304.01,-568.8 576.8,-725.3 251.28,-144.2 497.18,-175.4 779.12,-141.5 322.84,68.8 612.31,217.9 799.56,501.4 164.1,249.7 250.74,569.3 187.24,865.2 z m -557.43,272.8 c -66.72,-148.5 -165.19,-201.7 -308.85,-261.5 -88.78,-4.8 -182.94,-14 -269.57,11.3 -107.07,31.2 -207.15,110.3 -255.04,212 -54.34,114.6 -61.34,252.4 -15.06,371.8 57.57,149.1 168.95,205.6 307.23,265.8 100.62,17.3 190.47,21.6 287.33,-15.6 112.45,-43.5 198.54,-138.8 245.89,-247.5 47.35,-108.1 56.5,-227 8.07,-336.3 z m -138.82,673.2 c -201.78,125.3 -393.32,195.8 -635.99,180.7 -348.66,-73.7 -653.2,-253.9 -849.06,-559 -200.16,-312.6 -251.27,-709.2 -161.42,-1067.5 76.95,-309.4 304.01,-568.8 576.8,-725.3 251.28,-144.2 497.18,-175.4 779.12,-141.5 322.84,68.8 612.31,217.9 799.56,501.4 164.1,249.7 250.74,569.3 187.24,865.2 -78.55,364.3 -383.1,751.7 -696.25,946 z m 7233.73,-699.5 c -75.4,-148 -186.7,-201.3 -336.9,-251.8 -90.9,4.8 -191.5,4.3 -274.4,45.7 -101.7,51.1 -184.5,157.1 -220,263.6 -42.5,125.4 -39.9,248.6 24.2,365.9 81.8,149.6 212.5,201.8 365.3,248.1 80.2,3.2 160.4,-2.7 234.6,-35 97.9,-42 183,-137.2 220.6,-236.2 49,-128.1 50.1,-277.1 -13.4,-400.3 z m -59.8,672 c -257.7,181.3 -506.3,235.1 -819.4,208.2 -373.4,-80.1 -687.1,-281.4 -897.5,-603.7 -181.3,-276.5 -254.5,-601 -184.6,-927 68.9,-321.3 256.7,-629 538.6,-805.5 236.8,-148 537,-212 814.7,-173.3 377.1,55.4 640.3,218.5 866.8,526.8 187.2,255 264.7,602.1 213.6,913.6 -56,343.3 -246.4,659.7 -532.2,860.9 z M 17763,10963.5 c -207.1,-966.4 -472.9,-1934.9 -837.7,-2855 l -1083.2,-2385.2 -700,-1542.6 -7.5,5.9 c 8.1,164.1 143.7,395.5 205.5,553.1 l 1438.8,3385 c 491.3,1184.8 886.7,2469.7 1111.6,3733 l 127,729.6 c 46.8,328.8 58.1,669.4 120,994.9 l 5.9,-63.5 c -57.5,-861.4 -199,-1710.5 -380.4,-2555.2 z m -3468.9,17378.3 c -576.2,-17.8 -1305.8,154.4 -1734.1,555.3 -18.3,713.4 235.1,1628.7 681.7,2195.8 326.6,414.8 697.9,618.2 1219.2,682.3 268.5,32.2 619.9,-53.3 863.6,-165.2 625.3,-288.4 950.2,-855.5 1183.8,-1471.6 -107.6,-353.5 -237.9,-709.7 -463.8,-1006.2 -377.8,-496.6 -852.3,-688.7 -1453.9,-772.1 -88.8,-19.4 -203.9,-15.6 -296.5,-18.3 z m -2203.9,-5073.9 c -253.4,-93.7 -1218.7,-313.2 -1449,-182.4 l -17.7,13.4 -42,-18.3 -64,13.5 c -539.69,61.8 -980.9,216.3 -1460.31,471.8 l -114.07,72.1 7.53,18.3 c 287.87,-151.7 598.87,-287.3 915.24,-367.5 1169.71,-295.9 2314.21,-28.5 3333.31,584.9 l 39.8,-1.6 c -359.4,-249.1 -738.2,-452.5 -1148.8,-604.2 z m -5934.78,5508.6 c -378.25,275 -630.07,685 -698.4,1148.8 -64.03,429.4 29.06,878.7 295.93,1226.8 320.15,418.1 741.99,599.4 1251,665.6 393.86,29 789.87,-82.4 1103.56,-323.9 819.47,-631.7 943.76,-1656.7 1064.29,-2612.3 l -13.45,-16.7 c -323.38,-362.1 -1060.52,-475.7 -1514.11,-496.7 -521.38,1.7 -1058.37,95.8 -1488.82,408.4 z m 4004.78,-1564.1 c 136.7,151.7 422.4,143.7 612.3,157.1 186.7,17.8 512.3,36.6 685.5,-28 60.3,-22.6 130.8,-73.2 157.1,-134 29.6,-68.3 17.8,-163.5 -7.5,-231.3 -107.6,-287.9 -392.2,-464.4 -658.6,-581.7 l -36,-233.5 c -7,-36 -22.6,-71 -35.6,-104.9 l -30.6,19.9 -10.2,330.9 c -152.9,60.3 -288.4,134 -417,237.3 -136.2,109.2 -283.1,262 -292.7,445.5 -2.2,37.7 8.6,94.7 33.3,122.7 z m 25958.3,-1555 c -438.6,834.5 -1300.5,1445.8 -2191,1713.7 -1394.7,419.7 -3089.6,237.3 -4364.2,-453 -1007.8,-545.6 -1725.1,-1332.8 -2319.6,-2297 -316.9,-514.9 -577.9,-1037.9 -748.5,-1620.1 -511.7,-1746.6 -166.2,-3600.7 696.3,-5175.1 415.9,-759.2 973.3,-1476.4 1552.8,-2118.3 520.9,-577.4 1086.9,-1116 1583.5,-1715.4 682.3,-822.1 1217.7,-1749.8 1461.4,-2795.8 174.9,-750.5 176.5,-1517.3 -34.4,-2260.3 C 31327,7432.2 30223.5,6317.3 28882.6,5578.6 28273.5,5242.8 27638.1,5009.3 26973,4811.8 c -250.2,-74.2 -501.4,-157.6 -759.2,-202.8 406.8,1143.3 650,2404 524.6,3620.6 -53.8,525.7 -175.4,1034.7 -310.4,1544.2 -224.4,847.5 -523,1657.2 -899.7,2448.7 -893.7,1877.9 -2253.4,3545.9 -3880.5,4837.2 -320.7,254.5 -652.6,495 -1000.2,711.9 -329.3,205 -663.5,384.7 -976.1,617.7 -1546.4,1153 -2800.6,2815.6 -3393,4658.5 -161.9,504.2 -262.6,1029.3 -350.8,1550.1 l 532.1,223.9 c 73.2,35 271.2,160.3 339.6,161.9 138.8,2.7 401.9,-133.4 529.4,-187.7 772.1,-327.2 1524.3,-774.9 2136.1,-1351.7 208.8,-197.4 391.2,-415.9 574.7,-635.9 -438.6,871.6 -1391.5,1591.5 -2251.8,2016.6 l -483.2,222.2 c -75.3,30.2 -189.4,50.6 -251.8,99 l 30.7,17.3 c 150.6,84.4 291.6,182.4 434.2,279.7 70.5,47.9 145.8,112 225.4,142.1 715.1,-219 1400.6,-419.2 2082.9,-734.5 170.5,-79.1 338.4,-162.5 500.9,-257.2 116.7,-67.8 235.1,-156 358.3,-209.8 -186.1,213.1 -498.7,385.8 -740.9,533.8 -1258,769.4 -2611.7,1178.9 -4079,1277.9 -84.5,5.9 -200.7,-8.7 -276,30.1 468.1,1.1 952.9,-39.3 1414.5,-118.4 L 17635,25970 c 67.2,-17.2 297,-104.9 354,-92 12.9,2.7 71.6,57 82.9,66.2 140.4,113 273.8,251.8 420.2,353.5 26.4,18.3 87.7,64 116.8,68.9 17.7,2.6 74.2,-14 93,-17.3 l 351.9,-72.6 c 921.2,-219 1731.5,-499.9 2538.6,-1002.9 l 6.5,23.6 c -549.4,450.4 -1199.4,807.1 -1865,1054.6 -290,107.6 -589.7,184.6 -885.1,274.4 811.4,852.9 1417.8,1925.2 1662.6,3084.7 -315.3,-178.6 -562.2,-259.8 -928.1,-259.3 410,304 631.7,577.9 809.8,1056.2 -115.2,-24.7 -206.6,-41.4 -325,-23.1 l -36.1,5.4 c -521.4,85.5 -1018,490.7 -1313.4,911.4 -142,202.9 -413.2,662.9 -379.3,914.2 25.8,187.8 124.8,391.2 177.5,575.7 106,372.9 187.3,752.8 252.4,1134.8 279.8,1633.6 296.5,3440.9 -30.7,5070.7 -61.3,304.5 -131.8,680.1 -301.3,946.4 -61.9,97.4 -149,178.7 -264.7,202.9 -153.9,31.7 -297,-4.3 -441.2,-54.4 -455.8,-157.1 -898.1,-477.2 -1289.8,-758.1 -961.5,-688.2 -1868.6,-1466.2 -2627.8,-2376.6 l -621,-817.3 -33.3,8.6 c -221.7,58.1 -455.2,78.6 -682.3,109.2 -1060,142.6 -2106,144.2 -3167.02,6.5 -45.2,-5.9 -403.01,-69.4 -420.23,-58.1 -9.68,5.9 -12.91,18.3 -19.37,27.4 -149.04,204.5 -327.67,389.6 -496.09,577.9 -1018.55,1141.2 -2227.04,2104.4 -3533.45,2894.8 -283.56,171.6 -604.24,398.1 -934.08,458.4 -55.41,10.2 -107.07,7 -161.95,-1.1 -144.2,-51.6 -213.07,-164.6 -276.03,-298.1 -186.7,-398.1 -269.03,-863.6 -344.9,-1294 -157.65,-899.6 -208.76,-1804.7 -185.63,-2717.2 29.06,-1151.5 173.26,-2306.2 573.58,-3392 26.9,-72.6 99.54,-202.8 104.92,-275.4 2.15,-22.1 -23.14,-81.3 -29.6,-103.9 -32.82,-110.8 -67.25,-220.6 -115.14,-326.1 -242.13,-527.8 -617.69,-1079.3 -1192.88,-1275.2 -192.63,-65.1 -420.23,-53.8 -618.77,-28.5 223.29,-417.5 532.14,-778.6 864.66,-1113.2 -306.15,20.4 -559.58,96.3 -855.51,154.9 117.29,-1061 832.91,-2122.6 1501.72,-2923.3 -296.47,-41.9 -574.11,-125.3 -859.82,-213 C 1487.74,26206.8 697.867,25841.9 0,25335.1 L 25.2891,25320 C 1063.21,25918.9 2171.62,26262.7 3344.05,26487.6 l 652.67,-617.1 c -446.59,-178.1 -897.49,-340.6 -1330.63,-551.5 -543.44,-265.9 -1044.91,-601.1 -1516.25,-979.3 l 18.83,-13.5 c 927.08,620.4 1956.39,1047.6 3015.3,1388.2 l 760.28,-552.6 -34.44,-14 C 3696.48,24651.2 2614.44,23791.4 1730.4,22836.3 l 26.37,-5.9 c 791.49,739.9 1636.25,1328 2596.15,1829.4 264.72,138.8 537.52,287.9 824.31,374.5 326.06,-208.2 681.18,-391.2 1034.15,-549.9 167.88,-75.9 432.6,-135.6 573.04,-243.7 -262.04,-631.2 -536.99,-1257.5 -752.21,-1906.4 -580.57,-1748.7 -914.17,-3766.4 -641.37,-5602.3 111.92,-753.3 334.67,-1475.3 624.69,-2178 195.85,-473.5 439.06,-927.1 692.48,-1371.6 955.06,-1670.6 2229.73,-3096.5 3673.89,-4357.2 486.4,-425.1 964.2,-851.7 1549.1,-1140.1 l 23.1,0.5 c 123.2,1113.2 189.4,2245.9 164.1,3366.1 -18.3,818.4 -63.5,1580.3 -238.3,2382.5 l 16.6,9.7 c 129.7,-478.8 219,-976.5 269.6,-1471 70.5,-692 79.1,-1389.8 79.1,-2085 0.5,-1233.8 -71.6,-2463.3 -247.5,-3685.2 -129.1,-895.3 -262.6,-1878.4 -725.3,-2672 -151.2,-259.9 -377.7,-487 -602.1,-685 -445.5,-393.8 -986.27,-807.1 -1028.78,-1451.1 -19.37,-294.3 29.6,-572.498 64.03,-863.1 C 10286.1,2.60156 11237.4,-25.3984 11980.5,10.7031 c 755.4,36 1488.8,158.6989 2024.2,744.6989 253.9,278.098 376.6,602.098 439,968.998 l 1556.6,-259.9 c 286.3,-33.9 577.9,-72.1 866.9,-65.6 62.9,558 281.9,1006.7 726.9,1362.9 529.4,425.1 1229.4,582.7 1898.8,504.2 204.5,-23.7 545,-40.9 715.6,-150.7 -290,44.7 -575.2,94.2 -869.5,100.1 -513.3,10.2 -1109.5,-138.8 -1526.5,-445 -463.8,-341.1 -822.1,-848.5 -909.3,-1426.9 -35.5,-236.2 2.7,-463.797 152.3,-657 309.9,-400.898 867.3,-486.398 1339.7,-540.199 674.2,-76.4026 1360.3,-52.6994 2032.8,35.5 1045.5,136.699 2126.5,455.699 3098.7,858.199 451.5,186.7 928.2,405.7 1309.7,715.6 248.6,201.8 473.5,466 596.2,764.1 294.3,-63.5 582.7,-122.7 882.9,-149.6 1825.7,-165.2 3725,386.3 5259,1369.9 1535.1,984.1 2780.2,2577.8 3163.8,4378.7 148.5,697.9 219.6,1388.2 177,2102.8 -93.6,1571.1 -707.5,3053.5 -1560.3,4359.9 l -1378.5,1898.3 c -1012.7,1330.1 -2139.9,2779.1 -1766.5,4563.8 l 110.3,431 c 304.5,886.7 840.5,1645.4 1701.4,2068.8 498.7,245.9 1039.5,372.4 1591,419.2 758.7,64.6 1606.7,-152.3 2262.6,337.9 165.1,123.8 291,274.4 355.6,473.5 100.1,305.1 33.4,605.3 -112.4,883.5 z M 8040.79,30798 c -66.72,-148.5 -165.19,-201.7 -308.85,-261.5 -88.78,-4.8 -182.94,-14 -269.57,11.3 -107.07,31.2 -207.15,110.3 -255.04,212 -54.34,114.6 -61.34,252.4 -15.06,371.8 57.57,149.1 168.95,205.6 307.23,265.8 100.62,17.3 190.47,21.6 287.33,-15.6 112.45,-43.5 198.54,-138.8 245.89,-247.5 47.35,-108.1 56.5,-227 8.07,-336.3 z m 557.43,-272.8 c -78.55,364.3 -383.1,751.7 -696.25,946 -201.78,125.3 -393.32,195.8 -635.99,180.7 -348.66,-73.7 -653.2,-253.9 -849.06,-559 -200.16,-312.6 -251.27,-709.2 -161.42,-1067.5 76.95,-309.4 304.01,-568.8 576.8,-725.3 251.28,-144.2 497.18,-175.4 779.12,-141.5 322.84,68.8 612.31,217.9 799.56,501.4 164.1,249.7 250.74,569.3 187.24,865.2 z m 6537.48,246.5 c -75.4,-148 -186.7,-201.3 -336.9,-251.8 -90.9,4.8 -191.5,4.3 -274.4,45.7 -101.7,51.1 -184.5,157.1 -220,263.6 -42.5,125.4 -39.9,248.6 24.2,365.9 81.8,149.6 212.5,201.8 365.3,248.1 80.2,3.2 160.4,-2.7 234.6,-35 97.9,-42 183,-137.2 220.6,-236.2 49,-128.1 50.1,-277.1 -13.4,-400.3 z m 472.4,-188.9 c -56,343.3 -246.4,659.7 -532.2,860.9 -257.7,181.3 -506.3,235.1 -819.4,208.2 -373.4,-80.1 -687.1,-281.4 -897.5,-603.7 -181.3,-276.5 -254.5,-601 -184.6,-927 68.9,-321.3 256.7,-629 538.6,-805.5 236.8,-148 537,-212 814.7,-173.3 377.1,55.4 640.3,218.5 866.8,526.8 187.2,255 264.7,602.1 213.6,913.6 z m -472.4,188.9 c -75.4,-148 -186.7,-201.3 -336.9,-251.8 -90.9,4.8 -191.5,4.3 -274.4,45.7 -101.7,51.1 -184.5,157.1 -220,263.6 -42.5,125.4 -39.9,248.6 24.2,365.9 81.8,149.6 212.5,201.8 365.3,248.1 80.2,3.2 160.4,-2.7 234.6,-35 97.9,-42 183,-137.2 220.6,-236.2 49,-128.1 50.1,-277.1 -13.4,-400.3 z m 472.4,-188.9 c -56,343.3 -246.4,659.7 -532.2,860.9 -257.7,181.3 -506.3,235.1 -819.4,208.2 -373.4,-80.1 -687.1,-281.4 -897.5,-603.7 -181.3,-276.5 -254.5,-601 -184.6,-927 68.9,-321.3 256.7,-629 538.6,-805.5 236.8,-148 537,-212 814.7,-173.3 377.1,55.4 640.3,218.5 866.8,526.8 187.2,255 264.7,602.1 213.6,913.6 z M 8040.79,30798 c -66.72,-148.5 -165.19,-201.7 -308.85,-261.5 -88.78,-4.8 -182.94,-14 -269.57,11.3 -107.07,31.2 -207.15,110.3 -255.04,212 -54.34,114.6 -61.34,252.4 -15.06,371.8 57.57,149.1 168.95,205.6 307.23,265.8 100.62,17.3 190.47,21.6 287.33,-15.6 112.45,-43.5 198.54,-138.8 245.89,-247.5 47.35,-108.1 56.5,-227 8.07,-336.3 z m 557.43,-272.8 c -78.55,364.3 -383.1,751.7 -696.25,946 -201.78,125.3 -393.32,195.8 -635.99,180.7 -348.66,-73.7 -653.2,-253.9 -849.06,-559 -200.16,-312.6 -251.27,-709.2 -161.42,-1067.5 76.95,-309.4 304.01,-568.8 576.8,-725.3 251.28,-144.2 497.18,-175.4 779.12,-141.5 322.84,68.8 612.31,217.9 799.56,501.4 164.1,249.7 250.74,569.3 187.24,865.2 z m -557.43,272.8 c -66.72,-148.5 -165.19,-201.7 -308.85,-261.5 -88.78,-4.8 -182.94,-14 -269.57,11.3 -107.07,31.2 -207.15,110.3 -255.04,212 -54.34,114.6 -61.34,252.4 -15.06,371.8 57.57,149.1 168.95,205.6 307.23,265.8 100.62,17.3 190.47,21.6 287.33,-15.6 112.45,-43.5 198.54,-138.8 245.89,-247.5 47.35,-108.1 56.5,-227 8.07,-336.3 z m 557.43,-272.8 c -78.55,364.3 -383.1,751.7 -696.25,946 -201.78,125.3 -393.32,195.8 -635.99,180.7 -348.66,-73.7 -653.2,-253.9 -849.06,-559 -200.16,-312.6 -251.27,-709.2 -161.42,-1067.5 76.95,-309.4 304.01,-568.8 576.8,-725.3 251.28,-144.2 497.18,-175.4 779.12,-141.5 322.84,68.8 612.31,217.9 799.56,501.4 164.1,249.7 250.74,569.3 187.24,865.2 z m 6537.48,246.5 c -75.4,-148 -186.7,-201.3 -336.9,-251.8 -90.9,4.8 -191.5,4.3 -274.4,45.7 -101.7,51.1 -184.5,157.1 -220,263.6 -42.5,125.4 -39.9,248.6 24.2,365.9 81.8,149.6 212.5,201.8 365.3,248.1 80.2,3.2 160.4,-2.7 234.6,-35 97.9,-42 183,-137.2 220.6,-236.2 49,-128.1 50.1,-277.1 -13.4,-400.3 z m 472.4,-188.9 c -56,343.3 -246.4,659.7 -532.2,860.9 -257.7,181.3 -506.3,235.1 -819.4,208.2 -373.4,-80.1 -687.1,-281.4 -897.5,-603.7 -181.3,-276.5 -254.5,-601 -184.6,-927 68.9,-321.3 256.7,-629 538.6,-805.5 236.8,-148 537,-212 814.7,-173.3 377.1,55.4 640.3,218.5 866.8,526.8 187.2,255 264.7,602.1 213.6,913.6 z m -472.4,188.9 c -75.4,-148 -186.7,-201.3 -336.9,-251.8 -90.9,4.8 -191.5,4.3 -274.4,45.7 -101.7,51.1 -184.5,157.1 -220,263.6 -42.5,125.4 -39.9,248.6 24.2,365.9 81.8,149.6 212.5,201.8 365.3,248.1 80.2,3.2 160.4,-2.7 234.6,-35 97.9,-42 183,-137.2 220.6,-236.2 49,-128.1 50.1,-277.1 -13.4,-400.3 z m 472.4,-188.9 c -56,343.3 -246.4,659.7 -532.2,860.9 -257.7,181.3 -506.3,235.1 -819.4,208.2 -373.4,-80.1 -687.1,-281.4 -897.5,-603.7 -181.3,-276.5 -254.5,-601 -184.6,-927 68.9,-321.3 256.7,-629 538.6,-805.5 236.8,-148 537,-212 814.7,-173.3 377.1,55.4 640.3,218.5 866.8,526.8 187.2,255 264.7,602.1 213.6,913.6 z M 8040.79,30798 c -66.72,-148.5 -165.19,-201.7 -308.85,-261.5 -88.78,-4.8 -182.94,-14 -269.57,11.3 -107.07,31.2 -207.15,110.3 -255.04,212 -54.34,114.6 -61.34,252.4 -15.06,371.8 57.57,149.1 168.95,205.6 307.23,265.8 100.62,17.3 190.47,21.6 287.33,-15.6 112.45,-43.5 198.54,-138.8 245.89,-247.5 47.35,-108.1 56.5,-227 8.07,-336.3 z m 557.43,-272.8 c -78.55,364.3 -383.1,751.7 -696.25,946 -201.78,125.3 -393.32,195.8 -635.99,180.7 -348.66,-73.7 -653.2,-253.9 -849.06,-559 -200.16,-312.6 -251.27,-709.2 -161.42,-1067.5 76.95,-309.4 304.01,-568.8 576.8,-725.3 251.28,-144.2 497.18,-175.4 779.12,-141.5 322.84,68.8 612.31,217.9 799.56,501.4 164.1,249.7 250.74,569.3 187.24,865.2 z m -557.43,272.8 c -66.72,-148.5 -165.19,-201.7 -308.85,-261.5 -88.78,-4.8 -182.94,-14 -269.57,11.3 -107.07,31.2 -207.15,110.3 -255.04,212 -54.34,114.6 -61.34,252.4 -15.06,371.8 57.57,149.1 168.95,205.6 307.23,265.8 100.62,17.3 190.47,21.6 287.33,-15.6 112.45,-43.5 198.54,-138.8 245.89,-247.5 47.35,-108.1 56.5,-227 8.07,-336.3 z m 557.43,-272.8 c -78.55,364.3 -383.1,751.7 -696.25,946 -201.78,125.3 -393.32,195.8 -635.99,180.7 -348.66,-73.7 -653.2,-253.9 -849.06,-559 -200.16,-312.6 -251.27,-709.2 -161.42,-1067.5 76.95,-309.4 304.01,-568.8 576.8,-725.3 251.28,-144.2 497.18,-175.4 779.12,-141.5 322.84,68.8 612.31,217.9 799.56,501.4 164.1,249.7 250.74,569.3 187.24,865.2 z m 6537.48,246.5 c -75.4,-148 -186.7,-201.3 -336.9,-251.8 -90.9,4.8 -191.5,4.3 -274.4,45.7 -101.7,51.1 -184.5,157.1 -220,263.6 -42.5,125.4 -39.9,248.6 24.2,365.9 81.8,149.6 212.5,201.8 365.3,248.1 80.2,3.2 160.4,-2.7 234.6,-35 97.9,-42 183,-137.2 220.6,-236.2 49,-128.1 50.1,-277.1 -13.4,-400.3 z m 472.4,-188.9 c -56,343.3 -246.4,659.7 -532.2,860.9 -257.7,181.3 -506.3,235.1 -819.4,208.2 -373.4,-80.1 -687.1,-281.4 -897.5,-603.7 -181.3,-276.5 -254.5,-601 -184.6,-927 68.9,-321.3 256.7,-629 538.6,-805.5 236.8,-148 537,-212 814.7,-173.3 377.1,55.4 640.3,218.5 866.8,526.8 187.2,255 264.7,602.1 213.6,913.6 z m -472.4,188.9 c -75.4,-148 -186.7,-201.3 -336.9,-251.8 -90.9,4.8 -191.5,4.3 -274.4,45.7 -101.7,51.1 -184.5,157.1 -220,263.6 -42.5,125.4 -39.9,248.6 24.2,365.9 81.8,149.6 212.5,201.8 365.3,248.1 80.2,3.2 160.4,-2.7 234.6,-35 97.9,-42 183,-137.2 220.6,-236.2 49,-128.1 50.1,-277.1 -13.4,-400.3 z m 472.4,-188.9 c -56,343.3 -246.4,659.7 -532.2,860.9 -257.7,181.3 -506.3,235.1 -819.4,208.2 -373.4,-80.1 -687.1,-281.4 -897.5,-603.7 -181.3,-276.5 -254.5,-601 -184.6,-927 68.9,-321.3 256.7,-629 538.6,-805.5 236.8,-148 537,-212 814.7,-173.3 377.1,55.4 640.3,218.5 866.8,526.8 187.2,255 264.7,602.1 213.6,913.6 z M 8040.79,30798 c -66.72,-148.5 -165.19,-201.7 -308.85,-261.5 -88.78,-4.8 -182.94,-14 -269.57,11.3 -107.07,31.2 -207.15,110.3 -255.04,212 -54.34,114.6 -61.34,252.4 -15.06,371.8 57.57,149.1 168.95,205.6 307.23,265.8 100.62,17.3 190.47,21.6 287.33,-15.6 112.45,-43.5 198.54,-138.8 245.89,-247.5 47.35,-108.1 56.5,-227 8.07,-336.3 z m 557.43,-272.8 c -78.55,364.3 -383.1,751.7 -696.25,946 -201.78,125.3 -393.32,195.8 -635.99,180.7 -348.66,-73.7 -653.2,-253.9 -849.06,-559 -200.16,-312.6 -251.27,-709.2 -161.42,-1067.5 76.95,-309.4 304.01,-568.8 576.8,-725.3 251.28,-144.2 497.18,-175.4 779.12,-141.5 322.84,68.8 612.31,217.9 799.56,501.4 164.1,249.7 250.74,569.3 187.24,865.2"
         style="fill:#100f0d;fill-opacity:1;fill-rule:nonzero;stroke:none"
         id="path14" />
      <path
         d="m 3888.82,36650.2 c 38.71,481 -14.14,956.4 64.46,1432.3 10.17,61.4 -10.71,133.4 12.71,191.7 12.62,31.4 8.64,11.5 10.16,54.5 4.66,132.7 31.68,268.6 53.53,399.7 l 62.94,296.5 37.27,147.6 4.32,21.8 41.42,8.9 370.36,-273.5 c 151.02,-96.5 322.67,-263.7 447.57,-396.8 l -24.61,-24.9 c -104.18,57.9 -160.98,167.4 -263.85,220.7 l -19.31,15.9 c -29.39,22 -15.97,14 -52.86,20.5 -45.31,7.9 -61.28,25.7 -97.32,52.1 l -41.29,28 c -99.19,-115.4 -111.43,-273.5 -156.45,-415.8 -74.2,-234.6 -145.35,-450.1 -285.91,-653.9 -22.02,-31.9 -25.41,-63.5 -36.63,-99.8 l -10.63,-28.9 c -21.48,-64 -6.87,-110 -51.63,-167.6 v -642.6 c 0,-61.6 18.13,-239.3 -20.96,-278.3 -21.35,32.1 -30.75,56 -43.29,91.9"
         style="fill:#3d3c3e;fill-opacity:1;fill-rule:nonzero;stroke:none"
         id="path16" />
      <g
         id="g18">
        <g
           id="g20"
           clip-path="url(#clipPath24)">
          <path
             d="m 3888.82,36650.2 c 12.54,-35.9 21.94,-59.8 43.29,-91.9 39.09,39 20.96,216.7 20.96,278.3 v 642.6 c 44.76,57.6 30.15,103.6 51.63,167.6 l 10.63,28.9 c 11.22,36.3 14.61,67.9 36.63,99.8 140.56,203.8 211.71,419.3 285.91,653.9 45.02,142.3 57.26,300.4 156.45,415.8 l 41.29,-28 c 36.04,-26.4 52.01,-44.2 97.32,-52.1 36.89,-6.5 23.47,1.5 52.86,-20.5 l 19.31,-15.9 c 102.87,-53.3 159.67,-162.8 263.85,-220.7 l 24.61,24.9 c 158.14,-134.4 280.45,-287.6 422.11,-431.6 73.44,-74.6 172.58,-150.8 220.99,-241.1 34.14,-63.7 111.51,-97.4 148.23,-169.4 29.39,-57.7 110.07,-106.5 148.23,-169.4 l 47.14,-47.1 c 100.2,-96.5 178.04,-219.1 278.03,-319.1 56.5,-56.5 -3.3,7.7 34.82,-57.3 l 47.09,-47.1 c 46.04,-44.3 72.42,-92.3 117.91,-137.8 35.15,-35.1 -6.95,7.2 25.58,-48 28.33,-48.2 76.23,-72.8 105.87,-127.1 l 73.99,-74 c -5.84,-60.8 4.83,-70.2 42.78,-116.4 l 27.4,-32.4 c 34.94,-41.9 16.43,-17.2 40.7,-57.6 15.8,-26.3 28.42,-38.6 49.72,-59.6 65.43,-64.6 4.83,3.6 40.87,-62.1 18.51,-33.7 61.36,-69.1 84.7,-105.9 18.76,-29.4 43.75,-53.5 63.53,-84.7 22.91,-36 43.24,-42.4 63.52,-84.7 l 31.9,-42.4 c 41.54,-57 74.19,-109.6 84.7,-180 -38.8,-33.1 -71.24,-51.8 -116.6,-74.2 l -33.11,-17.3 c -44.52,-22.3 -90.64,-33.8 -136.38,-57 l -32.35,-15.8 -115.87,-68.9 -148.23,-84.7 -31.05,-15.1 c -60.6,-30.3 -125.7,-72.4 -180.71,-111.9 l -223.66,-148.3 c -28.88,-19.2 -49.34,-38.2 -72.8,-63.3 l -0.08,-31.7 -169.33,-116.3 -84.7,-63.5 c -32.31,-22.8 -58.44,-48.6 -86.14,-76.3 -65.05,-64.9 4.23,-3.4 -62.17,-40.3 -41.42,-23 -87.33,-84.5 -122.82,-120 -109.52,-109.3 -296.97,-256.1 -364.22,-388.2 -30.96,-60.8 -111.01,-101.5 -148.23,-169.4 -23.08,-42 -61.28,-55.7 -84.7,-105.9 l -58.32,-73.5 c -23.97,-28.8 -38.8,-54.2 -58.28,-85.4 l -21.17,-31.8 -19.19,-29.8 c -30.07,-45 -15.29,-23.5 -50.23,-65.4 -27.06,-32.5 -39.76,-57.7 -57.64,-95.4 l -84.7,-148.2 c -34.35,-58.1 -64.29,-180.2 -126.84,-200.9 -52.48,78.9 -76.28,185.8 -106.13,275.8 -9.41,28.4 -12.92,55.6 -20.71,83.9 l -42.36,148.3 -10.41,31.8 -21.22,84.7 -21.3,84.7 -21.1,84.7 -21.13,84.7 -20.96,84.7 -132.65,661 c -7.37,36 -4.19,20.2 -4.61,59.7 -0.47,39.7 3.26,21.1 -10.85,50.9 -32.82,69.5 -9.74,185.2 -42.26,255 -20.58,44.1 -1.06,83.7 -11.35,127.6 -59.84,255.9 -48.75,527 -102.83,783.3 -21.94,103.9 6.61,209.7 -21.09,317.6 l -4.07,92.2"
             style="fill:url(#linearGradient30);fill-opacity:1;fill-rule:nonzero;stroke:none"
             id="path32" />
        </g>
      </g>
      <path
         d="m 8040.79,30798 c -66.72,-148.5 -165.19,-201.7 -308.85,-261.5 -88.78,-4.8 -182.94,-14 -269.57,11.3 -107.07,31.2 -207.15,110.3 -255.04,212 -54.34,114.6 -61.34,252.4 -15.06,371.8 57.57,149.1 168.95,205.6 307.23,265.8 100.62,17.3 190.47,21.6 287.33,-15.6 112.45,-43.5 198.54,-138.8 245.89,-247.5 47.35,-108.1 56.5,-227 8.07,-336.3 z m 557.43,-272.8 c -78.55,364.3 -383.1,751.7 -696.25,946 -201.78,125.3 -393.32,195.8 -635.99,180.7 -348.66,-73.7 -653.2,-253.9 -849.06,-559 -200.16,-312.6 -251.27,-709.2 -161.42,-1067.5 76.95,-309.4 304.01,-568.8 576.8,-725.3 251.28,-144.2 497.18,-175.4 779.12,-141.5 322.84,68.8 612.31,217.9 799.56,501.4 164.1,249.7 250.74,569.3 187.24,865.2"
         style="fill:#ffffff;fill-opacity:1;fill-rule:nonzero;stroke:none"
         id="path34" />
      <path
         d="m 8040.79,30798 c -66.72,-148.5 -165.19,-201.7 -308.85,-261.5 -88.78,-4.8 -182.94,-14 -269.57,11.3 -107.07,31.2 -207.15,110.3 -255.04,212 -54.34,114.6 -61.34,252.4 -15.06,371.8 57.57,149.1 168.95,205.6 307.23,265.8 100.62,17.3 190.47,21.6 287.33,-15.6 112.45,-43.5 198.54,-138.8 245.89,-247.5 47.35,-108.1 56.5,-227 8.07,-336.3 z m 557.43,-272.8 c -78.55,364.3 -383.1,751.7 -696.25,946 -201.78,125.3 -393.32,195.8 -635.99,180.7 -348.66,-73.7 -653.2,-253.9 -849.06,-559 -200.16,-312.6 -251.27,-709.2 -161.42,-1067.5 76.95,-309.4 304.01,-568.8 576.8,-725.3 251.28,-144.2 497.18,-175.4 779.12,-141.5 322.84,68.8 612.31,217.9 799.56,501.4 164.1,249.7 250.74,569.3 187.24,865.2"
         style="fill:#100f0d;fill-opacity:1;fill-rule:nonzero;stroke:none"
         id="path36" />
      <g
         id="g38">
        <g
           id="g40"
           clip-path="url(#clipPath44)">
          <path
             d="m 16482.7,38032.7 20.6,54.3 c 60.8,109.2 191.1,170.2 250.7,281.5 39.6,73.5 156.7,151.7 222.5,201.2 143.5,108.1 247.6,260.2 402.4,360 l 84.5,68.4 c 28.3,23.3 54.5,39 84.9,58.7 l 29.8,20.6 c 38.2,25.5 76.8,44 118.2,63.9 35.8,-11.9 44.9,-18 62.4,-52.8 l 22.1,-63.5 c 22,-58.4 45.6,-108.5 63.5,-169.4 l 82.6,-262.2 41.4,-182.5 c 88.3,-361.3 100.4,-751.5 108,-1121.5 4,-197.5 22.6,-399.4 17.8,-602.2 -0.7,-28.6 -12.6,-40.1 -16.9,-65.6 -21.1,-126.8 7.4,-252.3 -21.1,-381.2 -32.7,-147.5 10.8,-340.6 -24.3,-487 -28.3,-118.4 -17.2,-243.2 -41.6,-360 l -61.2,-338.8 -21.2,-127.1 c -6.6,-33 3.9,-50.4 -11.3,-83.4 -16,-34.5 -22.6,-107.8 -31,-149.5 -10.2,-50.2 -23.5,-118.6 -22.4,-169.4 l -20,-31.8 c -0.7,-49 5.7,-63.2 -21.2,-105.9 -0.7,-43.8 3.9,-45.3 -21.1,-84.7 -0.6,-49.3 6.2,-63 -21.2,-105.8 -0.6,-49.6 -2,-39.8 -21.2,-84.7 l -13.2,-66.9 -18.5,-52.6 -21.1,-113.4 -21.2,-84.7 -21.1,-84.7 -21.2,-84.7 -21.2,-84.7 c -9.7,-35.5 -15.6,-96 -31.9,-127.1 -21.5,-41.1 -40.9,-80.7 -84.5,-95.1 -33.6,41.5 -73.3,88.2 -95.2,137.5 -22.9,51.7 -61.2,63.1 -84.7,105.9 -20.7,37.8 -42.1,51.1 -63.5,84.7 -23.3,36.7 -66.2,72.2 -84.7,105.9 -24.2,44.2 -63.6,67.4 -84.7,105.8 -24.2,44.2 -63.6,67.5 -84.7,105.9 -37.2,67.9 -117.3,108.7 -148.2,169.4 -77.6,152.2 -301.8,326 -427.6,451.6 -40.2,40.2 -97.6,114.3 -144.2,141.3 -83.1,48.4 -134.7,148.3 -211.7,190.6 -44.3,24.4 -67.3,63.5 -105.9,84.7 -65.7,36.2 1.9,-23.9 -62.2,41.1 -21,21.2 -33.3,33.7 -59.5,49.5 -41.4,24.9 -15.2,5.4 -59.7,42.5 l -30.5,25.9 -116.2,84.5 c -52.8,33 -97,72.4 -148.5,106.7 l -95.3,63 -42.2,31.5 c -73.8,35.4 10.3,-17.8 -62.2,30.5 -68.7,45.7 -138.9,81.8 -213.1,117.7 -40,19.5 -87.2,38.7 -116.3,74.1 -29.1,35.2 -18.6,54.9 -10.2,95.2 8.6,41 27.3,67.7 42.3,105.8 12.7,32 11.9,44.4 31,78.1 l 21.3,38.3 c 19.8,47.4 41.3,82 63.6,127 l 91.6,171.6 162.4,273.3 338.9,508 105.9,148.3 201.2,264.8 c 24.3,43 63.9,68.1 84.7,105.9 29.8,53.9 77.7,79 105.9,127 38,64.6 118.2,110.7 148.2,169.4 l 10.8,31.9 c 25.9,44.5 94.4,101.3 141.4,119.4"
             style="fill:url(#linearGradient50);fill-opacity:1;fill-rule:nonzero;stroke:none"
             id="path52" />
        </g>
      </g>
      <path
         d="m 15135.7,30771.7 c -75.4,-148 -186.7,-201.3 -336.9,-251.8 -90.9,4.8 -191.5,4.3 -274.4,45.7 -101.7,51.1 -184.5,157.1 -220,263.6 -42.5,125.4 -39.9,248.6 24.2,365.9 81.8,149.6 212.5,201.8 365.3,248.1 80.2,3.2 160.4,-2.7 234.6,-35 97.9,-42 183,-137.2 220.6,-236.2 49,-128.1 50.1,-277.1 -13.4,-400.3 z m 472.4,-188.9 c -56,343.3 -246.4,659.7 -532.2,860.9 -257.7,181.3 -506.3,235.1 -819.4,208.2 -373.4,-80.1 -687.1,-281.4 -897.5,-603.7 -181.3,-276.5 -254.5,-601 -184.6,-927 68.9,-321.3 256.7,-629 538.6,-805.5 236.8,-148 537,-212 814.7,-173.3 377.1,55.4 640.3,218.5 866.8,526.8 187.2,255 264.7,602.1 213.6,913.6"
         style="fill:#ffffff;fill-opacity:1;fill-rule:nonzero;stroke:none"
         id="path54" />
      <path
         d="m 15135.7,30771.7 c -75.4,-148 -186.7,-201.3 -336.9,-251.8 -90.9,4.8 -191.5,4.3 -274.4,45.7 -101.7,51.1 -184.5,157.1 -220,263.6 -42.5,125.4 -39.9,248.6 24.2,365.9 81.8,149.6 212.5,201.8 365.3,248.1 80.2,3.2 160.4,-2.7 234.6,-35 97.9,-42 183,-137.2 220.6,-236.2 49,-128.1 50.1,-277.1 -13.4,-400.3 z m 472.4,-188.9 c -56,343.3 -246.4,659.7 -532.2,860.9 -257.7,181.3 -506.3,235.1 -819.4,208.2 -373.4,-80.1 -687.1,-281.4 -897.5,-603.7 -181.3,-276.5 -254.5,-601 -184.6,-927 68.9,-321.3 256.7,-629 538.6,-805.5 236.8,-148 537,-212 814.7,-173.3 377.1,55.4 640.3,218.5 866.8,526.8 187.2,255 264.7,602.1 213.6,913.6"
         style="fill:#100f0d;fill-opacity:1;fill-rule:nonzero;stroke:none"
         id="path56" />
    </g>
  </g>
</svg>
