<svg width="49" height="55" viewBox="0 0 49 55" fill="none" xmlns="http://www.w3.org/2000/svg">
<path fill-rule="evenodd" clip-rule="evenodd" d="M24.3081 13.0135C22.8349 12.8498 19.0045 12.9643 15.4688 14.7322C14.323 13.6682 13.3572 10.9018 18.6608 8.34824C20.5432 7.20241 23.5715 5.64746 20.8706 3.68318C21.9356 3.22674 24.0235 1.92287 24.3081 0.491211C24.5927 1.92287 26.4351 3.22674 27.5001 3.68318C24.7992 5.64746 27.8275 7.20241 29.7099 8.34824C35.0135 10.9018 34.0477 13.6682 32.9019 14.7322C29.3662 12.9643 25.7813 12.8498 24.3081 13.0135ZM22.5894 3.92871C23.5715 4.17425 24.2262 3.1489 24.3081 2.70103C24.39 3.1489 24.7992 4.17425 25.7813 3.92871C25.2903 4.17425 25.2903 4.91085 25.2903 4.91085H24.3081H23.0804C23.0804 4.91085 23.0804 4.17425 22.5894 3.92871Z" fill="#23384E"/>
<path fill-rule="evenodd" clip-rule="evenodd" d="M15.4689 17.6787C17.8424 16.0418 20.134 15.7144 24.3081 15.7144C28.4822 15.7144 30.5283 16.0418 32.9018 17.6787C40.759 23.5717 31.0698 32.0765 30.9376 34.8662C32.1653 41.2501 28.7794 42.9689 29.7099 45.9153C30.0201 46.8975 30.8363 52.2992 33.7106 48.8617C36.585 45.4242 42.3951 44.6595 41.8133 45.9153C40.7895 48.1251 43.7776 48.9994 41.0767 49.5984C38.3758 50.1974 37.8126 54.5091 31.1831 54.5091C24.5537 54.5091 21.7946 49.2879 20.7207 46.4064C19.6468 43.5248 16.6966 39.3561 17.4331 34.8662C16.5851 32.8874 7.61173 23.5717 15.4689 17.6787ZM17.1876 21.6073C19.9074 22.0001 20.7762 24.5537 20.8706 25.7814L20.0207 25.0448C18.0375 25.5359 17.7542 23.8171 18.3208 23.0805L17.1876 21.6073ZM31.1831 21.6073C28.4633 22.0001 27.5945 24.5537 27.5001 25.7814L28.35 25.0448C30.3332 25.5359 30.6165 23.8171 30.0499 23.0805L31.1831 21.6073Z" fill="#23384E"/>
<path d="M34.9383 16.2756C36.5752 13.0837 43.2865 9.15505 46.724 16.2757C50.1615 23.3963 45.1526 31.499 41.8133 39.3561C40.5038 40.6656 37.2464 41.173 33.7106 34.6908C36.166 30.8441 39.849 21.7756 34.9383 16.2756Z" fill="#23384E"/>
<path d="M13.4324 16.2756C11.7955 13.0837 5.08416 9.15505 1.64666 16.2757C-1.79084 23.3963 3.21806 31.499 6.55737 39.3561C7.86691 40.6656 11.1243 41.173 14.6601 34.6908C12.2047 30.8441 8.52166 21.7756 13.4324 16.2756Z" fill="#23384E"/>
</svg>
