<svg width="48" height="55" viewBox="0 0 48 55" fill="none" xmlns="http://www.w3.org/2000/svg">
<g clip-path="url(#clip0_64_726)">
<path fill-rule="evenodd" clip-rule="evenodd" d="M13.7506 34.7644C9.51728 28.9278 8.2648 20.258 12.7181 16.4087C11.6945 12.819 7.77099 11.6642 4.55225 12.725C-0.103029 14.2647 -0.444207 17.9126 0.309975 21.6947C1.01029 25.1994 3.89683 35.8879 5.1538 38.551C5.71046 39.7327 6.40179 40.3593 7.20984 40.4846C8.35009 40.6637 9.72378 39.8446 11.2995 38.175L13.7506 34.7644ZM16.7045 21.4799C19.2498 22.3751 19.5461 23.4359 20.0175 25.7544C19.7257 25.4993 19.4563 25.2352 19.2094 24.9622C19.169 24.9935 19.1241 25.0203 19.0792 25.0427C18.5271 25.3292 17.8223 25.0651 17.499 24.4519C17.2252 23.9282 17.324 23.324 17.7011 22.9793C17.3644 22.478 17.0456 21.9767 16.7045 21.4799ZM25.0947 4.59229H22.5673C22.5628 4.22974 22.3159 3.84033 22.0196 3.61654C22.922 3.40617 23.5235 2.95858 23.8782 2.18872C24.2059 3.09285 24.9241 3.37484 25.6559 3.61654C25.2967 3.8269 25.0992 4.25659 25.0947 4.59229ZM30.9756 21.4799C28.4302 22.3751 28.1339 23.4359 27.6625 25.7544C27.9543 25.4993 28.2237 25.2352 28.4706 24.9622C28.511 24.9935 28.5559 25.0203 28.6008 25.0427C29.1529 25.3292 29.8578 25.0651 30.181 24.4519C30.4548 23.9282 30.3561 23.324 29.979 22.9793C30.3112 22.478 30.6344 21.9767 30.9756 21.4799ZM14.7741 14.5378C20.5876 12.1431 26.657 12.0447 33.0092 14.5378C37.2065 8.9384 22.1498 6.54378 27.7119 3.28979C26.1811 2.78402 24.5875 1.88883 23.9006 0C23.1599 1.61133 21.9837 2.85563 20.1028 3.28979C25.5077 7.31364 10.24 8.31624 14.7741 14.5378ZM33.7454 33.999C37.9787 28.1624 39.2312 19.4926 34.7779 15.6433C35.8014 12.0536 39.725 10.8988 42.9437 11.9596C47.599 13.4949 47.9402 17.1427 47.186 20.9294C46.4857 24.434 43.5991 35.1225 42.3422 37.7856C41.7855 38.9673 41.0942 39.5939 40.2861 39.7192C39.1459 39.8983 37.7722 39.0792 36.1965 37.4097L33.7454 33.999ZM32.6814 17.1338C25.8175 14.963 19.9232 15.1599 15.2859 17.0398C11.919 19.4881 11.5913 23.324 13.1625 28.5116C14.2399 32.0654 16.1972 33.2471 17.2072 35.9774C20.0983 43.7834 18.5899 57.0903 36.7486 54.727C38.7912 54.4629 40.6767 53.9347 42.4005 53.1335C46.8852 50.4211 40.6677 50.1392 38.9079 50.0407C29.2203 49.4812 28.5649 46.3525 30.805 37.8259L31.7118 34.375C34.935 26.3005 36.1336 19.8551 32.6814 17.1338Z" fill="#23384E"/>
<path fill-rule="evenodd" clip-rule="evenodd" d="M25.0945 4.59229H22.5671C22.5626 4.22974 22.3157 3.84033 22.0195 3.61654C22.9218 3.40617 23.5233 2.95858 23.878 2.18872C24.2057 3.09285 24.924 3.37484 25.6557 3.61654C25.2966 3.8269 25.099 4.25659 25.0945 4.59229ZM14.7739 14.5378C20.5874 12.1431 26.6568 12.0447 33.009 14.5378C37.2064 8.9384 22.1496 6.54378 27.7117 3.28979C26.1809 2.78402 24.5873 1.88883 23.9004 0C23.1597 1.61133 21.9835 2.85563 20.1026 3.28979C25.5075 7.31364 10.2399 8.31624 14.7739 14.5378Z" fill="#23384E"/>
</g>
<defs>
<clipPath id="clip0_64_726">
<rect width="47.5" height="55" fill="white"/>
</clipPath>
</defs>
</svg>
