<svg width="88" height="112" viewBox="0 0 88 112" fill="none" xmlns="http://www.w3.org/2000/svg">
<path d="M55 0.5L55.8389 0.510742C73.4004 0.955684 87.5 15.3312 87.5 33V111.5H33C15.0507 111.5 0.5 96.9493 0.5 79V0.5H55Z" fill="white" stroke="#23384E"/>
<g clip-path="url(#clip0_64_644)">
<path fill-rule="evenodd" clip-rule="evenodd" d="M33.7506 43.2644C29.5173 37.4278 28.2648 28.758 32.7181 24.9087C31.6945 21.319 27.771 20.1642 24.5522 21.225C19.897 22.7647 19.5558 26.4126 20.31 30.1947C21.0103 33.6994 23.8968 44.3879 25.1538 47.051C25.7105 48.2327 26.4018 48.8593 27.2098 48.9846C28.3501 49.1637 29.7238 48.3446 31.2995 46.675L33.7506 43.2644ZM36.7045 29.9799C39.2498 30.8751 39.5461 31.9359 40.0175 34.2544C39.7257 33.9993 39.4563 33.7352 39.2094 33.4622C39.169 33.4935 39.1241 33.5203 39.0792 33.5427C38.5271 33.8292 37.8223 33.5651 37.499 32.9519C37.2252 32.4282 37.324 31.824 37.7011 31.4793C37.3644 30.978 37.0456 30.4767 36.7045 29.9799ZM45.0947 13.0923H42.5673C42.5628 12.7297 42.3159 12.3403 42.0196 12.1165C42.922 11.9062 43.5235 11.4586 43.8782 10.6887C44.2059 11.5929 44.9241 11.8748 45.6559 12.1165C45.2967 12.3269 45.0992 12.7566 45.0947 13.0923ZM50.9756 29.9799C48.4302 30.8751 48.1339 31.9359 47.6625 34.2544C47.9543 33.9993 48.2237 33.7352 48.4706 33.4622C48.511 33.4935 48.5559 33.5203 48.6008 33.5427C49.1529 33.8292 49.8578 33.5651 50.181 32.9519C50.4548 32.4282 50.3561 31.824 49.979 31.4793C50.3112 30.978 50.6344 30.4767 50.9756 29.9799ZM34.7741 23.0378C40.5876 20.6431 46.657 20.5447 53.0092 23.0378C57.2065 17.4384 42.1498 15.0438 47.7119 11.7898C46.1811 11.284 44.5875 10.3888 43.9006 8.5C43.1599 10.1113 41.9837 11.3556 40.1028 11.7898C45.5077 15.8136 30.24 16.8162 34.7741 23.0378ZM53.7454 42.499C57.9787 36.6624 59.2312 27.9926 54.7779 24.1433C55.8014 20.5536 59.725 19.3988 62.9437 20.4596C67.599 21.9949 67.9402 25.6427 67.186 29.4294C66.4857 32.934 63.5991 43.6225 62.3422 46.2856C61.7855 47.4673 61.0942 48.0939 60.2861 48.2192C59.1459 48.3983 57.7722 47.5792 56.1965 45.9097L53.7454 42.499ZM52.6814 25.6338C45.8175 23.463 39.9232 23.6599 35.2859 25.5398C31.919 27.9881 31.5913 31.824 33.1625 37.0116C34.2399 40.5654 36.1972 41.7471 37.2072 44.4774C40.0983 52.2834 38.5899 65.5903 56.7486 63.227C58.7912 62.9629 60.6767 62.4347 62.4005 61.6335C66.8852 58.9211 60.6677 58.6392 58.9079 58.5407C49.2203 57.9812 48.5649 54.8525 50.805 46.3259L51.7118 42.875C54.935 34.8005 56.1336 28.3551 52.6814 25.6338Z" fill="#23384E"/>
<path fill-rule="evenodd" clip-rule="evenodd" d="M45.0945 13.0923H42.5671C42.5626 12.7297 42.3157 12.3403 42.0195 12.1165C42.9218 11.9062 43.5233 11.4586 43.878 10.6887C44.2057 11.5929 44.924 11.8748 45.6557 12.1165C45.2966 12.3269 45.099 12.7566 45.0945 13.0923ZM34.7739 23.0378C40.5874 20.6431 46.6568 20.5447 53.009 23.0378C57.2064 17.4384 42.1496 15.0438 47.7117 11.7898C46.1809 11.284 44.5873 10.3888 43.9004 8.5C43.1597 10.1113 41.9835 11.3556 40.1026 11.7898C45.5075 15.8136 30.2399 16.8162 34.7739 23.0378Z" fill="#FFC600"/>
</g>
<path d="M14.92 82.24C14.1947 82.24 13.504 82.112 12.848 81.856C12.192 81.5947 11.6107 81.2107 11.104 80.704C10.6027 80.1973 10.2053 79.5707 9.912 78.824C9.624 78.0773 9.48 77.216 9.48 76.24C9.48 74.9653 9.72267 73.8827 10.208 72.992C10.6987 72.096 11.3547 71.4133 12.176 70.944C13.0027 70.4747 13.9173 70.24 14.92 70.24C16.4027 70.24 17.568 70.584 18.416 71.272C19.264 71.96 19.832 72.9333 20.12 74.192L17.896 74.512C17.688 73.84 17.3467 73.304 16.872 72.904C16.4027 72.4987 15.8 72.2933 15.064 72.288C14.3333 72.2773 13.7253 72.4347 13.24 72.76C12.7547 73.0853 12.3893 73.5467 12.144 74.144C11.904 74.7413 11.784 75.44 11.784 76.24C11.784 77.04 11.904 77.7333 12.144 78.32C12.3893 78.9067 12.7547 79.3627 13.24 79.688C13.7253 80.0133 14.3333 80.1813 15.064 80.192C15.56 80.2027 16.008 80.1173 16.408 79.936C16.8133 79.7547 17.1547 79.4693 17.432 79.08C17.7093 78.6907 17.9067 78.192 18.024 77.584H16.2V75.904H20.344C20.3547 75.9733 20.3627 76.096 20.368 76.272C20.3733 76.448 20.376 76.5493 20.376 76.576C20.376 77.68 20.152 78.6587 19.704 79.512C19.256 80.3653 18.624 81.0347 17.808 81.52C16.992 82 16.0293 82.24 14.92 82.24ZM24.3794 82.24C23.7607 82.24 23.2354 82.1227 22.8034 81.888C22.3767 81.648 22.0514 81.3307 21.8274 80.936C21.6087 80.536 21.4994 80.096 21.4994 79.616C21.4994 79.216 21.5607 78.8507 21.6834 78.52C21.806 78.1893 22.0034 77.8987 22.2754 77.648C22.5527 77.392 22.9234 77.1787 23.3874 77.008C23.7074 76.8907 24.0887 76.7867 24.5314 76.696C24.974 76.6053 25.4754 76.52 26.0354 76.44C26.5954 76.3547 27.2114 76.2613 27.8834 76.16L27.0994 76.592C27.0994 76.08 26.9767 75.704 26.7314 75.464C26.486 75.224 26.0754 75.104 25.4994 75.104C25.1794 75.104 24.846 75.1813 24.4994 75.336C24.1527 75.4907 23.91 75.7653 23.7714 76.16L21.8034 75.536C22.022 74.8213 22.4327 74.24 23.0354 73.792C23.638 73.344 24.4594 73.12 25.4994 73.12C26.262 73.12 26.9394 73.2373 27.5314 73.472C28.1234 73.7067 28.5714 74.112 28.8754 74.688C29.046 75.008 29.1474 75.328 29.1794 75.648C29.2114 75.968 29.2274 76.3253 29.2274 76.72V82H27.3234V80.224L27.5954 80.592C27.174 81.1733 26.718 81.5947 26.2274 81.856C25.742 82.112 25.126 82.24 24.3794 82.24ZM24.8434 80.528C25.2434 80.528 25.5794 80.4587 25.8514 80.32C26.1287 80.176 26.3474 80.0133 26.5074 79.832C26.6727 79.6507 26.7847 79.4987 26.8434 79.376C26.9554 79.1413 27.0194 78.8693 27.0354 78.56C27.0567 78.2453 27.0674 77.984 27.0674 77.776L27.7074 77.936C27.062 78.0427 26.5394 78.1333 26.1394 78.208C25.7394 78.2773 25.4167 78.3413 25.1714 78.4C24.926 78.4587 24.71 78.5227 24.5234 78.592C24.31 78.6773 24.1367 78.7707 24.0034 78.872C23.8754 78.968 23.7794 79.0747 23.7154 79.192C23.6567 79.3093 23.6274 79.44 23.6274 79.584C23.6274 79.7813 23.6754 79.952 23.7714 80.096C23.8727 80.2347 24.014 80.3413 24.1954 80.416C24.3767 80.4907 24.5927 80.528 24.8434 80.528ZM37.1955 82V77.92C37.1955 77.7227 37.1848 77.472 37.1635 77.168C37.1422 76.8587 37.0755 76.5493 36.9635 76.24C36.8515 75.9307 36.6675 75.672 36.4115 75.464C36.1608 75.256 35.8035 75.152 35.3395 75.152C35.1528 75.152 34.9528 75.1813 34.7395 75.24C34.5262 75.2987 34.3262 75.4133 34.1395 75.584C33.9528 75.7493 33.7982 75.9947 33.6755 76.32C33.5582 76.6453 33.4995 77.0773 33.4995 77.616L32.2515 77.024C32.2515 76.3413 32.3902 75.7013 32.6675 75.104C32.9448 74.5067 33.3608 74.024 33.9155 73.656C34.4755 73.288 35.1795 73.104 36.0275 73.104C36.7048 73.104 37.2568 73.2187 37.6835 73.448C38.1102 73.6773 38.4408 73.968 38.6755 74.32C38.9155 74.672 39.0862 75.04 39.1875 75.424C39.2888 75.8027 39.3502 76.1493 39.3715 76.464C39.3928 76.7787 39.4035 77.008 39.4035 77.152V82H37.1955ZM31.2915 82V73.36H33.2275V76.224H33.4995V82H31.2915ZM45.3391 82.24C44.4538 82.24 43.6725 82.0507 42.9951 81.672C42.3231 81.288 41.7951 80.7627 41.4111 80.096C41.0325 79.424 40.8431 78.656 40.8431 77.792C40.8431 76.848 41.0298 76.0267 41.4031 75.328C41.7765 74.6293 42.2911 74.088 42.9471 73.704C43.6031 73.3147 44.3578 73.12 45.2111 73.12C46.1178 73.12 46.8885 73.3333 47.5231 73.76C48.1578 74.1867 48.6271 74.7867 48.9311 75.56C49.2351 76.3333 49.3418 77.2427 49.2511 78.288H47.0991V77.488C47.0991 76.608 46.9578 75.976 46.6751 75.592C46.3978 75.2027 45.9418 75.008 45.3071 75.008C44.5658 75.008 44.0191 75.2347 43.6671 75.688C43.3205 76.136 43.1471 76.8 43.1471 77.68C43.1471 78.4853 43.3205 79.1093 43.6671 79.552C44.0191 79.9893 44.5338 80.208 45.2111 80.208C45.6378 80.208 46.0031 80.1147 46.3071 79.928C46.6111 79.7413 46.8431 79.472 47.0031 79.12L49.1791 79.744C48.8538 80.5333 48.3391 81.1467 47.6351 81.584C46.9365 82.0213 46.1711 82.24 45.3391 82.24ZM42.4751 78.288V76.672H48.2031V78.288H42.4751ZM54.4335 82.24C53.3455 82.24 52.4655 81.9947 51.7935 81.504C51.1268 81.008 50.7215 80.3093 50.5775 79.408L52.8015 79.072C52.8922 79.4773 53.0922 79.7947 53.4015 80.024C53.7162 80.2533 54.1135 80.368 54.5935 80.368C54.9882 80.368 55.2922 80.2933 55.5055 80.144C55.7188 79.9893 55.8255 79.776 55.8255 79.504C55.8255 79.3333 55.7828 79.1973 55.6975 79.096C55.6122 78.9893 55.4202 78.8853 55.1215 78.784C54.8282 78.6827 54.3695 78.5493 53.7455 78.384C53.0415 78.2027 52.4788 78 52.0575 77.776C51.6362 77.552 51.3322 77.2853 51.1455 76.976C50.9588 76.6613 50.8655 76.2827 50.8655 75.84C50.8655 75.2853 51.0068 74.8053 51.2895 74.4C51.5722 73.9893 51.9695 73.6747 52.4815 73.456C52.9988 73.232 53.6068 73.12 54.3055 73.12C54.9828 73.12 55.5828 73.224 56.1055 73.432C56.6282 73.64 57.0495 73.936 57.3695 74.32C57.6948 74.704 57.8948 75.1573 57.9695 75.68L55.7455 76.08C55.7082 75.76 55.5695 75.5067 55.3295 75.32C55.0895 75.1333 54.7642 75.024 54.3535 74.992C53.9535 74.9653 53.6308 75.0187 53.3855 75.152C53.1455 75.2853 53.0255 75.4773 53.0255 75.728C53.0255 75.8773 53.0762 76.0027 53.1775 76.104C53.2842 76.2053 53.5002 76.3093 53.8255 76.416C54.1562 76.5227 54.6575 76.6613 55.3295 76.832C55.9855 77.0027 56.5108 77.2027 56.9055 77.432C57.3055 77.656 57.5962 77.928 57.7775 78.248C57.9588 78.5627 58.0495 78.944 58.0495 79.392C58.0495 80.2773 57.7295 80.9733 57.0895 81.48C56.4495 81.9867 55.5642 82.24 54.4335 82.24ZM65.6955 82V77.92C65.6955 77.7227 65.6848 77.472 65.6635 77.168C65.6422 76.8587 65.5755 76.5493 65.4635 76.24C65.3515 75.9307 65.1675 75.672 64.9115 75.464C64.6608 75.256 64.3035 75.152 63.8395 75.152C63.6528 75.152 63.4528 75.1813 63.2395 75.24C63.0262 75.2987 62.8262 75.4133 62.6395 75.584C62.4528 75.7493 62.2982 75.9947 62.1755 76.32C62.0582 76.6453 61.9995 77.0773 61.9995 77.616L60.7515 77.024C60.7515 76.3413 60.8902 75.7013 61.1675 75.104C61.4448 74.5067 61.8608 74.024 62.4155 73.656C62.9755 73.288 63.6795 73.104 64.5275 73.104C65.2048 73.104 65.7568 73.2187 66.1835 73.448C66.6102 73.6773 66.9408 73.968 67.1755 74.32C67.4155 74.672 67.5862 75.04 67.6875 75.424C67.7888 75.8027 67.8502 76.1493 67.8715 76.464C67.8928 76.7787 67.9035 77.008 67.9035 77.152V82H65.6955ZM59.7915 82V70.48H61.7275V76.4H61.9995V82H59.7915Z" fill="#23384E"/>
<path d="M72.3794 82.24C71.7607 82.24 71.2354 82.1227 70.8034 81.888C70.3767 81.648 70.0514 81.3307 69.8274 80.936C69.6087 80.536 69.4994 80.096 69.4994 79.616C69.4994 79.216 69.5607 78.8507 69.6834 78.52C69.806 78.1893 70.0034 77.8987 70.2754 77.648C70.5527 77.392 70.9234 77.1787 71.3874 77.008C71.7074 76.8907 72.0887 76.7867 72.5314 76.696C72.974 76.6053 73.4754 76.52 74.0354 76.44C74.5954 76.3547 75.2114 76.2613 75.8834 76.16L75.0994 76.592C75.0994 76.08 74.9767 75.704 74.7314 75.464C74.486 75.224 74.0754 75.104 73.4994 75.104C73.1794 75.104 72.846 75.1813 72.4994 75.336C72.1527 75.4907 71.91 75.7653 71.7714 76.16L69.8034 75.536C70.022 74.8213 70.4327 74.24 71.0354 73.792C71.638 73.344 72.4594 73.12 73.4994 73.12C74.262 73.12 74.9394 73.2373 75.5314 73.472C76.1234 73.7067 76.5714 74.112 76.8754 74.688C77.046 75.008 77.1474 75.328 77.1794 75.648C77.2114 75.968 77.2274 76.3253 77.2274 76.72V82H75.3234V80.224L75.5954 80.592C75.174 81.1733 74.718 81.5947 74.2274 81.856C73.742 82.112 73.126 82.24 72.3794 82.24ZM72.8434 80.528C73.2434 80.528 73.5794 80.4587 73.8514 80.32C74.1287 80.176 74.3474 80.0133 74.5074 79.832C74.6727 79.6507 74.7847 79.4987 74.8434 79.376C74.9554 79.1413 75.0194 78.8693 75.0354 78.56C75.0567 78.2453 75.0674 77.984 75.0674 77.776L75.7074 77.936C75.062 78.0427 74.5394 78.1333 74.1394 78.208C73.7394 78.2773 73.4167 78.3413 73.1714 78.4C72.926 78.4587 72.71 78.5227 72.5234 78.592C72.31 78.6773 72.1367 78.7707 72.0034 78.872C71.8754 78.968 71.7794 79.0747 71.7154 79.192C71.6567 79.3093 71.6274 79.44 71.6274 79.584C71.6274 79.7813 71.6754 79.952 71.7714 80.096C71.8727 80.2347 72.014 80.3413 72.1954 80.416C72.3767 80.4907 72.5927 80.528 72.8434 80.528Z" fill="#FFC600"/>
<defs>
<clipPath id="clip0_64_644">
<rect width="47.5" height="55" fill="white" transform="translate(20 8.5)"/>
</clipPath>
</defs>
</svg>
