<svg width="88" height="112" viewBox="0 0 88 112" fill="none" xmlns="http://www.w3.org/2000/svg">
<path d="M55 0.5L55.8389 0.510742C73.4004 0.955684 87.5 15.3312 87.5 33V111.5H33C15.0507 111.5 0.5 96.9493 0.5 79V0.5H55Z" fill="#23384E" stroke="white"/>
<g clip-path="url(#clip0_64_636)">
<path fill-rule="evenodd" clip-rule="evenodd" d="M33.7506 43.2644C29.5173 37.4278 28.2648 28.758 32.7181 24.9087C31.6945 21.319 27.771 20.1642 24.5522 21.225C19.897 22.7647 19.5558 26.4126 20.31 30.1947C21.0103 33.6994 23.8968 44.3879 25.1538 47.051C25.7105 48.2327 26.4018 48.8593 27.2098 48.9846C28.3501 49.1637 29.7238 48.3446 31.2995 46.675L33.7506 43.2644ZM36.7045 29.9799C39.2498 30.8751 39.5461 31.9359 40.0175 34.2544C39.7257 33.9993 39.4563 33.7352 39.2094 33.4622C39.169 33.4935 39.1241 33.5203 39.0792 33.5427C38.5271 33.8292 37.8223 33.5651 37.499 32.9519C37.2252 32.4282 37.324 31.824 37.7011 31.4793C37.3644 30.978 37.0456 30.4767 36.7045 29.9799ZM45.0947 13.0923H42.5673C42.5628 12.7297 42.3159 12.3403 42.0196 12.1165C42.922 11.9062 43.5235 11.4586 43.8782 10.6887C44.2059 11.5929 44.9241 11.8748 45.6559 12.1165C45.2967 12.3269 45.0992 12.7566 45.0947 13.0923ZM50.9756 29.9799C48.4302 30.8751 48.1339 31.9359 47.6625 34.2544C47.9543 33.9993 48.2237 33.7352 48.4706 33.4622C48.511 33.4935 48.5559 33.5203 48.6008 33.5427C49.1529 33.8292 49.8578 33.5651 50.181 32.9519C50.4548 32.4282 50.3561 31.824 49.979 31.4793C50.3112 30.978 50.6344 30.4767 50.9756 29.9799ZM34.7741 23.0378C40.5876 20.6431 46.657 20.5447 53.0092 23.0378C57.2065 17.4384 42.1498 15.0438 47.7119 11.7898C46.1811 11.284 44.5875 10.3888 43.9006 8.5C43.1599 10.1113 41.9837 11.3556 40.1028 11.7898C45.5077 15.8136 30.24 16.8162 34.7741 23.0378ZM53.7454 42.499C57.9787 36.6624 59.2312 27.9926 54.7779 24.1433C55.8014 20.5536 59.725 19.3988 62.9437 20.4596C67.599 21.9949 67.9402 25.6427 67.186 29.4294C66.4857 32.934 63.5991 43.6225 62.3422 46.2856C61.7855 47.4673 61.0942 48.0939 60.2861 48.2192C59.1459 48.3983 57.7722 47.5792 56.1965 45.9097L53.7454 42.499ZM52.6814 25.6338C45.8175 23.463 39.9232 23.6599 35.2859 25.5398C31.919 27.9881 31.5913 31.824 33.1625 37.0116C34.2399 40.5654 36.1972 41.7471 37.2072 44.4774C40.0983 52.2834 38.5899 65.5903 56.7486 63.227C58.7912 62.9629 60.6767 62.4347 62.4005 61.6335C66.8852 58.9211 60.6677 58.6392 58.9079 58.5407C49.2203 57.9812 48.5649 54.8525 50.805 46.3259L51.7118 42.875C54.935 34.8005 56.1336 28.3551 52.6814 25.6338Z" fill="white"/>
<path fill-rule="evenodd" clip-rule="evenodd" d="M45.0945 13.0923H42.5671C42.5626 12.7297 42.3157 12.3403 42.0195 12.1165C42.9218 11.9062 43.5233 11.4586 43.878 10.6887C44.2057 11.5929 44.924 11.8748 45.6557 12.1165C45.2966 12.3269 45.099 12.7566 45.0945 13.0923ZM34.7739 23.0378C40.5874 20.6431 46.6568 20.5447 53.009 23.0378C57.2064 17.4384 42.1496 15.0438 47.7117 11.7898C46.1809 11.284 44.5873 10.3888 43.9004 8.5C43.1597 10.1113 41.9835 11.3556 40.1026 11.7898C45.5075 15.8136 30.2399 16.8162 34.7739 23.0378Z" fill="#FFC600"/>
</g>
<defs>
<clipPath id="clip0_64_636">
<rect width="47.5" height="55" fill="white" transform="translate(20 8.5)"/>
</clipPath>
</defs>
</svg>
