<svg width="98" height="112" viewBox="0 0 98 112" fill="none" xmlns="http://www.w3.org/2000/svg">
<path fill-rule="evenodd" clip-rule="evenodd" d="M49.4998 26.5C46.4998 26.1667 38.6999 26.3998 31.4999 29.9998C29.1665 27.8331 27.1999 22.1998 37.9999 16.9998C41.8332 14.6664 47.9999 11.5 42.4999 7.5C44.6686 6.57053 48.9204 3.91538 49.4999 1C50.0794 3.91538 53.8311 6.57053 55.9999 7.5C50.4999 11.5 56.6666 14.6664 60.4999 16.9998C71.2999 22.1998 69.3332 27.8331 66.9999 29.9998C59.7999 26.3998 52.4998 26.1667 49.4998 26.5ZM45.9999 8C47.9999 8.5 49.3332 6.41203 49.4999 5.5C49.6665 6.41203 50.4999 8.5 52.4999 8C51.4999 8.5 51.4999 10 51.4999 10H49.4999H46.9999C46.9999 10 46.9999 8.5 45.9999 8Z" fill="#FFC600"/>
<path fill-rule="evenodd" clip-rule="evenodd" d="M31.5 36C36.3333 32.6667 40.9998 32 49.4998 32C57.9998 32 62.1665 32.6667 66.9998 36C82.9998 48.0002 63.269 65.3192 62.9998 71C65.5 84 58.6051 87.5 60.4999 93.5C61.1315 95.5 62.7937 106.5 68.6468 99.5C74.5 92.5 86.3316 90.9426 85.1468 93.5C83.062 98 89.1468 99.7802 83.6468 101C78.1468 102.22 76.9999 111 63.4999 111C49.9999 111 44.3814 100.368 42.1945 94.5C40.0076 88.6321 34 80.1431 35.4999 71C33.773 66.9704 15.5 48.0002 31.5 36ZM34.9999 44C40.5383 44.8 42.3076 50 42.4999 52.5L40.7691 51C36.7306 52 36.1537 48.5 37.3076 47L34.9999 44ZM63.4999 44C57.9614 44.8 56.1922 50 55.9999 52.5L57.7307 51C61.7691 52 62.346 48.5 61.1922 47L63.4999 44Z" fill="white"/>
<path d="M71.1468 33.1428C74.4802 26.6428 88.1468 18.6427 95.1468 33.1429C102.147 47.643 91.9469 64.1431 85.1468 80.1431C82.4801 82.8097 75.8468 83.8429 68.6468 70.6429C73.6468 62.8095 81.1468 44.3427 71.1468 33.1428Z" fill="white"/>
<path d="M27.3529 33.1428C24.0196 26.6428 10.3529 18.6427 3.35292 33.1429C-3.64708 47.643 6.55285 64.1431 13.3529 80.1431C16.0196 82.8097 22.6529 83.8429 29.8529 70.6429C24.8529 62.8095 17.3529 44.3427 27.3529 33.1428Z" fill="white"/>
</svg>
