<svg width="484" height="144" viewBox="0 0 484 144" fill="none" xmlns="http://www.w3.org/2000/svg">
<path d="M418 1C453.899 1 483 30.1015 483 66V143H66C30.1015 143 1 113.899 1 78V1H418Z" fill="white" stroke="white" stroke-width="2"/>
<path d="M174.9 100.05C171.727 100.05 168.705 99.49 165.835 98.37C162.965 97.2267 160.422 95.5467 158.205 93.33C156.012 91.1133 154.273 88.3717 152.99 85.105C151.73 81.8383 151.1 78.07 151.1 73.8C151.1 68.2233 152.162 63.4867 154.285 59.59C156.432 55.67 159.302 52.6833 162.895 50.63C166.512 48.5767 170.513 47.55 174.9 47.55C181.387 47.55 186.485 49.055 190.195 52.065C193.905 55.075 196.39 59.3333 197.65 64.84L187.92 66.24C187.01 63.3 185.517 60.955 183.44 59.205C181.387 57.4317 178.75 56.5333 175.53 56.51C172.333 56.4633 169.673 57.1517 167.55 58.575C165.427 59.9983 163.828 62.0167 162.755 64.63C161.705 67.2433 161.18 70.3 161.18 73.8C161.18 77.3 161.705 80.3333 162.755 82.9C163.828 85.4667 165.427 87.4617 167.55 88.885C169.673 90.3083 172.333 91.0433 175.53 91.09C177.7 91.1367 179.66 90.7633 181.41 89.97C183.183 89.1767 184.677 87.9283 185.89 86.225C187.103 84.5217 187.967 82.34 188.48 79.68H180.5V72.33H198.63C198.677 72.6333 198.712 73.17 198.735 73.94C198.758 74.71 198.77 75.1533 198.77 75.27C198.77 80.1 197.79 84.3817 195.83 88.115C193.87 91.8483 191.105 94.7767 187.535 96.9C183.965 99 179.753 100.05 174.9 100.05ZM216.285 100.05C213.578 100.05 211.28 99.5367 209.39 98.51C207.523 97.46 206.1 96.0717 205.12 94.345C204.163 92.595 203.685 90.67 203.685 88.57C203.685 86.82 203.953 85.2217 204.49 83.775C205.026 82.3283 205.89 81.0567 207.08 79.96C208.293 78.84 209.915 77.9067 211.945 77.16C213.345 76.6467 215.013 76.1917 216.95 75.795C218.886 75.3983 221.08 75.025 223.53 74.675C225.98 74.3017 228.675 73.8933 231.615 73.45L228.185 75.34C228.185 73.1 227.648 71.455 226.575 70.405C225.501 69.355 223.705 68.83 221.185 68.83C219.785 68.83 218.326 69.1683 216.81 69.845C215.293 70.5217 214.231 71.7233 213.625 73.45L205.015 70.72C205.971 67.5933 207.768 65.05 210.405 63.09C213.041 61.13 216.635 60.15 221.185 60.15C224.521 60.15 227.485 60.6633 230.075 61.69C232.665 62.7167 234.625 64.49 235.955 67.01C236.701 68.41 237.145 69.81 237.285 71.21C237.425 72.61 237.495 74.1733 237.495 75.9V99H229.165V91.23L230.355 92.84C228.511 95.3833 226.516 97.2267 224.37 98.37C222.246 99.49 219.551 100.05 216.285 100.05ZM218.315 92.56C220.065 92.56 221.535 92.2567 222.725 91.65C223.938 91.02 224.895 90.3083 225.595 89.515C226.318 88.7217 226.808 88.0567 227.065 87.52C227.555 86.4933 227.835 85.3033 227.905 83.95C227.998 82.5733 228.045 81.43 228.045 80.52L230.845 81.22C228.021 81.6867 225.735 82.0833 223.985 82.41C222.235 82.7133 220.823 82.9933 219.75 83.25C218.676 83.5067 217.731 83.7867 216.915 84.09C215.981 84.4633 215.223 84.8717 214.64 85.315C214.08 85.735 213.66 86.2017 213.38 86.715C213.123 87.2283 212.995 87.8 212.995 88.43C212.995 89.2933 213.205 90.04 213.625 90.67C214.068 91.2767 214.686 91.7433 215.48 92.07C216.273 92.3967 217.218 92.56 218.315 92.56ZM272.355 99V81.15C272.355 80.2867 272.309 79.19 272.215 77.86C272.122 76.5067 271.83 75.1533 271.34 73.8C270.85 72.4467 270.045 71.315 268.925 70.405C267.829 69.495 266.265 69.04 264.235 69.04C263.419 69.04 262.544 69.1683 261.61 69.425C260.677 69.6817 259.802 70.1833 258.985 70.93C258.169 71.6533 257.492 72.7267 256.955 74.15C256.442 75.5733 256.185 77.4633 256.185 79.82L250.725 77.23C250.725 74.2433 251.332 71.4433 252.545 68.83C253.759 66.2167 255.579 64.105 258.005 62.495C260.455 60.885 263.535 60.08 267.245 60.08C270.209 60.08 272.624 60.5817 274.49 61.585C276.357 62.5883 277.804 63.86 278.83 65.4C279.88 66.94 280.627 68.55 281.07 70.23C281.514 71.8867 281.782 73.4033 281.875 74.78C281.969 76.1567 282.015 77.16 282.015 77.79V99H272.355ZM246.525 99V61.2H254.995V73.73H256.185V99H246.525ZM307.984 100.05C304.11 100.05 300.692 99.2217 297.729 97.565C294.789 95.885 292.479 93.5867 290.799 90.67C289.142 87.73 288.314 84.37 288.314 80.59C288.314 76.46 289.13 72.8667 290.764 69.81C292.397 66.7533 294.649 64.385 297.519 62.705C300.389 61.0017 303.69 60.15 307.424 60.15C311.39 60.15 314.762 61.0833 317.539 62.95C320.315 64.8167 322.369 67.4417 323.699 70.825C325.029 74.2083 325.495 78.1867 325.099 82.76H315.684V79.26C315.684 75.41 315.065 72.645 313.829 70.965C312.615 69.2617 310.62 68.41 307.844 68.41C304.6 68.41 302.209 69.4017 300.669 71.385C299.152 73.345 298.394 76.25 298.394 80.1C298.394 83.6233 299.152 86.3533 300.669 88.29C302.209 90.2033 304.46 91.16 307.424 91.16C309.29 91.16 310.889 90.7517 312.219 89.935C313.549 89.1183 314.564 87.94 315.264 86.4L324.784 89.13C323.36 92.5833 321.109 95.2667 318.029 97.18C314.972 99.0933 311.624 100.05 307.984 100.05ZM295.454 82.76V75.69H320.514V82.76H295.454ZM347.772 100.05C343.012 100.05 339.162 98.9767 336.222 96.83C333.305 94.66 331.532 91.6033 330.902 87.66L340.632 86.19C341.028 87.9633 341.903 89.3517 343.257 90.355C344.633 91.3583 346.372 91.86 348.472 91.86C350.198 91.86 351.528 91.5333 352.462 90.88C353.395 90.2033 353.862 89.27 353.862 88.08C353.862 87.3333 353.675 86.7383 353.302 86.295C352.928 85.8283 352.088 85.3733 350.782 84.93C349.498 84.4867 347.492 83.9033 344.762 83.18C341.682 82.3867 339.22 81.5 337.377 80.52C335.533 79.54 334.203 78.3733 333.387 77.02C332.57 75.6433 332.162 73.9867 332.162 72.05C332.162 69.6233 332.78 67.5233 334.017 65.75C335.253 63.9533 336.992 62.5767 339.232 61.62C341.495 60.64 344.155 60.15 347.212 60.15C350.175 60.15 352.8 60.605 355.087 61.515C357.373 62.425 359.217 63.72 360.617 65.4C362.04 67.08 362.915 69.0633 363.242 71.35L353.512 73.1C353.348 71.7 352.742 70.5917 351.692 69.775C350.642 68.9583 349.218 68.48 347.422 68.34C345.672 68.2233 344.26 68.4567 343.187 69.04C342.137 69.6233 341.612 70.4633 341.612 71.56C341.612 72.2133 341.833 72.7617 342.277 73.205C342.743 73.6483 343.688 74.1033 345.112 74.57C346.558 75.0367 348.752 75.6433 351.692 76.39C354.562 77.1367 356.86 78.0117 358.587 79.015C360.337 79.995 361.608 81.185 362.402 82.585C363.195 83.9617 363.592 85.63 363.592 87.59C363.592 91.4633 362.192 94.5083 359.392 96.725C356.592 98.9417 352.718 100.05 347.772 100.05ZM397.043 99V81.15C397.043 80.2867 396.996 79.19 396.903 77.86C396.809 76.5067 396.518 75.1533 396.028 73.8C395.538 72.4467 394.733 71.315 393.613 70.405C392.516 69.495 390.953 69.04 388.923 69.04C388.106 69.04 387.231 69.1683 386.298 69.425C385.364 69.6817 384.489 70.1833 383.673 70.93C382.856 71.6533 382.179 72.7267 381.643 74.15C381.129 75.5733 380.873 77.4633 380.873 79.82L375.413 77.23C375.413 74.2433 376.019 71.4433 377.233 68.83C378.446 66.2167 380.266 64.105 382.693 62.495C385.143 60.885 388.223 60.08 391.933 60.08C394.896 60.08 397.311 60.5817 399.178 61.585C401.044 62.5883 402.491 63.86 403.518 65.4C404.568 66.94 405.314 68.55 405.758 70.23C406.201 71.8867 406.469 73.4033 406.563 74.78C406.656 76.1567 406.703 77.16 406.703 77.79V99H397.043ZM371.213 99V48.6H379.683V74.5H380.873V99H371.213Z" fill="#23384E"/>
<path d="M426.285 100.05C423.578 100.05 421.28 99.5367 419.39 98.51C417.523 97.46 416.1 96.0717 415.12 94.345C414.163 92.595 413.685 90.67 413.685 88.57C413.685 86.82 413.953 85.2217 414.49 83.775C415.026 82.3283 415.89 81.0567 417.08 79.96C418.293 78.84 419.915 77.9067 421.945 77.16C423.345 76.6467 425.013 76.1917 426.95 75.795C428.886 75.3983 431.08 75.025 433.53 74.675C435.98 74.3017 438.675 73.8933 441.615 73.45L438.185 75.34C438.185 73.1 437.648 71.455 436.575 70.405C435.501 69.355 433.705 68.83 431.185 68.83C429.785 68.83 428.326 69.1683 426.81 69.845C425.293 70.5217 424.231 71.7233 423.625 73.45L415.015 70.72C415.971 67.5933 417.768 65.05 420.405 63.09C423.041 61.13 426.635 60.15 431.185 60.15C434.521 60.15 437.485 60.6633 440.075 61.69C442.665 62.7167 444.625 64.49 445.955 67.01C446.701 68.41 447.145 69.81 447.285 71.21C447.425 72.61 447.495 74.1733 447.495 75.9V99H439.165V91.23L440.355 92.84C438.511 95.3833 436.516 97.2267 434.37 98.37C432.246 99.49 429.551 100.05 426.285 100.05ZM428.315 92.56C430.065 92.56 431.535 92.2567 432.725 91.65C433.938 91.02 434.895 90.3083 435.595 89.515C436.318 88.7217 436.808 88.0567 437.065 87.52C437.555 86.4933 437.835 85.3033 437.905 83.95C437.998 82.5733 438.045 81.43 438.045 80.52L440.845 81.22C438.021 81.6867 435.735 82.0833 433.985 82.41C432.235 82.7133 430.823 82.9933 429.75 83.25C428.676 83.5067 427.731 83.7867 426.915 84.09C425.981 84.4633 425.223 84.8717 424.64 85.315C424.08 85.735 423.66 86.2017 423.38 86.715C423.123 87.2283 422.995 87.8 422.995 88.43C422.995 89.2933 423.205 90.04 423.625 90.67C424.068 91.2767 424.686 91.7433 425.48 92.07C426.273 92.3967 427.218 92.56 428.315 92.56Z" fill="#FFC600"/>
<g clip-path="url(#clip0_62_430)">
<path fill-rule="evenodd" clip-rule="evenodd" d="M59.5007 86.5288C51.0341 74.8556 48.5291 57.516 57.4356 49.8174C55.3886 42.638 47.5415 40.3285 41.104 42.45C31.7935 45.5295 31.1111 52.8252 32.6195 60.3895C34.0201 67.3988 39.7932 88.7757 42.3071 94.1021C43.4204 96.4653 44.8031 97.7186 46.4192 97.9692C48.6997 98.3273 51.4471 96.6891 54.5985 93.3501L59.5007 86.5288ZM65.4084 59.9598C70.4991 61.7502 71.0917 63.8717 72.0345 68.5088C71.4509 67.9985 70.9122 67.4704 70.4183 66.9243C70.3375 66.987 70.2478 67.0407 70.158 67.0854C69.0536 67.6584 67.644 67.1302 66.9976 65.9038C66.4499 64.8564 66.6474 63.648 67.4016 62.9587C66.7282 61.9561 66.0908 60.9535 65.4084 59.9598ZM82.189 26.1846H77.1342C77.1252 25.4595 76.6314 24.6807 76.0388 24.2331C77.8434 23.8123 79.0465 22.9172 79.7558 21.3774C80.4113 23.1857 81.8478 23.7497 83.3113 24.2331C82.593 24.6538 82.198 25.5132 82.189 26.1846ZM93.9506 59.9598C88.8599 61.7502 88.2673 63.8717 87.3246 68.5088C87.9082 67.9985 88.4469 67.4704 88.9407 66.9243C89.0215 66.987 89.1113 67.0407 89.2011 67.0854C90.3054 67.6584 91.715 67.1302 92.3615 65.9038C92.9091 64.8564 92.7116 63.648 91.9574 62.9587C92.6218 61.9561 93.2683 60.9535 93.9506 59.9598ZM61.5477 46.0755C73.1747 41.2863 85.3134 41.0894 98.0178 46.0755C106.413 34.8768 76.2992 30.0876 87.4234 23.5796C84.3617 22.568 81.1744 20.7777 79.8007 17C78.3193 20.2227 75.967 22.7113 72.205 23.5796C83.015 31.6273 52.4796 33.6325 61.5477 46.0755ZM99.4903 84.998C107.957 73.3249 110.462 55.9852 101.555 48.2866C103.602 41.1073 111.449 38.7977 117.887 40.9193C127.197 43.9897 127.88 51.2855 126.371 58.8587C124.971 65.868 119.198 87.245 116.684 92.5713C115.571 94.9346 114.188 96.1878 112.572 96.4385C110.291 96.7965 107.544 95.1584 104.392 91.8193L99.4903 84.998ZM97.3624 51.2676C83.6345 46.9259 71.8459 47.3198 62.5713 51.0796C55.8375 55.9762 55.1821 63.648 58.3245 74.0231C60.4793 81.1309 64.3939 83.4941 66.414 88.9548C72.1961 104.567 69.1793 131.181 105.497 126.454C109.582 125.926 113.353 124.869 116.801 123.267C125.77 117.842 113.335 117.278 109.815 117.081C90.4401 115.962 89.1293 109.705 93.6095 92.6519L95.4231 85.75C101.87 69.6009 104.267 56.7103 97.3624 51.2676Z" fill="#23384E"/>
<path fill-rule="evenodd" clip-rule="evenodd" d="M82.1891 26.1846H77.1343C77.1253 25.4595 76.6315 24.6807 76.0389 24.2331C77.8436 23.8123 79.0467 22.9172 79.756 21.3774C80.4114 23.1857 81.8479 23.7497 83.3114 24.2331C82.5931 24.6538 82.1981 25.5132 82.1891 26.1846ZM61.5478 46.0755C73.1748 41.2863 85.3136 41.0894 98.0179 46.0755C106.413 34.8768 76.2993 30.0876 87.4235 23.5796C84.3618 22.568 81.1745 20.7777 79.8008 17C78.3194 20.2227 75.9671 22.7113 72.2052 23.5796C83.0151 31.6273 52.4797 33.6325 61.5478 46.0755Z" fill="#FFC600"/>
</g>
<defs>
<clipPath id="clip0_62_430">
<rect width="95" height="110" fill="white" transform="translate(32 17)"/>
</clipPath>
</defs>
</svg>
