<svg width="88" height="112" viewBox="0 0 88 112" fill="none" xmlns="http://www.w3.org/2000/svg">
<path d="M55 0.5L55.8389 0.510742C73.4004 0.955684 87.5 15.3312 87.5 33V111.5H33C15.0507 111.5 0.5 96.9493 0.5 79V0.5H55Z" fill="#23384E" stroke="white"/>
<g clip-path="url(#clip0_105_481)">
<path fill-rule="evenodd" clip-rule="evenodd" d="M44.3081 21.5135C42.8349 21.3498 39.0045 21.4643 35.4688 23.2322C34.323 22.1682 33.3572 19.4018 38.6608 16.8482C40.5432 15.7024 43.5715 14.1475 40.8706 12.1832C41.9356 11.7267 44.0235 10.4229 44.3081 8.99121C44.5927 10.4229 46.4351 11.7267 47.5001 12.1832C44.7992 14.1475 47.8275 15.7024 49.7099 16.8482C55.0135 19.4018 54.0477 22.1682 52.9019 23.2322C49.3662 21.4643 45.7813 21.3498 44.3081 21.5135ZM42.5894 12.4287C43.5715 12.6742 44.2262 11.6489 44.3081 11.201C44.39 11.6489 44.7992 12.6742 45.7813 12.4287C45.2903 12.6742 45.2903 13.4109 45.2903 13.4109H44.3081H43.0804C43.0804 13.4109 43.0804 12.6742 42.5894 12.4287Z" fill="#FFC600"/>
<path fill-rule="evenodd" clip-rule="evenodd" d="M35.4689 26.1787C37.8424 24.5418 40.134 24.2144 44.3081 24.2144C48.4822 24.2144 50.5283 24.5418 52.9018 26.1787C60.759 32.0717 51.0698 40.5765 50.9376 43.3662C52.1653 49.7501 48.7794 51.4689 49.7099 54.4153C50.0201 55.3975 50.8363 60.7992 53.7106 57.3617C56.585 53.9242 62.3951 53.1595 61.8133 54.4153C60.7895 56.6251 63.7776 57.4994 61.0767 58.0984C58.3758 58.6974 57.8126 63.0091 51.1831 63.0091C44.5537 63.0091 41.7946 57.7879 40.7207 54.9064C39.6467 52.0248 36.6966 47.8561 37.4331 43.3662C36.5851 41.3874 27.6117 32.0717 35.4689 26.1787ZM37.1876 30.1073C39.9074 30.5001 40.7762 33.0537 40.8706 34.2814L40.0207 33.5448C38.0375 34.0359 37.7542 32.3171 38.3208 31.5805L37.1876 30.1073ZM51.1831 30.1073C48.4633 30.5001 47.5945 33.0537 47.5001 34.2814L48.35 33.5448C50.3332 34.0359 50.6165 32.3171 50.0499 31.5805L51.1831 30.1073Z" fill="white"/>
<path d="M54.9383 24.7756C56.5752 21.5837 63.2865 17.655 66.724 24.7757C70.1615 31.8963 65.1526 39.999 61.8133 47.8561C60.5038 49.1656 57.2464 49.673 53.7106 43.1908C56.166 39.3441 59.849 30.2756 54.9383 24.7756Z" fill="white"/>
<path d="M33.4324 24.7756C31.7955 21.5837 25.0842 17.655 21.6467 24.7757C18.2092 31.8963 23.2181 39.999 26.5574 47.8561C27.8669 49.1656 31.1243 49.673 34.6601 43.1908C32.2047 39.3441 28.5217 30.2756 33.4324 24.7756Z" fill="white"/>
</g>
<defs>
<clipPath id="clip0_105_481">
<rect width="48.125" height="55" fill="white" transform="translate(20 8.5)"/>
</clipPath>
</defs>
</svg>
