<svg width="242" height="72" viewBox="0 0 242 72" fill="none" xmlns="http://www.w3.org/2000/svg">
<path d="M209 0.5C226.949 0.5 241.5 15.0507 241.5 33V71.5H33C15.0507 71.5 0.5 56.9493 0.5 39V0.5H209Z" fill="#23384E" stroke="white"/>
<path d="M87.45 49.525C85.8633 49.525 84.3525 49.245 82.9175 48.685C81.4825 48.1133 80.2108 47.2733 79.1025 46.165C78.0058 45.0567 77.1367 43.6858 76.495 42.0525C75.865 40.4192 75.55 38.535 75.55 36.4C75.55 33.6117 76.0808 31.2433 77.1425 29.295C78.2158 27.335 79.6508 25.8417 81.4475 24.815C83.2558 23.7883 85.2567 23.275 87.45 23.275C90.6933 23.275 93.2425 24.0275 95.0975 25.5325C96.9525 27.0375 98.195 29.1667 98.825 31.92L93.96 32.62C93.505 31.15 92.7583 29.9775 91.72 29.1025C90.6933 28.2158 89.375 27.7667 87.765 27.755C86.1667 27.7317 84.8367 28.0758 83.775 28.7875C82.7133 29.4992 81.9142 30.5083 81.3775 31.815C80.8525 33.1217 80.59 34.65 80.59 36.4C80.59 38.15 80.8525 39.6667 81.3775 40.95C81.9142 42.2333 82.7133 43.2308 83.775 43.9425C84.8367 44.6542 86.1667 45.0217 87.765 45.045C88.85 45.0683 89.83 44.8817 90.705 44.485C91.5917 44.0883 92.3383 43.4642 92.945 42.6125C93.5517 41.7608 93.9833 40.67 94.24 39.34H90.25V35.665H99.315C99.3383 35.8167 99.3558 36.085 99.3675 36.47C99.3792 36.855 99.385 37.0767 99.385 37.135C99.385 39.55 98.895 41.6908 97.915 43.5575C96.935 45.4242 95.5525 46.8883 93.7675 47.95C91.9825 49 89.8767 49.525 87.45 49.525ZM108.142 49.525C106.789 49.525 105.64 49.2683 104.695 48.755C103.762 48.23 103.05 47.5358 102.56 46.6725C102.082 45.7975 101.842 44.835 101.842 43.785C101.842 42.91 101.977 42.1108 102.245 41.3875C102.513 40.6642 102.945 40.0283 103.54 39.48C104.147 38.92 104.957 38.4533 105.972 38.08C106.672 37.8233 107.507 37.5958 108.475 37.3975C109.443 37.1992 110.54 37.0125 111.765 36.8375C112.99 36.6508 114.337 36.4467 115.807 36.225L114.092 37.17C114.092 36.05 113.824 35.2275 113.287 34.7025C112.751 34.1775 111.852 33.915 110.592 33.915C109.892 33.915 109.163 34.0842 108.405 34.4225C107.647 34.7608 107.116 35.3617 106.812 36.225L102.507 34.86C102.986 33.2967 103.884 32.025 105.202 31.045C106.521 30.065 108.317 29.575 110.592 29.575C112.261 29.575 113.742 29.8317 115.037 30.345C116.332 30.8583 117.312 31.745 117.977 33.005C118.351 33.705 118.572 34.405 118.642 35.105C118.712 35.805 118.747 36.5867 118.747 37.45V49H114.582V45.115L115.177 45.92C114.256 47.1917 113.258 48.1133 112.185 48.685C111.123 49.245 109.776 49.525 108.142 49.525ZM109.157 45.78C110.032 45.78 110.767 45.6283 111.362 45.325C111.969 45.01 112.447 44.6542 112.797 44.2575C113.159 43.8608 113.404 43.5283 113.532 43.26C113.777 42.7467 113.917 42.1517 113.952 41.475C113.999 40.7867 114.022 40.215 114.022 39.76L115.422 40.11C114.011 40.3433 112.867 40.5417 111.992 40.705C111.117 40.8567 110.412 40.9967 109.875 41.125C109.338 41.2533 108.866 41.3933 108.457 41.545C107.991 41.7317 107.612 41.9358 107.32 42.1575C107.04 42.3675 106.83 42.6008 106.69 42.8575C106.562 43.1142 106.497 43.4 106.497 43.715C106.497 44.1467 106.602 44.52 106.812 44.835C107.034 45.1383 107.343 45.3717 107.74 45.535C108.137 45.6983 108.609 45.78 109.157 45.78ZM136.178 49V40.075C136.178 39.6433 136.154 39.095 136.108 38.43C136.061 37.7533 135.915 37.0767 135.67 36.4C135.425 35.7233 135.023 35.1575 134.463 34.7025C133.914 34.2475 133.133 34.02 132.118 34.02C131.709 34.02 131.272 34.0842 130.805 34.2125C130.338 34.3408 129.901 34.5917 129.493 34.965C129.084 35.3267 128.746 35.8633 128.478 36.575C128.221 37.2867 128.093 38.2317 128.093 39.41L125.363 38.115C125.363 36.6217 125.666 35.2217 126.273 33.915C126.879 32.6083 127.789 31.5525 129.003 30.7475C130.228 29.9425 131.768 29.54 133.623 29.54C135.104 29.54 136.312 29.7908 137.245 30.2925C138.178 30.7942 138.902 31.43 139.415 32.2C139.94 32.97 140.313 33.775 140.535 34.615C140.757 35.4433 140.891 36.2017 140.938 36.89C140.984 37.5783 141.008 38.08 141.008 38.395V49H136.178ZM123.263 49V30.1H127.498V36.365H128.093V49H123.263ZM153.992 49.525C152.055 49.525 150.346 49.1108 148.864 48.2825C147.394 47.4425 146.239 46.2933 145.399 44.835C144.571 43.365 144.157 41.685 144.157 39.795C144.157 37.73 144.565 35.9333 145.382 34.405C146.199 32.8767 147.324 31.6925 148.759 30.8525C150.194 30.0008 151.845 29.575 153.712 29.575C155.695 29.575 157.381 30.0417 158.769 30.975C160.158 31.9083 161.184 33.2208 161.849 34.9125C162.514 36.6042 162.748 38.5933 162.549 40.88H157.842V39.13C157.842 37.205 157.533 35.8225 156.914 34.9825C156.308 34.1308 155.31 33.705 153.922 33.705C152.3 33.705 151.104 34.2008 150.334 35.1925C149.576 36.1725 149.197 37.625 149.197 39.55C149.197 41.3117 149.576 42.6767 150.334 43.645C151.104 44.6017 152.23 45.08 153.712 45.08C154.645 45.08 155.444 44.8758 156.109 44.4675C156.774 44.0592 157.282 43.47 157.632 42.7L162.392 44.065C161.68 45.7917 160.554 47.1333 159.014 48.09C157.486 49.0467 155.812 49.525 153.992 49.525ZM147.727 40.88V37.345H160.257V40.88H147.727ZM173.886 49.525C171.506 49.525 169.581 48.9883 168.111 47.915C166.652 46.83 165.766 45.3017 165.451 43.33L170.316 42.595C170.514 43.4817 170.952 44.1758 171.628 44.6775C172.317 45.1792 173.186 45.43 174.236 45.43C175.099 45.43 175.764 45.2667 176.231 44.94C176.697 44.6017 176.931 44.135 176.931 43.54C176.931 43.1667 176.837 42.8692 176.651 42.6475C176.464 42.4142 176.044 42.1867 175.391 41.965C174.749 41.7433 173.746 41.4517 172.381 41.09C170.841 40.6933 169.61 40.25 168.688 39.76C167.767 39.27 167.102 38.6867 166.693 38.01C166.285 37.3217 166.081 36.4933 166.081 35.525C166.081 34.3117 166.39 33.2617 167.008 32.375C167.627 31.4767 168.496 30.7883 169.616 30.31C170.747 29.82 172.077 29.575 173.606 29.575C175.087 29.575 176.4 29.8025 177.543 30.2575C178.687 30.7125 179.608 31.36 180.308 32.2C181.02 33.04 181.457 34.0317 181.621 35.175L176.756 36.05C176.674 35.35 176.371 34.7958 175.846 34.3875C175.321 33.9792 174.609 33.74 173.711 33.67C172.836 33.6117 172.13 33.7283 171.593 34.02C171.068 34.3117 170.806 34.7317 170.806 35.28C170.806 35.6067 170.917 35.8808 171.138 36.1025C171.372 36.3242 171.844 36.5517 172.556 36.785C173.279 37.0183 174.376 37.3217 175.846 37.695C177.281 38.0683 178.43 38.5058 179.293 39.0075C180.168 39.4975 180.804 40.0925 181.201 40.7925C181.597 41.4808 181.796 42.315 181.796 43.295C181.796 45.2317 181.096 46.7542 179.696 47.8625C178.296 48.9708 176.359 49.525 173.886 49.525ZM198.521 49V40.075C198.521 39.6433 198.498 39.095 198.451 38.43C198.405 37.7533 198.259 37.0767 198.014 36.4C197.769 35.7233 197.366 35.1575 196.806 34.7025C196.258 34.2475 195.476 34.02 194.461 34.02C194.053 34.02 193.616 34.0842 193.149 34.2125C192.682 34.3408 192.245 34.5917 191.836 34.965C191.428 35.3267 191.09 35.8633 190.821 36.575C190.565 37.2867 190.436 38.2317 190.436 39.41L187.706 38.115C187.706 36.6217 188.01 35.2217 188.616 33.915C189.223 32.6083 190.133 31.5525 191.346 30.7475C192.571 29.9425 194.111 29.54 195.966 29.54C197.448 29.54 198.656 29.7908 199.589 30.2925C200.522 30.7942 201.246 31.43 201.759 32.2C202.284 32.97 202.657 33.775 202.879 34.615C203.101 35.4433 203.235 36.2017 203.281 36.89C203.328 37.5783 203.351 38.08 203.351 38.395V49H198.521ZM185.606 49V23.8H189.841V36.75H190.436V49H185.606Z" fill="white"/>
<path d="M213.142 49.525C211.789 49.525 210.64 49.2683 209.695 48.755C208.762 48.23 208.05 47.5358 207.56 46.6725C207.082 45.7975 206.842 44.835 206.842 43.785C206.842 42.91 206.977 42.1108 207.245 41.3875C207.513 40.6642 207.945 40.0283 208.54 39.48C209.147 38.92 209.957 38.4533 210.972 38.08C211.672 37.8233 212.507 37.5958 213.475 37.3975C214.443 37.1992 215.54 37.0125 216.765 36.8375C217.99 36.6508 219.337 36.4467 220.807 36.225L219.092 37.17C219.092 36.05 218.824 35.2275 218.287 34.7025C217.751 34.1775 216.852 33.915 215.592 33.915C214.892 33.915 214.163 34.0842 213.405 34.4225C212.647 34.7608 212.116 35.3617 211.812 36.225L207.507 34.86C207.986 33.2967 208.884 32.025 210.202 31.045C211.521 30.065 213.317 29.575 215.592 29.575C217.261 29.575 218.742 29.8317 220.037 30.345C221.332 30.8583 222.312 31.745 222.977 33.005C223.351 33.705 223.572 34.405 223.642 35.105C223.712 35.805 223.747 36.5867 223.747 37.45V49H219.582V45.115L220.177 45.92C219.256 47.1917 218.258 48.1133 217.185 48.685C216.123 49.245 214.776 49.525 213.142 49.525ZM214.157 45.78C215.032 45.78 215.767 45.6283 216.362 45.325C216.969 45.01 217.447 44.6542 217.797 44.2575C218.159 43.8608 218.404 43.5283 218.532 43.26C218.777 42.7467 218.917 42.1517 218.952 41.475C218.999 40.7867 219.022 40.215 219.022 39.76L220.422 40.11C219.011 40.3433 217.867 40.5417 216.992 40.705C216.117 40.8567 215.412 40.9967 214.875 41.125C214.338 41.2533 213.866 41.3933 213.457 41.545C212.991 41.7317 212.612 41.9358 212.32 42.1575C212.04 42.3675 211.83 42.6008 211.69 42.8575C211.562 43.1142 211.497 43.4 211.497 43.715C211.497 44.1467 211.602 44.52 211.812 44.835C212.034 45.1383 212.343 45.3717 212.74 45.535C213.137 45.6983 213.609 45.78 214.157 45.78Z" fill="#FFC600"/>
<g clip-path="url(#clip0_105_424)">
<path fill-rule="evenodd" clip-rule="evenodd" d="M40.3081 21.5135C38.8349 21.3498 35.0045 21.4643 31.4688 23.2322C30.323 22.1682 29.3572 19.4018 34.6608 16.8482C36.5432 15.7024 39.5715 14.1475 36.8706 12.1832C37.9356 11.7267 40.0235 10.4229 40.3081 8.99121C40.5927 10.4229 42.4351 11.7267 43.5001 12.1832C40.7992 14.1475 43.8275 15.7024 45.7099 16.8482C51.0135 19.4018 50.0477 22.1682 48.9019 23.2322C45.3662 21.4643 41.7813 21.3498 40.3081 21.5135ZM38.5894 12.4287C39.5715 12.6742 40.2262 11.6489 40.3081 11.201C40.39 11.6489 40.7992 12.6742 41.7813 12.4287C41.2903 12.6742 41.2903 13.4109 41.2903 13.4109H40.3081H39.0804C39.0804 13.4109 39.0804 12.6742 38.5894 12.4287Z" fill="#FFC600"/>
<path fill-rule="evenodd" clip-rule="evenodd" d="M31.4689 26.1787C33.8424 24.5418 36.134 24.2144 40.3081 24.2144C44.4822 24.2144 46.5283 24.5418 48.9018 26.1787C56.759 32.0717 47.0698 40.5765 46.9376 43.3662C48.1653 49.7501 44.7794 51.4689 45.7099 54.4153C46.0201 55.3975 46.8363 60.7992 49.7106 57.3617C52.585 53.9242 58.3951 53.1595 57.8133 54.4153C56.7895 56.6251 59.7776 57.4994 57.0767 58.0984C54.3758 58.6974 53.8126 63.0091 47.1831 63.0091C40.5537 63.0091 37.7946 57.7879 36.7207 54.9064C35.6467 52.0248 32.6966 47.8561 33.4331 43.3662C32.5851 41.3874 23.6117 32.0717 31.4689 26.1787ZM33.1876 30.1073C35.9074 30.5001 36.7762 33.0537 36.8706 34.2814L36.0207 33.5448C34.0375 34.0359 33.7542 32.3171 34.3208 31.5805L33.1876 30.1073ZM47.1831 30.1073C44.4633 30.5001 43.5945 33.0537 43.5001 34.2814L44.35 33.5448C46.3332 34.0359 46.6165 32.3171 46.0499 31.5805L47.1831 30.1073Z" fill="white"/>
<path d="M50.9383 24.7756C52.5752 21.5837 59.2865 17.655 62.724 24.7757C66.1615 31.8963 61.1526 39.999 57.8133 47.8561C56.5038 49.1656 53.2464 49.673 49.7106 43.1908C52.166 39.3441 55.849 30.2756 50.9383 24.7756Z" fill="white"/>
<path d="M29.4324 24.7756C27.7955 21.5837 21.0842 17.655 17.6467 24.7757C14.2092 31.8963 19.2181 39.999 22.5574 47.8561C23.8669 49.1656 27.1243 49.673 30.6601 43.1908C28.2047 39.3441 24.5217 30.2756 29.4324 24.7756Z" fill="white"/>
</g>
<defs>
<clipPath id="clip0_105_424">
<rect width="48.125" height="55" fill="white" transform="translate(16 8.5)"/>
</clipPath>
</defs>
</svg>
