<svg width="67" height="76" viewBox="0 0 67 76" fill="none" xmlns="http://www.w3.org/2000/svg">
<rect width="67" height="76" rx="16" fill="white"/>
<g clip-path="url(#clip0_0_1)">
<path fill-rule="evenodd" clip-rule="evenodd" d="M23.7506 44.7644C19.5173 38.9278 18.2648 30.258 22.7181 26.4087C21.6945 22.819 17.771 21.6642 14.5522 22.725C9.89697 24.2647 9.55579 27.9126 10.31 31.6947C11.0103 35.1994 13.8968 45.8879 15.1538 48.551C15.7105 49.7327 16.4018 50.3593 17.2098 50.4846C18.3501 50.6637 19.7238 49.8446 21.2995 48.175L23.7506 44.7644ZM26.7045 31.4799C29.2498 32.3751 29.5461 33.4359 30.0175 35.7544C29.7257 35.4993 29.4563 35.2352 29.2094 34.9622C29.169 34.9935 29.1241 35.0203 29.0792 35.0427C28.5271 35.3292 27.8223 35.0651 27.499 34.4519C27.2252 33.9282 27.324 33.324 27.7011 32.9793C27.3644 32.478 27.0456 31.9767 26.7045 31.4799ZM35.0947 14.5923H32.5673C32.5628 14.2297 32.3159 13.8403 32.0196 13.6165C32.922 13.4062 33.5235 12.9586 33.8782 12.1887C34.2059 13.0929 34.9241 13.3748 35.6559 13.6165C35.2967 13.8269 35.0992 14.2566 35.0947 14.5923ZM40.9756 31.4799C38.4302 32.3751 38.1339 33.4359 37.6625 35.7544C37.9543 35.4993 38.2237 35.2352 38.4706 34.9622C38.511 34.9935 38.5559 35.0203 38.6008 35.0427C39.1529 35.3292 39.8578 35.0651 40.181 34.4519C40.4548 33.9282 40.3561 33.324 39.979 32.9793C40.3112 32.478 40.6344 31.9767 40.9756 31.4799ZM24.7741 24.5378C30.5876 22.1431 36.657 22.0447 43.0092 24.5378C47.2065 18.9384 32.1498 16.5438 37.7119 13.2898C36.1811 12.784 34.5875 11.8888 33.9006 10C33.1599 11.6113 31.9837 12.8556 30.1028 13.2898C35.5077 17.3136 20.24 18.3162 24.7741 24.5378ZM43.7454 43.999C47.9787 38.1624 49.2312 29.4926 44.7779 25.6433C45.8014 22.0536 49.725 20.8988 52.9437 21.9596C57.599 23.4949 57.9402 27.1427 57.186 30.9294C56.4857 34.434 53.5991 45.1225 52.3422 47.7856C51.7855 48.9673 51.0942 49.5939 50.2861 49.7192C49.1459 49.8983 47.7722 49.0792 46.1965 47.4097L43.7454 43.999ZM42.6814 27.1338C35.8175 24.963 29.9232 25.1599 25.2859 27.0398C21.919 29.4881 21.5913 33.324 23.1625 38.5116C24.2399 42.0654 26.1972 43.2471 27.2072 45.9774C30.0983 53.7834 28.5899 67.0903 46.7486 64.727C48.7912 64.4629 50.6767 63.9347 52.4005 63.1335C56.8852 60.4211 50.6677 60.1392 48.9079 60.0407C39.2203 59.4812 38.5649 56.3525 40.805 47.8259L41.7118 44.375C44.935 36.3005 46.1336 29.8551 42.6814 27.1338Z" fill="#23384E"/>
<path fill-rule="evenodd" clip-rule="evenodd" d="M35.0945 14.5923H32.5671C32.5626 14.2297 32.3157 13.8403 32.0195 13.6165C32.9218 13.4062 33.5233 12.9586 33.878 12.1887C34.2057 13.0929 34.924 13.3748 35.6557 13.6165C35.2966 13.8269 35.099 14.2566 35.0945 14.5923ZM24.7739 24.5378C30.5874 22.1431 36.6568 22.0447 43.009 24.5378C47.2064 18.9384 32.1496 16.5438 37.7117 13.2898C36.1809 12.784 34.5873 11.8888 33.9004 10C33.1597 11.6113 31.9835 12.8556 30.1026 13.2898C35.5075 17.3136 20.2399 18.3162 24.7739 24.5378Z" fill="#23384E"/>
</g>
<defs>
<clipPath id="clip0_0_1">
<rect width="47.5" height="55" fill="white" transform="translate(10 10)"/>
</clipPath>
</defs>
</svg>
