<svg width="67" height="76" viewBox="0 0 67 76" fill="none" xmlns="http://www.w3.org/2000/svg">
<rect width="67" height="76" rx="16" fill="white"/>
<path fill-rule="evenodd" clip-rule="evenodd" d="M34.3081 23.0135C32.8349 22.8498 29.0045 22.9643 25.4688 24.7322C24.323 23.6682 23.3572 20.9018 28.6608 18.3482C30.5432 17.2024 33.5715 15.6475 30.8706 13.6832C31.9356 13.2267 34.0235 11.9229 34.3081 10.4912C34.5927 11.9229 36.4351 13.2267 37.5001 13.6832C34.7992 15.6475 37.8275 17.2024 39.7099 18.3482C45.0135 20.9018 44.0477 23.6682 42.9019 24.7322C39.3662 22.9643 35.7813 22.8498 34.3081 23.0135ZM32.5894 13.9287C33.5715 14.1742 34.2262 13.1489 34.3081 12.701C34.39 13.1489 34.7992 14.1742 35.7813 13.9287C35.2903 14.1742 35.2903 14.9109 35.2903 14.9109H34.3081H33.0804C33.0804 14.9109 33.0804 14.1742 32.5894 13.9287Z" fill="#23384E"/>
<path fill-rule="evenodd" clip-rule="evenodd" d="M25.4689 27.6787C27.8424 26.0418 30.134 25.7144 34.3081 25.7144C38.4822 25.7144 40.5283 26.0418 42.9018 27.6787C50.759 33.5717 41.0698 42.0765 40.9376 44.8662C42.1653 51.2501 38.7794 52.9689 39.7099 55.9153C40.0201 56.8975 40.8363 62.2992 43.7106 58.8617C46.585 55.4242 52.3951 54.6595 51.8133 55.9153C50.7895 58.1251 53.7776 58.9994 51.0767 59.5984C48.3758 60.1974 47.8126 64.5091 41.1831 64.5091C34.5537 64.5091 31.7946 59.2879 30.7207 56.4064C29.6468 53.5248 26.6966 49.3561 27.4331 44.8662C26.5851 42.8874 17.6117 33.5717 25.4689 27.6787ZM27.1876 31.6073C29.9074 32.0001 30.7762 34.5537 30.8706 35.7814L30.0207 35.0448C28.0375 35.5359 27.7542 33.8171 28.3208 33.0805L27.1876 31.6073ZM41.1831 31.6073C38.4633 32.0001 37.5945 34.5537 37.5001 35.7814L38.35 35.0448C40.3332 35.5359 40.6165 33.8171 40.0499 33.0805L41.1831 31.6073Z" fill="#23384E"/>
<path d="M44.9383 26.2756C46.5752 23.0837 53.2865 19.155 56.724 26.2757C60.1615 33.3963 55.1526 41.499 51.8133 49.3561C50.5038 50.6656 47.2464 51.173 43.7106 44.6908C46.166 40.8441 49.849 31.7756 44.9383 26.2756Z" fill="#23384E"/>
<path d="M23.4324 26.2756C21.7955 23.0837 15.0842 19.155 11.6467 26.2757C8.20916 33.3963 13.2181 41.499 16.5574 49.3561C17.8669 50.6656 21.1243 51.173 24.6601 44.6908C22.2047 40.8441 18.5217 31.7756 23.4324 26.2756Z" fill="#23384E"/>
</svg>
