<svg width="250" height="250" viewBox="0 0 200 200" fill="none" xmlns="http://www.w3.org/2000/svg">
<rect x="0" y="0" width="250" height="250" fill="none"/>
<path d="M38.6363 56.9478C29.3566 57.6945 19.553 65.5352 16.3725 73.376C13.1919 86.0705 31.3398 101.192 34.3332 102.312C41.3601 104.941 54.2138 100.471 58.8421 105.859C59.9647 107.166 58.468 111.833 58.8421 112.766C62.584 115.567 68.945 113.737 69.6934 110.899C70.6289 107.352 60.526 91.671 51.7327 84.9504C44.6952 79.5717 58.0938 69.0822 58.0938 63.295C58.0938 57.5078 50.2359 56.0143 38.6363 56.9478Z" fill="white"/>
<path d="M79.0479 45C88.2153 45 93.2668 46.4935 97.3828 47.8003C102.871 46.8668 112.911 45 118.524 45C122.266 45 131.433 46.8668 135.549 47.8003C137.42 50.8494 139.478 62.1749 135.549 84.9504C130.694 113.094 119.647 114.446 118.524 115.567C117.401 116.687 115.468 117.931 117.214 130.128C120.021 149.73 141.008 150.991 144.53 149.73C151.826 147.116 153.136 145.436 155.942 142.262C159.515 138.222 158 132.928 154.445 129.194C151.4 125.995 146.401 125.461 143.594 128.074C140.788 130.688 143.781 134.795 141.723 135.542C139.665 136.288 137.046 131.248 137.046 131.248C137.046 131.248 134.871 123.793 144.53 119.487C153.323 115.567 163.426 123.407 166.419 129.194C168.664 134.982 170.348 147.303 158.936 156.824C146.472 167.221 139.594 168.236 117.214 162.611C92.7055 156.45 82.2284 117.247 76.2415 109.033C70.2546 100.818 64.829 86.4438 63.8935 80.2833C62.4304 70.648 62.3968 56.8855 63.1451 47.8003C65.3279 47.2402 71.5106 45 79.0479 45Z" fill="white"/>
<path d="M162.364 57.0184C171.643 57.7651 181.447 65.6058 184.627 73.4465C187.808 86.141 169.66 101.262 166.667 102.383C159.64 105.012 146.786 100.542 142.158 105.93C141.035 107.236 142.532 111.903 142.158 112.837C138.416 115.637 132.055 113.808 131.307 110.97C130.371 107.423 140.474 91.7416 149.267 85.0209C156.305 79.6423 142.906 69.1528 142.906 63.3656C142.906 57.5784 150.764 56.0849 162.364 57.0184Z" fill="white"/>
</svg>
