<?xml version="1.0" standalone="no"?>
<!DOCTYPE svg PUBLIC "-//W3C//DTD SVG 20010904//EN"
 "http://www.w3.org/TR/2001/REC-SVG-20010904/DTD/svg10.dtd">
<svg version="1.0" xmlns="http://www.w3.org/2000/svg"
 width="3412.000000pt" height="4928.000000pt" viewBox="0 0 3412.000000 4928.000000"
 preserveAspectRatio="xMidYMid meet">

<g transform="translate(0.000000,4928.000000) scale(0.100000,-0.100000)"
fill="#000000" stroke="none">
<path d="M11205 49274 c-82 -9 -413 -66 -495 -85 -434 -100 -712 -316 -915
-710 l-65 -127 -79 -11 c-172 -25 -340 -82 -481 -162 -387 -220 -612 -622
-697 -1245 -25 -185 -25 -741 0 -974 52 -478 166 -811 507 -1475 321 -626 392
-779 475 -1030 58 -173 98 -350 116 -515 11 -100 7 -332 -7 -441 l-6 -47 -142
-4 c-114 -4 -152 -9 -199 -27 -108 -42 -182 -119 -227 -239 -13 -31 -53 -178
-91 -327 -85 -336 -91 -356 -109 -366 -8 -4 -64 -29 -125 -55 -242 -103 -484
-236 -850 -467 -692 -437 -722 -455 -1135 -662 -366 -184 -480 -257 -605 -386
-138 -143 -216 -273 -333 -554 -155 -373 -264 -746 -447 -1535 -132 -566 -198
-816 -297 -1120 -149 -457 -353 -889 -601 -1272 l-37 -57 77 -59 c43 -32 170
-120 283 -195 113 -75 219 -148 237 -164 l32 -28 -103 -360 c-176 -612 -307
-1015 -441 -1355 -157 -399 -257 -603 -541 -1100 -354 -621 -456 -847 -559
-1234 -120 -452 -178 -906 -245 -1921 -65 -979 -121 -1404 -240 -1838 -93
-340 -200 -576 -415 -922 -253 -409 -307 -549 -307 -800 0 -83 7 -175 16 -225
8 -46 14 -85 13 -86 -1 -1 -137 -45 -302 -98 -387 -123 -633 -207 -743 -252
-291 -120 -411 -232 -469 -435 -25 -89 -25 -532 1 -849 54 -655 -14 -1028
-354 -1930 -230 -613 -293 -836 -294 -1050 -1 -135 12 -172 72 -197 72 -30
191 13 397 145 l110 70 7 -178 c29 -785 255 -1500 634 -2006 393 -526 910
-784 1571 -784 l165 0 70 -65 c249 -230 592 -415 929 -500 572 -145 1226 -90
1957 164 414 144 894 375 1322 637 289 177 653 433 905 637 l80 65 7 -112 c4
-61 19 -214 32 -341 54 -493 57 -669 16 -908 -28 -168 -51 -251 -140 -517
-101 -303 -121 -401 -127 -640 -2 -102 -1 -225 4 -275 l8 -90 -43 -64 c-166
-246 -516 -1123 -695 -1741 -294 -1015 -582 -2593 -701 -3840 -44 -458 -57
-693 -63 -1100 -6 -427 -1 -532 47 -1060 58 -634 63 -937 20 -1265 -23 -182
-29 -217 -110 -635 -32 -168 -66 -345 -74 -395 -60 -358 -64 -706 -10 -975 33
-163 119 -401 196 -536 33 -59 34 -36 -20 -339 -29 -164 -36 -224 -36 -335 0
-153 17 -222 80 -315 68 -104 43 -213 -189 -815 -250 -651 -315 -911 -304
-1225 4 -133 8 -161 35 -245 92 -281 308 -444 749 -566 623 -171 1405 -176
1920 -13 215 68 450 215 472 296 25 89 34 288 22 457 -21 283 -58 493 -196
1096 -121 528 -185 866 -185 976 l0 32 153 4 c132 3 159 7 205 27 99 44 117
95 138 375 26 363 58 496 243 1029 188 538 225 690 300 1227 114 809 158 1458
196 2910 17 636 31 1043 46 1330 90 1757 345 2920 924 4220 358 803 597 1576
856 2768 22 103 98 469 169 813 217 1056 333 1558 465 2019 119 415 394 1186
415 1163 7 -7 385 -1402 537 -1983 236 -903 409 -1724 657 -3125 31 -170 64
-344 75 -385 153 -587 167 -664 158 -870 -3 -74 -25 -279 -48 -455 -37 -284
-42 -343 -42 -530 -1 -194 2 -233 40 -510 47 -333 115 -881 228 -1830 240
-2003 346 -2719 570 -3830 47 -231 96 -492 109 -580 24 -151 172 -861 305
-1460 185 -833 337 -1405 516 -1942 l100 -301 -17 -104 c-62 -366 -98 -684
-98 -863 l0 -94 33 -24 c151 -113 428 -209 747 -259 140 -22 164 -23 690 -20
713 3 737 1 1185 -133 569 -169 746 -210 1150 -269 708 -103 1407 -101 1953 5
389 76 680 196 908 374 l76 60 -6 127 c-12 251 -49 419 -125 573 -89 180 -198
286 -386 376 -165 79 -282 106 -830 195 -437 70 -655 143 -879 291 -124 82
-371 325 -498 488 -142 183 -335 477 -477 728 l-33 58 21 87 c103 430 33 839
-212 1232 -118 188 -226 319 -468 565 l-186 190 -32 505 c-138 2186 -258 3356
-427 4185 -61 297 -105 436 -284 890 -56 143 -124 326 -151 406 l-48 146 28
74 c252 657 305 1409 180 2559 -11 102 -44 385 -74 630 -152 1250 -160 1523
-90 2790 13 239 30 550 37 690 16 337 17 1499 0 1810 -80 1505 -247 2587 -736
4775 -57 259 -134 629 -171 824 -36 195 -79 420 -96 500 -28 134 -119 505
-134 542 -4 11 24 38 107 101 480 365 729 684 800 1027 17 80 19 120 15 241
-9 246 -47 376 -274 940 -191 473 -232 588 -338 952 -441 1509 -859 3176 -944
3768 -31 215 -32 222 -24 217 595 -337 1104 -646 2048 -1245 264 -168 626
-397 805 -510 386 -243 499 -319 725 -486 93 -68 194 -137 225 -152 80 -40
194 -42 580 -10 445 36 632 46 1500 86 1053 48 1617 100 2180 201 326 58 507
101 1025 244 908 250 1213 315 1477 315 240 0 417 -35 946 -186 397 -113 578
-146 802 -147 288 0 481 66 803 276 298 195 634 489 747 654 32 47 40 53 100
69 343 93 666 228 872 364 185 121 338 300 338 392 0 59 -30 73 -155 73 -158
-1 -370 -51 -815 -194 -391 -126 -555 -154 -895 -155 -350 -1 -577 40 -835
149 -73 31 -220 116 -220 127 0 17 257 131 455 201 406 145 534 206 634 303
61 60 63 64 57 99 -17 87 -67 117 -207 123 -155 7 -310 -22 -729 -138 -251
-69 -315 -77 -682 -85 -423 -10 -549 -29 -713 -110 -159 -79 -316 -213 -492
-422 -108 -128 -64 -108 -381 -169 -963 -182 -1645 -224 -2397 -149 -204 21
-475 61 -1020 149 -449 73 -949 148 -1230 183 -116 15 -222 18 -625 18 l-485
0 -65 34 c-319 165 -993 697 -1689 1329 l-204 186 29 24 c94 80 244 217 244
222 0 13 -296 267 -870 745 -575 480 -795 674 -1084 955 -220 215 -328 348
-576 710 -272 396 -367 516 -541 685 -285 276 -561 394 -1284 550 -450 97
-580 134 -744 211 -101 47 -213 122 -236 157 -7 12 -25 99 -39 192 -14 94 -34
221 -43 284 -15 97 -21 118 -43 138 -14 13 -99 74 -190 135 -467 316 -648 478
-696 621 -14 43 -14 51 1 96 32 96 118 168 245 205 67 19 254 36 410 36 293 0
460 52 546 169 84 115 100 305 48 563 l-15 77 59 103 c68 118 84 161 107 282
19 103 33 354 27 487 l-4 96 87 47 c241 128 365 245 365 346 0 75 -40 129
-215 284 -232 207 -320 324 -374 500 -49 158 -38 290 48 578 66 220 81 305 81
452 0 132 -9 200 -42 314 -12 40 -19 75 -16 77 3 3 83 25 179 49 191 48 266
74 378 131 75 37 181 126 181 151 0 8 -1 14 -3 14 -26 0 -300 55 -348 70 -103
31 -103 35 26 205 33 44 69 99 79 123 26 59 15 69 -60 53 -32 -6 -64 -11 -71
-11 -43 0 -55 159 -28 395 8 72 15 144 15 161 l0 31 -115 6 c-200 11 -438 76
-702 193 -69 30 -299 142 -511 248 -610 303 -851 394 -1209 457 -115 20 -421
33 -518 23z m-3765 -16197 c459 -1150 687 -1631 967 -2036 144 -209 344 -425
471 -511 28 -19 52 -38 52 -42 0 -4 -34 -67 -75 -140 -481 -847 -550 -1413
-231 -1908 88 -136 256 -316 400 -427 l29 -23 -81 -172 c-153 -331 -242 -582
-284 -806 -33 -176 -31 -467 5 -732 68 -495 114 -886 105 -895 -5 -5 -130 94
-181 143 -86 82 -157 215 -190 357 -31 129 -37 199 -47 495 -11 326 -22 445
-51 559 -55 208 -185 371 -345 430 -113 43 -208 55 -419 55 -269 0 -457 -22
-988 -116 -158 -28 -290 -48 -293 -45 -3 3 22 193 55 424 33 230 115 803 181
1273 293 2073 437 2969 662 4113 67 337 85 415 94 402 7 -9 81 -188 164 -398z
m-1055 -581 c-47 -327 -128 -746 -386 -2006 -460 -2242 -596 -2991 -625 -3437
l-7 -101 -141 -63 c-341 -150 -1003 -463 -1133 -536 l-63 -35 0 110 c0 284
126 697 385 1267 90 199 373 767 570 1145 710 1364 817 1656 915 2500 17 146
40 321 51 390 63 388 183 685 396 982 l58 81 3 -60 c2 -33 -9 -140 -23 -237z"/>
<path d="M27981 45629 c-300 -12 -666 -57 -962 -117 l-134 -27 3 -30 c5 -40
31 -83 65 -109 24 -18 41 -21 110 -19 45 0 135 8 200 17 151 20 347 19 452 -2
l80 -17 28 -80 c55 -158 43 -239 -41 -280 -34 -16 -42 -26 -47 -57 -8 -48 -1
-70 47 -145 52 -81 57 -120 25 -203 -54 -143 -44 -196 45 -254 60 -39 93 -71
102 -103 10 -32 -12 -175 -40 -262 -13 -42 -24 -91 -24 -108 0 -58 74 -125
364 -327 l140 -97 89 88 c49 48 109 116 134 151 48 66 92 176 93 228 0 40 8
46 105 74 110 31 277 107 362 163 95 63 227 204 283 302 51 90 99 205 131 317
l22 76 -39 94 c-30 73 -39 106 -39 152 0 57 1 60 35 80 31 19 51 21 180 20
161 0 241 -13 435 -70 471 -138 1196 -522 1620 -858 193 -153 347 -319 389
-420 16 -39 21 -101 10 -130 -15 -39 -117 -5 -172 59 -37 42 -60 85 -102 192
-17 43 -43 97 -56 121 l-25 42 -102 0 c-242 0 -424 -34 -615 -115 l-110 -46
-45 -78 c-25 -43 -84 -119 -135 -173 -56 -59 -94 -109 -102 -133 -15 -47 -9
-118 20 -214 19 -66 25 -75 65 -99 24 -15 90 -55 147 -90 57 -35 125 -79 151
-98 l48 -35 -17 -27 c-39 -60 -117 -140 -293 -302 -102 -94 -210 -198 -240
-231 -171 -192 -216 -345 -146 -497 34 -74 56 -81 279 -93 100 -5 189 -10 199
-10 28 0 95 43 164 106 l62 56 43 -25 c24 -13 95 -46 158 -71 270 -110 336
-163 431 -347 35 -68 77 -137 93 -156 16 -18 75 -64 132 -103 115 -79 167
-130 196 -197 32 -72 13 -163 -55 -254 -18 -25 -27 -28 -76 -28 -37 0 -89 12
-151 33 l-95 32 -58 120 c-62 127 -111 196 -155 219 -15 8 -54 19 -86 25 -33
6 -70 18 -82 26 -37 24 -91 84 -130 144 l-37 57 -146 12 c-269 23 -422 67
-806 234 -255 112 -368 158 -383 158 -23 0 38 -250 88 -357 39 -85 74 -133
167 -234 44 -47 83 -98 87 -113 21 -84 -68 -212 -404 -579 -243 -265 -215
-218 -229 -388 -16 -206 -14 -542 4 -664 51 -356 194 -543 466 -610 151 -38
454 -30 733 20 l130 23 105 -65 c149 -91 225 -147 311 -230 l76 -72 27 -178
c15 -98 43 -268 62 -378 19 -110 35 -227 35 -260 0 -153 -53 -268 -286 -617
-90 -136 -164 -252 -164 -259 0 -7 16 -82 35 -168 46 -209 74 -406 82 -578 l6
-141 -56 -68 c-60 -72 -71 -108 -37 -119 43 -14 301 48 437 104 198 82 321
178 653 512 173 174 303 296 350 329 65 45 219 130 235 130 10 0 -136 -246
-306 -515 -59 -93 -106 -172 -104 -174 3 -2 35 21 72 51 449 364 776 827 936
1323 32 100 90 335 84 342 -2 1 -33 -46 -69 -105 -301 -487 -464 -559 -462
-202 0 106 3 124 38 225 83 244 220 454 633 972 216 269 267 339 259 351 -3 5
-33 26 -68 47 -186 113 -351 264 -396 363 -28 62 -20 77 33 67 93 -17 123 -17
158 0 46 22 150 131 222 235 31 44 57 80 58 80 1 0 2 -105 3 -233 0 -176 5
-250 17 -306 9 -41 19 -76 22 -80 19 -19 60 146 81 327 13 109 15 198 11 432
-17 893 -208 1690 -582 2425 -369 727 -889 1347 -1551 1852 -710 541 -1575
927 -2484 1107 -332 66 -623 100 -991 116 -244 11 -248 11 -518 -1z m3608
-2077 c70 -57 124 -90 185 -115 28 -11 55 -23 59 -27 4 -4 -32 -32 -81 -63
-49 -32 -109 -75 -132 -98 -46 -44 -44 -31 -24 -158 7 -44 -9 -81 -57 -136
l-31 -35 -124 0 -124 0 41 53 c43 54 78 120 79 148 0 9 -20 25 -49 39 -72 33
-71 50 4 110 103 82 139 148 170 313 6 32 7 32 84 -31z m1773 -2072 c75 -111
156 -286 256 -555 50 -132 93 -249 98 -259 12 -32 -80 37 -167 123 -81 81
-170 209 -213 305 -62 140 -107 345 -106 487 l1 64 40 -45 c22 -25 63 -79 91
-120z m-443 -14 c67 -71 67 -268 0 -561 l-23 -97 -28 6 c-16 3 -76 24 -135 47
-96 38 -113 49 -173 109 -99 98 -178 271 -155 336 17 48 52 64 160 75 121 12
215 38 275 78 25 16 48 30 51 30 3 1 16 -10 28 -23z"/>
<path d="M27270 45260 c-59 -7 -148 -34 -267 -81 -118 -47 -370 -61 -518 -29
-34 8 -53 3 -143 -32 -127 -49 -287 -131 -447 -228 -85 -51 -145 -80 -205 -97
-47 -14 -100 -34 -119 -45 -41 -26 -71 -73 -71 -115 0 -34 4 -36 75 -48 60 -9
93 -24 98 -46 7 -25 3 -26 -84 -40 -73 -11 -277 -6 -364 9 l-39 7 194 171
c216 190 494 454 486 462 -3 2 -83 -34 -178 -82 -281 -140 -548 -316 -813
-537 -139 -115 -460 -439 -584 -588 -523 -628 -925 -1378 -1151 -2150 -50
-167 -56 -135 66 -344 89 -150 167 -313 183 -379 14 -60 14 -217 0 -368 -17
-181 8 -292 85 -377 27 -31 54 -47 113 -68 109 -38 207 -92 343 -190 108 -78
229 -145 264 -145 8 0 33 -35 56 -77 54 -100 117 -188 191 -268 114 -122 233
-198 453 -291 82 -35 160 -74 173 -86 41 -39 31 -78 -46 -168 -35 -41 -56 -80
-81 -150 -18 -52 -57 -156 -87 -230 -29 -74 -53 -143 -53 -152 0 -27 72 -185
128 -279 110 -186 216 -312 547 -649 259 -264 345 -359 444 -493 116 -157 122
-171 210 -517 145 -572 244 -800 426 -982 135 -134 349 -208 419 -143 50 46
31 134 -53 244 l-41 55 0 110 c0 148 16 279 39 324 22 43 50 61 144 92 85 28
170 84 240 160 67 71 88 124 116 286 12 66 32 141 46 170 37 77 168 225 315
359 186 169 254 244 298 333 33 67 37 86 41 164 4 111 -23 206 -102 352 l-53
100 -165 56 c-208 72 -292 106 -427 174 -144 72 -274 161 -343 233 -49 51 -58
67 -69 119 -19 97 -29 121 -66 154 -51 45 -147 89 -353 165 -296 108 -272 94
-339 215 l-57 104 -160 61 c-88 33 -197 78 -241 99 l-82 38 -203 -4 c-187 -4
-210 -6 -274 -29 l-71 -25 -69 21 c-262 80 -457 269 -457 444 0 86 38 144 122
187 69 35 267 29 384 -12 66 -24 199 -119 298 -214 120 -116 143 -124 355
-125 141 0 153 2 167 20 13 18 12 23 -13 57 -93 126 -330 219 -628 248 l-94 9
-120 80 c-66 45 -152 97 -191 117 l-71 36 -65 -17 c-35 -8 -101 -19 -145 -22
l-81 -6 -87 -84 c-47 -45 -94 -83 -103 -83 -42 0 -164 90 -258 191 l-28 29 0
190 c0 144 3 192 13 194 6 2 50 13 97 24 100 23 200 69 322 146 48 31 91 56
95 56 4 0 58 -51 120 -112 l113 -113 37 20 c78 42 304 196 458 312 465 351
849 737 1078 1083 71 108 155 265 177 333 l12 38 66 -96 c78 -115 149 -191
188 -201 39 -10 128 10 181 42 88 51 114 168 74 325 -39 151 -140 347 -262
509 l-62 82 32 67 c18 36 57 102 85 146 132 202 274 306 507 370 52 14 118 35
146 47 53 20 133 89 133 113 0 29 -13 45 -36 45 -83 0 -156 70 -299 286 -83
125 -139 197 -201 259 l-85 85 30 43 c44 64 132 147 200 188 34 20 120 56 191
80 79 26 130 48 130 56 0 7 -9 36 -19 63 -48 127 -136 177 -281 160z m-598
-1225 c64 -92 94 -239 84 -420 -3 -66 -9 -140 -12 -163 l-7 -44 -56 7 c-133
17 -264 85 -400 209 -39 36 -75 66 -80 66 -30 0 -51 -126 -51 -320 0 -82 -4
-111 -17 -130 -29 -42 -235 -294 -256 -312 -47 -43 -147 -9 -236 79 -95 95
-138 216 -117 327 16 84 141 174 279 199 59 10 67 15 154 98 192 182 601 457
667 447 11 -2 33 -21 48 -43z"/>
<path d="M29776 43604 c-9 -24 -7 -105 4 -144 28 -101 136 -174 302 -204 36
-7 37 -6 47 31 31 112 -4 219 -92 279 -72 49 -247 74 -261 38z"/>
<path d="M30352 42991 c-125 -46 -224 -128 -272 -224 -39 -79 -42 -171 -7
-237 27 -52 90 -90 148 -90 33 0 48 9 104 60 78 70 154 118 246 155 l66 26 7
105 c7 116 -2 170 -35 200 -32 29 -184 31 -257 5z"/>
</g>
</svg>
