<?xml version="1.0" encoding="UTF-8" standalone="no"?>
<!-- Created with Inkscape (http://www.inkscape.org/) -->

<svg
   version="1.1"
   id="svg2"
   width="5333.3335"
   height="5334.6665"
   viewBox="0 0 5333.3335 5334.6665"
   sodipodi:docname="vecteezy_a-silhouette-of-a-official-man-walking-with-a-official_48859013.eps"
   xmlns:inkscape="http://www.inkscape.org/namespaces/inkscape"
   xmlns:sodipodi="http://sodipodi.sourceforge.net/DTD/sodipodi-0.dtd"
   xmlns="http://www.w3.org/2000/svg"
   xmlns:svg="http://www.w3.org/2000/svg">
  <defs
     id="defs6" />
  <sodipodi:namedview
     id="namedview4"
     pagecolor="#ffffff"
     bordercolor="#000000"
     borderopacity="0.25"
     inkscape:showpageshadow="2"
     inkscape:pageopacity="0.0"
     inkscape:pagecheckerboard="0"
     inkscape:deskcolor="#d1d1d1" />
  <g
     id="g8"
     inkscape:groupmode="layer"
     inkscape:label="ink_ext_XXXXXX"
     transform="matrix(1.3333333,0,0,-1.3333333,0,5334.6667)">
    <g
       id="g10"
       transform="scale(0.1)">
      <path
         d="M 39995,5 H 5 V 40005 H 39995 V 5"
         style="fill:#ffffff;fill-opacity:1;fill-rule:nonzero;stroke:none"
         id="path12" />
      <path
         d="M 39995,5 H 5 v 40000 h 39990 z"
         style="fill:none;stroke:#100f0d;stroke-width:10;stroke-linecap:butt;stroke-linejoin:miter;stroke-miterlimit:10;stroke-dasharray:none;stroke-opacity:1"
         id="path14" />
      <path
         d="m 25842.3,18540.2 c -37.2,147.6 -75.7,303.3 -116.2,458.8 -10.1,39.5 -35.6,22.7 -58.3,10.5 -74.9,-40.3 -155.9,-52 -240.3,-54.6 -221.1,-6.9 -434.1,44.5 -648.9,84.6 -44.9,8.3 -99.8,61.7 -126.5,28.9 -26.3,-32.4 17,-91.7 33.4,-137.7 30.2,-84 62.6,-175.7 158.1,-200.8 315.6,-83.6 633.5,-159.5 950.3,-238.7 35.3,-8.7 54.3,0.8 48.4,49 z m -9004.6,7257 c -555.7,-598.3 -792.6,-1311.5 -915.6,-2074.1 444.7,622.9 724.1,1317.9 915.6,2074.1 z M 21269.7,6707 c -57.3,11.1 -99,-9.6 -142.1,-15.2 -94.4,-12.6 -118.5,2.2 -146.2,101.4 -96,341.9 -190.3,684.5 -287.9,1026 -290.3,1016.8 -583.1,2032.9 -872.8,3049.8 -122.9,431.4 -188.3,872.2 -206.9,1320.8 -8.1,193.6 -9.9,387.3 -15.8,580.3 -35.8,8.7 -50.8,-15.2 -69,-30 -595.2,-491 -1191.7,-980.5 -1784.7,-1474.5 -676,-563.2 -1348.7,-1130.3 -2022.3,-1696.3 -225.1,-189.3 -448,-381.5 -672.9,-571.2 -105.5,-88.8 -150.9,-79.3 -220.9,41.5 -45.6,78.6 -90.1,157.5 -135.9,237.5 -30.7,-19.6 -28.5,-46.8 -34.6,-69.6 -115.2,-420.7 -205.1,-846.7 -259.1,-1279.9 -7.3,-58.8 8.9,-109.6 33.8,-160 80,-162.8 186.2,-308.5 295,-452.7 30.1,-39.9 60.9,-79.3 88.8,-120.6 90.9,-134.5 89.9,-236.5 -1.6,-369.1 -62.3,-90.5 -144.9,-164.6 -193.3,-268.1 -34.6,-74.3 -114,-77.7 -194.4,-22.8 -151.6,103.6 -288.1,226.3 -424.5,348.4 -296.4,265 -577.4,544.6 -811.5,868.3 -177.9,246.4 -270.6,519.9 -268.6,824.6 1,152.7 0.8,305.3 2.8,458 1.4,90.3 -15.4,176.1 -48.6,259.9 -18.8,47.6 -41.7,87.5 -86,117.8 -65.8,45.2 -103.7,115.8 -139.5,184.5 -144,277.3 -245.4,570.7 -318.7,874 -30.7,127.9 -1,181.4 127.6,216.4 153,41.7 291.3,104.9 427.4,190.1 229.9,144.1 489.5,188.1 760.6,144.1 13.1,-2.2 26.5,-2.8 48.8,-5.2 -23.3,52 -44.4,95.9 -62.6,141.1 -31.2,76.5 -13.4,135.8 54.1,189.3 526.6,417 1049.9,838.6 1556.4,1279.9 391.6,340.9 778.1,687.1 1171.2,1026.1 315.7,272 653.4,516.4 986.6,765.8 11.1,8.3 22.1,18.3 34.8,22.7 112.4,41.7 210.4,96.2 269.5,210.8 26.9,52.4 94.5,64.3 154.7,67.4 117.6,6.1 176.3,93.9 240.7,173.5 6.1,7.7 8.9,21 7.7,31 -25.3,211.9 66,366.2 239.7,475.9 42.3,26.8 64.4,56.1 67,105.3 22.7,421.3 137.9,819.3 308.5,1202.8 25.7,58.1 26.8,108.9 4.3,167.2 -350.3,909 -699.5,1818.5 -1048.3,2728.1 -15,38.9 -26.8,69 -81,58.5 -253.1,-48.8 -474.2,42.9 -672.8,182 -432,302.5 -854.7,618.3 -1284.7,923.6 -150.9,107.1 -199.3,240.9 -162.4,418.1 72.3,347.6 142.9,695.6 181,1049.3 3.8,35.6 6.9,71.1 -0.8,108.5 -44.6,-210.7 -86.9,-422.1 -133.8,-632.3 -64.2,-287 -132.5,-573.1 -173.4,-864.8 -4.8,-35.1 -10.3,-77.4 -31.7,-101.7 -58.3,-65 -32.6,-117.2 5.4,-177.5 214.4,-339.3 317.9,-718.5 392.8,-1107.5 4.9,-24.2 9.7,-51.6 3.2,-74.2 -35.6,-123.5 -10.3,-248.1 -10.3,-372 0,-183 -148.2,-269.8 -312.6,-182.4 -69,36.9 -113.4,96.2 -147,165 -62.9,128 -70.4,266.9 -82.2,405.1 -4.4,52.1 4.5,105.5 -18,156.9 -30.1,-161.9 -4.4,-644 39.5,-796.4 29.4,-101 95,-174.3 173.3,-238.5 52,-42.7 98.2,-90.3 130.4,-149.8 74.7,-137.1 -5.7,-276 -162.8,-281 -97.2,-3.1 -177.9,39.4 -250,98.6 -39.3,32.6 -75.5,43.7 -128.4,30.5 -129.5,-32.2 -247.6,16.4 -357.9,76.6 -57.7,31.3 -114.6,52.6 -179.2,59.1 -136.6,13.5 -245.8,68.4 -294.6,206.7 -11.7,33.6 -39.4,43.3 -66.2,57.7 -139.7,74.9 -215,190.3 -239.9,348.2 -63.5,403.7 -30.7,802.3 64.4,1195.5 35.8,148.2 -32.6,266.6 -61.5,397.4 -6.5,29.6 -36.1,31.4 -59,39.7 -105.6,38.3 -133.4,71.9 -123.2,185.9 26.1,295.5 55.6,590.9 87.4,886.1 60.3,562.6 129,1124.4 213,1684 97.8,652.9 176.1,1309.1 329.4,1952.7 64.6,271.5 161.5,530.8 283.6,780.9 236.1,483.8 454.1,976.4 710,1450.8 149.2,276.3 340.8,523.5 564.3,738.7 202,194.6 276.5,426.6 292.7,689.8 27.4,439.7 197.2,820.9 466.3,1163.5 75.9,96.8 159.9,170 294.1,150.2 12.8,-2 27.6,3.2 40.1,8.5 439.4,181.2 900.8,276.8 1367,354.3 58.1,9.7 110.7,31.2 160.1,65.6 189.1,131.6 402.5,212.4 620,280 128.7,39.9 217,117.4 280,231.4 77.3,139.5 186.4,249.8 324.7,326.5 72.1,39.7 114.8,90.8 129.8,170.3 8.1,43.3 21.8,85.9 33.6,128.8 9.3,34.2 13.7,61.9 -31.2,79.1 -54.7,20.9 -65.2,71.3 -43.1,118.1 99.2,210.7 25.5,390.5 -84.7,571.5 -128.3,211.2 -245.9,428.4 -291.9,676.6 -63.8,344.8 -12.3,679.8 79.4,1011.5 52,187.8 121.6,369 223.7,536.5 124.7,204.6 285.6,347 545.8,320.6 34,-3.4 49.8,19.9 66.2,42 209.3,281 496.4,353 822.2,287.7 512,-102.7 1014.1,-244.4 1505.8,-420.2 139.1,-49.5 268.1,-122 370.9,-232.6 59.5,-63.9 106.5,-135.8 124.1,-222.7 34.4,-168 -34,-295.7 -216.6,-386.5 -56.7,-28.1 -66.6,-51.6 -49.6,-112.3 63.4,-227.6 96.4,-461.2 120.1,-696 8.1,-80.2 -10.4,-149.7 -81,-196.6 -35.5,-23.7 -30,-54.5 -23.3,-88.7 22.7,-118.4 75.7,-225.7 120.5,-336.3 29.3,-71.9 60.5,-143.3 84.4,-217 48.6,-148.2 9.9,-245.8 -139.1,-294.2 -102.5,-33.4 -127.4,-85.8 -113.6,-181.8 9.5,-65.6 14.4,-134.6 -54.7,-179.6 -16.7,-10.9 -13.5,-28.9 -3.8,-44.5 44.7,-72.7 16.8,-135.2 -33.2,-188.5 -37.2,-39.7 -40.5,-78.3 -31.8,-128.9 51,-300.5 -106.5,-488.2 -413,-498.3 -134.2,-4.2 -266.4,10.7 -396.2,41.7 -56.7,13.6 -73.5,-6.1 -95.4,-56.3 -77.1,-176.1 -46.5,-306.9 121.3,-416.8 112.6,-73.7 205.7,-177.4 306.5,-268.7 37.9,-34.4 81.8,-55.4 129.6,-72.3 217.2,-76.3 433.3,-156.2 647.9,-239.9 412.8,-160.5 605.1,-482.6 672.7,-899.1 28.6,-176.5 20.9,-354.9 16.6,-532 -13.1,-554.1 36.5,-1102.2 122.9,-1649.4 73.3,-464.4 72.3,-933.9 55.7,-1403.6 -4.7,-132.2 47.6,-264.2 124.1,-372.8 106.9,-151.4 164.6,-312.9 163.2,-496.8 -0.4,-34.2 4.2,-65.2 26.3,-93.7 307.7,-399.5 502.1,-853.2 647.6,-1332.6 203.5,-670.1 471.4,-1316.7 733.7,-1965.2 57.1,-141.5 113,-283.8 166.9,-426.6 24,-63.5 59.3,-126.7 23.2,-199.6 -12.5,-24.9 10.2,-47.4 22.3,-68.4 92.5,-158.1 182,-318.1 280.2,-472.7 99,-156.5 141.5,-324.8 128.2,-507.4 -15,-205.1 5.8,-411.8 -15.2,-615.5 -12.6,-120.2 18.2,-214 83,-308.5 75.3,-109.7 144.7,-223.7 212.8,-338.3 25.7,-43.7 63.3,-58.7 107.3,-69.2 234.8,-55.7 469.9,-111.2 704.5,-168.1 51,-12.3 101.6,-27.9 151.4,-44.9 200.7,-67.6 266.9,-179.4 248.7,-390.2 -33.1,-375.7 -59,-752.1 -89.9,-1128 -41.5,-506 -85.7,-1011.7 -127.2,-1517.6 -30.8,-376 -59.1,-752.2 -88.5,-1128.3 -12.5,-163.2 -23,-326.6 -38,-489.7 -12,-131 -104.7,-207.6 -233.6,-175.2 -104.1,26.4 -192.4,21.7 -284.1,-34.2 -59.7,-36.4 -128.1,-25.5 -193.9,-5.2 -506.4,157.1 -1013.5,311.1 -1519.1,470.3 -735.9,231.6 -1470.6,466.8 -2205.9,700.4 -139.3,44.4 -154.9,62 -147.4,207.6 31.2,595.6 65.2,1191 97,1786.6 18.8,354.7 34.6,709.4 53.2,1064.1 22.1,423.8 45.8,847.7 68.7,1271.4 7.5,139.7 84.2,224.8 212.1,268.3 181.4,61.1 367.1,100 555,39.5 114.8,-36.9 238.3,-18.2 349.6,-66.8 30.8,-13.6 38.9,13.3 46.8,32.6 108.3,261.1 264,493.9 432.2,718.9 22.3,29.7 21.7,51.6 2,81.4 -65,98.3 -111.3,204.6 -130.8,321.7 -3.8,22.2 -6.6,47.7 -34,50.8 -87.4,10.1 -115,78.7 -144.9,144.7 -153.1,338.9 -298.6,681.5 -460.2,1016.4 -157.9,327.5 -331.6,647.2 -499,969.9 -9.2,17.6 -13.4,49.6 -44,38.3 -26.9,-9.7 -28.5,-38.5 -29.9,-63.8 -11.2,-199.4 -19.3,-399 -33.7,-598.3 -40,-561.6 -73.4,-1124.6 -214.8,-1673.2 -43.1,-166.7 -89,-333.1 -190.7,-476.8 -88,-124.3 -200.6,-208.3 -360.3,-203.3 -60,1.8 -67,-36.2 -75.3,-78.1 -128.6,-651.5 -316.3,-1287.8 -495.7,-1926.6 -44.9,-160.1 -92.3,-320.1 -142.7,-478.6 -21,-66 -21.9,-129 -8.9,-196.2 118.6,-610.4 221.1,-1223.4 267,-1844.1 15,-202.1 32,-409.2 -29.1,-604.4 -62.8,-199.8 -36.5,-391.5 -7.9,-589.9 127.5,-881.3 255.5,-1762.6 344.2,-2649.1 60.7,-604.4 115.2,-1209.7 183.4,-1813.2 24.3,-215 110.7,-417.7 173.3,-624.8 130.4,-430.2 267.2,-858.6 400,-1288.2 36.7,-118.4 31.4,-131.8 -80.3,-188.5 -69.5,-35 -21.7,-59.7 4.2,-82.8 180.6,-160.7 366.7,-314.4 560.8,-458.3 71.9,-53.1 157.3,-92.4 187.1,-192.2 8.7,-29.9 59.7,-46.3 88.9,-71.4 331.4,-285.7 724.7,-382.5 1151.1,-382.3 121.9,0 244,-5 365.9,-12.7 161.3,-10.4 263.8,-89.1 317.6,-237.5 17,-46.8 37,-86.1 77.7,-122.1 52.5,-46.4 64.8,-122.5 69.9,-191.1 3.4,-46.2 -47.8,-56.9 -81.4,-72.7 -284.4,-133.6 -578.6,-241.9 -879.5,-332 -494.8,-148.4 -996,-269.9 -1507.2,-346.6 -289.3,-43.3 -580.5,-52.9 -872,-39.5 -275.5,12.6 -494,135 -658.8,354.3 -28.3,37.9 -50.8,63 -97.2,20 -35,-31.9 -81.6,-27.7 -126.9,-19.2 -144.6,27.3 -289.3,52.6 -433.9,79.4 -121.6,22 -152,54.6 -148.2,178.3 8.5,280.2 -21.4,560.8 13.4,840.4 23.1,185.5 67.8,365.7 139.7,538.2 32.8,78.9 69.6,156.4 147.4,215.2 l 0.4,-0.2"
         style="fill:#100f0d;fill-opacity:1;fill-rule:nonzero;stroke:none"
         id="path16" />
    </g>
  </g>
</svg>
