<svg width="645" height="485" viewBox="0 0 645 485" fill="none" xmlns="http://www.w3.org/2000/svg">
<path d="M307 49L25 133.5H8V110L307 3M307 49V3M307 49L623.5 81.1224M307 3L642 49V83L623.5 81.1224M623.5 81.1224C628.167 115.082 634.7 189.3 623.5 214.5M547 211.5L551.5 247H623.5M547 211.5L632.5 220V247H623.5M547 211.5L542 199.5H521V211.5C523 212.5 528.8 215.6 536 220C541.5 220 539.5 227 536 234C532.5 241 521.33 233 518.5 230C516.236 227.6 517.557 222.333 518.5 220M623.5 247C626.667 281.5 631.1 356.3 623.5 379.5C615.9 402.7 584 412.167 569 414L551.5 252.5M569 451.5C564.167 456.5 553 465 547 459C541 453 493.167 440.5 470 435L542 421L521 230" stroke="#fff" stroke-width="5"/>
<path d="M463.5 223C466 223 462.5 227.5 479 215C495.5 202.5 499 197.5 507.5 199.5C514.3 201.1 519 202.5 520.5 203M516.5 220.5C514 215 512.5 202 504.5 208.5C496.5 215 494.5 223.5 479 228" stroke="#fff" stroke-width="5"/>
<path d="M480.5 227.5C476 229.333 466.5 232.8 464.5 232C462.5 231.2 446 367 438 435C436.833 436.667 438.1 439.5 452.5 437.5" stroke="#fff"  stroke-width="5"/>
<path d="M438 439V476C436.167 478 431 482 425 482C417.5 482 80 347 72.5 338M409 444.5L438 200.5H465.5V216.5M465.5 224V216.5M475.5 216.5H465.5" stroke="#fff" stroke-width="5"/>
<path d="M435 218H312.5C309 218.5 301.3 220.4 298.5 224M298.5 224C295 228.5 292.5 249.5 302.5 252.5C310.5 254.9 391.833 253.5 431.5 252.5M298.5 224C207.833 222 25.4626 218 21.3131 218M312.5 256.5C308.667 310.667 304.7 419.8 319.5 423M319.5 423C328.833 434 359.6 453.5 408 443.5M319.5 423L81.5 335C79.6667 332.833 74.5 328.3 68.5 327.5C61 326.5 50.5 324.5 46 324.5C41.5 324.5 26 321 26.5 316C27 311 12 298 26.5 237L20.5 229C20.5 226.236 20.6962 221.728 21.3131 218M23.5 135.5C20.5 154.333 15.6999 193.2 20.5 198C26.5 204 26.5 209.5 23.5 212C22.4725 212.856 21.7749 215.209 21.3131 218" stroke="#fff" stroke-width="5"/>
<path d="M24 225.5L294 237M24 233L294 249M8 128H3.5V148L11 150V183L3.5 187V202.5L11 206.5V242.5L5.5 245.5V259.5H11L14.5 297H3.5L8 314H14.5V329.5L24 334.5C24.6667 342.5 27.7 357.4 34.5 353C41.3 348.6 52.3333 346.5 57 346L61.5 329.5M70.5 340.5L75 329.5M451 437H473" stroke="#fff" stroke-width="5"/>
<path d="M315.5 52C310 101.167 301.6 202.8 312 216M565 454V417.5L583.5 409.5" stroke="#fff" stroke-width="5"/>
</svg>
